<svg width="20" height="20" viewBox="0 0 20 20" fill="none" xmlns="http://www.w3.org/2000/svg">
    <path d="M14.9277 9.46814C14.9391 9.90814 14.7769 10.3518 14.4411 10.6876L10.1402 14.9884C9.49068 15.638 8.43756 15.638 7.78801 14.9884L3.48716 10.6876C3.15136 10.3518 2.98916 9.90814 3.00056 9.46814M14.9277 9.46814C14.918 9.09393 14.7827 8.72237 14.5219 8.42206C14.4918 8.3558 14.4495 8.29373 14.395 8.23924L9.03979 2.88404M14.9277 9.46814H3.00056M3.00056 9.46814C3.01121 9.05703 3.17341 8.64912 3.48716 8.33537C3.59774 8.22479 9.03979 2.88404 9.03979 2.88404M9.03979 2.88404L8.15771 2.00195M3.8421 18.002H12.6842M16.2913 12.6634C16.2389 12.5807 16.1492 12.5282 16.052 12.5282C15.9549 12.5282 15.8652 12.5808 15.8128 12.6634C15.6259 12.9714 15.0205 14.0232 15.0205 14.4814C15.0205 15.0524 15.4839 15.5182 16.052 15.5182C16.6201 15.5182 17.0836 15.0524 17.0836 14.4814C17.0836 14.0157 16.4782 12.9714 16.2913 12.6634Z" stroke="black" stroke-width="1.5" stroke-linecap="round" stroke-linejoin="round"/>
</svg>
