<svg width="16" height="16" viewBox="0 0 16 16" fill="none" xmlns="http://www.w3.org/2000/svg">
    <path d="M11.942 7.57451C11.9512 7.92651 11.8214 8.28143 11.5528 8.55007L8.11209 11.9907C7.59245 12.5104 6.74995 12.5104 6.23031 11.9907L2.78963 8.55007C2.52099 8.28143 2.39123 7.92651 2.40035 7.57451M11.942 7.57451C11.9343 7.27515 11.8261 6.9779 11.6174 6.73765C11.5933 6.68464 11.5595 6.63499 11.5159 6.59139L7.23174 2.30723M11.942 7.57451H2.40035M2.40035 7.57451C2.40887 7.24563 2.53863 6.91929 2.78963 6.66829C2.87809 6.57983 7.23174 2.30723 7.23174 2.30723M7.23174 2.30723L6.52607 1.60156M3.07358 14.4016H10.1472M13.0329 10.1307C12.991 10.0646 12.9193 10.0225 12.8415 10.0225C12.7638 10.0225 12.692 10.0646 12.6502 10.1307C12.5007 10.3771 12.0163 11.2185 12.0163 11.5852C12.0163 12.0419 12.387 12.4146 12.8415 12.4146C13.296 12.4146 13.6668 12.042 13.6668 11.5852C13.6668 11.2125 13.1824 10.3771 13.0329 10.1307Z" stroke="black" stroke-width="1.2" stroke-linecap="round" stroke-linejoin="round"/>
</svg>
