<svg width="12" height="12" viewBox="0 0 12 12" fill="none" xmlns="http://www.w3.org/2000/svg">
    <path d="M8.95641 5.68284C8.96325 5.94684 8.86593 6.21303 8.66445 6.41451L6.08394 8.99501C5.69422 9.38474 5.06234 9.38474 4.67261 8.99501L2.0921 6.41451C1.89062 6.21303 1.7933 5.94684 1.80014 5.68284M8.95641 5.68284C8.9506 5.45831 8.86944 5.23538 8.71295 5.05519C8.69488 5.01544 8.6695 4.97819 8.6368 4.94549L5.42368 1.73238M8.95641 5.68284H1.80014M1.80014 5.68284C1.80653 5.43617 1.90385 5.19142 2.0921 5.00317C2.15845 4.93683 5.42368 1.73238 5.42368 1.73238M5.42368 1.73238L4.89443 1.20312M2.30507 10.8031H7.61031M9.77457 7.59997C9.74316 7.55038 9.68935 7.51884 9.63103 7.51884C9.57272 7.51884 9.51891 7.55041 9.4875 7.59997C9.37537 7.78479 9.01209 8.41585 9.01209 8.69082C9.01209 9.0334 9.29015 9.31289 9.63103 9.31289C9.97189 9.31289 10.25 9.03342 10.25 8.69082C10.25 8.41135 9.8867 7.78478 9.77457 7.59997Z" stroke="black" stroke-linecap="round" stroke-linejoin="round"/>
</svg>
