<svg width="24" height="24" viewBox="0 0 24 24" fill="none" xmlns="http://www.w3.org/2000/svg">
    <path d="M14.8004 2V5.6C14.8004 6.26274 15.3376 6.8 16.0004 6.8H19.6004M17.8004 3.8C17.2663 3.32214 16.7121 2.75538 16.3622 2.38728C16.1294 2.14233 15.8077 2 15.4698 2H6.40009C5.07462 2 4.0001 3.07451 4.00009 4.39999L4 18.7999C3.99999 20.1254 5.0745 21.1999 6.39999 21.1999L17.2 21.2C18.5255 21.2 19.6 20.1255 19.6 18.8L19.6004 6.07783C19.6004 5.77099 19.4833 5.47603 19.2704 5.25513C18.8766 4.84665 18.219 4.17452 17.8004 3.8Z" stroke="black" stroke-width="1.8" stroke-linecap="round" stroke-linejoin="round"/>
    <path d="M7.248 13.828H8.154C8.49 13.828 8.742 13.618 8.742 13.288C8.742 12.952 8.49 12.748 8.154 12.748H7.248V13.828Z" fill="#23B5E2"/>
    <path fill-rule="evenodd" clip-rule="evenodd" d="M4 9C2.89543 9 2 9.89543 2 11V16C2 17.1046 2.89543 18 4 18H20.5V9H4ZM7.248 14.578V16H6.396V11.998H8.268C9.138 11.998 9.612 12.586 9.612 13.288C9.612 13.984 9.132 14.578 8.268 14.578H7.248ZM13.7221 11.998V16H12.9001L10.9921 13.39V16H10.1401V11.998H11.0161L12.8701 14.512V11.998H13.7221ZM18.1532 15.322C17.7452 15.778 17.1752 16.078 16.4492 16.078C15.2792 16.078 14.3192 15.262 14.3192 14.002C14.3192 12.736 15.2792 11.932 16.4492 11.932C17.2832 11.932 17.8052 12.352 18.1052 12.826L17.3972 13.21C17.2172 12.928 16.8752 12.688 16.4492 12.688C15.7232 12.688 15.1952 13.246 15.1952 14.002C15.1952 14.758 15.7232 15.316 16.4492 15.316C16.8032 15.316 17.1392 15.16 17.3012 15.01V14.53H16.2452V13.786H18.1532V15.322Z" fill="#23B5E2"/>
</svg>
