<svg width="20" height="20" viewBox="0 0 20 20" fill="none" xmlns="http://www.w3.org/2000/svg">
    <path d="M12.3338 1.6665V4.6665C12.3338 5.21879 12.7815 5.6665 13.3338 5.6665H16.3338M14.8338 3.1665C14.3887 2.76829 13.9269 2.29599 13.6353 1.98924C13.4413 1.78512 13.1733 1.6665 12.8917 1.6665H5.33357C4.22901 1.6665 3.33358 2.56193 3.33357 3.66649L3.3335 15.6664C3.33349 16.771 4.22892 17.6665 5.33349 17.6665L14.3335 17.6665C15.4381 17.6665 16.3335 16.7711 16.3335 15.6665L16.3338 5.0647C16.3338 4.809 16.2363 4.5632 16.0588 4.37911C15.7306 4.03871 15.1826 3.4786 14.8338 3.1665Z" stroke="black" stroke-width="1.5" stroke-linecap="round" stroke-linejoin="round"/>
    <path d="M6.03984 11.5233H6.79484C7.07484 11.5233 7.28484 11.3483 7.28484 11.0733C7.28484 10.7933 7.07484 10.6233 6.79484 10.6233H6.03984V11.5233Z" fill="#23B5E2"/>
    <path fill-rule="evenodd" clip-rule="evenodd" d="M3.33317 7.5C2.4127 7.5 1.6665 8.24619 1.6665 9.16667V13.3333C1.6665 14.2538 2.4127 15 3.33317 15H17.0832V7.5H3.33317ZM6.03984 12.1483V13.3333H5.32984V9.99833H6.88984C7.61484 9.99833 8.00984 10.4883 8.00984 11.0733C8.00984 11.6533 7.60984 12.1483 6.88984 12.1483H6.03984ZM11.435 9.99833V13.3333H10.75L9.15996 11.1583V13.3333H8.44995V9.99833H9.17996L10.725 12.0933V9.99833H11.435ZM15.1275 12.7683C14.7875 13.1483 14.3125 13.3983 13.7075 13.3983C12.7325 13.3983 11.9325 12.7183 11.9325 11.6683C11.9325 10.6133 12.7325 9.94333 13.7075 9.94333C14.4025 9.94333 14.8375 10.2933 15.0875 10.6883L14.4975 11.0083C14.3475 10.7733 14.0625 10.5733 13.7075 10.5733C13.1025 10.5733 12.6625 11.0383 12.6625 11.6683C12.6625 12.2983 13.1025 12.7633 13.7075 12.7633C14.0025 12.7633 14.2825 12.6333 14.4175 12.5083V12.1083H13.5375V11.4883H15.1275V12.7683Z" fill="#23B5E2"/>
</svg>
