<svg width="12" height="12" viewBox="0 0 12 12" fill="none" xmlns="http://www.w3.org/2000/svg">
    <path d="M7.40019 1V2.8C7.40019 3.13137 7.66882 3.4 8.00019 3.4H9.80019M8.90019 1.9C8.63315 1.66107 8.35605 1.37769 8.18111 1.19364C8.06471 1.07117 7.90387 1 7.7349 1H3.20005C2.53731 1 2.00005 1.53725 2.00005 2.19999L2 9.39997C2 10.0627 2.53725 10.6 3.2 10.6L8.60002 10.6C9.26275 10.6 9.80001 10.0628 9.80002 9.40002L9.80018 3.03892C9.80018 2.8855 9.74166 2.73802 9.63518 2.62757C9.43828 2.42332 9.10948 2.08726 8.90019 1.9Z" stroke="black" stroke-linecap="round" stroke-linejoin="round"/>
    <path d="M3.624 6.914H4.077C4.245 6.914 4.371 6.809 4.371 6.644C4.371 6.476 4.245 6.374 4.077 6.374H3.624V6.914Z" fill="#23B5E2"/>
    <path fill-rule="evenodd" clip-rule="evenodd" d="M2 4.5C1.44772 4.5 1 4.94772 1 5.5V8C1 8.55228 1.44772 9 2 9H10.25V4.5H2ZM3.624 7.289V8H3.198V5.999H4.134C4.569 5.999 4.806 6.293 4.806 6.644C4.806 6.992 4.566 7.289 4.134 7.289H3.624ZM6.86107 5.999V8H6.45007L5.49607 6.695V8H5.07007V5.999H5.50807L6.43507 7.256V5.999H6.86107ZM9.07662 7.661C8.87262 7.889 8.58762 8.039 8.22462 8.039C7.63962 8.039 7.15962 7.631 7.15962 7.001C7.15962 6.368 7.63962 5.966 8.22462 5.966C8.64162 5.966 8.90262 6.176 9.05262 6.413L8.69862 6.605C8.60862 6.464 8.43762 6.344 8.22462 6.344C7.86162 6.344 7.59762 6.623 7.59762 7.001C7.59762 7.379 7.86162 7.658 8.22462 7.658C8.40162 7.658 8.56962 7.58 8.65062 7.505V7.265H8.12262V6.893H9.07662V7.661Z" fill="#23B5E2"/>
</svg>
