<svg width="32" height="32" viewBox="0 0 32 32" fill="none" xmlns="http://www.w3.org/2000/svg">
    <path d="M19.734 2.6665V7.4665C19.734 8.35016 20.4503 9.0665 21.334 9.0665H26.134M23.734 5.0665C23.0219 4.42936 22.283 3.67367 21.8165 3.18288C21.506 2.85628 21.0771 2.6665 20.6266 2.6665H8.53362C6.76632 2.6665 5.33363 4.09918 5.33362 5.86649L5.3335 25.0664C5.33348 26.8337 6.76617 28.2664 8.53348 28.2664L22.9335 28.2665C24.7008 28.2665 26.1335 26.8339 26.1336 25.0666L26.134 8.10361C26.134 7.69449 25.9779 7.30122 25.694 7.00668C25.1689 6.46203 24.2921 5.56586 23.734 5.0665Z" stroke="black" stroke-width="2.4" stroke-linecap="round" stroke-linejoin="round"/>
    <path d="M9.66384 17.4373H10.8718C11.3198 17.4373 11.6558 17.1573 11.6558 16.7173C11.6558 16.2693 11.3198 15.9973 10.8718 15.9973H9.66384V17.4373Z" fill="#23B5E2"/>
    <path fill-rule="evenodd" clip-rule="evenodd" d="M5.33317 12C3.86041 12 2.6665 13.1939 2.6665 14.6667V21.3333C2.6665 22.8061 3.86041 24 5.33317 24H27.3332V12H5.33317ZM9.66384 18.4373V20.3333H8.52784V14.9973H11.0238C12.1838 14.9973 12.8158 15.7813 12.8158 16.7173C12.8158 17.6453 12.1758 18.4373 11.0238 18.4373H9.66384ZM18.296 14.9973V20.3333H17.2L14.656 16.8533V20.3333H13.52V14.9973H14.688L17.16 18.3493V14.9973H18.296ZM24.2041 19.4293C23.6601 20.0373 22.9002 20.4373 21.9321 20.4373C20.3721 20.4373 19.0921 19.3493 19.0921 17.6693C19.0921 15.9813 20.3721 14.9093 21.9321 14.9093C23.0441 14.9093 23.7401 15.4693 24.1401 16.1013L23.1961 16.6133C22.9562 16.2373 22.5001 15.9173 21.9321 15.9173C20.9641 15.9173 20.2601 16.6613 20.2601 17.6693C20.2601 18.6773 20.9641 19.4213 21.9321 19.4213C22.4041 19.4213 22.8521 19.2133 23.0681 19.0133V18.3733H21.6601V17.3813H24.2041V19.4293Z" fill="#23B5E2"/>
</svg>
