<svg width="16" height="16" viewBox="0 0 16 16" fill="none" xmlns="http://www.w3.org/2000/svg">
    <path d="M9.86675 1.3335V3.7335C9.86675 4.17532 10.2249 4.5335 10.6668 4.5335H13.0668M11.8668 2.5335C11.5107 2.21492 11.1412 1.83708 10.908 1.59168C10.7528 1.42839 10.5383 1.3335 10.313 1.3335H4.26657C3.38291 1.3335 2.66657 2.04984 2.66657 2.93349L2.6665 12.5334C2.6665 13.4171 3.38284 14.1335 4.2665 14.1335L11.4665 14.1335C12.3502 14.1335 13.0665 13.4172 13.0665 12.5335L13.0667 4.05205C13.0668 3.84749 12.9887 3.65085 12.8467 3.50358C12.5842 3.23126 12.1458 2.78317 11.8668 2.5335Z" stroke="black" stroke-width="1.2" stroke-linecap="round" stroke-linejoin="round"/>
    <path d="M4.83216 9.21867H5.43616C5.66016 9.21867 5.82816 9.07867 5.82816 8.85867C5.82816 8.63467 5.66016 8.49867 5.43616 8.49867H4.83216V9.21867Z" fill="#23B5E2"/>
    <path fill-rule="evenodd" clip-rule="evenodd" d="M2.66683 6C1.93045 6 1.3335 6.59695 1.3335 7.33333V10.6667C1.3335 11.403 1.93045 12 2.66683 12H13.6668V6H2.66683ZM4.83216 9.71867V10.6667H4.26416V7.99867H5.51216C6.09216 7.99867 6.40816 8.39067 6.40816 8.85867C6.40816 9.32267 6.08816 9.71867 5.51216 9.71867H4.83216ZM9.14826 7.99867V10.6667H8.60026L7.32826 8.92667V10.6667H6.76026V7.99867H7.34426L8.58026 9.67467V7.99867H9.14826ZM12.1023 10.2147C11.8303 10.5187 11.4503 10.7187 10.9663 10.7187C10.1863 10.7187 9.54632 10.1747 9.54632 9.33467C9.54632 8.49067 10.1863 7.95467 10.9663 7.95467C11.5223 7.95467 11.8703 8.23467 12.0703 8.55067L11.5983 8.80667C11.4783 8.61867 11.2503 8.45867 10.9663 8.45867C10.4823 8.45867 10.1303 8.83067 10.1303 9.33467C10.1303 9.83867 10.4823 10.2107 10.9663 10.2107C11.2023 10.2107 11.4263 10.1067 11.5343 10.0067V9.68667H10.8303V9.19067H12.1023V10.2147Z" fill="#23B5E2"/>
</svg>
