<svg width="12" height="12" viewBox="0 0 12 12" fill="none" xmlns="http://www.w3.org/2000/svg">
    <path d="M7.60019 9.59922C7.60019 10.262 7.06294 10.7992 6.4002 10.7992C5.73745 10.7992 2.4002 10.7992 2.4002 10.7992C1.73745 10.7992 1.2002 10.262 1.2002 9.59922C1.2002 8.93648 1.2002 6.26196 1.2002 5.59922C1.2002 4.93648 1.73745 4.39922 2.4002 4.39922L6.4002 4.39922C7.06294 4.39922 7.60019 4.93648 7.60019 5.59922V9.59922Z" stroke="black" stroke-linecap="round" stroke-linejoin="round"/>
    <path d="M10.8002 6.39922C10.8002 7.06196 10.2629 7.59922 9.60019 7.59922C8.93745 7.59922 5.6002 7.59922 5.6002 7.59922C4.93745 7.59922 4.4002 7.06196 4.4002 6.39922C4.4002 5.73648 4.4002 3.06196 4.4002 2.39922C4.4002 1.73648 4.93745 1.19922 5.6002 1.19922L9.6002 1.19922C10.2629 1.19922 10.8002 1.73648 10.8002 2.39922V6.39922Z" stroke="black" stroke-linecap="round" stroke-linejoin="round"/>
</svg>

