<svg width="24" height="24" viewBox="0 0 24 24" fill="none" xmlns="http://www.w3.org/2000/svg">
    <path d="M15.2004 19.1984C15.2004 20.5239 14.1259 21.5984 12.8004 21.5984C11.4749 21.5984 4.80039 21.5984 4.80039 21.5984C3.47491 21.5984 2.40039 20.5239 2.40039 19.1984C2.40039 17.873 2.40039 12.5239 2.40039 11.1984C2.40039 9.87295 3.47491 8.79844 4.80039 8.79844L12.8004 8.79844C14.1259 8.79844 15.2004 9.87295 15.2004 11.1984V19.1984Z" stroke="black" stroke-width="1.8" stroke-linecap="round" stroke-linejoin="round"/>
    <path d="M21.6004 12.7984C21.6004 14.1239 20.5259 15.1984 19.2004 15.1984C17.8749 15.1984 11.2004 15.1984 11.2004 15.1984C9.87491 15.1984 8.80039 14.1239 8.80039 12.7984C8.80039 11.473 8.80039 6.12392 8.80039 4.79844C8.80039 3.47295 9.87491 2.39844 11.2004 2.39844L19.2004 2.39844C20.5259 2.39844 21.6004 3.47296 21.6004 4.79844V12.7984Z" stroke="black" stroke-width="1.8" stroke-linecap="round" stroke-linejoin="round"/>
</svg>
