<svg width="16" height="16" viewBox="0 0 16 16" fill="none" xmlns="http://www.w3.org/2000/svg">
    <path d="M10.1334 12.7991C10.1334 13.6828 9.41709 14.3991 8.53343 14.3991C7.64978 14.3991 3.2001 14.3991 3.2001 14.3991C2.31644 14.3991 1.6001 13.6828 1.6001 12.7991C1.6001 11.9155 1.6001 8.34944 1.6001 7.46579C1.6001 6.58213 2.31644 5.86579 3.2001 5.86579L8.53343 5.86579C9.41709 5.86579 10.1334 6.58213 10.1334 7.46579V12.7991Z" stroke="black" stroke-width="1.2" stroke-linecap="round" stroke-linejoin="round"/>
    <path d="M14.4001 8.53245C14.4001 9.41611 13.6838 10.1325 12.8001 10.1325C11.9164 10.1325 7.46676 10.1325 7.46676 10.1325C6.58311 10.1325 5.86676 9.41611 5.86676 8.53245C5.86676 7.6488 5.86676 4.08278 5.86676 3.19912C5.86676 2.31547 6.58311 1.59912 7.46676 1.59912L12.8001 1.59912C13.6838 1.59912 14.4001 2.31547 14.4001 3.19912V8.53245Z" stroke="black" stroke-width="1.2" stroke-linecap="round" stroke-linejoin="round"/>
</svg>

