<svg width="20" height="20" viewBox="0 0 20 20" fill="none" xmlns="http://www.w3.org/2000/svg">
    <path d="M12.6667 16C12.6667 17.1046 11.7712 18 10.6667 18C9.5621 18 4 18 4 18C2.89543 18 2 17.1046 2 16C2 14.8954 2 10.4379 2 9.33333C2 8.22876 2.89543 7.33333 4 7.33333L10.6667 7.33333C11.7712 7.33333 12.6667 8.22876 12.6667 9.33333V16Z" stroke="black" stroke-width="1.5" stroke-linecap="round" stroke-linejoin="round"/>
    <path d="M18 10.6667C18 11.7712 17.1046 12.6667 16 12.6667C14.8954 12.6667 9.33333 12.6667 9.33333 12.6667C8.22876 12.6667 7.33333 11.7712 7.33333 10.6667C7.33333 9.5621 7.33333 5.10457 7.33333 4C7.33333 2.89543 8.22876 2 9.33333 2L16 2C17.1046 2 18 2.89543 18 4V10.6667Z" stroke="black" stroke-width="1.5" stroke-linecap="round" stroke-linejoin="round"/>
</svg>
