<svg width="32" height="32" viewBox="0 0 32 32" fill="none" xmlns="http://www.w3.org/2000/svg">
<path d="M7.19966 7.10596V4.70596C7.19966 3.8223 7.916 3.10596 8.79966 3.10596H23.9997C24.8833 3.10596 25.5997 3.8223 25.5997 4.70596V11.106M3.20091 25.694L3.20103 13.5282C3.20104 12.3096 3.20058 10.574 3.2002 9.31727C3.19992 8.43338 3.91637 7.71768 4.80026 7.71768H12.4245L16.1112 11.6559H27.1996C28.0833 11.6559 28.7996 12.3722 28.7996 13.2559L28.7992 25.6941C28.7992 27.4614 27.3665 28.894 25.5992 28.894L6.4009 28.894C4.63358 28.894 3.20089 27.4613 3.20091 25.694Z" stroke="black" stroke-width="2.4" stroke-linecap="round" stroke-linejoin="round"/>
</svg>
