<svg width="12" height="12" viewBox="0 0 12 12" fill="none" xmlns="http://www.w3.org/2000/svg">
<path d="M2.69999 2.66479V1.76479C2.69999 1.43342 2.96862 1.16479 3.29999 1.16479H8.99999C9.33136 1.16479 9.59999 1.43342 9.59999 1.76479V4.1648M1.20046 9.63529L1.20051 5.07314C1.20051 4.61618 1.20034 3.96531 1.2002 3.49404C1.20009 3.16258 1.46876 2.89419 1.80022 2.89419H4.65933L6.04184 4.37101H10.2C10.5314 4.37101 10.8 4.63965 10.8 4.97103L10.7998 9.63536C10.7998 10.2981 10.2626 10.8353 9.59983 10.8353L2.40046 10.8353C1.73772 10.8353 1.20046 10.298 1.20046 9.63529Z" stroke="black" stroke-linecap="round" stroke-linejoin="round"/>
</svg>
