<svg width="20" height="20" viewBox="0 0 20 20" fill="none" xmlns="http://www.w3.org/2000/svg">
<path d="M4.49966 4.44116V2.94116C4.49966 2.38888 4.94738 1.94116 5.49966 1.94116H14.9997C15.552 1.94116 15.9997 2.38888 15.9997 2.94116V6.94116M2.00045 16.0587L2.00052 8.45507C2.00053 7.69346 2.00024 6.60869 2 5.82323C1.99983 5.2708 2.44761 4.82349 3.00004 4.82349H7.76522L10.0694 7.28485H16.9996C17.5519 7.28485 17.9997 7.73258 17.9996 8.28488L17.9994 16.0588C17.9994 17.1633 17.1039 18.0587 15.9994 18.0587L4.00044 18.0587C2.89587 18.0587 2.00043 17.1632 2.00045 16.0587Z" stroke="black" stroke-width="1.5" stroke-linecap="round" stroke-linejoin="round"/>
</svg>
