<svg width="24" height="24" viewBox="0 0 24 24" fill="none" xmlns="http://www.w3.org/2000/svg">
<path d="M9.5999 6.5999L6.5999 6.5999M9.5999 10.1999L6.5999 10.1999M17.3999 6.5999H14.3999M17.3999 10.1999L14.3999 10.1999M9.5999 13.7999H6.5999M9.5999 17.3999H6.5999M2.3999 5.9999L2.3999 17.9999C2.3999 19.9881 4.01168 21.5999 5.9999 21.5999C7.98813 21.5999 16.0117 21.5999 17.9999 21.5999C19.9881 21.5999 21.5999 19.9881 21.5999 17.9999V5.9999C21.5999 4.01168 19.9881 2.3999 17.9999 2.3999L5.9999 2.3999C4.01168 2.3999 2.3999 4.01168 2.3999 5.9999Z" stroke="black" stroke-width="1.8" stroke-linecap="round" stroke-linejoin="round"/>
</svg>
