<svg width="16" height="16" viewBox="0 0 16 16" fill="none" xmlns="http://www.w3.org/2000/svg">
<path d="M6.4001 4.4001L4.4001 4.4001M6.4001 6.8001L4.4001 6.8001M11.6001 4.4001H9.6001M11.6001 6.8001L9.6001 6.8001M6.4001 9.2001H4.4001M6.4001 11.6001H4.4001M1.6001 4.0001L1.6001 12.0001C1.6001 13.3256 2.67461 14.4001 4.0001 14.4001C5.32558 14.4001 10.6746 14.4001 12.0001 14.4001C13.3256 14.4001 14.4001 13.3256 14.4001 12.0001V4.0001C14.4001 2.67461 13.3256 1.6001 12.0001 1.6001L4.0001 1.6001C2.67461 1.6001 1.6001 2.67461 1.6001 4.0001Z" stroke="black" stroke-width="1.2" stroke-linecap="round" stroke-linejoin="round"/>
</svg>
