<svg width="32" height="32" viewBox="0 0 32 32" fill="none" xmlns="http://www.w3.org/2000/svg">
<path d="M12.8002 8.79995L8.8002 8.79995M12.8002 13.6L8.80019 13.6M23.2002 8.79995H19.2002M23.2002 13.6L19.2002 13.6M12.8002 18.4H8.8002M12.8002 23.1999H8.80019M3.2002 7.99995L3.2002 23.9999C3.2002 26.6509 5.34923 28.7999 8.0002 28.7999C10.6512 28.7999 21.3492 28.7999 24.0002 28.7999C26.6512 28.7999 28.8002 26.6509 28.8002 23.9999V7.99995C28.8002 5.34898 26.6512 3.19995 24.0002 3.19995L8.0002 3.19995C5.34923 3.19995 3.2002 5.34898 3.2002 7.99995Z" stroke="black" stroke-width="2.4" stroke-linecap="round" stroke-linejoin="round"/>
</svg>
