<svg width="12" height="12" viewBox="0 0 12 12" fill="none" xmlns="http://www.w3.org/2000/svg">
<path d="M4.8002 3.29995L3.3002 3.29995M4.8002 5.09995L3.3002 5.09995M8.70019 3.29995H7.20019M8.70019 5.09995L7.20019 5.09995M4.8002 6.89995H3.3002M4.8002 8.69995H3.3002M1.2002 2.99995L1.2002 8.99995C1.2002 9.99406 2.00608 10.8 3.0002 10.8C3.99431 10.8 8.00608 10.8 9.00019 10.8C9.99431 10.8 10.8002 9.99406 10.8002 8.99995V2.99995C10.8002 2.00584 9.99431 1.19995 9.00019 1.19995L3.0002 1.19995C2.00608 1.19995 1.2002 2.00584 1.2002 2.99995Z" stroke="black" stroke-linecap="round" stroke-linejoin="round"/>
</svg>
