<svg width="32" height="32" viewBox="0 0 32 32" fill="none" xmlns="http://www.w3.org/2000/svg">
<path d="M9.6002 16C9.6002 17.7674 8.16751 19.2 6.4002 19.2C4.63288 19.2 3.2002 17.7674 3.2002 16C3.2002 14.2327 4.63288 12.8 6.4002 12.8C8.16751 12.8 9.6002 14.2327 9.6002 16Z" stroke="black" stroke-width="2.4"/>
<path d="M19.2002 16C19.2002 17.7674 17.7675 19.2 16.0002 19.2C14.2329 19.2 12.8002 17.7674 12.8002 16C12.8002 14.2327 14.2329 12.8 16.0002 12.8C17.7675 12.8 19.2002 14.2327 19.2002 16Z" stroke="black" stroke-width="2.4"/>
<path d="M28.8002 16C28.8002 17.7674 27.3675 19.2 25.6002 19.2C23.8329 19.2 22.4002 17.7674 22.4002 16C22.4002 14.2327 23.8329 12.8 25.6002 12.8C27.3675 12.8 28.8002 14.2327 28.8002 16Z" stroke="black" stroke-width="2.4"/>
</svg>
