<svg width="16" height="16" viewBox="0 0 16 16" fill="none" xmlns="http://www.w3.org/2000/svg">
<path d="M4.8001 7.9999C4.8001 8.88356 4.08375 9.5999 3.2001 9.5999C2.31644 9.5999 1.6001 8.88356 1.6001 7.9999C1.6001 7.11625 2.31644 6.3999 3.2001 6.3999C4.08375 6.3999 4.8001 7.11625 4.8001 7.9999Z" stroke="black" stroke-width="1.2"/>
<path d="M9.6001 7.9999C9.6001 8.88356 8.88375 9.5999 8.0001 9.5999C7.11644 9.5999 6.4001 8.88356 6.4001 7.9999C6.4001 7.11625 7.11644 6.3999 8.0001 6.3999C8.88375 6.3999 9.6001 7.11625 9.6001 7.9999Z" stroke="black" stroke-width="1.2"/>
<path d="M14.4001 7.9999C14.4001 8.88356 13.6838 9.5999 12.8001 9.5999C11.9164 9.5999 11.2001 8.88356 11.2001 7.9999C11.2001 7.11625 11.9164 6.3999 12.8001 6.3999C13.6838 6.3999 14.4001 7.11625 14.4001 7.9999Z" stroke="black" stroke-width="1.2"/>
</svg>
