<svg width="16" height="16" viewBox="0 0 16 16" fill="none" xmlns="http://www.w3.org/2000/svg">
    <path d="M10.743 7.99985C10.743 9.51469 9.51494 10.7427 8.0001 10.7427C6.48526 10.7427 5.25724 9.51469 5.25724 7.99985C5.25724 6.48502 6.48526 5.257 8.0001 5.257C9.51494 5.257 10.743 6.48502 10.743 7.99985ZM10.743 7.99985C10.743 9.17536 10.9389 10.5141 12.343 10.5141C13.747 10.5141 14.4001 9.3154 14.4001 7.99985C14.4001 4.46523 11.5347 1.59985 8.0001 1.59985C4.46548 1.59985 1.6001 4.46523 1.6001 7.99985C1.6001 11.5345 4.46548 14.3999 8.0001 14.3999C9.41751 14.3999 10.7273 13.9391 11.7879 13.1592M10.743 7.99985V5.257" stroke="black" stroke-width="1.2" stroke-linecap="round"/>
</svg>
