<svg width="12" height="12" viewBox="0 0 12 12" fill="none" xmlns="http://www.w3.org/2000/svg">
    <g clip-path="url(#clip0_6692_324162)">
        <path d="M8.05734 5.99995C8.05734 7.13608 7.13632 8.05709 6.0002 8.05709C4.86407 8.05709 3.94305 7.13608 3.94305 5.99995C3.94305 4.86382 4.86407 3.94281 6.0002 3.94281C7.13632 3.94281 8.05734 4.86382 8.05734 5.99995ZM8.05734 5.99995C8.05734 6.88158 8.20428 7.88567 9.25734 7.88567C10.3104 7.88567 10.8002 6.98661 10.8002 5.99995C10.8002 3.34898 8.65116 1.19995 6.0002 1.19995C3.34923 1.19995 1.2002 3.34898 1.2002 5.99995C1.2002 8.65092 3.34923 10.8 6.0002 10.8C7.06325 10.8 8.0456 10.4544 8.84101 9.86943M8.05734 5.99995V3.94281" stroke="black" stroke-linecap="round"/>
    </g>
    <defs>
        <clipPath id="clip0_6692_324162">
            <rect width="12" height="12" fill="white"/>
        </clipPath>
    </defs>
</svg>
