<svg width="20" height="20" viewBox="0 0 20 20" fill="none" xmlns="http://www.w3.org/2000/svg">
    <path d="M13.4286 10C13.4286 11.8935 11.8935 13.4286 10 13.4286C8.10645 13.4286 6.57143 11.8935 6.57143 10C6.57143 8.10645 8.10645 6.57143 10 6.57143C11.8935 6.57143 13.4286 8.10645 13.4286 10ZM13.4286 10C13.4286 11.4694 13.6735 13.1429 15.4286 13.1429C17.1837 13.1429 18 11.6444 18 10C18 5.58172 14.4183 2 10 2C5.58172 2 2 5.58172 2 10C2 14.4183 5.58172 18 10 18C11.7718 18 13.409 17.424 14.7347 16.4491M13.4286 10V6.57143" stroke="black" stroke-width="1.5" stroke-linecap="round"/>
</svg>
