<svg width="12" height="12" viewBox="0 0 12 12" fill="none" xmlns="http://www.w3.org/2000/svg">
<path fill-rule="evenodd" clip-rule="evenodd" d="M5.99988 3.75C5.30952 3.75 4.74988 3.19036 4.74988 2.5C4.74988 1.80964 5.30952 1.25 5.99988 1.25C6.69023 1.25 7.24988 1.80964 7.24988 2.5C7.24988 3.19036 6.69023 3.75 5.99988 3.75ZM2.5 3.75012C1.80964 3.75012 1.25 3.19048 1.25 2.50012C1.25 1.80977 1.80964 1.25012 2.5 1.25012C3.19036 1.25012 3.75 1.80977 3.75 2.50012C3.75 3.19048 3.19036 3.75012 2.5 3.75012ZM8.25 2.50012C8.25 3.19048 8.80964 3.75012 9.5 3.75012C10.1904 3.75012 10.75 3.19048 10.75 2.50012C10.75 1.80977 10.1904 1.25012 9.5 1.25012C8.80964 1.25012 8.25 1.80977 8.25 2.50012ZM2.5 7.25024C1.80964 7.25024 1.25 6.6906 1.25 6.00024C1.25 5.30989 1.80964 4.75024 2.5 4.75024C3.19036 4.75024 3.75 5.30989 3.75 6.00024C3.75 6.6906 3.19036 7.25024 2.5 7.25024ZM4.74988 6.00024C4.74988 6.6906 5.30952 7.25024 5.99988 7.25024C6.69023 7.25024 7.24988 6.6906 7.24988 6.00024C7.24988 5.30989 6.69023 4.75024 5.99988 4.75024C5.30952 4.75024 4.74988 5.30989 4.74988 6.00024ZM9.5 7.25012C8.80964 7.25012 8.25 6.69048 8.25 6.00012C8.25 5.30977 8.80964 4.75012 9.5 4.75012C10.1904 4.75012 10.75 5.30977 10.75 6.00012C10.75 6.69048 10.1904 7.25012 9.5 7.25012ZM1.25 9.50012C1.25 10.1905 1.80964 10.7501 2.5 10.7501C3.19036 10.7501 3.75 10.1905 3.75 9.50012C3.75 8.80977 3.19036 8.25012 2.5 8.25012C1.80964 8.25012 1.25 8.80977 1.25 9.50012ZM5.99988 10.7501C5.30952 10.7501 4.74988 10.1905 4.74988 9.50012C4.74988 8.80977 5.30952 8.25012 5.99988 8.25012C6.69023 8.25012 7.24988 8.80977 7.24988 9.50012C7.24988 10.1905 6.69023 10.7501 5.99988 10.7501ZM8.25 9.50012C8.25 10.1905 8.80964 10.7501 9.5 10.7501C10.1904 10.7501 10.75 10.1905 10.75 9.50012C10.75 8.80977 10.1904 8.25012 9.5 8.25012C8.80964 8.25012 8.25 8.80977 8.25 9.50012Z" fill="black"/>
</svg>
