<svg width="20" height="20" viewBox="0 0 20 20" fill="none" xmlns="http://www.w3.org/2000/svg">
<path fill-rule="evenodd" clip-rule="evenodd" d="M4.16683 6.24967C3.01624 6.24967 2.0835 5.31693 2.0835 4.16634C2.0835 3.01575 3.01624 2.08301 4.16683 2.08301C5.31742 2.08301 6.25016 3.01575 6.25016 4.16634C6.25016 5.31693 5.31742 6.24967 4.16683 6.24967ZM10.0002 6.24967C8.84965 6.24967 7.91691 5.31693 7.91691 4.16634C7.91691 3.01575 8.84965 2.08301 10.0002 2.08301C11.1508 2.08301 12.0836 3.01575 12.0836 4.16634C12.0836 5.31693 11.1508 6.24967 10.0002 6.24967ZM13.75 4.16634C13.75 5.31693 14.6827 6.24967 15.8333 6.24967C16.9839 6.24967 17.9167 5.31693 17.9167 4.16634C17.9167 3.01575 16.9839 2.08301 15.8333 2.08301C14.6827 2.08301 13.75 3.01575 13.75 4.16634ZM4.16691 12.083C3.01632 12.083 2.08358 11.1503 2.08358 9.99967C2.08358 8.84908 3.01632 7.91634 4.16691 7.91634C5.3175 7.91634 6.25024 8.84908 6.25024 9.99967C6.25024 11.1503 5.3175 12.083 4.16691 12.083ZM7.91691 9.99967C7.91691 11.1503 8.84965 12.083 10.0002 12.083C11.1508 12.083 12.0836 11.1503 12.0836 9.99967C12.0836 8.84908 11.1508 7.91634 10.0002 7.91634C8.84965 7.91634 7.91691 8.84908 7.91691 9.99967ZM15.8333 12.0832C14.6827 12.0832 13.75 11.1504 13.75 9.99984C13.75 8.84924 14.6827 7.9165 15.8333 7.9165C16.9839 7.9165 17.9167 8.84924 17.9167 9.99984C17.9167 11.1504 16.9839 12.0832 15.8333 12.0832ZM2.08358 15.833C2.08358 16.9836 3.01632 17.9163 4.16691 17.9163C5.3175 17.9163 6.25024 16.9836 6.25024 15.833C6.25024 14.6824 5.3175 13.7497 4.16691 13.7497C3.01632 13.7497 2.08358 14.6824 2.08358 15.833ZM10.0002 17.9163C8.84965 17.9163 7.91691 16.9836 7.91691 15.833C7.91691 14.6824 8.84965 13.7497 10.0002 13.7497C11.1508 13.7497 12.0836 14.6824 12.0836 15.833C12.0836 16.9836 11.1508 17.9163 10.0002 17.9163ZM13.75 15.8328C13.75 16.9834 14.6827 17.9162 15.8333 17.9162C16.9839 17.9162 17.9167 16.9834 17.9167 15.8328C17.9167 14.6823 16.9839 13.7495 15.8333 13.7495C14.6827 13.7495 13.75 14.6823 13.75 15.8328Z" fill="black"/>
</svg>
