<svg width="16" height="16" viewBox="0 0 16 16" fill="none" xmlns="http://www.w3.org/2000/svg">
<path fill-rule="evenodd" clip-rule="evenodd" d="M3.33376 4.99984C2.41328 4.99984 1.66709 4.25364 1.66709 3.33317C1.66709 2.4127 2.41328 1.6665 3.33376 1.6665C4.25423 1.6665 5.00042 2.4127 5.00042 3.33317C5.00042 4.25365 4.25423 4.99984 3.33376 4.99984ZM8.00046 4.99993C7.07998 4.99993 6.33379 4.25374 6.33379 3.33327C6.33379 2.41279 7.07998 1.6666 8.00046 1.6666C8.92093 1.6666 9.66712 2.41279 9.66712 3.33327C9.66712 4.25374 8.92093 4.99993 8.00046 4.99993ZM11.0002 3.33327C11.0002 4.25374 11.7464 4.99993 12.6669 4.99993C13.5873 4.99993 14.3335 4.25374 14.3335 3.33327C14.3335 2.41279 13.5873 1.6666 12.6669 1.6666C11.7464 1.6666 11.0002 2.41279 11.0002 3.33327ZM3.33366 9.66673C2.41318 9.66673 1.66699 8.92054 1.66699 8.00006C1.66699 7.07959 2.41318 6.3334 3.33366 6.3334C4.25413 6.3334 5.00033 7.07959 5.00033 8.00006C5.00033 8.92054 4.25413 9.66673 3.33366 9.66673ZM6.33379 8.00006C6.33379 8.92054 7.07998 9.66673 8.00046 9.66673C8.92093 9.66673 9.66712 8.92054 9.66712 8.00006C9.66712 7.07959 8.92093 6.3334 8.00046 6.3334C7.07998 6.3334 6.33379 7.07959 6.33379 8.00006ZM12.6669 9.66673C11.7464 9.66673 11.0002 8.92054 11.0002 8.00006C11.0002 7.07959 11.7464 6.3334 12.6669 6.3334C13.5873 6.3334 14.3335 7.07959 14.3335 8.00006C14.3335 8.92054 13.5873 9.66673 12.6669 9.66673ZM1.66699 12.6665C1.66699 13.5869 2.41318 14.3331 3.33366 14.3331C4.25413 14.3331 5.00033 13.5869 5.00033 12.6665C5.00033 11.746 4.25413 10.9998 3.33366 10.9998C2.41318 10.9998 1.66699 11.746 1.66699 12.6665ZM8.00046 14.3331C7.07998 14.3331 6.33379 13.5869 6.33379 12.6665C6.33379 11.746 7.07998 10.9998 8.00046 10.9998C8.92093 10.9998 9.66712 11.746 9.66712 12.6665C9.66712 13.5869 8.92093 14.3331 8.00046 14.3331ZM11.0002 12.6665C11.0002 13.5869 11.7464 14.3331 12.6669 14.3331C13.5873 14.3331 14.3335 13.5869 14.3335 12.6665C14.3335 11.746 13.5873 10.9998 12.6669 10.9998C11.7464 10.9998 11.0002 11.746 11.0002 12.6665Z" fill="black"/>
</svg>
