<svg width="32" height="32" viewBox="0 0 32 32" fill="none" xmlns="http://www.w3.org/2000/svg">
<path fill-rule="evenodd" clip-rule="evenodd" d="M6.66699 10.0002C4.82604 10.0002 3.33366 8.50778 3.33366 6.66683C3.33366 4.82588 4.82604 3.3335 6.66699 3.3335C8.50794 3.3335 10.0003 4.82588 10.0003 6.66683C10.0003 8.50778 8.50794 10.0002 6.66699 10.0002ZM16.0002 10.0002C14.1592 10.0002 12.6668 8.50778 12.6668 6.66683C12.6668 4.82588 14.1592 3.3335 16.0002 3.3335C17.8411 3.3335 19.3335 4.82588 19.3335 6.66683C19.3335 8.50778 17.8411 10.0002 16.0002 10.0002ZM22.0002 6.66683C22.0002 8.50778 23.4925 10.0002 25.3335 10.0002C27.1744 10.0002 28.6668 8.50778 28.6668 6.66683C28.6668 4.82588 27.1744 3.3335 25.3335 3.3335C23.4925 3.3335 22.0002 4.82588 22.0002 6.66683ZM6.66683 19.3335C4.82588 19.3335 3.3335 17.8411 3.3335 16.0002C3.3335 14.1592 4.82588 12.6668 6.66683 12.6668C8.50778 12.6668 10.0002 14.1592 10.0002 16.0002C10.0002 17.8411 8.50778 19.3335 6.66683 19.3335ZM12.6668 16.0002C12.6668 17.8411 14.1592 19.3335 16.0002 19.3335C17.8411 19.3335 19.3335 17.8411 19.3335 16.0002C19.3335 14.1592 17.8411 12.6668 16.0002 12.6668C14.1592 12.6668 12.6668 14.1592 12.6668 16.0002ZM25.3335 19.3335C23.4925 19.3335 22.0002 17.8411 22.0002 16.0002C22.0002 14.1592 23.4925 12.6668 25.3335 12.6668C27.1744 12.6668 28.6668 14.1592 28.6668 16.0002C28.6668 17.8411 27.1744 19.3335 25.3335 19.3335ZM3.3335 25.3335C3.3335 27.1744 4.82588 28.6668 6.66683 28.6668C8.50778 28.6668 10.0002 27.1744 10.0002 25.3335C10.0002 23.4925 8.50778 22.0002 6.66683 22.0002C4.82588 22.0002 3.3335 23.4925 3.3335 25.3335ZM16.0002 28.6668C14.1592 28.6668 12.6668 27.1744 12.6668 25.3335C12.6668 23.4925 14.1592 22.0002 16.0002 22.0002C17.8411 22.0002 19.3335 23.4925 19.3335 25.3335C19.3335 27.1744 17.8411 28.6668 16.0002 28.6668ZM22.0002 25.3335C22.0002 27.1744 23.4925 28.6668 25.3335 28.6668C27.1744 28.6668 28.6668 27.1744 28.6668 25.3335C28.6668 23.4925 27.1744 22.0002 25.3335 22.0002C23.4925 22.0002 22.0002 23.4925 22.0002 25.3335Z" fill="black"/>
</svg>
