<svg width="32" height="32" viewBox="0 0 32 32" fill="none" xmlns="http://www.w3.org/2000/svg">
    <path d="M19.734 2.6665V7.4665C19.734 8.35016 20.4503 9.0665 21.334 9.0665H26.134M23.734 5.0665C23.0219 4.42936 22.283 3.67367 21.8165 3.18288C21.506 2.85628 21.0771 2.6665 20.6266 2.6665H8.53362C6.76632 2.6665 5.33363 4.09918 5.33362 5.86649L5.3335 25.0664C5.33348 26.8337 6.76617 28.2664 8.53348 28.2664L22.9335 28.2665C24.7008 28.2665 26.1335 26.8339 26.1336 25.0666L26.134 8.10361C26.134 7.69449 25.9779 7.30122 25.694 7.00668C25.1689 6.46203 24.2921 5.56586 23.734 5.0665Z" stroke="black" stroke-width="2.4" stroke-linecap="round" stroke-linejoin="round"/>
    <path fill-rule="evenodd" clip-rule="evenodd" d="M4.6665 12C3.56193 12 2.6665 12.8954 2.6665 14V22C2.6665 23.1046 3.56193 24 4.6665 24H27.3332V12H4.6665ZM15.9312 21.4373C17.6819 21.4373 18.9559 20.1893 18.9559 18.4473C18.9559 16.7053 17.6819 15.4573 15.9312 15.4573C14.1892 15.4573 12.9152 16.7053 12.9152 18.4473C12.9152 20.1893 14.1892 21.4373 15.9312 21.4373ZM15.9312 20.3453C14.8652 20.3453 14.1805 19.522 14.1805 18.4473C14.1805 17.364 14.8652 16.5493 15.9312 16.5493C16.9972 16.5493 17.6905 17.364 17.6905 18.4473C17.6905 19.522 16.9972 20.3453 15.9312 20.3453ZM9.51784 21.3333C11.3292 21.3333 12.5858 20.1893 12.5858 18.4473C12.5858 16.7053 11.3292 15.5527 9.51784 15.5527H7.2385V21.3333H9.51784ZM9.51784 20.25H8.46917V16.636H9.51784C10.7052 16.636 11.3292 17.4247 11.3292 18.4473C11.3292 19.4267 10.6618 20.25 9.51784 20.25ZM24.7702 20.016C24.3542 20.7353 23.6262 21.4373 22.3522 21.4373C20.6188 21.4373 19.2755 20.224 19.2755 18.4473C19.2755 16.6707 20.6188 15.4573 22.3522 15.4573C23.6262 15.4573 24.3628 16.1507 24.7702 16.87L23.7128 17.39C23.4702 16.922 22.9502 16.5493 22.3522 16.5493C21.3035 16.5493 20.5408 17.3553 20.5408 18.4473C20.5408 19.5393 21.3035 20.3453 22.3522 20.3453C22.9502 20.3453 23.4702 19.9813 23.7128 19.5047L24.7702 20.016Z" fill="#7723E2"/>
</svg>
