<svg width="24" height="24" viewBox="0 0 24 24" fill="none" xmlns="http://www.w3.org/2000/svg">
    <path d="M14.8004 2V5.6C14.8004 6.26274 15.3376 6.8 16.0004 6.8H19.6004M17.8004 3.8C17.2663 3.32214 16.7121 2.75538 16.3622 2.38728C16.1294 2.14233 15.8077 2 15.4698 2H6.40009C5.07462 2 4.0001 3.07451 4.00009 4.39999L4 18.7999C3.99999 20.1254 5.0745 21.1999 6.39999 21.1999L17.2 21.2C18.5255 21.2 19.6 20.1255 19.6 18.8L19.6004 6.07783C19.6004 5.77099 19.4833 5.47603 19.2704 5.25513C18.8766 4.84665 18.219 4.17452 17.8004 3.8Z" stroke="black" stroke-width="1.8" stroke-linecap="round" stroke-linejoin="round"/>
    <path fill-rule="evenodd" clip-rule="evenodd" d="M4 9C2.89543 9 2 9.89543 2 11V16C2 17.1046 2.89543 18 4 18H20.5V9H4ZM11.9485 16.078C13.2615 16.078 14.217 15.142 14.217 13.8355C14.217 12.529 13.2615 11.593 11.9485 11.593C10.642 11.593 9.68653 12.529 9.68653 13.8355C9.68653 15.142 10.642 16.078 11.9485 16.078ZM11.9485 15.259C11.149 15.259 10.6355 14.6415 10.6355 13.8355C10.6355 13.023 11.149 12.412 11.9485 12.412C12.748 12.412 13.268 13.023 13.268 13.8355C13.268 14.6415 12.748 15.259 11.9485 15.259ZM7.1385 16C8.497 16 9.4395 15.142 9.4395 13.8355C9.4395 12.529 8.497 11.6645 7.1385 11.6645H5.429V16H7.1385ZM7.1385 15.1875H6.352V12.477H7.1385C8.029 12.477 8.497 13.0685 8.497 13.8355C8.497 14.57 7.9965 15.1875 7.1385 15.1875ZM18.5777 15.012C18.2657 15.5515 17.7197 16.078 16.7642 16.078C15.4642 16.078 14.4567 15.168 14.4567 13.8355C14.4567 12.503 15.4642 11.593 16.7642 11.593C17.7197 11.593 18.2722 12.113 18.5777 12.6525L17.7847 13.0425C17.6027 12.6915 17.2127 12.412 16.7642 12.412C15.9777 12.412 15.4057 13.0165 15.4057 13.8355C15.4057 14.6545 15.9777 15.259 16.7642 15.259C17.2127 15.259 17.6027 14.986 17.7847 14.6285L18.5777 15.012Z" fill="#7723E2"/>
</svg>

