<svg width="20" height="20" viewBox="0 0 20 20" fill="none" xmlns="http://www.w3.org/2000/svg">
    <path d="M12.3338 1.6665V4.6665C12.3338 5.21879 12.7815 5.6665 13.3338 5.6665H16.3338M14.8338 3.1665C14.3887 2.76829 13.9269 2.29599 13.6353 1.98924C13.4413 1.78512 13.1733 1.6665 12.8917 1.6665H5.33357C4.22901 1.6665 3.33358 2.56193 3.33357 3.66649L3.3335 15.6664C3.33349 16.771 4.22892 17.6665 5.33349 17.6665L14.3335 17.6665C15.4381 17.6665 16.3335 16.7711 16.3335 15.6665L16.3338 5.0647C16.3338 4.809 16.2363 4.5632 16.0588 4.37911C15.7306 4.03871 15.1826 3.4786 14.8338 3.1665Z" stroke="black" stroke-width="1.5" stroke-linecap="round" stroke-linejoin="round"/>
    <path fill-rule="evenodd" clip-rule="evenodd" d="M3.6665 7.5C2.56193 7.5 1.6665 8.39543 1.6665 9.5V13C1.6665 14.1046 2.56194 15 3.66651 15H17.0832V7.5H3.6665ZM9.95694 13.3983C11.0511 13.3983 11.8474 12.6183 11.8474 11.5296C11.8474 10.4408 11.0511 9.66083 9.95694 9.66083C8.86819 9.66083 8.07194 10.4408 8.07194 11.5296C8.07194 12.6183 8.86819 13.3983 9.95694 13.3983ZM9.95694 12.7158C9.29069 12.7158 8.86278 12.2013 8.86278 11.5296C8.86278 10.8525 9.29069 10.3433 9.95694 10.3433C10.6232 10.3433 11.0565 10.8525 11.0565 11.5296C11.0565 12.2013 10.6232 12.7158 9.95694 12.7158ZM5.94859 13.3333C7.08067 13.3333 7.86609 12.6183 7.86609 11.5296C7.86609 10.4408 7.08067 9.72042 5.94859 9.72042H4.524V13.3333H5.94859ZM5.94859 12.6562H5.29317V10.3975H5.94859C6.69067 10.3975 7.08067 10.8904 7.08067 11.5296C7.08067 12.1417 6.66359 12.6562 5.94859 12.6562ZM15.4813 12.51C15.2213 12.9596 14.7663 13.3983 13.97 13.3983C12.8867 13.3983 12.0471 12.64 12.0471 11.5296C12.0471 10.4192 12.8867 9.66083 13.97 9.66083C14.7663 9.66083 15.2267 10.0942 15.4813 10.5437L14.8205 10.8687C14.6688 10.5763 14.3438 10.3433 13.97 10.3433C13.3146 10.3433 12.838 10.8471 12.838 11.5296C12.838 12.2121 13.3146 12.7158 13.97 12.7158C14.3438 12.7158 14.6688 12.4883 14.8205 12.1904L15.4813 12.51Z" fill="#7723E2"/>
</svg>
