<svg width="16" height="16" viewBox="0 0 16 16" fill="none" xmlns="http://www.w3.org/2000/svg">
    <path d="M9.86675 1.3335V3.7335C9.86675 4.17532 10.2249 4.5335 10.6668 4.5335H13.0668M11.8668 2.5335C11.5107 2.21492 11.1412 1.83708 10.908 1.59168C10.7528 1.42839 10.5383 1.3335 10.313 1.3335H4.26657C3.38291 1.3335 2.66657 2.04984 2.66657 2.93349L2.6665 12.5334C2.6665 13.4171 3.38284 14.1335 4.2665 14.1335L11.4665 14.1335C12.3502 14.1335 13.0665 13.4172 13.0665 12.5335L13.0667 4.05205C13.0668 3.84749 12.9887 3.65085 12.8467 3.50358C12.5842 3.23126 12.1458 2.78317 11.8668 2.5335Z" stroke="black" stroke-width="1.2" stroke-linecap="round" stroke-linejoin="round"/>
    <path fill-rule="evenodd" clip-rule="evenodd" d="M2.8335 6C2.00507 6 1.3335 6.67157 1.3335 7.5V10.5C1.3335 11.3284 2.00507 12 2.8335 12H13.6668V6H2.8335ZM7.96585 10.7187C8.84118 10.7187 9.47818 10.0947 9.47818 9.22367C9.47818 8.35267 8.84118 7.72867 7.96585 7.72867C7.09485 7.72867 6.45785 8.35267 6.45785 9.22367C6.45785 10.0947 7.09485 10.7187 7.96585 10.7187ZM7.96585 10.1727C7.43285 10.1727 7.09051 9.761 7.09051 9.22367C7.09051 8.682 7.43285 8.27467 7.96585 8.27467C8.49885 8.27467 8.84551 8.682 8.84551 9.22367C8.84551 9.761 8.49885 10.1727 7.96585 10.1727ZM4.75916 10.6667C5.66483 10.6667 6.29316 10.0947 6.29316 9.22367C6.29316 8.35267 5.66483 7.77633 4.75916 7.77633H3.6195V10.6667H4.75916ZM4.75916 10.125H4.23483V8.318H4.75916C5.35283 8.318 5.66483 8.71233 5.66483 9.22367C5.66483 9.71333 5.33116 10.125 4.75916 10.125ZM12.3853 10.008C12.1773 10.3677 11.8133 10.7187 11.1763 10.7187C10.3097 10.7187 9.63799 10.112 9.63799 9.22367C9.63799 8.33533 10.3097 7.72867 11.1763 7.72867C11.8133 7.72867 12.1817 8.07533 12.3853 8.435L11.8567 8.695C11.7353 8.461 11.4753 8.27467 11.1763 8.27467C10.652 8.27467 10.2707 8.67767 10.2707 9.22367C10.2707 9.76967 10.652 10.1727 11.1763 10.1727C11.4753 10.1727 11.7353 9.99067 11.8567 9.75233L12.3853 10.008Z" fill="#7723E2"/>
</svg>
