<svg width="12" height="12" viewBox="0 0 12 12" fill="none" xmlns="http://www.w3.org/2000/svg">
    <path d="M7.40019 1V2.8C7.40019 3.13137 7.66882 3.4 8.00019 3.4H9.80019M8.90019 1.9C8.63315 1.66107 8.35605 1.37769 8.18111 1.19364C8.06471 1.07117 7.90387 1 7.7349 1H3.20005C2.53731 1 2.00005 1.53725 2.00005 2.19999L2 9.39997C2 10.0627 2.53725 10.6 3.2 10.6L8.60002 10.6C9.26275 10.6 9.80001 10.0628 9.80002 9.40002L9.80018 3.03892C9.80018 2.8855 9.74166 2.73802 9.63518 2.62757C9.43828 2.42332 9.10948 2.08726 8.90019 1.9Z" stroke="black" stroke-linecap="round" stroke-linejoin="round"/>
    <path fill-rule="evenodd" clip-rule="evenodd" d="M2 4.5C1.44772 4.5 1 4.94772 1 5.5V8C1 8.55228 1.44772 9 2 9H10.25V4.5H2ZM5.97426 8.039C6.63076 8.039 7.10851 7.571 7.10851 6.91775C7.10851 6.2645 6.63076 5.7965 5.97426 5.7965C5.32101 5.7965 4.84326 6.2645 4.84326 6.91775C4.84326 7.571 5.32101 8.039 5.97426 8.039ZM5.97426 7.6295C5.57451 7.6295 5.31776 7.32075 5.31776 6.91775C5.31776 6.5115 5.57451 6.206 5.97426 6.206C6.37401 6.206 6.63401 6.5115 6.63401 6.91775C6.63401 7.32075 6.37401 7.6295 5.97426 7.6295ZM3.56925 8C4.2485 8 4.71975 7.571 4.71975 6.91775C4.71975 6.2645 4.2485 5.83225 3.56925 5.83225H2.7145V8H3.56925ZM3.56925 7.59375H3.176V6.2385H3.56925C4.0145 6.2385 4.2485 6.53425 4.2485 6.91775C4.2485 7.285 3.99825 7.59375 3.56925 7.59375ZM9.28887 7.506C9.13287 7.77575 8.85987 8.039 8.38212 8.039C7.73212 8.039 7.22837 7.584 7.22837 6.91775C7.22837 6.2515 7.73212 5.7965 8.38212 5.7965C8.85987 5.7965 9.13612 6.0565 9.28887 6.32625L8.89237 6.52125C8.80137 6.34575 8.60637 6.206 8.38212 6.206C7.98887 6.206 7.70287 6.50825 7.70287 6.91775C7.70287 7.32725 7.98887 7.6295 8.38212 7.6295C8.60637 7.6295 8.80137 7.493 8.89237 7.31425L9.28887 7.506Z" fill="#7723E2"/>
</svg>
