<svg width="16" height="16" viewBox="0 0 16 16" fill="none" xmlns="http://www.w3.org/2000/svg">
<path d="M14.5 11.4843L8 14.8161L1.5 11.4843M11.25 9.99882L8 11.6647L1.5 8.33294L3.125 7.5M5.5 5H10.5C10.7761 5 11 4.77614 11 4.5V2.5C11 2.22386 10.7761 2 10.5 2H5.5C5.22386 2 5 2.22386 5 2.5V4.5C5 4.77614 5.22386 5 5.5 5ZM8.5 8H13.5C13.7761 8 14 7.77614 14 7.5V5.5C14 5.22386 13.7761 5 13.5 5H8.5C8.22386 5 8 5.22386 8 5.5V7.5C8 7.77614 8.22386 8 8.5 8Z" stroke="black" stroke-width="1.2" stroke-linecap="round" stroke-linejoin="round"/>
</svg>
