<svg width="12" height="12" viewBox="0 0 12 12" fill="none" xmlns="http://www.w3.org/2000/svg">
<path d="M10.875 8.61326L6 11.1121L1.125 8.61326M8.4375 7.49911L6 8.74852L1.125 6.2497L2.34375 5.625M4.125 3.75H7.875C8.08211 3.75 8.25 3.58211 8.25 3.375V1.875C8.25 1.66789 8.08211 1.5 7.875 1.5H4.125C3.91789 1.5 3.75 1.66789 3.75 1.875V3.375C3.75 3.58211 3.91789 3.75 4.125 3.75ZM6.375 6H10.125C10.3321 6 10.5 5.83211 10.5 5.625V4.125C10.5 3.91789 10.3321 3.75 10.125 3.75H6.375C6.16789 3.75 6 3.91789 6 4.125V5.625C6 5.83211 6.16789 6 6.375 6Z" stroke="black" stroke-linecap="round" stroke-linejoin="round"/>
</svg>
