<svg width="20" height="20" viewBox="0 0 20 20" fill="none" xmlns="http://www.w3.org/2000/svg">
<path d="M18.125 14.3554L10 18.5201L1.875 14.3554M14.0625 12.4985L10 14.5809L1.875 10.4162L3.90625 9.375M6.875 6.25H13.125C13.4702 6.25 13.75 5.97018 13.75 5.625V3.125C13.75 2.77982 13.4702 2.5 13.125 2.5H6.875C6.52982 2.5 6.25 2.77982 6.25 3.125V5.625C6.25 5.97018 6.52982 6.25 6.875 6.25ZM10.625 10H16.875C17.2202 10 17.5 9.72018 17.5 9.375V6.875C17.5 6.52982 17.2202 6.25 16.875 6.25H10.625C10.2798 6.25 10 6.52982 10 6.875V9.375C10 9.72018 10.2798 10 10.625 10Z" stroke="black" stroke-width="1.5" stroke-linecap="round" stroke-linejoin="round"/>
</svg>
