<svg width="24" height="24" viewBox="0 0 24 24" fill="none" xmlns="http://www.w3.org/2000/svg">
<path d="M21.75 17.2265L12 22.2241L2.25 17.2265M16.875 14.9982L12 17.497L2.25 12.4994L4.6875 11.25M8.25 7.5H15.75C16.1642 7.5 16.5 7.16421 16.5 6.75V3.75C16.5 3.33579 16.1642 3 15.75 3H8.25C7.83579 3 7.5 3.33579 7.5 3.75V6.75C7.5 7.16421 7.83579 7.5 8.25 7.5ZM12.75 12H20.25C20.6642 12 21 11.6642 21 11.25V8.25C21 7.83579 20.6642 7.5 20.25 7.5H12.75C12.3358 7.5 12 7.83579 12 8.25V11.25C12 11.6642 12.3358 12 12.75 12Z" stroke="black" stroke-width="1.8" stroke-linecap="round" stroke-linejoin="round"/>
</svg>
