<svg width="12" height="12" viewBox="0 0 12 12" fill="none" xmlns="http://www.w3.org/2000/svg">
    <path d="M3.30039 4.40117V3.94403C3.30039 2.42457 4.50468 1.20117 6.00039 1.20117C7.49611 1.20117 8.70039 2.42457 8.70039 3.94403V4.40117M3.30039 4.40117C2.80539 4.40117 2.40039 4.8126 2.40039 5.31546V9.88688C2.40039 10.3897 2.80539 10.8012 3.30039 10.8012H8.70039C9.19539 10.8012 9.60039 10.3897 9.60039 9.88688V5.31546C9.60039 4.8126 9.19539 4.40117 8.70039 4.40117M3.30039 4.40117H8.70039M6.00039 6.68689C6.49539 6.68689 6.90039 7.09831 6.90039 7.60117C6.90039 8.10403 6.49539 8.51546 6.00039 8.51546C5.50539 8.51546 5.10039 8.10403 5.10039 7.60117C5.10039 7.09831 5.50539 6.68689 6.00039 6.68689Z" stroke="black"/>
</svg>
