<svg width="16" height="16" viewBox="0 0 16 16" fill="none" xmlns="http://www.w3.org/2000/svg">
    <path d="M4.4002 5.86676V5.25724C4.4002 3.2313 6.00591 1.6001 8.0002 1.6001C9.99448 1.6001 11.6002 3.2313 11.6002 5.25724V5.86676M4.4002 5.86676C3.7402 5.86676 3.2002 6.41534 3.2002 7.08581V13.181C3.2002 13.8515 3.7402 14.4001 4.4002 14.4001H11.6002C12.2602 14.4001 12.8002 13.8515 12.8002 13.181V7.08581C12.8002 6.41534 12.2602 5.86676 11.6002 5.86676M4.4002 5.86676H11.6002M8.0002 8.91438C8.6602 8.91438 9.2002 9.46295 9.2002 10.1334C9.2002 10.8039 8.6602 11.3525 8.0002 11.3525C7.3402 11.3525 6.8002 10.8039 6.8002 10.1334C6.8002 9.46295 7.3402 8.91438 8.0002 8.91438Z" stroke="black" stroke-width="1.2"/>
</svg>
