<svg width="16" height="16" viewBox="0 0 16 16" fill="none" xmlns="http://www.w3.org/2000/svg">
    <path d="M12.0001 6.4001H13.6001C14.0419 6.4001 14.4001 6.75827 14.4001 7.2001L14.4001 12.4001C14.4001 13.5047 13.5047 14.4001 12.4001 14.4001L7.2001 14.4001C6.75827 14.4001 6.4001 14.0419 6.4001 13.6001V12.0001M8.0001 1.6001L3.2001 1.6001C2.31644 1.6001 1.6001 2.31644 1.6001 3.2001L1.6001 8.0001C1.6001 8.88375 2.31644 9.6001 3.2001 9.6001L8.0001 9.6001C8.88375 9.6001 9.6001 8.88375 9.6001 8.0001L9.6001 3.2001C9.6001 2.31644 8.88375 1.6001 8.0001 1.6001Z" stroke="black" stroke-width="1.2" stroke-linecap="round"/>
</svg>
