<svg width="20" height="20" viewBox="0 0 20 20" fill="none" xmlns="http://www.w3.org/2000/svg">
    <path d="M6.35742 13.4174H3.7962C2.17316 13.4174 0.857422 12.3105 0.857422 10.6874C0.857422 9.06438 2.17316 7.74864 3.7962 7.74864C3.90657 7.74864 4.01552 7.75473 4.12273 7.76658V7.74864H4.16315C4.13647 7.53471 4.12273 7.31675 4.12273 7.09558C4.12273 4.21018 6.46181 1.87109 9.34722 1.87109C11.3011 1.87109 13.0045 2.94371 13.9007 4.53224C14.1197 4.50002 14.3438 4.48334 14.5717 4.48334C17.0964 4.48334 19.1431 6.53004 19.1431 9.05477C19.1431 11.3578 17.4401 13.0542 15.2248 13.3711H12.8574M9.67375 8.07518V18.1283M9.67375 18.1283L7.35742 15.8711M9.67375 18.1283L11.9288 15.8711" stroke="black" stroke-width="1.5" stroke-linecap="round" stroke-linejoin="round"/>
</svg>
