<svg width="16" height="16" viewBox="0 0 16 16" fill="none" xmlns="http://www.w3.org/2000/svg">
    <path d="M5.08555 10.7331H3.03657C1.73813 10.7331 0.685547 9.84759 0.685547 8.54915C0.685547 7.25072 1.73813 6.19813 3.03657 6.19813C3.12486 6.19813 3.21202 6.203 3.29779 6.21249V6.19813H3.33013C3.30879 6.02698 3.29779 5.85262 3.29779 5.67569C3.29779 3.36736 5.16906 1.49609 7.47738 1.49609C9.04052 1.49609 10.4032 2.35418 11.1202 3.62501C11.2954 3.59924 11.4746 3.58589 11.657 3.58589C13.6768 3.58589 15.3141 5.22325 15.3141 7.24303C15.3141 9.08543 13.9517 10.4426 12.1794 10.6961H10.2855M7.73861 6.45936V14.5019M7.73861 14.5019L5.88555 12.6961M7.73861 14.5019L9.54269 12.6961" stroke="black" stroke-width="1.2" stroke-linecap="round" stroke-linejoin="round"/>
</svg>
