<svg width="12" height="12" viewBox="0 0 12 12" fill="none" xmlns="http://www.w3.org/2000/svg">
    <path d="M3.81465 8.05278H2.27791C1.30409 8.05278 0.514648 7.38862 0.514648 6.4148C0.514648 5.44097 1.30409 4.65153 2.27791 4.65153C2.34414 4.65153 2.40951 4.65518 2.47383 4.66229V4.65153H2.49808C2.48208 4.52317 2.47383 4.39239 2.47383 4.25969C2.47383 2.52845 3.87728 1.125 5.60853 1.125C6.78088 1.125 7.80291 1.76857 8.34062 2.72169C8.47202 2.70236 8.60645 2.69235 8.74322 2.69235C10.2581 2.69235 11.4861 3.92037 11.4861 5.4352C11.4861 6.81701 10.4643 7.83487 9.13506 8.025H7.71465M5.80445 4.84745V10.8793M5.80445 10.8793L4.41465 9.525M5.80445 10.8793L7.15751 9.525" stroke="black" stroke-linecap="round" stroke-linejoin="round"/>
</svg>
