<svg width="24" height="24" viewBox="0 0 24 24" fill="none" xmlns="http://www.w3.org/2000/svg">
    <path d="M7.62881 16.1012H4.55534C2.60769 16.1012 1.02881 14.7728 1.02881 12.8252C1.02881 10.8775 2.60769 9.29867 4.55534 9.29867C4.68778 9.29867 4.81852 9.30597 4.94718 9.32019V9.29867H4.99568C4.96367 9.04194 4.94718 8.78039 4.94718 8.51499C4.94718 5.05251 7.75408 2.24561 11.2166 2.24561C13.5613 2.24561 15.6053 3.53274 16.6807 5.43898C16.9435 5.40032 17.2124 5.3803 17.486 5.3803C20.5156 5.3803 22.9717 7.83634 22.9717 10.866C22.9717 13.6296 20.9281 15.6653 18.2696 16.0456H15.4288M11.6084 9.6905V21.7543M11.6084 21.7543L8.82881 19.0456M11.6084 21.7543L14.3145 19.0456" stroke="black" stroke-width="1.8" stroke-linecap="round" stroke-linejoin="round"/>
</svg>
