<svg width="16" height="16" viewBox="0 0 16 16" fill="none" xmlns="http://www.w3.org/2000/svg">
    <path d="M3.03657 11.0378C1.73813 11.0378 0.685547 10.1523 0.685547 8.85384C0.685547 7.55541 1.73813 6.50282 3.03657 6.50282C3.12486 6.50282 3.21202 6.50769 3.29779 6.51717V6.50282H3.33013C3.30879 6.33167 3.29779 6.1573 3.29779 5.98037C3.29779 3.67205 5.16906 1.80078 7.47738 1.80078C9.04052 1.80078 10.4032 2.65887 11.1202 3.9297C11.2954 3.90393 11.4746 3.89058 11.657 3.89058C13.6768 3.89058 15.3141 5.52794 15.3141 7.54772C15.3141 9.21038 14.2046 10.4779 12.6855 10.8956M7.88441 14.2008V8.20078M7.88441 8.20078L5.48555 10.6753M7.88441 8.20078L10.2855 10.6753" stroke="black" stroke-width="1.2" stroke-linecap="round" stroke-linejoin="round"/>
</svg>
