<svg width="24" height="24" viewBox="0 0 24 24" fill="none" xmlns="http://www.w3.org/2000/svg">
    <path d="M4.55534 16.5557C2.60769 16.5557 1.02881 15.2274 1.02881 13.2798C1.02881 11.3321 2.60769 9.75326 4.55534 9.75326C4.68778 9.75326 4.81852 9.76056 4.94718 9.77478V9.75326H4.99568C4.96367 9.49653 4.94718 9.23498 4.94718 8.96958C4.94718 5.5071 7.75408 2.7002 11.2166 2.7002C13.5613 2.7002 15.6053 3.98733 16.6807 5.89357C16.9435 5.85491 17.2124 5.83489 17.486 5.83489C20.5156 5.83489 22.9717 8.29093 22.9717 11.3206C22.9717 13.8146 21.3074 15.7158 19.0288 16.3425M11.8271 21.3002V12.3002M11.8271 12.3002L8.22881 16.0119M11.8271 12.3002L15.4288 16.0119" stroke="black" stroke-width="1.8" stroke-linecap="round" stroke-linejoin="round"/>
</svg>
