<svg width="12" height="12" viewBox="0 0 12 12" fill="none" xmlns="http://www.w3.org/2000/svg">
    <path d="M2.27791 8.27934C1.30409 8.27934 0.514648 7.61518 0.514648 6.64136C0.514648 5.66753 1.30409 4.87809 2.27791 4.87809C2.34414 4.87809 2.40951 4.88174 2.47383 4.88886V4.87809H2.49808C2.48208 4.74973 2.47383 4.61896 2.47383 4.48626C2.47383 2.75501 3.87728 1.35156 5.60853 1.35156C6.78088 1.35156 7.80291 1.99513 8.34062 2.94825C8.47202 2.92892 8.60645 2.91891 8.74322 2.91891C10.2581 2.91891 11.4861 4.14693 11.4861 5.66177C11.4861 6.90876 10.6539 7.85937 9.51465 8.17271M5.91379 10.6516V6.15156M5.91379 6.15156L4.11465 8.00742M5.91379 6.15156L7.71465 8.00742" stroke="black" stroke-linecap="round" stroke-linejoin="round"/>
</svg>
