<svg width="32" height="32" viewBox="0 0 32 32" fill="none" xmlns="http://www.w3.org/2000/svg">
<path d="M9.97141 27.0463C9.34267 27.2559 9.00288 27.9355 9.21246 28.5642C9.42204 29.1929 10.1016 29.5327 10.7304 29.3231L9.97141 27.0463ZM18.6586 28.7386L18.5497 27.5435L18.5497 27.5435L18.6586 28.7386ZM23.6432 27.6309L24.1695 28.7093L24.1695 28.7093L23.6432 27.6309ZM28.4061 23.2981L27.4736 22.5429L27.4736 22.5429L28.4061 23.2981ZM25.1485 20.5871L25.997 21.4356L25.997 21.4356L25.1485 20.5871ZM22.955 22.7806L23.8035 23.6292L23.8035 23.6292L22.955 22.7806ZM16.997 22.5539C16.3343 22.5539 15.797 23.0912 15.797 23.7539C15.797 24.4167 16.3343 24.9539 16.997 24.9539V22.5539ZM27.8996 20.3147L27.234 21.3131L27.234 21.3131L27.8996 20.3147ZM12.0368 19.5879L12.5734 20.6612L12.5734 20.6612L12.0368 19.5879ZM17.9988 19.0425L18.3146 17.8848L18.3146 17.8848L17.9988 19.0425ZM20.3271 19.6775L20.0114 20.8352L20.0114 20.8352L20.3271 19.6775ZM21.0648 22.4554L20.2163 21.6069L20.2163 21.6069L21.0648 22.4554ZM18.9177 22.9054C18.4491 23.374 18.4491 24.1338 18.9177 24.6025C19.3864 25.0711 20.1462 25.0711 20.6148 24.6025L18.9177 22.9054ZM10.7304 29.3231C10.912 29.2626 11.269 29.2268 11.8751 29.27C12.4567 29.3115 13.1342 29.4132 13.9031 29.534C15.3705 29.7645 17.2011 30.0763 18.7674 29.9336L18.5497 27.5435C17.3468 27.6531 15.8544 27.4111 14.2755 27.1631C13.5214 27.0446 12.745 26.926 12.0459 26.8761C11.3712 26.828 10.6205 26.8299 9.97141 27.0463L10.7304 29.3231ZM18.7674 29.9336C19.794 29.8401 20.6517 29.7968 21.445 29.6532C22.299 29.4987 23.1015 29.2305 24.1695 28.7093L23.1169 26.5524C22.2026 26.9986 21.6111 27.1842 21.0176 27.2916C20.3632 27.41 19.7198 27.4369 18.5497 27.5435L18.7674 29.9336ZM24.1695 28.7093C25.1959 28.2084 26.1916 27.3974 27.0531 26.5697C27.9261 25.7309 28.7198 24.8174 29.3386 24.0534L27.4736 22.5429C26.8922 23.2607 26.1672 24.0925 25.3902 24.8391C24.6017 25.5968 23.816 26.2113 23.1169 26.5524L24.1695 28.7093ZM24.3 19.7385L22.1064 21.9321L23.8035 23.6292L25.997 21.4356L24.3 19.7385ZM20.6052 22.5539H16.997V24.9539H20.6052V22.5539ZM22.1064 21.9321C21.7083 22.3303 21.1683 22.5539 20.6052 22.5539V24.9539C21.8048 24.9539 22.9552 24.4774 23.8035 23.6292L22.1064 21.9321ZM28.5653 19.3162C27.2246 18.4224 25.4394 18.5992 24.3 19.7385L25.997 21.4356C26.3275 21.1052 26.8452 21.0539 27.234 21.3131L28.5653 19.3162ZM29.3386 24.0534C30.5823 22.5177 30.1167 20.3505 28.5653 19.3162L27.234 21.3131C27.7033 21.626 27.7584 22.1912 27.4736 22.5429L29.3386 24.0534ZM4.25857 19.4155H8.68934V17.0155H4.25857V19.4155ZM8.59703 19.3232V29.2924H10.997V19.3232H8.59703ZM8.68934 29.2001H4.25857V31.6001H8.68934V29.2001ZM4.35088 29.2924V19.3232H1.95088V29.2924H4.35088ZM4.25857 29.2001C4.30955 29.2001 4.35088 29.2414 4.35088 29.2924H1.95088C1.95088 30.5669 2.98407 31.6001 4.25857 31.6001V29.2001ZM8.59703 29.2924C8.59703 29.2414 8.63836 29.2001 8.68934 29.2001V31.6001C9.96384 31.6001 10.997 30.5669 10.997 29.2924H8.59703ZM8.68934 19.4155C8.63836 19.4155 8.59703 19.3742 8.59703 19.3232H10.997C10.997 18.0487 9.96384 17.0155 8.68934 17.0155V19.4155ZM4.25857 17.0155C2.98407 17.0155 1.95088 18.0487 1.95088 19.3232H4.35088C4.35088 19.3742 4.30955 19.4155 4.25857 19.4155V17.0155ZM10.8875 21.5042L12.5734 20.6612L11.5001 18.5146L9.81422 19.3576L10.8875 21.5042ZM15.5044 19.9693H15.9587V17.5693H15.5044V19.9693ZM17.6831 20.2003L20.0114 20.8352L20.6428 18.5198L18.3146 17.8848L17.6831 20.2003ZM20.2163 21.6069L18.9177 22.9054L20.6148 24.6025L21.9133 23.3039L20.2163 21.6069ZM20.0114 20.8352C20.3532 20.9285 20.4669 21.3563 20.2163 21.6069L21.9133 23.3039C23.4669 21.7503 22.7626 19.0979 20.6428 18.5198L20.0114 20.8352ZM15.9587 19.9693C16.5412 19.9693 17.1211 20.047 17.6831 20.2003L18.3146 17.8848C17.5468 17.6754 16.7545 17.5693 15.9587 17.5693V19.9693ZM12.5734 20.6612C13.4835 20.2062 14.4869 19.9693 15.5044 19.9693V17.5693C14.1143 17.5693 12.7434 17.893 11.5001 18.5146L12.5734 20.6612ZM22.997 10.4616C22.997 12.2459 21.5506 13.6924 19.7663 13.6924V16.0924C22.8761 16.0924 25.397 13.5714 25.397 10.4616H22.997ZM19.7663 13.6924C17.982 13.6924 16.5355 12.2459 16.5355 10.4616H14.1355C14.1355 13.5714 16.6565 16.0924 19.7663 16.0924V13.6924ZM16.5355 10.4616C16.5355 8.67733 17.982 7.23087 19.7663 7.23087V4.83087C16.6565 4.83087 14.1355 7.35185 14.1355 10.4616H16.5355ZM19.7663 7.23087C21.5506 7.23087 22.997 8.67733 22.997 10.4616H25.397C25.397 7.35185 22.8761 4.83087 19.7663 4.83087V7.23087ZM15.3355 9.26164C13.5512 9.26164 12.1047 7.81517 12.1047 6.03087H9.70473C9.70473 9.14065 12.2257 11.6616 15.3355 11.6616V9.26164ZM12.1047 6.03087C12.1047 4.24656 13.5512 2.8001 15.3355 2.8001V0.400098C12.2257 0.400098 9.70473 2.92108 9.70473 6.03087H12.1047ZM15.3355 2.8001C17.1198 2.8001 18.5663 4.24656 18.5663 6.03087H20.9663C20.9663 2.92108 18.4453 0.400098 15.3355 0.400098V2.8001Z" fill="black"/>
</svg>
