<svg width="20" height="20" viewBox="0 0 20 20" fill="none" xmlns="http://www.w3.org/2000/svg">
<path d="M6.23207 16.9039C5.83911 17.0349 5.62674 17.4596 5.75773 17.8526C5.88871 18.2455 6.31345 18.4579 6.70641 18.3269L6.23207 16.9039ZM11.6615 17.9615L11.5935 17.2146L11.5935 17.2146L11.6615 17.9615ZM14.7769 17.2692L15.1059 17.9433L15.1059 17.9433L14.7769 17.2692ZM17.7537 14.5613L17.1709 14.0892L17.1709 14.0892L17.7537 14.5613ZM15.7178 12.8669L16.2481 13.3972L16.2481 13.3972L15.7178 12.8669ZM14.3468 14.2378L14.8771 14.7682L14.8771 14.7682L14.3468 14.2378ZM10.6231 14.0962C10.2089 14.0962 9.87309 14.4319 9.87309 14.8462C9.87309 15.2604 10.2089 15.5962 10.6231 15.5962V14.0962ZM17.4372 12.6966L17.0212 13.3206L17.0212 13.3206L17.4372 12.6966ZM7.52292 12.2424L7.85833 12.9132L7.85833 12.9132L7.52292 12.2424ZM11.2492 11.9015L11.4465 11.178L11.4465 11.178L11.2492 11.9015ZM12.7044 12.2984L12.507 13.022L12.507 13.022L12.7044 12.2984ZM13.1654 14.0346L12.6351 13.5042L12.6351 13.5042L13.1654 14.0346ZM11.8235 14.3158C11.5306 14.6087 11.5306 15.0836 11.8235 15.3765C12.1164 15.6694 12.5913 15.6694 12.8842 15.3765L11.8235 14.3158ZM6.70641 18.3269C6.81994 18.2891 7.04306 18.2667 7.4219 18.2937C7.78541 18.3196 8.20881 18.3832 8.6894 18.4587C9.60649 18.6027 10.7506 18.7976 11.7296 18.7084L11.5935 17.2146C10.8417 17.2831 9.90891 17.1319 8.92215 16.9769C8.45082 16.9028 7.96557 16.8287 7.5286 16.7975C7.10695 16.7674 6.63777 16.7686 6.23207 16.9039L6.70641 18.3269ZM11.7296 18.7084C12.3712 18.65 12.9073 18.6229 13.403 18.5332C13.9368 18.4366 14.4384 18.269 15.1059 17.9433L14.448 16.5952C13.8766 16.8741 13.5069 16.9901 13.1359 17.0572C12.727 17.1312 12.3248 17.148 11.5935 17.2146L11.7296 18.7084ZM15.1059 17.9433C15.7474 17.6302 16.3697 17.1233 16.9081 16.606C17.4537 16.0817 17.9498 15.5108 18.3366 15.0333L17.1709 14.0892C16.8076 14.5378 16.3545 15.0578 15.8688 15.5244C15.376 15.9979 14.885 16.382 14.448 16.5952L15.1059 17.9433ZM15.1874 12.3365L13.8165 13.7075L14.8771 14.7682L16.2481 13.3972L15.1874 12.3365ZM12.8782 14.0962H10.6231V15.5962H12.8782V14.0962ZM13.8165 13.7075C13.5676 13.9564 13.2301 14.0962 12.8782 14.0962V15.5962C13.6279 15.5962 14.347 15.2983 14.8771 14.7682L13.8165 13.7075ZM17.8532 12.0726C17.0153 11.5139 15.8995 11.6244 15.1874 12.3365L16.2481 13.3972C16.4546 13.1907 16.7782 13.1586 17.0212 13.3206L17.8532 12.0726ZM18.3366 15.0333C19.1139 14.0735 18.8229 12.719 17.8532 12.0726L17.0212 13.3206C17.3145 13.5162 17.3489 13.8694 17.1709 14.0892L18.3366 15.0333ZM2.66155 12.1346H5.43078V10.6346H2.66155V12.1346ZM5.37308 12.0769V18.3077H6.87308V12.0769H5.37308ZM5.43078 18.25H2.66155V19.75H5.43078V18.25ZM2.71924 18.3077V12.0769H1.21924V18.3077H2.71924ZM2.66155 18.25C2.69341 18.25 2.71924 18.2758 2.71924 18.3077H1.21924C1.21924 19.1043 1.86498 19.75 2.66155 19.75V18.25ZM5.37308 18.3077C5.37308 18.2758 5.39892 18.25 5.43078 18.25V19.75C6.22734 19.75 6.87308 19.1043 6.87308 18.3077H5.37308ZM5.43078 12.1346C5.39891 12.1346 5.37308 12.1088 5.37308 12.0769H6.87308C6.87308 11.2804 6.22734 10.6346 5.43078 10.6346V12.1346ZM2.66155 10.6346C1.86498 10.6346 1.21924 11.2804 1.21924 12.0769H2.71924C2.71924 12.1088 2.69341 12.1346 2.66155 12.1346V10.6346ZM6.80465 13.44L7.85833 12.9132L7.18751 11.5716L6.13383 12.0984L6.80465 13.44ZM9.69018 12.4808H9.9741V10.9808H9.69018V12.4808ZM11.0519 12.6251L12.507 13.022L12.9017 11.5748L11.4465 11.178L11.0519 12.6251ZM12.6351 13.5042L11.8235 14.3158L12.8842 15.3765L13.6958 14.5649L12.6351 13.5042ZM12.507 13.022C12.7207 13.0802 12.7917 13.3476 12.6351 13.5042L13.6958 14.5649C14.6668 13.5939 14.2266 11.9361 12.9017 11.5748L12.507 13.022ZM9.9741 12.4808C10.3382 12.4808 10.7006 12.5293 11.0519 12.6251L11.4465 11.178C10.9667 11.0471 10.4715 10.9808 9.9741 10.9808V12.4808ZM7.85833 12.9132C8.4271 12.6288 9.05428 12.4808 9.69018 12.4808V10.9808C8.82141 10.9808 7.96456 11.183 7.18751 11.5716L7.85833 12.9132ZM14.3731 6.53846C14.3731 7.65365 13.469 8.55769 12.3539 8.55769V10.0577C14.2975 10.0577 15.8731 8.48208 15.8731 6.53846H14.3731ZM12.3539 8.55769C11.2387 8.55769 10.3346 7.65365 10.3346 6.53846H8.83462C8.83462 8.48208 10.4102 10.0577 12.3539 10.0577V8.55769ZM10.3346 6.53846C10.3346 5.42327 11.2387 4.51923 12.3539 4.51923V3.01923C10.4102 3.01923 8.83462 4.59484 8.83462 6.53846H10.3346ZM12.3539 4.51923C13.469 4.51923 14.3731 5.42327 14.3731 6.53846H15.8731C15.8731 4.59484 14.2975 3.01923 12.3539 3.01923V4.51923ZM9.58462 5.78846C8.46943 5.78846 7.56539 4.88442 7.56539 3.76923H6.06539C6.06539 5.71285 7.64101 7.28846 9.58462 7.28846V5.78846ZM7.56539 3.76923C7.56539 2.65404 8.46943 1.75 9.58462 1.75V0.25C7.64101 0.25 6.06539 1.82561 6.06539 3.76923H7.56539ZM9.58462 1.75C10.6998 1.75 11.6039 2.65404 11.6039 3.76923H13.1039C13.1039 1.82561 11.5282 0.25 9.58462 0.25V1.75Z" fill="black"/>
</svg>
