<svg width="24" height="24" viewBox="0 0 24 24" fill="none" xmlns="http://www.w3.org/2000/svg">
<path d="M7.47868 20.2846C7.00713 20.4418 6.75228 20.9515 6.90947 21.423C7.06665 21.8946 7.57634 22.1494 8.04789 21.9922L7.47868 20.2846ZM13.9941 21.5538L13.9124 20.6575L13.9124 20.6575L13.9941 21.5538ZM17.7325 20.723L18.1272 21.5319L18.1272 21.5319L17.7325 20.723ZM21.3047 17.4735L20.6053 16.907L20.6053 16.907L21.3047 17.4735ZM18.8615 15.4402L19.4979 16.0766L19.4979 16.0766L18.8615 15.4402ZM17.2163 17.0854L17.8527 17.7218L17.8527 17.7218L17.2163 17.0854ZM12.7479 16.9153C12.2508 16.9153 11.8479 17.3183 11.8479 17.8153C11.8479 18.3124 12.2508 18.7153 12.7479 18.7153V16.9153ZM20.9248 15.2359L20.4256 15.9847L20.4256 15.9847L20.9248 15.2359ZM9.0277 14.6908L9.43019 15.4958L9.43019 15.4958L9.0277 14.6908ZM13.4992 14.2818L13.736 13.4135L13.736 13.4135L13.4992 14.2818ZM15.2454 14.758L15.0086 15.6263L15.0086 15.6263L15.2454 14.758ZM15.7987 16.8414L15.1623 16.205L15.1623 16.205L15.7987 16.8414ZM14.1884 17.1789C13.837 17.5304 13.837 18.1003 14.1884 18.4517C14.5399 18.8032 15.1097 18.8032 15.4612 18.4517L14.1884 17.1789ZM8.04789 21.9922C8.18412 21.9468 8.45187 21.92 8.90647 21.9524C9.34268 21.9835 9.85077 22.0598 10.4275 22.1504C11.528 22.3232 12.9009 22.5571 14.0757 22.4501L13.9124 20.6575C13.0102 20.7397 11.8909 20.5582 10.7068 20.3722C10.1412 20.2834 9.55888 20.1944 9.03452 20.157C8.52854 20.1209 7.96552 20.1223 7.47868 20.2846L8.04789 21.9922ZM14.0757 22.4501C14.8456 22.3799 15.4889 22.3475 16.0838 22.2398C16.7244 22.1239 17.3262 21.9227 18.1272 21.5319L17.3378 19.9142C16.6521 20.2488 16.2084 20.388 15.7633 20.4686C15.2725 20.5574 14.79 20.5776 13.9124 20.6575L14.0757 22.4501ZM18.1272 21.5319C18.897 21.1562 19.6439 20.5479 20.2899 19.9272C20.9447 19.298 21.54 18.6129 22.0041 18.0399L20.6053 16.907C20.1693 17.4454 19.6256 18.0693 19.0428 18.6292C18.4514 19.1975 17.8621 19.6583 17.3378 19.9142L18.1272 21.5319ZM18.2251 14.8038L16.5799 16.449L17.8527 17.7218L19.4979 16.0766L18.2251 14.8038ZM15.454 16.9153H12.7479V18.7153H15.454V16.9153ZM16.5799 16.449C16.2813 16.7476 15.8763 16.9153 15.454 16.9153V18.7153C16.3537 18.7153 17.2166 18.3579 17.8527 17.7218L16.5799 16.449ZM21.4241 14.487C20.4186 13.8167 19.0797 13.9493 18.2251 14.8038L19.4979 16.0766C19.7457 15.8288 20.134 15.7903 20.4256 15.9847L21.4241 14.487ZM22.0041 18.0399C22.9369 16.8882 22.5877 15.2627 21.4241 14.487L20.4256 15.9847C20.7776 16.2194 20.8189 16.6433 20.6053 16.907L22.0041 18.0399ZM3.19405 14.5615H6.51713V12.7615H3.19405V14.5615ZM6.4479 14.4923V21.9692H8.2479V14.4923H6.4479ZM6.51713 21.8999H3.19405V23.6999H6.51713V21.8999ZM3.26328 21.9692V14.4923H1.46328V21.9692H3.26328ZM3.19405 21.8999C3.23228 21.8999 3.26328 21.9309 3.26328 21.9692H1.46328C1.46328 22.9251 2.23818 23.6999 3.19405 23.6999V21.8999ZM6.4479 21.9692C6.4479 21.9309 6.47889 21.8999 6.51713 21.8999V23.6999C7.473 23.6999 8.2479 22.9251 8.2479 21.9692H6.4479ZM6.51713 14.5615C6.47889 14.5615 6.4479 14.5305 6.4479 14.4923H8.2479C8.2479 13.5364 7.473 12.7615 6.51713 12.7615V14.5615ZM3.19405 12.7615C2.23817 12.7615 1.46328 13.5364 1.46328 14.4923H3.26328C3.26328 14.5305 3.23229 14.5615 3.19405 14.5615V12.7615ZM8.16577 16.128L9.43019 15.4958L8.6252 13.8858L7.36079 14.518L8.16577 16.128ZM11.6284 14.9769H11.9691V13.1769H11.6284V14.9769ZM13.2624 15.1501L15.0086 15.6263L15.4823 13.8897L13.736 13.4135L13.2624 15.1501ZM15.1623 16.205L14.1884 17.1789L15.4612 18.4517L16.4351 17.4778L15.1623 16.205ZM15.0086 15.6263C15.2651 15.6962 15.3503 16.0171 15.1623 16.205L16.4351 17.4778C17.6003 16.3126 17.0721 14.3233 15.4823 13.8897L15.0086 15.6263ZM11.9691 14.9769C12.406 14.9769 12.8409 15.0351 13.2624 15.1501L13.736 13.4135C13.1602 13.2564 12.566 13.1769 11.9691 13.1769V14.9769ZM9.43019 15.4958C10.1127 15.1545 10.8653 14.9769 11.6284 14.9769V13.1769C10.5859 13.1769 9.55767 13.4196 8.6252 13.8858L9.43019 15.4958ZM17.2479 7.8461C17.2479 9.18433 16.163 10.2692 14.8248 10.2692V12.0692C17.1572 12.0692 19.0479 10.1784 19.0479 7.8461H17.2479ZM14.8248 10.2692C13.4866 10.2692 12.4017 9.18433 12.4017 7.8461H10.6017C10.6017 10.1784 12.4925 12.0692 14.8248 12.0692V10.2692ZM12.4017 7.8461C12.4017 6.50788 13.4866 5.42303 14.8248 5.42303V3.62303C12.4925 3.62303 10.6017 5.51376 10.6017 7.8461H12.4017ZM14.8248 5.42303C16.163 5.42303 17.2479 6.50788 17.2479 7.8461H19.0479C19.0479 5.51376 17.1572 3.62303 14.8248 3.62303V5.42303ZM11.5017 6.9461C10.1635 6.9461 9.07867 5.86126 9.07867 4.52303H7.27867C7.27867 6.85537 9.1694 8.7461 11.5017 8.7461V6.9461ZM9.07867 4.52303C9.07867 3.1848 10.1635 2.09995 11.5017 2.09995V0.299951C9.1694 0.299951 7.27867 2.19069 7.27867 4.52303H9.07867ZM11.5017 2.09995C12.84 2.09995 13.9248 3.1848 13.9248 4.52303H15.7248C15.7248 2.19069 13.8341 0.299951 11.5017 0.299951V2.09995Z" fill="black"/>
</svg>
