<svg width="16" height="16" viewBox="0 0 16 16" fill="none" xmlns="http://www.w3.org/2000/svg">
<path d="M4.98595 13.5231C4.67158 13.6279 4.50168 13.9677 4.60647 14.2821C4.71126 14.5965 5.05105 14.7664 5.36542 14.6616L4.98595 13.5231ZM9.32953 14.3693L9.2751 13.7718L9.32953 14.3693ZM11.8218 13.8154L12.085 14.3547L11.8218 13.8154ZM14.2033 11.6491L13.737 11.2714L14.2033 11.6491ZM12.5745 10.2935L12.9988 10.7178L12.5745 10.2935ZM11.4777 11.3903L11.902 11.8146L11.4777 11.3903ZM8.49876 11.277C8.16739 11.277 7.89876 11.5456 7.89876 11.877C7.89876 12.2083 8.16739 12.477 8.49876 12.477V11.277ZM13.9501 10.1573L13.6172 10.6566L13.9501 10.1573ZM6.01863 9.79396L6.28695 10.3306L6.01863 9.79396ZM8.99966 9.52127L9.15753 8.94241H9.15753L8.99966 9.52127ZM10.1638 9.83876L10.0059 10.4176L10.1638 9.83876ZM10.5326 11.2277L10.1084 10.8034H10.1084L10.5326 11.2277ZM9.45911 11.4527C9.2248 11.687 9.2248 12.0669 9.45911 12.3012C9.69343 12.5356 10.0733 12.5356 10.3076 12.3012L9.45911 11.4527ZM5.36542 14.6616C5.45624 14.6313 5.63474 14.6134 5.93781 14.635C6.22862 14.6558 6.56734 14.7066 6.95182 14.767C7.68548 14.8822 8.60079 15.0382 9.38396 14.9668L9.2751 13.7718C8.67365 13.8265 7.92742 13.7055 7.13801 13.5815C6.76095 13.5223 6.37275 13.463 6.02317 13.4381C5.68586 13.414 5.31051 13.415 4.98595 13.5231L5.36542 14.6616ZM9.38396 14.9668C9.89724 14.92 10.3261 14.8984 10.7227 14.8266C11.1497 14.7493 11.551 14.6152 12.085 14.3547L11.5587 13.2762C11.1015 13.4993 10.8058 13.5921 10.509 13.6458C10.1819 13.705 9.86014 13.7185 9.2751 13.7718L9.38396 14.9668ZM12.085 14.3547C12.5982 14.1042 13.0961 13.6987 13.5268 13.2849C13.9633 12.8654 14.3601 12.4087 14.6695 12.0267L13.737 11.2714C13.4464 11.6303 13.0839 12.0463 12.6954 12.4196C12.3011 12.7984 11.9083 13.1056 11.5587 13.2762L12.085 14.3547ZM12.1502 9.86927L11.0535 10.9661L11.902 11.8146L12.9988 10.7178L12.1502 9.86927ZM10.3028 11.277H8.49876V12.477H10.3028V11.277ZM11.0535 10.9661C10.8544 11.1651 10.5844 11.277 10.3028 11.277V12.477C10.9026 12.477 11.4779 12.2387 11.902 11.8146L11.0535 10.9661ZM14.2829 9.6581C13.6125 9.21119 12.7199 9.29958 12.1502 9.86927L12.9988 10.7178C13.164 10.5526 13.4228 10.527 13.6172 10.6566L14.2829 9.6581ZM14.6695 12.0267C15.2914 11.2589 15.0586 10.1752 14.2829 9.6581L13.6172 10.6566C13.8519 10.813 13.8794 11.0956 13.737 11.2714L14.6695 12.0267ZM2.12953 9.70774H4.34491V8.50774H2.12953V9.70774ZM4.29876 9.66159V14.6462H5.49876V9.66159H4.29876ZM4.34491 14.6H2.12953V15.8H4.34491V14.6ZM2.17568 14.6462V9.66159H0.975684V14.6462H2.17568ZM2.12953 14.6C2.15502 14.6 2.17568 14.6207 2.17568 14.6462H0.975684C0.975684 15.2835 1.49228 15.8 2.12953 15.8V14.6ZM4.29876 14.6462C4.29876 14.6207 4.31943 14.6 4.34491 14.6V15.8C4.98216 15.8 5.49876 15.2835 5.49876 14.6462H4.29876ZM4.34491 9.70774C4.31942 9.70774 4.29876 9.68708 4.29876 9.66159H5.49876C5.49876 9.02433 4.98217 8.50774 4.34491 8.50774V9.70774ZM2.12953 8.50774C1.49228 8.50774 0.975684 9.02433 0.975684 9.66159H2.17568C2.17568 9.68708 2.15502 9.70774 2.12953 9.70774V8.50774ZM5.44401 10.7521L6.28695 10.3306L5.7503 9.25731L4.90736 9.67878L5.44401 10.7521ZM7.75244 9.98466H7.97957V8.78466H7.75244V9.98466ZM8.84179 10.1001L10.0059 10.4176L10.3217 9.25991L9.15753 8.94241L8.84179 10.1001ZM10.1084 10.8034L9.45911 11.4527L10.3076 12.3012L10.9569 11.652L10.1084 10.8034ZM10.0059 10.4176C10.1769 10.4642 10.2337 10.6781 10.1084 10.8034L10.9569 11.652C11.7337 10.8752 11.3815 9.54896 10.3217 9.2599L10.0059 10.4176ZM7.97957 9.98466C8.27083 9.98466 8.56079 10.0235 8.84179 10.1001L9.15753 8.94241C8.77363 8.83771 8.37749 8.78466 7.97957 8.78466V9.98466ZM6.28695 10.3306C6.74197 10.1031 7.24371 9.98466 7.75244 9.98466V8.78466C7.05742 8.78466 6.37194 8.94648 5.7503 9.25731L6.28695 10.3306ZM11.4988 5.23082C11.4988 6.12297 10.7755 6.8462 9.88338 6.8462V8.0462C11.4383 8.0462 12.6988 6.78571 12.6988 5.23082H11.4988ZM9.88338 6.8462C8.99122 6.8462 8.26799 6.12297 8.26799 5.23082H7.06799C7.06799 6.78571 8.32848 8.0462 9.88338 8.0462V6.8462ZM8.26799 5.23082C8.26799 4.33867 8.99122 3.61543 9.88338 3.61543V2.41543C8.32848 2.41543 7.06799 3.67592 7.06799 5.23082H8.26799ZM9.88338 3.61543C10.7755 3.61543 11.4988 4.33867 11.4988 5.23082H12.6988C12.6988 3.67592 11.4383 2.41543 9.88338 2.41543V3.61543ZM7.66799 4.63082C6.77584 4.63082 6.05261 3.90759 6.05261 3.01543H4.85261C4.85261 4.57033 6.1131 5.83082 7.66799 5.83082V4.63082ZM6.05261 3.01543C6.05261 2.12328 6.77584 1.40005 7.66799 1.40005V0.200049C6.1131 0.200049 4.85261 1.46054 4.85261 3.01543H6.05261ZM7.66799 1.40005C8.56014 1.40005 9.28338 2.12328 9.28338 3.01543H10.4834C10.4834 1.46054 9.22289 0.200049 7.66799 0.200049V1.40005Z" fill="black"/>
</svg>
