<svg width="12" height="12" viewBox="0 0 12 12" fill="none" xmlns="http://www.w3.org/2000/svg">
<path d="M3.72353 10.095C3.46155 10.1823 3.31997 10.4655 3.4073 10.7274C3.49462 10.9894 3.77778 11.131 4.03975 11.0437L3.72353 10.095ZM6.99703 10.777L6.95166 10.2791L6.95166 10.2791L6.99703 10.777ZM8.86626 10.3616L9.08554 10.811L9.08554 10.811L8.86626 10.3616ZM10.6523 8.73685L10.2638 8.42216L10.2638 8.42216L10.6523 8.73685ZM9.43076 7.72021L9.78431 8.07377L9.78431 8.07377L9.43076 7.72021ZM8.60817 8.5428L8.96172 8.89635L8.96172 8.89635L8.60817 8.5428ZM6.37395 8.40779C6.09781 8.40779 5.87395 8.63165 5.87395 8.90779C5.87395 9.18393 6.09781 9.40779 6.37395 9.40779V8.40779ZM10.4624 7.61806L10.1851 8.03408L10.1851 8.03408L10.4624 7.61806ZM4.51385 7.34553L4.73745 7.79275L4.73745 7.79275L4.51385 7.34553ZM6.74962 7.14101L6.88118 6.65863L6.88118 6.65863L6.74962 7.14101ZM7.62272 7.37913L7.49116 7.86152L7.49116 7.86152L7.62272 7.37913ZM7.89936 8.42084L7.54581 8.06728L7.54581 8.06728L7.89936 8.42084ZM7.05886 8.55424C6.86359 8.7495 6.86359 9.06608 7.05886 9.26134C7.25412 9.45661 7.5707 9.45661 7.76596 9.26134L7.05886 8.55424ZM4.03975 11.0437C4.09813 11.0242 4.2238 11.0101 4.44968 11.0262C4.66534 11.0416 4.91732 11.0794 5.20598 11.1247C5.75391 11.2108 6.44743 11.3292 7.04239 11.275L6.95166 10.2791C6.50815 10.3195 5.95552 10.2302 5.36115 10.1368C5.07866 10.0925 4.78545 10.0476 4.52081 10.0287C4.2664 10.0106 3.97669 10.0106 3.72353 10.095L4.03975 11.0437ZM7.04239 11.275C7.42435 11.2402 7.75046 11.2236 8.05082 11.1692C8.37651 11.1103 8.68184 11.008 9.08554 10.811L8.64697 9.91229C8.30731 10.078 8.08989 10.1459 7.87274 10.1852C7.63027 10.2291 7.39344 10.2388 6.95166 10.2791L7.04239 11.275ZM9.08554 10.811C9.47727 10.6198 9.85505 10.3116 10.1796 9.99976C10.509 9.68328 10.8081 9.33903 11.0409 9.05154L10.2638 8.42216C10.0466 8.69037 9.77614 9.00063 9.48676 9.27867C9.19256 9.56135 8.90233 9.78767 8.64697 9.91229L9.08554 10.811ZM9.0772 7.36666L8.25462 8.18925L8.96172 8.89635L9.78431 8.07377L9.0772 7.36666ZM7.727 8.40779H6.37395V9.40779H7.727V8.40779ZM8.25462 8.18925C8.11468 8.32918 7.9249 8.40779 7.727 8.40779V9.40779C8.19011 9.40779 8.63425 9.22382 8.96172 8.89635L8.25462 8.18925ZM10.7398 7.20203C10.2172 6.85363 9.52132 6.92254 9.0772 7.36666L9.78431 8.07377C9.89137 7.96671 10.0591 7.9501 10.1851 8.03408L10.7398 7.20203ZM11.0409 9.05154C11.5273 8.45102 11.3441 7.60492 10.7398 7.20203L10.1851 8.03408C10.3385 8.13637 10.3506 8.31496 10.2638 8.42216L11.0409 9.05154ZM1.59703 7.33087H3.25856V6.33087H1.59703V7.33087ZM3.17395 7.24625V10.9847H4.17395V7.24625H3.17395ZM3.25856 10.9001H1.59703V11.9001H3.25856V10.9001ZM1.68164 10.9847V7.24625H0.681641V10.9847H1.68164ZM1.59703 10.9001C1.64376 10.9001 1.68164 10.938 1.68164 10.9847H0.681641C0.681641 11.4903 1.09147 11.9001 1.59703 11.9001V10.9001ZM3.17395 10.9847C3.17395 10.938 3.21183 10.9001 3.25856 10.9001V11.9001C3.76412 11.9001 4.17395 11.4903 4.17395 10.9847H3.17395ZM3.25856 7.33087C3.21183 7.33087 3.17395 7.29298 3.17395 7.24625H4.17395C4.17395 6.7407 3.76412 6.33087 3.25856 6.33087V7.33087ZM1.59703 6.33087C1.09147 6.33087 0.681641 6.7407 0.681641 7.24625H1.68164C1.68164 7.29298 1.64376 7.33087 1.59703 7.33087V6.33087ZM4.10525 8.10885L4.73745 7.79275L4.29024 6.89832L3.65803 7.21442L4.10525 8.10885ZM5.81421 7.53856H5.98456V6.53856H5.81421V7.53856ZM6.61806 7.6234L7.49116 7.86152L7.75428 6.89675L6.88118 6.65863L6.61806 7.6234ZM7.54581 8.06728L7.05886 8.55424L7.76596 9.26134L8.25291 8.77439L7.54581 8.06728ZM7.49116 7.86152C7.58233 7.88638 7.61263 8.00046 7.54581 8.06728L8.25291 8.77439C8.86267 8.16464 8.58622 7.12364 7.75428 6.89675L7.49116 7.86152ZM5.98456 7.53856C6.19856 7.53856 6.4116 7.56709 6.61806 7.6234L6.88118 6.65863C6.58897 6.57894 6.28744 6.53856 5.98456 6.53856V7.53856ZM4.73745 7.79275C5.07178 7.62559 5.44043 7.53856 5.81421 7.53856V6.53856C5.28518 6.53856 4.76342 6.66173 4.29024 6.89832L4.73745 7.79275ZM8.57395 3.92317C8.57395 4.56467 8.05391 5.08471 7.41241 5.08471V6.08471C8.60619 6.08471 9.57395 5.11696 9.57395 3.92317H8.57395ZM7.41241 5.08471C6.77091 5.08471 6.25087 4.56467 6.25087 3.92317H5.25087C5.25087 5.11696 6.21863 6.08471 7.41241 6.08471V5.08471ZM6.25087 3.92317C6.25087 3.28167 6.77091 2.76164 7.41241 2.76164V1.76164C6.21863 1.76164 5.25087 2.72939 5.25087 3.92317H6.25087ZM7.41241 2.76164C8.05391 2.76164 8.57395 3.28167 8.57395 3.92317H9.57395C9.57395 2.72939 8.60619 1.76164 7.41241 1.76164V2.76164ZM5.75087 3.42317C5.10937 3.42317 4.58933 2.90314 4.58933 2.26164H3.58933C3.58933 3.45542 4.55709 4.42317 5.75087 4.42317V3.42317ZM4.58933 2.26164C4.58933 1.62014 5.10937 1.1001 5.75087 1.1001V0.100098C4.55709 0.100098 3.58933 1.06785 3.58933 2.26164H4.58933ZM5.75087 1.1001C6.39237 1.1001 6.91241 1.62014 6.91241 2.26164H7.91241C7.91241 1.06785 6.94466 0.100098 5.75087 0.100098V1.1001Z" fill="black"/>
</svg>
