<svg width="12" height="12" viewBox="0 0 12 12" fill="none" xmlns="http://www.w3.org/2000/svg">
    <path d="M5.52412 1.67572H2.52412C1.53001 1.67572 0.724121 2.4816 0.724121 3.47572V9.47577C0.724121 10.4699 1.53001 11.2758 2.52412 11.2758H8.52412C9.51823 11.2758 10.3241 10.4699 10.3241 9.47577L10.3241 6.47574M3.72412 8.27572L5.90711 7.83586C6.023 7.81251 6.12941 7.75544 6.21298 7.67183L11.0998 2.78231C11.3341 2.54788 11.334 2.16789 11.0995 1.93366L10.0643 0.899617C9.82985 0.665483 9.45005 0.665643 9.21585 0.899973L4.3285 5.79C4.2451 5.87345 4.18814 5.97964 4.16477 6.09529L3.72412 8.27572Z" stroke="black" stroke-linecap="round" stroke-linejoin="round"/>
</svg>
