<svg width="20" height="20" viewBox="0 0 20 20" fill="none" xmlns="http://www.w3.org/2000/svg">
    <path d="M9.20703 2.79302H4.20703C2.55018 2.79302 1.20703 4.13617 1.20703 5.79302V15.7931C1.20703 17.45 2.55018 18.7931 4.20703 18.7931H14.207C15.8639 18.7931 17.207 17.45 17.207 15.7931L17.207 10.7931M6.20703 13.793L9.84535 13.0599C10.0385 13.021 10.2158 12.9259 10.3551 12.7865L18.4999 4.63734C18.8904 4.24663 18.8901 3.61331 18.4993 3.22292L16.7739 1.49952C16.3833 1.1093 15.7502 1.10957 15.3599 1.50012L7.21433 9.65016C7.07532 9.78925 6.9804 9.96624 6.94145 10.159L6.20703 13.793Z" stroke="black" stroke-width="1.5" stroke-linecap="round" stroke-linejoin="round"/>
</svg>
