<svg width="32" height="32" viewBox="0 0 32 32" fill="none" xmlns="http://www.w3.org/2000/svg">
    <path d="M3.20068 12.3257C3.20068 11.8004 3.46808 11.3075 3.9183 11.003L15.0116 3.50102C15.6038 3.10057 16.3976 3.10057 16.9897 3.50102L28.0831 11.003C28.5333 11.3075 28.8007 11.8004 28.8007 12.3257V26.3661C28.8007 27.7107 27.6545 28.8007 26.2407 28.8007H5.76068C4.34684 28.8007 3.20068 27.7107 3.20068 26.3661V12.3257Z" stroke="black" stroke-width="2.4"/>
    <path d="M19.2007 17.6007C19.2007 19.368 17.768 20.8007 16.0007 20.8007C14.2334 20.8007 12.8007 19.368 12.8007 17.6007C12.8007 15.8334 14.2334 14.4007 16.0007 14.4007C17.768 14.4007 19.2007 15.8334 19.2007 17.6007Z" stroke="black" stroke-width="2.4"/>
</svg>
