<svg width="12" height="12" viewBox="0 0 12 12" fill="none" xmlns="http://www.w3.org/2000/svg">
    <path d="M1.2002 4.62209C1.2002 4.42508 1.30047 4.24025 1.4693 4.12608L5.6293 1.31282C5.85135 1.16265 6.14904 1.16265 6.37109 1.31282L10.5311 4.12608C10.6999 4.24025 10.8002 4.42508 10.8002 4.62209V9.88724C10.8002 10.3914 10.3704 10.8002 9.84019 10.8002H2.1602C1.63 10.8002 1.2002 10.3915 1.2002 9.88724V4.62209Z" stroke="black"/>
    <path d="M7.20019 6.60019C7.20019 7.26294 6.66294 7.80019 6.0002 7.80019C5.33745 7.80019 4.8002 7.26294 4.8002 6.60019C4.8002 5.93745 5.33745 5.4002 6.0002 5.4002C6.66294 5.4002 7.20019 5.93745 7.20019 6.60019Z" stroke="black"/>
</svg>
