<svg width="20" height="20" viewBox="0 0 20 20" fill="none" xmlns="http://www.w3.org/2000/svg">
    <path d="M2.00049 7.70365C2.00049 7.37529 2.16761 7.06725 2.449 6.87696L9.38233 2.1882C9.75242 1.93792 10.2486 1.93792 10.6186 2.1882L17.552 6.87696C17.8334 7.06725 18.0005 7.37529 18.0005 7.70365V16.4789C18.0005 17.3192 17.2841 18.0005 16.4005 18.0005H3.60049C2.71683 18.0005 2.00049 17.3192 2.00049 16.4789V7.70365Z" stroke="black" stroke-width="1.5"/>
    <path d="M12.0005 11.0005C12.0005 12.1051 11.1051 13.0005 10.0005 13.0005C8.89592 13.0005 8.00049 12.1051 8.00049 11.0005C8.00049 9.89592 8.89592 9.00049 10.0005 9.00049C11.1051 9.00049 12.0005 9.89592 12.0005 11.0005Z" stroke="black" stroke-width="1.5"/>
</svg>
