<svg width="16" height="16" viewBox="0 0 16 16" fill="none" xmlns="http://www.w3.org/2000/svg">
    <path d="M1.6001 6.16262C1.6001 5.89994 1.7338 5.65351 1.9589 5.50127L7.50557 1.75026C7.80164 1.55004 8.19855 1.55004 8.49462 1.75026L14.0413 5.50127C14.2664 5.65351 14.4001 5.89994 14.4001 6.16262V13.1828C14.4001 13.8551 13.827 14.4001 13.1201 14.4001H2.8801C2.17317 14.4001 1.6001 13.8551 1.6001 13.1828V6.16262Z" stroke="black" stroke-width="1.2"/>
    <path d="M9.6001 8.8001C9.6001 9.68375 8.88375 10.4001 8.0001 10.4001C7.11644 10.4001 6.4001 9.68375 6.4001 8.8001C6.4001 7.91644 7.11644 7.2001 8.0001 7.2001C8.88375 7.2001 9.6001 7.91644 9.6001 8.8001Z" stroke="black" stroke-width="1.2"/>
</svg>
