<svg width="16" height="16" viewBox="0 0 16 16" fill="none" xmlns="http://www.w3.org/2000/svg">
    <path d="M12.9784 1.60156C13.7638 1.60156 14.4006 2.22959 14.4006 3.0043L14.4006 5.39885C14.4006 6.17356 13.7638 6.80159 12.9784 6.80159H10.845C10.0596 6.80159 9.42281 6.17356 9.42281 5.39885L9.42281 3.0043C9.42281 2.22959 10.0596 1.60156 10.845 1.60156L12.9784 1.60156Z" stroke="black" stroke-width="1.2" stroke-linecap="round" stroke-linejoin="round"/>
    <path d="M3.02281 1.60156C2.23734 1.60156 1.60059 2.22959 1.60059 3.0043L1.60059 5.39885C1.60059 6.17356 2.23734 6.80159 3.02281 6.80159H5.15615C5.94162 6.80159 6.57837 6.17356 6.57837 5.39885L6.57836 3.0043C6.57836 2.22959 5.94161 1.60156 5.15614 1.60156L3.02281 1.60156Z" stroke="black" stroke-width="1.2" stroke-linecap="round" stroke-linejoin="round"/>
    <path d="M12.9784 9.20159C13.7638 9.20159 14.4006 9.82962 14.4006 10.6043V12.9989C14.4006 13.7736 13.7638 14.4016 12.9784 14.4016H10.845C10.0596 14.4016 9.42281 13.7736 9.42281 12.9989L9.42281 10.6043C9.42281 9.82962 10.0596 9.20159 10.845 9.20159H12.9784Z" stroke="black" stroke-width="1.2" stroke-linecap="round" stroke-linejoin="round"/>
    <path d="M3.02281 9.20159C2.23734 9.20159 1.60059 9.82962 1.60059 10.6043L1.60059 12.9989C1.60059 13.7736 2.23734 14.4016 3.02282 14.4016H5.15615C5.94162 14.4016 6.57837 13.7736 6.57837 12.9989L6.57837 10.6043C6.57837 9.82962 5.94162 9.20159 5.15615 9.20159H3.02281Z" stroke="black" stroke-width="1.2" stroke-linecap="round" stroke-linejoin="round"/>
</svg>
