<svg width="32" height="32" viewBox="0 0 32 32" fill="none" xmlns="http://www.w3.org/2000/svg">
    <path d="M25.9557 3.19531C27.5267 3.19531 28.8002 4.45137 28.8002 6.00079L28.8002 10.7899C28.8002 12.3393 27.5267 13.5954 25.9558 13.5954H21.6891C20.1181 13.5954 18.8446 12.3393 18.8446 10.7899L18.8446 6.00079C18.8446 4.45137 20.1181 3.19531 21.6891 3.19531L25.9557 3.19531Z" stroke="black" stroke-width="2.4" stroke-linecap="round" stroke-linejoin="round"/>
    <path d="M6.04464 3.19531C4.47369 3.19531 3.20019 4.45137 3.20019 6.00079L3.20021 10.7899C3.20021 12.3393 4.47371 13.5954 6.04465 13.5954H10.3113C11.8823 13.5954 13.1558 12.3393 13.1558 10.7899L13.1557 6.00079C13.1557 4.45137 11.8822 3.19531 10.3113 3.19531L6.04464 3.19531Z" stroke="black" stroke-width="2.4" stroke-linecap="round" stroke-linejoin="round"/>
    <path d="M25.9558 18.3954C27.5267 18.3954 28.8002 19.6514 28.8002 21.2008V25.9899C28.8002 27.5393 27.5267 28.7954 25.9558 28.7954H21.6891C20.1182 28.7954 18.8447 27.5393 18.8447 25.9899L18.8446 21.2008C18.8446 19.6514 20.1182 18.3954 21.6891 18.3954H25.9558Z" stroke="black" stroke-width="2.4" stroke-linecap="round" stroke-linejoin="round"/>
    <path d="M6.04465 18.3954C4.47371 18.3954 3.20021 19.6514 3.20021 21.2008L3.20021 25.9899C3.20021 27.5393 4.47371 28.7954 6.04465 28.7954H10.3113C11.8823 28.7954 13.1558 27.5393 13.1558 25.9899L13.1558 21.2008C13.1558 19.6514 11.8823 18.3954 10.3113 18.3954H6.04465Z" stroke="black" stroke-width="2.4" stroke-linecap="round" stroke-linejoin="round"/>
</svg>
