<svg width="16" height="16" viewBox="0 0 16 16" fill="none" xmlns="http://www.w3.org/2000/svg">
    <path d="M5.83702 2.83958L6.68441 1.62182C6.80904 1.44272 7.01343 1.33594 7.23163 1.33594H8.43501C8.6524 1.33594 8.85613 1.44193 8.98091 1.61993L9.81944 2.81615M5.83702 2.83958C5.60579 3.16948 5.22142 3.33113 4.81346 3.30231M5.83702 2.83958C5.60466 3.16869 5.22142 3.33247 4.81346 3.30231M4.81346 3.30231L3.31406 3.20818C3.10016 3.19475 2.89285 3.28497 2.75691 3.45066L1.99657 4.37732C1.85244 4.55299 1.8077 4.78997 1.87788 5.00609L2.31511 6.35263M2.31511 6.35263C2.37439 6.54485 2.38198 6.75078 2.33955 6.94527M2.31511 6.35263C2.37523 6.54451 2.38254 6.75003 2.33927 6.94727M2.33955 6.94527C2.29656 7.13746 2.20441 7.31893 2.06757 7.46588M2.33955 6.94527L2.33927 6.94727M2.06757 7.46588L1.07684 8.53144C0.924572 8.69521 0.864552 8.9244 0.917008 9.14178L1.18538 10.2539C1.23766 10.4706 1.39476 10.6468 1.60403 10.7235L2.96526 11.2224C3.1552 11.2959 3.31928 11.4154 3.44347 11.5658M2.06757 7.46588C2.20525 7.32014 2.29656 7.13925 2.33927 6.94727M3.44347 11.5658C3.56681 11.7168 3.65082 11.8989 3.68341 12.0962M3.44347 11.5658C3.56794 11.7168 3.65223 11.8985 3.68341 12.0962M3.44347 11.5658L3.4415 11.5637C3.43335 11.5538 3.42464 11.5435 3.41621 11.5339M3.68341 12.0962L3.91519 13.5199C3.9507 13.738 4.092 13.9244 4.29245 14.0174L5.37774 14.5213C5.57179 14.6114 5.79728 14.6029 5.98398 14.4985L7.25984 13.7847M7.25984 13.7847C7.43656 13.6854 7.6338 13.6356 7.83104 13.6354M7.25984 13.7847C7.3298 13.7448 7.40313 13.7131 7.47843 13.6892C7.59278 13.653 7.71191 13.6351 7.83104 13.6354M7.83104 13.6354C7.93359 13.6356 8.03615 13.6491 8.13617 13.6759C8.22917 13.7008 8.31964 13.7371 8.40534 13.7847M7.83104 13.6354C8.02912 13.6351 8.22749 13.6849 8.40534 13.7847M8.40534 13.7847L9.74099 14.5077C9.9285 14.6092 10.1533 14.6149 10.3457 14.523L11.4258 14.0071C11.6255 13.9117 11.7649 13.7234 11.7977 13.5045L12.0054 12.1212M12.0054 12.1212C12.0365 11.9229 12.1194 11.7394 12.2425 11.5871M12.0054 12.1212C12.0354 11.9225 12.1189 11.7392 12.2425 11.5871M12.2425 11.5871C12.3647 11.4364 12.5268 11.3164 12.7156 11.2422M12.2425 11.5871C12.3644 11.4359 12.526 11.3155 12.7156 11.2422M12.7156 11.2422L14.091 10.7032C14.2963 10.6227 14.4485 10.4459 14.4976 10.2309L14.7548 9.10523C14.8037 8.89082 14.7438 8.66604 14.5946 8.50447L13.5979 7.42525M13.5979 7.42525C13.4585 7.27778 13.3613 7.10164 13.3141 6.91443M13.5979 7.42525C13.5324 7.35638 13.4762 7.28108 13.4304 7.20125C13.3782 7.1106 13.3391 7.01411 13.3141 6.91443M13.3141 6.91443C13.2677 6.72856 13.2706 6.5316 13.3293 6.34095L13.7604 4.95918C13.8273 4.74465 13.7816 4.51083 13.6389 4.33724L12.8973 3.43523C12.7598 3.26797 12.5496 3.17792 12.3336 3.19374L10.8514 3.30231M10.8514 3.30231C10.6486 3.31663 10.4491 3.27799 10.2715 3.19486M10.8514 3.30231C10.6483 3.31746 10.4491 3.2785 10.2715 3.19486M10.2715 3.19486C10.0928 3.11067 9.93604 2.9812 9.81944 2.81615M10.2715 3.19486C10.0925 3.11098 9.93548 2.98186 9.81944 2.81615M2.33927 6.94727L2.33983 6.94435M10.0903 8.00968C10.0903 9.25298 9.05971 10.2608 7.78862 10.2608C6.51752 10.2608 5.48694 9.25298 5.48694 8.00968C5.48694 6.76638 6.51752 5.75851 7.78862 5.75851C9.05971 5.75851 10.0903 6.76638 10.0903 8.00968Z" stroke="black" stroke-width="1.2"/>
</svg>
