<svg width="20" height="20" viewBox="0 0 20 20" fill="none" xmlns="http://www.w3.org/2000/svg">
    <path d="M7.29603 3.54752L8.35527 2.02532C8.51105 1.80144 8.76654 1.66797 9.03929 1.66797H10.5435C10.8153 1.66797 11.0699 1.80046 11.2259 2.02297L12.2741 3.51824M7.29603 3.54752C7.00699 3.95989 6.52654 4.16196 6.01658 4.12593M7.29603 3.54752C7.00558 3.95891 6.52654 4.16363 6.01658 4.12593M6.01658 4.12593L4.14233 4.00827C3.87496 3.99148 3.61582 4.10426 3.44589 4.31137L2.49547 5.4697C2.3153 5.68928 2.25938 5.9855 2.3471 6.25565L2.89364 7.93884M2.89364 7.93884C2.96774 8.17912 2.97723 8.43653 2.92419 8.67964M2.89364 7.93884C2.9688 8.17869 2.97793 8.43558 2.92384 8.68213M2.92419 8.67964C2.87046 8.91988 2.75526 9.14671 2.58422 9.3304M2.92419 8.67964L2.92384 8.68213M2.58422 9.3304L1.3458 10.6623C1.15547 10.8671 1.08045 11.1536 1.14602 11.4253L1.48148 12.8154C1.54684 13.0863 1.74321 13.3065 2.00479 13.4024L3.70633 14.026C3.94375 14.1179 4.14886 14.2672 4.30409 14.4554M2.58422 9.3304C2.75632 9.14822 2.87046 8.92211 2.92384 8.68213M4.30409 14.4554C4.45827 14.644 4.56328 14.8717 4.60402 15.1183M4.30409 14.4554C4.45968 14.644 4.56504 14.8711 4.60402 15.1183M4.30409 14.4554L4.30163 14.4526C4.29145 14.4403 4.28056 14.4274 4.27002 14.4155M4.60402 15.1183L4.89374 16.8979C4.93813 17.1706 5.11476 17.4035 5.36532 17.5198L6.72193 18.1497C6.96449 18.2623 7.24635 18.2517 7.47973 18.1211L9.07455 17.2289M9.07455 17.2289C9.29546 17.1048 9.54201 17.0426 9.78856 17.0423M9.07455 17.2289C9.162 17.1791 9.25367 17.1394 9.34779 17.1096C9.49073 17.0643 9.63964 17.042 9.78856 17.0423M9.78856 17.0423C9.91675 17.0425 10.0449 17.0595 10.17 17.093C10.2862 17.1241 10.3993 17.1695 10.5064 17.2289M9.78856 17.0423C10.0362 17.0419 10.2841 17.1041 10.5064 17.2289M10.5064 17.2289L12.176 18.1327C12.4104 18.2596 12.6913 18.2667 12.9319 18.1518L14.282 17.507C14.5316 17.3877 14.7058 17.1523 14.7469 16.8787L15.0065 15.1496M15.0065 15.1496C15.0454 14.9017 15.149 14.6723 15.3029 14.482M15.0065 15.1496C15.044 14.9011 15.1483 14.6721 15.3029 14.482M15.3029 14.482C15.4557 14.2936 15.6583 14.1435 15.8943 14.0507M15.3029 14.482C15.4553 14.2929 15.6572 14.1424 15.8943 14.0507M15.8943 14.0507L17.6135 13.377C17.8701 13.2764 18.0604 13.0554 18.1218 12.7867L18.4432 11.3796C18.5044 11.1116 18.4295 10.8306 18.243 10.6286L16.9971 9.27961M16.9971 9.27961C16.8229 9.09528 16.7014 8.87509 16.6424 8.64108M16.9971 9.27961C16.9153 9.19352 16.845 9.0994 16.7878 8.99961C16.7225 8.8863 16.6736 8.76569 16.6424 8.64108M16.6424 8.64108C16.5844 8.40875 16.5879 8.16254 16.6614 7.92424L17.2002 6.19702C17.2839 5.92886 17.2268 5.63659 17.0484 5.4196L16.1214 4.29209C15.9495 4.08301 15.6867 3.97045 15.4168 3.99022L13.564 4.12593M13.564 4.12593C13.3105 4.14384 13.0611 4.09553 12.8392 3.99162M13.564 4.12593C13.3101 4.14487 13.0611 4.09618 12.8392 3.99162M12.8392 3.99162C12.6158 3.88638 12.4198 3.72455 12.2741 3.51824M12.8392 3.99162C12.6154 3.88677 12.4191 3.72537 12.2741 3.51824M2.92384 8.68213L2.92455 8.67848M12.6126 10.0101C12.6126 11.5643 11.3244 12.8241 9.73552 12.8241C8.14666 12.8241 6.85843 11.5643 6.85843 10.0101C6.85843 8.45602 8.14666 7.19619 9.73552 7.19619C11.3244 7.19619 12.6126 8.45602 12.6126 10.0101Z" stroke="black" stroke-width="1.5"/>
</svg>
