<svg width="32" height="32" viewBox="0 0 32 32" fill="none" xmlns="http://www.w3.org/2000/svg">
    <path d="M11.674 5.67525L13.3688 3.23973C13.6181 2.88152 14.0269 2.66797 14.4633 2.66797H16.87C17.3048 2.66797 17.7123 2.87995 17.9618 3.23596L19.6389 5.6284M11.674 5.67525C11.2116 6.33505 10.4428 6.65835 9.62692 6.60071M11.674 5.67525C11.2093 6.33347 10.4428 6.66103 9.62692 6.60071M9.62692 6.60071L6.62812 6.41245C6.20033 6.38559 5.7857 6.56604 5.51381 6.89741L3.99314 8.75074C3.70487 9.10207 3.6154 9.57603 3.75575 10.0083L4.63021 12.7014M4.63021 12.7014C4.74878 13.0858 4.76395 13.4977 4.6791 13.8866M4.63021 12.7014C4.75047 13.0851 4.76508 13.4961 4.67854 13.8906M4.6791 13.8866C4.59312 14.271 4.40881 14.634 4.13515 14.9279M4.6791 13.8866L4.67854 13.8906M4.13515 14.9279L2.15368 17.059C1.84914 17.3865 1.7291 17.8449 1.83402 18.2797L2.37076 20.5039C2.47533 20.9372 2.78952 21.2896 3.20806 21.443L5.93053 22.4408C6.31039 22.5879 6.63856 22.8268 6.88694 23.1278M4.13515 14.9279C4.4105 14.6364 4.59312 14.2746 4.67854 13.8906M6.88694 23.1278C7.13362 23.4296 7.30164 23.794 7.36683 24.1884M6.88694 23.1278C7.13587 23.4296 7.30445 23.793 7.36683 24.1884M6.88694 23.1278L6.883 23.1235C6.86671 23.1037 6.84929 23.0831 6.83243 23.064M7.36683 24.1884L7.83038 27.0359C7.9014 27.4721 8.184 27.8448 8.5849 28.031L10.7555 29.0387C11.1436 29.2189 11.5946 29.2019 11.968 28.993L14.5197 27.5654M14.5197 27.5654C14.8731 27.3669 15.2676 27.2673 15.6621 27.2668M14.5197 27.5654C14.6596 27.4858 14.8063 27.4222 14.9569 27.3745C15.1856 27.3021 15.4238 27.2663 15.6621 27.2668M15.6621 27.2668C15.8672 27.2672 16.0723 27.2944 16.2723 27.348C16.4583 27.3978 16.6393 27.4704 16.8107 27.5654M15.6621 27.2668C16.0582 27.2663 16.455 27.3658 16.8107 27.5654M16.8107 27.5654L19.482 29.0115C19.857 29.2145 20.3065 29.2259 20.6914 29.0421L22.8515 28.0104C23.251 27.8196 23.5297 27.443 23.5955 27.0052L24.0107 24.2386M24.0107 24.2386C24.0731 23.8419 24.2389 23.4749 24.485 23.1704M24.0107 24.2386C24.0708 23.841 24.2377 23.4745 24.485 23.1704M24.485 23.1704C24.7294 22.869 25.0537 22.6289 25.4313 22.4804M24.485 23.1704C24.7289 22.8678 25.052 22.627 25.4313 22.4804M25.4313 22.4804L28.1819 21.4024C28.5926 21.2415 28.8971 20.8879 28.9953 20.4579L29.5095 18.2066C29.6075 17.7777 29.4876 17.3282 29.1892 17.005L27.1958 14.8466M27.1958 14.8466C26.917 14.5517 26.7226 14.1994 26.6282 13.8249M27.1958 14.8466C27.0648 14.7088 26.9524 14.5583 26.8608 14.3986C26.7563 14.2173 26.6782 14.0243 26.6282 13.8249M26.6282 13.8249C26.5355 13.4532 26.5411 13.0593 26.6586 12.678L27.5207 9.91446C27.6546 9.48539 27.5633 9.01776 27.2778 8.67058L25.7946 6.86656C25.5195 6.53204 25.0992 6.35194 24.6672 6.38357L21.7029 6.60071M21.7029 6.60071C21.2971 6.62936 20.8982 6.55207 20.543 6.38582M21.7029 6.60071C21.2966 6.63101 20.8982 6.5531 20.543 6.38582M20.543 6.38582C20.1856 6.21743 19.8721 5.9585 19.6389 5.6284M20.543 6.38582C20.1851 6.21805 19.871 5.95981 19.6389 5.6284M4.67854 13.8906L4.67966 13.8848M20.1806 16.0155C20.1806 18.5021 18.1194 20.5178 15.5772 20.5178C13.035 20.5178 10.9739 18.5021 10.9739 16.0155C10.9739 13.5289 13.035 11.5131 15.5772 11.5131C18.1194 11.5131 20.1806 13.5289 20.1806 16.0155Z" stroke="black" stroke-width="2.4"/>
</svg>
