<svg width="20" height="20" viewBox="0 0 20 20" fill="none" xmlns="http://www.w3.org/2000/svg" stroke="inherit">
<path d="M15.5322 10.3027L13.8376 15.0782C13.6574 15.5862 13.2233 15.962 12.6948 16.0677L2.71875 18.063L4.53927 7.96735C4.64048 7.40609 5.0452 6.94758 5.58955 6.77747L10.479 5.24951"  stroke-width="1.5" stroke-linecap="round" stroke-linejoin="round"/>
<path d="M7.59119 10.3026C8.38856 9.50525 9.68136 9.50525 10.4787 10.3026C11.2761 11.1 11.2761 12.3928 10.4787 13.1902C9.68136 13.9875 8.38856 13.9875 7.59119 13.1902C6.79382 12.3928 6.79382 11.1 7.59119 10.3026Z"  stroke-width="1.5" stroke-linecap="round"/>
<path d="M16.6151 9.94179C16.2164 10.3405 15.57 10.3405 15.1713 9.94179L10.84 5.61048C10.4413 5.2118 10.4413 4.5654 10.84 4.16671L12.6447 2.362C13.0434 1.96332 13.6898 1.96332 14.0885 2.362L18.4198 6.69331C18.8185 7.09199 18.8185 7.73839 18.4198 8.13707L16.6151 9.94179Z"  stroke-width="1.5" stroke-linecap="round"/>
<path d="M2.89941 17.8826L7.23072 13.5513"  stroke-width="1.5" stroke-linecap="round" stroke-linejoin="round"/>
</svg>
