<svg width="24" height="24" viewBox="0 0 24 24" fill="none" xmlns="http://www.w3.org/2000/svg" stroke="inherit">
<path d="M18.6388 12.3634L16.6054 18.094C16.3891 18.7036 15.8682 19.1546 15.2339 19.2814L3.2627 21.6757L5.44732 9.56096C5.56877 8.88746 6.05443 8.33724 6.70765 8.13311L12.575 6.29956"  stroke-width="1.8" stroke-linecap="round" stroke-linejoin="round"/>
<path d="M9.10972 12.3631C10.0666 11.4063 11.6179 11.4063 12.5748 12.3631C13.5316 13.32 13.5316 14.8713 12.5748 15.8282C11.6179 16.785 10.0666 16.785 9.10972 15.8282C8.15288 14.8713 8.15288 13.32 9.10972 12.3631Z"  stroke-width="1.8" stroke-linecap="round"/>
<path d="M19.9383 11.9301C19.4599 12.4086 18.6842 12.4086 18.2058 11.9301L13.0082 6.73258C12.5298 6.25416 12.5298 5.47848 13.0082 5.00006L15.1739 2.8344C15.6523 2.35598 16.428 2.35598 16.9064 2.8344L22.104 8.03197C22.5824 8.51039 22.5824 9.28607 22.104 9.76449L19.9383 11.9301Z"  stroke-width="1.8" stroke-linecap="round"/>
<path d="M3.479 21.459L8.67657 16.2615"  stroke-width="1.8" stroke-linecap="round" stroke-linejoin="round"/>
</svg>
