<svg width="32" height="32" viewBox="0 0 32 32" fill="none" xmlns="http://www.w3.org/2000/svg" stroke="inherit">
<path d="M24.8516 16.4843L22.1403 24.1251C21.8519 24.9379 21.1574 25.5392 20.3118 25.7083L4.3501 28.9007L7.26293 12.7477C7.42486 11.8497 8.07241 11.1161 8.94337 10.8439L16.7665 8.39917"  stroke-width="2.4" stroke-linecap="round" stroke-linejoin="round"/>
<path d="M12.1463 16.4842C13.4221 15.2084 15.4906 15.2084 16.7664 16.4842C18.0421 17.76 18.0421 19.8285 16.7664 21.1042C15.4906 22.38 13.4221 22.38 12.1463 21.1042C10.8705 19.8285 10.8705 17.76 12.1463 16.4842Z"  stroke-width="2.4" stroke-linecap="round"/>
<path d="M26.5843 15.9069C25.9464 16.5448 24.9121 16.5448 24.2742 15.9069L17.3441 8.97677C16.7062 8.33887 16.7062 7.30464 17.3441 6.66674L20.2317 3.7792C20.8696 3.14131 21.9038 3.14131 22.5417 3.7792L29.4718 10.7093C30.1097 11.3472 30.1097 12.3814 29.4718 13.0193L26.5843 15.9069Z"  stroke-width="2.4" stroke-linecap="round"/>
<path d="M4.63867 28.612L11.5688 21.6819"  stroke-width="2.4" stroke-linecap="round" stroke-linejoin="round"/>
</svg>
