<svg width="16" height="16" viewBox="0 0 16 16" fill="none" xmlns="http://www.w3.org/2000/svg" stroke="inherit">
<path d="M12.4256 8.24226L11.0699 12.0627C10.9257 12.4691 10.5785 12.7697 10.1556 12.8543L2.1748 14.4505L3.63122 6.37398C3.71219 5.92497 4.03596 5.55816 4.47144 5.42207L8.38301 4.19971"  stroke-width="1.2" stroke-linecap="round" stroke-linejoin="round"/>
<path d="M6.07315 8.24209C6.71105 7.6042 7.74528 7.6042 8.38318 8.24209C9.02107 8.87999 9.02107 9.91423 8.38318 10.5521C7.74528 11.19 6.71105 11.19 6.07315 10.5521C5.43525 9.91423 5.43525 8.87999 6.07315 8.24209Z"  stroke-width="1.2" stroke-linecap="round"/>
<path d="M13.2919 7.95343C12.9729 8.27238 12.4558 8.27238 12.1369 7.95343L8.67183 4.48839C8.35288 4.16944 8.35288 3.65232 8.67183 3.33337L10.1156 1.8896C10.4345 1.57065 10.9517 1.57065 11.2706 1.8896L14.7357 5.35465C15.0546 5.67359 15.0546 6.19071 14.7357 6.50966L13.2919 7.95343Z"  stroke-width="1.2" stroke-linecap="round"/>
<path d="M2.31934 14.3059L5.78438 10.8408"  stroke-width="1.2" stroke-linecap="round" stroke-linejoin="round"/>
</svg>
