<svg width="12" height="12" viewBox="0 0 12 12" fill="none" xmlns="http://www.w3.org/2000/svg">
<path d="M9.31941 6.18157L8.30269 9.04689C8.19453 9.35169 7.9341 9.57717 7.61697 9.6406L1.63135 10.8377L2.72366 4.78036C2.78438 4.44361 3.02722 4.1685 3.35383 4.06643L6.2875 3.14966" stroke="black" stroke-width="1.2" stroke-linecap="round" stroke-linejoin="round"/>
<path d="M4.55511 6.18157C5.03353 5.70315 5.8092 5.70315 6.28763 6.18157C6.76605 6.65999 6.76605 7.43567 6.28763 7.91409C5.8092 8.39252 5.03353 8.39252 4.55511 7.91409C4.07668 7.43567 4.07668 6.65999 4.55511 6.18157Z" stroke="black" stroke-width="1.2" stroke-linecap="round"/>
<path d="M9.96916 5.96507C9.72995 6.20428 9.34211 6.20428 9.1029 5.96507L6.50412 3.36629C6.2649 3.12708 6.2649 2.73924 6.50412 2.50003L7.58694 1.4172C7.82615 1.17799 8.21399 1.17799 8.4532 1.4172L11.052 4.01598C11.2912 4.2552 11.2912 4.64303 11.052 4.88224L9.96916 5.96507Z" stroke="black" stroke-linecap="round"/>
<path d="M1.73926 10.7294L4.33804 8.13062" stroke="black" stroke-width="1.2" stroke-linecap="round" stroke-linejoin="round"/>
</svg>
