<svg width="20" height="20" viewBox="0 0 20 20" fill="none" xmlns="http://www.w3.org/2000/svg">
    <path d="M1.25 18.0019C1.24995 18.4161 1.5857 18.7519 1.99992 18.7519C2.41413 18.752 2.74995 18.4162 2.75 18.002L1.25 18.0019ZM2.00034 15.0016L2.75034 15.0017L2.00034 15.0016ZM10.5 12.752C10.9142 12.752 11.25 12.4162 11.25 12.002C11.25 11.5877 10.9142 11.252 10.5 11.252V12.752ZM18 13.752C18.4142 13.752 18.75 13.4162 18.75 13.002C18.75 12.5877 18.4142 12.252 18 12.252V13.752ZM13.5 12.252C13.0858 12.252 12.75 12.5877 12.75 13.002C12.75 13.4162 13.0858 13.752 13.5 13.752V12.252ZM15 15.2518C15 15.666 15.3358 16.0018 15.75 16.0018C16.1642 16.0018 16.5 15.666 16.5 15.2518H15ZM16.5 10.7518C16.5 10.3376 16.1642 10.0018 15.75 10.0018C15.3358 10.0018 15 10.3376 15 10.7518H16.5ZM11.25 5.00195C11.25 6.24459 10.2426 7.25195 9 7.25195V8.75195C11.0711 8.75195 12.75 7.07302 12.75 5.00195H11.25ZM9 7.25195C7.75736 7.25195 6.75 6.24459 6.75 5.00195H5.25C5.25 7.07302 6.92893 8.75195 9 8.75195V7.25195ZM6.75 5.00195C6.75 3.75931 7.75736 2.75195 9 2.75195V1.25195C6.92893 1.25195 5.25 2.93089 5.25 5.00195H6.75ZM9 2.75195C10.2426 2.75195 11.25 3.75931 11.25 5.00195H12.75C12.75 2.93088 11.0711 1.25195 9 1.25195V2.75195ZM2.75 18.002L2.75034 15.0017L1.25034 15.0015L1.25 18.0019L2.75 18.002ZM5.00034 11.252C2.92943 11.252 1.25057 12.9306 1.25034 15.0015L2.75034 15.0017C2.75048 13.7592 3.75779 12.752 5.00034 12.752V11.252ZM5.00034 12.752H10.5V11.252H5.00034V12.752ZM18 12.252H15.75V13.752H18V12.252ZM15.75 12.252H13.5V13.752H15.75V12.252ZM16.5 15.2518V13.002H15V15.2518H16.5ZM16.5 13.002V10.7518H15V13.002H16.5Z" fill="black"/>
</svg>
