<svg width="16" height="16" viewBox="0 0 16 16" fill="none" xmlns="http://www.w3.org/2000/svg">
    <path d="M1.0001 14.4C1.00006 14.7314 1.26866 15.0001 1.60003 15.0001C1.9314 15.0001 2.20006 14.7315 2.2001 14.4002L1.0001 14.4ZM1.60037 11.9998L2.20037 11.9999L1.60037 11.9998ZM8.4001 10.2001C8.73147 10.2001 9.0001 9.93147 9.0001 9.6001C9.0001 9.26872 8.73147 9.0001 8.4001 9.0001V10.2001ZM14.4001 11.0001C14.7315 11.0001 15.0001 10.7315 15.0001 10.4001C15.0001 10.0687 14.7315 9.8001 14.4001 9.8001V11.0001ZM10.8001 9.8001C10.4687 9.8001 10.2001 10.0687 10.2001 10.4001C10.2001 10.7315 10.4687 11.0001 10.8001 11.0001V9.8001ZM12.0001 12.2C12.0001 12.5314 12.2687 12.8 12.6001 12.8C12.9315 12.8 13.2001 12.5314 13.2001 12.2H12.0001ZM13.2001 8.6C13.2001 8.26863 12.9315 8 12.6001 8C12.2687 8 12.0001 8.26863 12.0001 8.6H13.2001ZM9.0001 4.0001C9.0001 4.99421 8.19421 5.8001 7.2001 5.8001V7.0001C8.85695 7.0001 10.2001 5.65695 10.2001 4.0001H9.0001ZM7.2001 5.8001C6.20598 5.8001 5.4001 4.99421 5.4001 4.0001H4.2001C4.2001 5.65695 5.54324 7.0001 7.2001 7.0001V5.8001ZM5.4001 4.0001C5.4001 3.00598 6.20598 2.2001 7.2001 2.2001V1.0001C5.54324 1.0001 4.2001 2.34324 4.2001 4.0001H5.4001ZM7.2001 2.2001C8.19421 2.2001 9.0001 3.00599 9.0001 4.0001H10.2001C10.2001 2.34324 8.85695 1.0001 7.2001 1.0001V2.2001ZM2.2001 14.4002L2.20037 11.9999L1.00037 11.9998L1.0001 14.4L2.2001 14.4002ZM4.00037 9.0001C2.34364 9.0001 1.00055 10.343 1.00037 11.9998L2.20037 11.9999C2.20048 11.0059 3.00633 10.2001 4.00037 10.2001V9.0001ZM4.00037 10.2001H8.4001V9.0001H4.00037V10.2001ZM14.4001 9.8001H12.6001V11.0001H14.4001V9.8001ZM12.6001 9.8001H10.8001V11.0001H12.6001V9.8001ZM13.2001 12.2V10.4001H12.0001V12.2H13.2001ZM13.2001 10.4001V8.6H12.0001V10.4001H13.2001Z" fill="black"/>
</svg>
