<svg width="24" height="24" viewBox="0 0 24 24" fill="none" xmlns="http://www.w3.org/2000/svg">
    <path d="M1.50039 21.6003C1.50033 22.0973 1.90323 22.5003 2.40029 22.5004C2.89735 22.5004 3.30033 22.0975 3.30039 21.6005L1.50039 21.6003ZM2.4008 18L3.3008 18.0001L2.4008 18ZM12.6004 15.3004C13.0974 15.3004 13.5004 14.8974 13.5004 14.4004C13.5004 13.9033 13.0974 13.5004 12.6004 13.5004V15.3004ZM21.6004 16.5004C22.0974 16.5004 22.5004 16.0974 22.5004 15.6004C22.5004 15.1033 22.0974 14.7004 21.6004 14.7004V16.5004ZM16.2004 14.7004C15.7033 14.7004 15.3004 15.1033 15.3004 15.6004C15.3004 16.0974 15.7033 16.5004 16.2004 16.5004V14.7004ZM18.0004 18.3002C18.0004 18.7973 18.4033 19.2002 18.9004 19.2002C19.3974 19.2002 19.8004 18.7973 19.8004 18.3002H18.0004ZM19.8004 12.9002C19.8004 12.4032 19.3974 12.0002 18.9004 12.0002C18.4033 12.0002 18.0004 12.4032 18.0004 12.9002H19.8004ZM13.5004 6.00039C13.5004 7.49156 12.2916 8.70039 10.8004 8.70039V10.5004C13.2857 10.5004 15.3004 8.48567 15.3004 6.00039H13.5004ZM10.8004 8.70039C9.30922 8.70039 8.10039 7.49156 8.10039 6.00039H6.30039C6.30039 8.48567 8.31511 10.5004 10.8004 10.5004V8.70039ZM8.10039 6.00039C8.10039 4.50922 9.30922 3.30039 10.8004 3.30039V1.50039C8.31511 1.50039 6.30039 3.51511 6.30039 6.00039H8.10039ZM10.8004 3.30039C12.2916 3.30039 13.5004 4.50922 13.5004 6.00039H15.3004C15.3004 3.51511 13.2857 1.50039 10.8004 1.50039V3.30039ZM3.30039 21.6005L3.3008 18.0001L1.5008 17.9999L1.50039 21.6003L3.30039 21.6005ZM6.00079 13.5004C3.51571 13.5004 1.50107 15.5148 1.5008 17.9999L3.3008 18.0001C3.30096 16.509 4.50974 15.3004 6.00079 15.3004V13.5004ZM6.00079 15.3004H12.6004V13.5004H6.00079V15.3004ZM21.6004 14.7004H18.9004V16.5004H21.6004V14.7004ZM18.9004 14.7004H16.2004V16.5004H18.9004V14.7004ZM19.8004 18.3002V15.6004H18.0004V18.3002H19.8004ZM19.8004 15.6004V12.9002H18.0004V15.6004H19.8004Z" fill="black"/>
</svg>
