<svg width="12" height="12" viewBox="0 0 12 12" fill="none" xmlns="http://www.w3.org/2000/svg">
    <path d="M0.700195 10.8011C0.700164 11.0773 0.923997 11.3011 1.20014 11.3012C1.47628 11.3012 1.70016 11.0774 1.7002 10.8012L0.700195 10.8011ZM1.2004 9.00097L1.7004 9.00102L1.2004 9.00097ZM6.30019 7.70117C6.57634 7.70117 6.80019 7.47731 6.80019 7.20117C6.80019 6.92503 6.57634 6.70117 6.30019 6.70117V7.70117ZM10.8002 8.30117C11.0763 8.30117 11.3002 8.07731 11.3002 7.80117C11.3002 7.52503 11.0763 7.30117 10.8002 7.30117V8.30117ZM8.10019 7.30117C7.82405 7.30117 7.60019 7.52503 7.60019 7.80117C7.60019 8.07731 7.82405 8.30117 8.10019 8.30117V7.30117ZM8.95019 9.1511C8.95019 9.42724 9.17405 9.6511 9.45019 9.6511C9.72634 9.6511 9.95019 9.42724 9.95019 9.1511H8.95019ZM9.95019 6.4511C9.95019 6.17496 9.72634 5.9511 9.45019 5.9511C9.17405 5.9511 8.95019 6.17496 8.95019 6.4511H9.95019ZM6.70019 3.00117C6.70019 3.71914 6.11816 4.30117 5.40019 4.30117V5.30117C6.67045 5.30117 7.70019 4.27143 7.70019 3.00117H6.70019ZM5.40019 4.30117C4.68222 4.30117 4.10019 3.71914 4.10019 3.00117H3.10019C3.10019 4.27143 4.12994 5.30117 5.40019 5.30117V4.30117ZM4.10019 3.00117C4.10019 2.2832 4.68222 1.70117 5.40019 1.70117V0.701172C4.12994 0.701172 3.10019 1.73092 3.10019 3.00117H4.10019ZM5.40019 1.70117C6.11816 1.70117 6.70019 2.2832 6.70019 3.00117H7.70019C7.70019 1.73092 6.67045 0.701172 5.40019 0.701172V1.70117ZM1.7002 10.8012L1.7004 9.00102L0.700398 9.00091L0.700195 10.8011L1.7002 10.8012ZM3.0004 6.70117C1.73024 6.70117 0.70054 7.73076 0.700398 9.00091L1.7004 9.00102C1.70048 8.28311 2.28248 7.70117 3.0004 7.70117V6.70117ZM3.0004 7.70117H6.30019V6.70117H3.0004V7.70117ZM10.8002 7.30117H9.45019V8.30117H10.8002V7.30117ZM9.45019 7.30117H8.10019V8.30117H9.45019V7.30117ZM9.95019 9.1511V7.80117H8.95019V9.1511H9.95019ZM9.95019 7.80117V6.4511H8.95019V7.80117H9.95019Z" fill="black"/>
</svg>
