<svg width="20" height="20" viewBox="0 0 20 20" fill="none" xmlns="http://www.w3.org/2000/svg">
    <path d="M4.6641 15.5836C4.29362 15.7688 4.14345 16.2193 4.32869 16.5898C4.51393 16.9603 4.96444 17.1105 5.33492 16.9252L4.6641 15.5836ZM9.99902 17.2539C5.99496 17.2539 2.74902 14.008 2.74902 10.0039H1.24902C1.24902 14.8364 5.16653 18.7539 9.99902 18.7539V17.2539ZM2.74902 10.0039C2.74902 7.66073 3.8598 5.57731 5.58661 4.25074L4.6728 3.06122C2.59234 4.65948 1.24902 7.17498 1.24902 10.0039H2.74902ZM5.58661 4.25074C6.8089 3.31175 8.33775 2.75391 9.99902 2.75391V1.25391C7.99584 1.25391 6.14797 1.92796 4.6728 3.06122L5.58661 4.25074ZM4.759 4.30796C5.23943 4.58113 6.74951 6.17413 6.74951 10.0039H8.24951C8.24951 5.8329 6.59985 3.62912 5.50041 3.004L4.759 4.30796ZM6.74951 10.0039C6.74951 13.8172 5.1669 15.3322 4.6641 15.5836L5.33492 16.9252C6.49879 16.3433 8.24951 14.1914 8.24951 10.0039H6.74951ZM9.99902 2.75391C11.6603 2.75391 13.1891 3.31175 14.4114 4.25074L15.3252 3.06122C13.8501 1.92796 12.0022 1.25391 9.99902 1.25391V2.75391ZM14.4114 4.25074C16.1382 5.57731 17.249 7.66073 17.249 10.0039H18.749C18.749 7.17498 17.4057 4.65948 15.3252 3.06122L14.4114 4.25074ZM14.4975 3.00406C13.3984 3.62925 11.7495 5.83304 11.7495 10.0039H13.2495C13.2495 6.17399 14.759 4.581 15.2392 4.30789L14.4975 3.00406ZM17.249 10.0039C17.249 12.2958 16.1864 14.3389 14.5241 15.6687L15.4611 16.8401C17.464 15.2379 18.749 12.7707 18.749 10.0039H17.249ZM14.5241 15.6687C13.2837 16.661 11.7116 17.2539 9.99902 17.2539V18.7539C12.0643 18.7539 13.9643 18.0374 15.4611 16.8401L14.5241 15.6687ZM11.7495 10.0039C11.7495 14.1904 13.4949 16.3424 14.6565 16.9248L15.3288 15.5839C14.8283 15.333 13.2495 13.8182 13.2495 10.0039H11.7495Z" fill="black"/>
</svg>
