<svg width="12" height="12" viewBox="0 0 12 12" fill="none" xmlns="http://www.w3.org/2000/svg">
    <path d="M2.77688 9.30425C2.52989 9.42775 2.42978 9.72808 2.55327 9.97507C2.67677 10.2221 2.97711 10.3222 3.2241 10.1987L2.77688 9.30425ZM6.00019 10.3012C3.62537 10.3012 1.7002 8.376 1.7002 6.00117H0.700195C0.700195 8.92828 3.07309 11.3012 6.00019 11.3012V10.3012ZM1.7002 6.00117C1.7002 4.61146 2.35891 3.37581 3.38321 2.58892L2.774 1.79591C1.51393 2.76392 0.700195 4.28762 0.700195 6.00117H1.7002ZM3.38321 2.58892C4.10815 2.032 5.01483 1.70117 6.00019 1.70117V0.701172C4.78689 0.701172 3.66753 1.10948 2.774 1.79591L3.38321 2.58892ZM2.83147 2.62707C3.09909 2.77924 4.00049 3.71468 4.00049 6.00117H5.00049C5.00049 3.48719 4.00604 2.14457 3.32574 1.75776L2.83147 2.62707ZM4.00049 6.00117C4.00049 8.27665 3.05652 9.16443 2.77688 9.30425L3.2241 10.1987C3.94445 9.8385 5.00049 8.52617 5.00049 6.00117H4.00049ZM6.00019 1.70117C6.98556 1.70117 7.89224 2.032 8.61718 2.58892L9.22639 1.79591C8.33286 1.10948 7.2135 0.701172 6.00019 0.701172V1.70117ZM8.61718 2.58892C9.64148 3.37581 10.3002 4.61146 10.3002 6.00117H11.3002C11.3002 4.28762 10.4865 2.76392 9.22639 1.79591L8.61718 2.58892ZM8.67457 1.75781C7.99448 2.14465 7.00049 3.48729 7.00049 6.00117H8.00049C8.00049 3.71459 8.90156 2.77915 9.169 2.62702L8.67457 1.75781ZM10.3002 6.00117C10.3002 7.36046 9.67006 8.57223 8.68402 9.36102L9.3087 10.1419C10.5218 9.17151 11.3002 7.67708 11.3002 6.00117H10.3002ZM8.68402 9.36102C7.9483 9.94957 7.016 10.3012 6.00019 10.3012V11.3012C7.25114 11.3012 8.40208 10.8672 9.3087 10.1419L8.68402 9.36102ZM7.00049 6.00117C7.00049 8.52548 8.05325 9.83794 8.77226 10.1984L9.22046 9.3045C8.94222 9.16499 8.00049 8.27733 8.00049 6.00117H7.00049Z" fill="black"/>
</svg>
