<svg width="24" height="24" viewBox="0 0 24 24" fill="none" xmlns="http://www.w3.org/2000/svg">
    <path d="M5.59702 18.7004C5.15244 18.9227 4.97224 19.4633 5.19453 19.9079C5.41682 20.3524 5.95742 20.5326 6.402 20.3104L5.59702 18.7004ZM11.9989 20.7048C7.19405 20.7048 3.29893 16.8097 3.29893 12.0048H1.49893C1.49893 17.8038 6.19994 22.5048 11.9989 22.5048V20.7048ZM3.29893 12.0048C3.29893 9.19297 4.63186 6.69287 6.70403 5.10098L5.60745 3.67356C3.1109 5.59147 1.49893 8.61007 1.49893 12.0048H3.29893ZM6.70403 5.10098C8.17078 3.97419 10.0054 3.30479 11.9989 3.30479V1.50479C9.59511 1.50479 7.37766 2.31365 5.60745 3.67356L6.70403 5.10098ZM5.71089 5.16965C6.28742 5.49745 8.09951 7.40905 8.09951 12.0048H9.89951C9.89951 6.99958 7.91991 4.35504 6.60059 3.6049L5.71089 5.16965ZM8.09951 12.0048C8.09951 16.5807 6.20038 18.3987 5.59702 18.7004L6.402 20.3104C7.79865 19.612 9.89951 17.0298 9.89951 12.0048H8.09951ZM11.9989 3.30479C13.9925 3.30479 15.8271 3.97419 17.2938 5.10098L18.3904 3.67356C16.6202 2.31365 14.4027 1.50479 11.9989 1.50479V3.30479ZM17.2938 5.10098C19.366 6.69287 20.6989 9.19297 20.6989 12.0048H22.4989C22.4989 8.61007 20.8869 5.59147 18.3904 3.67356L17.2938 5.10098ZM17.3971 3.60498C16.0782 4.3552 14.0995 6.99974 14.0995 12.0048H15.8995C15.8995 7.40888 17.7109 5.49729 18.2871 5.16957L17.3971 3.60498ZM20.6989 12.0048C20.6989 14.755 19.4238 17.2068 17.429 18.8026L18.5535 20.2082C20.9569 18.2855 22.4989 15.3249 22.4989 12.0048H20.6989ZM17.429 18.8026C15.9405 19.9933 14.054 20.7048 11.9989 20.7048V22.5048C14.4773 22.5048 16.7573 21.645 18.5535 20.2082L17.429 18.8026ZM14.0995 12.0048C14.0995 17.0286 16.1939 19.611 17.5879 20.3099L18.3946 18.7008C17.7941 18.3997 15.8995 16.5819 15.8995 12.0048H14.0995Z" fill="black"/>
</svg>
