<svg width="16" height="16" viewBox="0 0 16 16" fill="none" xmlns="http://www.w3.org/2000/svg">
    <path d="M3.73216 12.4638C3.43577 12.612 3.31564 12.9724 3.46383 13.2688C3.61203 13.5652 3.97243 13.6853 4.26882 13.5371L3.73216 12.4638ZM8.0001 13.8001C4.79685 13.8001 2.2001 11.2033 2.2001 8.0001H1.0001C1.0001 11.8661 4.1341 15.0001 8.0001 15.0001V13.8001ZM2.2001 8.0001C2.2001 6.12556 3.08872 4.45882 4.47017 3.39756L3.73912 2.44595C2.07475 3.72455 1.0001 5.73695 1.0001 8.0001H2.2001ZM4.47017 3.39756C5.448 2.64637 6.67108 2.2001 8.0001 2.2001V1.0001C6.39755 1.0001 4.91925 1.53934 3.73912 2.44595L4.47017 3.39756ZM3.80808 3.44334C4.19243 3.66187 5.40049 4.93627 5.40049 8.0001H6.60049C6.60049 4.66329 5.28076 2.90027 4.40121 2.40017L3.80808 3.44334ZM5.40049 8.0001C5.40049 11.0507 4.1344 12.2627 3.73216 12.4638L4.26882 13.5371C5.19991 13.0716 6.60049 11.3501 6.60049 8.0001H5.40049ZM8.0001 2.2001C9.32911 2.2001 10.5522 2.64637 11.53 3.39756L12.2611 2.44595C11.0809 1.53934 9.60264 1.0001 8.0001 1.0001V2.2001ZM11.53 3.39756C12.9115 4.45882 13.8001 6.12556 13.8001 8.0001H15.0001C15.0001 5.73695 13.9254 3.72455 12.2611 2.44595L11.53 3.39756ZM11.5989 2.40022C10.7196 2.90037 9.40049 4.6634 9.40049 8.0001H10.6005C10.6005 4.93616 11.8081 3.66177 12.1922 3.44329L11.5989 2.40022ZM13.8001 8.0001C13.8001 9.83358 12.95 11.4681 11.6202 12.532L12.3698 13.469C13.9721 12.1873 15.0001 10.2135 15.0001 8.0001H13.8001ZM11.6202 12.532C10.6278 13.3258 9.37017 13.8001 8.0001 13.8001V15.0001C9.65234 15.0001 11.1724 14.4269 12.3698 13.469L11.6202 12.532ZM9.40049 8.0001C9.40049 11.3493 10.7968 13.0709 11.7261 13.5368L12.2639 12.4641C11.8635 12.2634 10.6005 11.0515 10.6005 8.0001H9.40049Z" fill="black"/>
</svg>
