<svg width="20" height="20" viewBox="0 0 20 20" fill="none" xmlns="http://www.w3.org/2000/svg">
    <path d="M3.06474 14.3195L2.45377 13.8845L2.45377 13.8845L3.06474 14.3195ZM4.08665 11.2279L3.33665 11.2193V11.2279H4.08665ZM4.1081 9.35877L4.8581 9.36737V9.35877H4.1081ZM16.9439 14.3345L17.5633 13.9116L17.5633 13.9116L16.9439 14.3345ZM15.9604 11.2279L15.2104 11.2189V11.2279H15.9604ZM15.9819 9.45139L16.7319 9.46045V9.45139H15.9819ZM1.80385 4.72472C1.64973 5.10919 1.83647 5.54581 2.22094 5.69993C2.60541 5.85405 3.04203 5.66731 3.19615 5.28284L1.80385 4.72472ZM5.49582 2.66028C5.86048 2.46383 5.99685 2.00896 5.8004 1.64429C5.60394 1.27963 5.14907 1.14327 4.78441 1.33972L5.49582 2.66028ZM15.204 1.35162C14.8415 1.1513 14.3852 1.28283 14.1848 1.64538C13.9845 2.00794 14.116 2.46424 14.4786 2.66455L15.204 1.35162ZM16.8009 5.26718C16.9509 5.65328 17.3855 5.84468 17.7716 5.69467C18.1577 5.54467 18.3491 5.11007 18.1991 4.72397L16.8009 5.26718ZM3.67571 14.7545C4.25921 13.9349 4.83665 12.7146 4.83665 11.2279H3.33665C3.33665 12.3212 2.91028 13.2433 2.45377 13.8845L3.67571 14.7545ZM4.8366 11.2365L4.85805 9.36737L3.35815 9.35016L3.3367 11.2193L4.8366 11.2365ZM17.5633 13.9116C17.1257 13.2707 16.7104 12.3386 16.7104 11.2279H15.2104C15.2104 12.7149 15.7643 13.9369 16.3245 14.7574L17.5633 13.9116ZM16.7104 11.237L16.7318 9.46045L15.2319 9.44234L15.2105 11.2189L16.7104 11.237ZM16.7319 9.45139C16.7319 5.55976 13.7636 2.32073 10.0016 2.32073V3.82073C12.8451 3.82073 15.2319 6.29514 15.2319 9.45139H16.7319ZM16.586 15.9507C17.1892 15.9507 17.5439 15.5037 17.6795 15.1639C17.8178 14.8172 17.8458 14.3254 17.5633 13.9116L16.3245 14.7574C16.2888 14.7051 16.2823 14.6608 16.2813 14.643C16.2804 14.6259 16.2831 14.616 16.2863 14.608C16.289 14.6013 16.3021 14.5707 16.345 14.5348C16.3934 14.4942 16.478 14.4507 16.586 14.4507V15.9507ZM4.8581 9.35877C4.8581 6.25367 7.20595 3.82073 10.0016 3.82073V2.32073C6.28744 2.32073 3.3581 5.51829 3.3581 9.35877H4.8581ZM3.41803 14.4507C3.52841 14.4507 3.61402 14.496 3.6619 14.5368C3.70407 14.5728 3.716 14.6026 3.71788 14.6075C3.72033 14.6138 3.72279 14.6222 3.72172 14.6386C3.72061 14.6557 3.7137 14.7011 3.67571 14.7545L2.45377 13.8845C2.15827 14.2995 2.18384 14.7996 2.31896 15.1488C2.45106 15.4902 2.805 15.9507 3.41803 15.9507V14.4507ZM16.586 14.4507H3.41803V15.9507H16.586V14.4507ZM3.19615 5.28284C3.64859 4.15418 4.4546 3.22121 5.49582 2.66028L4.78441 1.33972C3.41355 2.07822 2.37809 3.2922 1.80385 4.72472L3.19615 5.28284ZM14.4786 2.66455C15.5473 3.25501 16.3744 4.16944 16.8009 5.26718L18.1991 4.72397C17.6362 3.27522 16.5573 2.09932 15.204 1.35162L14.4786 2.66455Z" fill="black"/>
    <path d="M7.69092 17.8408C8.31534 18.3286 9.13992 18.6251 10.0439 18.6251C10.9478 18.6251 11.7724 18.3286 12.3968 17.8408" stroke="black" stroke-width="1.5" stroke-linecap="round"/>
    <path d="M10 9.59785V6.66675M10 11.6425V11.6667" stroke="black" stroke-width="1.5" stroke-linecap="round" stroke-linejoin="round"/>
</svg>
