<svg width="32" height="32" viewBox="0 0 32 32" fill="none" xmlns="http://www.w3.org/2000/svg">
    <path d="M4.90358 22.9111L3.92604 22.2151H3.92603L4.90358 22.9111ZM6.53864 17.9646L5.33864 17.9509V17.9646H6.53864ZM6.57296 14.974L7.77296 14.9878V14.974H6.57296ZM27.1102 22.9351L28.1012 22.2585L28.1012 22.2585L27.1102 22.9351ZM25.5366 17.9646L24.3367 17.9502L24.3366 17.9574V17.9646H25.5366ZM25.571 15.1222L26.7709 15.1367L26.771 15.1294V15.1222H25.571ZM2.88616 7.5595C2.63957 8.17466 2.93835 8.87325 3.5535 9.11984C4.16866 9.36643 4.86725 9.06765 5.11384 8.45249L2.88616 7.5595ZM8.79331 4.2564C9.37678 3.94208 9.59496 3.21428 9.28063 2.63082C8.96631 2.04736 8.23851 1.82918 7.65505 2.1435L8.79331 4.2564ZM24.3264 2.16254C23.7463 1.84204 23.0163 2.05247 22.6957 2.63256C22.3752 3.21265 22.5857 3.94273 23.1658 4.26323L24.3264 2.16254ZM26.8815 8.42745C27.1215 9.0452 27.8168 9.35143 28.4346 9.11143C29.0523 8.87142 29.3586 8.17607 29.1185 7.55831L26.8815 8.42745ZM5.88113 23.6071C6.81473 22.2958 7.73864 20.3433 7.73864 17.9646H5.33864C5.33864 19.7139 4.65645 21.1892 3.92604 22.2151L5.88113 23.6071ZM7.73856 17.9784L7.77288 14.9877L5.37303 14.9602L5.33872 17.9509L7.73856 17.9784ZM28.1012 22.2585C27.4011 21.2331 26.7367 19.7417 26.7367 17.9646H24.3366C24.3366 20.3438 25.2229 22.299 26.1191 23.6117L28.1012 22.2585ZM26.7366 17.9791L26.7709 15.1367L24.3711 15.1077L24.3367 17.9502L26.7366 17.9791ZM26.771 15.1222C26.771 8.89557 22.0218 3.71311 16.0025 3.71311V6.11311C20.5522 6.11311 24.371 10.0722 24.371 15.1222H26.771ZM26.5375 25.5211C27.5027 25.5211 28.0703 24.8059 28.2872 24.2621C28.5085 23.7075 28.5533 22.9206 28.1012 22.2585L26.1191 23.6117C26.062 23.5281 26.0517 23.4572 26.0502 23.4287C26.0487 23.4014 26.0529 23.3856 26.0581 23.3728C26.0624 23.362 26.0833 23.3131 26.152 23.2556C26.2295 23.1907 26.3648 23.1211 26.5375 23.1211V25.5211ZM7.77296 14.974C7.77296 10.0058 11.5295 6.11311 16.0025 6.11311V3.71311C10.0599 3.71311 5.37296 8.82922 5.37296 14.974H7.77296ZM5.46885 23.1211C5.64545 23.1211 5.78243 23.1935 5.85903 23.2589C5.92651 23.3164 5.94559 23.3641 5.94861 23.3719C5.95253 23.382 5.95646 23.3955 5.95476 23.4217C5.95298 23.449 5.94192 23.5217 5.88113 23.6071L3.92603 22.2151C3.45322 22.8792 3.49414 23.6793 3.71033 24.238C3.9217 24.7842 4.48801 25.5211 5.46885 25.5211V23.1211ZM26.5375 23.1211H5.46885V25.5211H26.5375V23.1211ZM5.11384 8.45249C5.83774 6.64664 7.12735 5.15389 8.79331 4.2564L7.65505 2.1435C5.46169 3.32511 3.80494 5.26748 2.88616 7.5595L5.11384 8.45249ZM23.1658 4.26323C24.8757 5.20797 26.1991 6.67106 26.8815 8.42745L29.1185 7.55831C28.218 5.2403 26.4917 3.35886 24.3264 2.16254L23.1658 4.26323Z" fill="black"/>
    <path d="M12.3052 28.5454C13.3043 29.3258 14.6236 29.8003 16.0699 29.8003C17.5162 29.8003 18.8356 29.3258 19.8346 28.5454" stroke="black" stroke-width="2.4" stroke-linecap="round"/>
    <path d="M16 15.3565V10.6667M16 18.628V18.6667" stroke="black" stroke-width="2.4" stroke-linecap="round" stroke-linejoin="round"/>
</svg>
