<svg width="24" height="24" viewBox="0 0 24 24" fill="none" xmlns="http://www.w3.org/2000/svg">
    <path d="M3.67769 17.1833L2.94453 16.6613L2.94453 16.6613L3.67769 17.1833ZM4.90398 13.4734L4.00398 13.4631V13.4734H4.90398ZM4.92972 11.2304L5.82972 11.2408V11.2304H4.92972ZM20.3326 17.2013L21.0759 16.6938L21.0759 16.6938L20.3326 17.2013ZM19.1525 13.4734L18.2525 13.4626V13.4734H19.1525ZM19.1782 11.3416L20.0782 11.3524V11.3416H19.1782ZM2.16462 5.66957C1.97967 6.13093 2.20376 6.65487 2.66513 6.83982C3.1265 7.02476 3.65044 6.80068 3.83538 6.33931L2.16462 5.66957ZM6.59499 3.19224C7.03258 2.9565 7.19622 2.41065 6.96047 1.97305C6.72473 1.53546 6.17888 1.37182 5.74129 1.60756L6.59499 3.19224ZM18.2448 1.62185C17.8097 1.38147 17.2622 1.53929 17.0218 1.97436C16.7814 2.40943 16.9393 2.95699 17.3743 3.19736L18.2448 1.62185ZM20.1611 6.32052C20.3411 6.78384 20.8626 7.01351 21.3259 6.83351C21.7892 6.6535 22.0189 6.13199 21.8389 5.66867L20.1611 6.32052ZM4.41085 17.7052C5.11105 16.7218 5.80398 15.2574 5.80398 13.4734H4.00398C4.00398 14.7853 3.49233 15.8918 2.94453 16.6613L4.41085 17.7052ZM5.80392 13.4837L5.82966 11.2408L4.02978 11.2201L4.00404 13.4631L5.80392 13.4837ZM21.0759 16.6938C20.5509 15.9248 20.0525 14.8062 20.0525 13.4734H18.2525C18.2525 15.2578 18.9171 16.7242 19.5894 17.7087L21.0759 16.6938ZM20.0524 13.4843L20.0782 11.3524L18.2783 11.3307L18.2526 13.4626L20.0524 13.4843ZM20.0782 11.3416C20.0782 6.67162 16.5164 2.78477 12.0019 2.78477V4.58477C15.4142 4.58477 18.2782 7.55407 18.2782 11.3416H20.0782ZM19.9032 19.1408C20.627 19.1408 21.0527 18.6043 21.2154 18.1965C21.3814 17.7806 21.415 17.1904 21.0759 16.6938L19.5894 17.7087C19.5465 17.646 19.5388 17.5929 19.5376 17.5715C19.5365 17.551 19.5397 17.5392 19.5436 17.5295C19.5468 17.5215 19.5625 17.4847 19.614 17.4416C19.6721 17.393 19.7736 17.3408 19.9032 17.3408V19.1408ZM5.82972 11.2304C5.82972 7.5043 8.64714 4.58477 12.0019 4.58477V2.78477C7.54493 2.78477 4.02972 6.62185 4.02972 11.2304H5.82972ZM4.10164 17.3408C4.23409 17.3408 4.33682 17.395 4.39428 17.4441C4.44488 17.4873 4.4592 17.523 4.46146 17.5289C4.4644 17.5365 4.46734 17.5466 4.46607 17.5662C4.46474 17.5867 4.45644 17.6412 4.41085 17.7052L2.94453 16.6613C2.58992 17.1593 2.62061 17.7594 2.78275 18.1784C2.94127 18.5881 3.36601 19.1408 4.10164 19.1408V17.3408ZM19.9032 17.3408H4.10164V19.1408H19.9032V17.3408ZM3.83538 6.33931C4.3783 4.98492 5.34551 3.86536 6.59499 3.19224L5.74129 1.60756C4.09626 2.49377 2.85371 3.95055 2.16462 5.66957L3.83538 6.33931ZM17.3743 3.19736C18.6568 3.90592 19.6493 5.00323 20.1611 6.32052L21.8389 5.66867C21.1635 3.93016 19.8687 2.51908 18.2448 1.62185L17.3743 3.19736Z" fill="black"/>
    <path d="M9.229 21.4089C9.97831 21.9942 10.9678 22.3501 12.0526 22.3501C13.1373 22.3501 14.1268 21.9942 14.8761 21.4089" stroke="black" stroke-width="1.8" stroke-linecap="round"/>
    <path d="M12 11.5173V8M12 13.9709V14" stroke="black" stroke-width="1.8" stroke-linecap="round" stroke-linejoin="round"/>
</svg>
