<svg width="16" height="16" viewBox="0 0 16 16" fill="none" xmlns="http://www.w3.org/2000/svg">
    <path d="M2.45179 11.4554L1.96302 11.1074H1.96302L2.45179 11.4554ZM3.26932 8.9822L2.66932 8.97531V8.9822H3.26932ZM3.28648 7.48687L3.88648 7.49375V7.48687H3.28648ZM13.5551 11.4674L14.0506 11.1291L14.0506 11.1291L13.5551 11.4674ZM12.7683 8.9822L12.1683 8.97496V8.9822H12.7683ZM12.7855 7.56097L13.3855 7.56821V7.56097H12.7855ZM1.44308 3.77963C1.31978 4.08721 1.46917 4.4365 1.77675 4.5598C2.08433 4.68309 2.43362 4.5337 2.55692 4.22612L1.44308 3.77963ZM4.39666 2.12808C4.68839 1.97092 4.79748 1.60702 4.64032 1.31529C4.48316 1.02356 4.11926 0.914467 3.82753 1.07163L4.39666 2.12808ZM12.1632 1.08115C11.8732 0.920897 11.5081 1.02612 11.3479 1.31616C11.1876 1.6062 11.2928 1.97124 11.5829 2.13149L12.1632 1.08115ZM13.4407 4.2136C13.5607 4.52248 13.9084 4.67559 14.2173 4.55559C14.5262 4.43559 14.6793 4.08791 14.5593 3.77903L13.4407 4.2136ZM2.94057 11.8034C3.40736 11.1478 3.86932 10.1715 3.86932 8.9822H2.66932C2.66932 9.85681 2.32822 10.5945 1.96302 11.1074L2.94057 11.8034ZM3.86928 8.98908L3.88644 7.49375L2.68652 7.47998L2.66936 8.97532L3.86928 8.98908ZM14.0506 11.1291C13.7006 10.6164 13.3683 9.87072 13.3683 8.9822H12.1683C12.1683 10.1718 12.6114 11.1494 13.0596 11.8057L14.0506 11.1291ZM13.3683 8.98944L13.3854 7.56821L12.1855 7.55372L12.1684 8.97496L13.3683 8.98944ZM13.3855 7.56097C13.3855 4.44766 11.0109 1.85643 8.00126 1.85643V3.05643C10.2761 3.05643 12.1855 5.03596 12.1855 7.56097H13.3855ZM13.2688 12.7604C13.7513 12.7604 14.0351 12.4028 14.1436 12.1309C14.2542 11.8536 14.2767 11.4602 14.0506 11.1291L13.0596 11.8057C13.031 11.7639 13.0258 11.7285 13.0251 11.7142C13.0243 11.7006 13.0265 11.6927 13.029 11.6863C13.0312 11.6809 13.0417 11.6564 13.076 11.6277C13.1147 11.5952 13.1824 11.5604 13.2688 11.5604V12.7604ZM3.88648 7.48687C3.88648 5.00279 5.76476 3.05643 8.00126 3.05643V1.85643C5.02995 1.85643 2.68648 4.41449 2.68648 7.48687H3.88648ZM2.73442 11.5604C2.82272 11.5604 2.89121 11.5966 2.92952 11.6293C2.96326 11.6581 2.9728 11.6819 2.97431 11.6858C2.97626 11.6909 2.97823 11.6976 2.97738 11.7107C2.97649 11.7244 2.97096 11.7607 2.94057 11.8034L1.96302 11.1074C1.72661 11.4395 1.74707 11.8395 1.85517 12.1189C1.96085 12.392 2.244 12.7604 2.73442 12.7604V11.5604ZM13.2688 11.5604H2.73442V12.7604H13.2688V11.5604ZM2.55692 4.22612C2.91887 3.3232 3.56368 2.57682 4.39666 2.12808L3.82753 1.07163C2.73084 1.66243 1.90247 2.63362 1.44308 3.77963L2.55692 4.22612ZM11.5829 2.13149C12.4378 2.60387 13.0995 3.33541 13.4407 4.2136L14.5593 3.77903C14.109 2.62003 13.2458 1.67931 12.1632 1.08115L11.5829 2.13149Z" fill="black"/>
    <path d="M6.15234 14.2725C6.65188 14.6627 7.31155 14.8999 8.03471 14.8999C8.75787 14.8999 9.41754 14.6627 9.91708 14.2725" stroke="black" stroke-width="1.2" stroke-linecap="round"/>
    <path d="M8 7.67814V5.33325M8 9.31386V9.33325" stroke="black" stroke-width="1.2" stroke-linecap="round" stroke-linejoin="round"/>
</svg>
