<svg width="12" height="12" viewBox="0 0 12 12" fill="none" xmlns="http://www.w3.org/2000/svg">
    <path d="M1.83884 8.59163L1.43153 8.30163L1.43153 8.30163L1.83884 8.59163ZM2.45199 6.73671L1.95199 6.73097V6.73671H2.45199ZM2.46486 5.61521L2.96486 5.62095V5.61521H2.46486ZM10.1663 8.60063L10.5793 8.3187L10.5793 8.3187L10.1663 8.60063ZM9.57624 6.73671L9.07624 6.73067V6.73671H9.57624ZM9.58911 5.67079L10.0891 5.67682V5.67079H9.58911ZM1.0359 2.81618C0.933153 3.07249 1.05764 3.36357 1.31396 3.46632C1.57028 3.56907 1.86135 3.44457 1.9641 3.18826L1.0359 2.81618ZM3.32121 1.64014C3.56432 1.50917 3.65522 1.20592 3.52426 0.962813C3.39329 0.719704 3.09004 0.628795 2.84693 0.759763L3.32121 1.64014ZM9.14659 0.767159C8.90488 0.633615 8.60068 0.721297 8.46714 0.963001C8.3336 1.2047 8.42128 1.5089 8.66298 1.64245L9.14659 0.767159ZM10.0339 3.17837C10.1339 3.43577 10.4237 3.56336 10.6811 3.46336C10.9385 3.36336 11.0661 3.07363 10.9661 2.81623L10.0339 3.17837ZM2.24616 8.88162C2.60049 8.38395 2.95199 7.64182 2.95199 6.73671H1.95199C1.95199 7.37955 1.7012 7.92287 1.43153 8.30163L2.24616 8.88162ZM2.95196 6.74245L2.96483 5.62095L1.96489 5.60947L1.95202 6.73097L2.95196 6.74245ZM10.5793 8.3187C10.3208 7.94017 10.0762 7.39056 10.0762 6.73671H9.07624C9.07624 7.64145 9.41319 8.3843 9.75338 8.88256L10.5793 8.3187ZM10.0762 6.74275L10.0891 5.67682L9.08915 5.66475L9.07628 6.73067L10.0762 6.74275ZM10.0891 5.67079C10.0891 3.3113 8.28881 1.34239 6.00094 1.34239V2.34239C7.67646 2.34239 9.08911 3.80155 9.08911 5.67079H10.0891ZM9.95158 9.62039C10.3415 9.62039 10.5685 9.33154 10.6541 9.11679C10.7416 8.89751 10.7604 8.58409 10.5793 8.3187L9.75338 8.88256C9.726 8.84246 9.71986 8.80669 9.71888 8.78839C9.71793 8.77061 9.72085 8.75749 9.72534 8.74622C9.72948 8.73586 9.74179 8.7102 9.77488 8.68248C9.81167 8.65167 9.87352 8.62039 9.95158 8.62039V9.62039ZM2.96486 5.61521C2.96486 3.77666 4.35419 2.34239 6.00094 2.34239V1.34239C3.74185 1.34239 1.96486 3.28641 1.96486 5.61521H2.96486ZM2.05082 8.62039C2.13058 8.62039 2.19314 8.6529 2.2296 8.68401C2.26224 8.71187 2.27377 8.73711 2.27736 8.7464C2.28133 8.75664 2.28406 8.76894 2.28293 8.78634C2.28177 8.80422 2.27522 8.8408 2.24616 8.88162L1.43153 8.30163C1.242 8.56784 1.25933 8.88653 1.34474 9.10726C1.42814 9.3228 1.65448 9.62039 2.05082 9.62039V8.62039ZM9.95158 8.62039H2.05082V9.62039H9.95158V8.62039ZM1.9641 3.18826C2.2315 2.52119 2.70746 1.97078 3.32121 1.64014L2.84693 0.759763C2.01343 1.20879 1.3845 1.94654 1.0359 2.81618L1.9641 3.18826ZM8.66298 1.64245C9.29472 1.99148 9.78259 2.53142 10.0339 3.17837L10.9661 2.81623C10.6238 1.93527 9.96804 1.22102 9.14659 0.767159L8.66298 1.64245Z" fill="black"/>
    <path d="M4.61426 10.7046C4.98891 10.9972 5.48366 11.1752 6.02603 11.1752C6.5684 11.1752 7.06315 10.9972 7.43781 10.7046" stroke="black" stroke-linecap="round"/>
    <path d="M6 5.75866V4M6 6.98545V7" stroke="black" stroke-linecap="round" stroke-linejoin="round"/>
</svg>
