<svg width="24" height="24" viewBox="0 0 24 24" fill="none" xmlns="http://www.w3.org/2000/svg">
    <g clip-path="url(#clip0_4103_256569)">
        <path d="M15.7965 15.3841L15.7962 21.0326C15.7962 22.1894 14.8584 23.1271 13.7017 23.1271L4.27618 23.1271C3.11939 23.1271 2.18163 22.1893 2.18164 21.0325L2.18172 8.46527C2.18173 7.30849 3.11949 6.37073 4.27627 6.37073H12.1917M17.8911 2.18164H10.5599C9.40313 2.18164 8.46537 3.11939 8.46536 4.27618V6.37073M17.8911 2.18164H18.4753C18.7702 2.18164 19.0509 2.30586 19.2541 2.51963C19.5595 2.84088 20.0431 3.33551 20.5092 3.75255C20.8745 4.0794 21.4485 4.66599 21.7921 5.02248C21.978 5.21527 22.0802 5.47269 22.0801 5.74048L22.0801 6.37073M17.8911 2.18164V5.32346C17.8911 5.90185 18.3599 6.37073 18.9383 6.37073H22.0801M22.0801 6.37073L22.0799 16.8435C22.0798 18.0003 21.1421 18.938 19.9853 18.938H15.7962" stroke="black" stroke-width="1.8" stroke-linecap="round" stroke-linejoin="round"/>
        <path d="M10.3968 15.1947L7.63623 12.4341M7.63623 12.4341L10.3968 9.67362M7.63623 12.4341H14.1817V12.4341C15.3867 12.4341 16.3635 11.4573 16.3635 10.2523V9.76246V7.63623" stroke="black" stroke-width="1.8" stroke-linecap="round" stroke-linejoin="round"/>
    </g>
    <defs>
        <clipPath id="clip0_4103_256569">
            <rect width="24" height="24" fill="white"/>
        </clipPath>
    </defs>
</svg>
