<svg width="16" height="16" viewBox="0 0 16 16" fill="none" xmlns="http://www.w3.org/2000/svg">
    <g clip-path="url(#clip0_4103_256553)">
        <path d="M10.5312 10.2562L10.531 14.0219C10.531 14.7931 9.90579 15.4182 9.13461 15.4182L2.85095 15.4182C2.07976 15.4182 1.45458 14.793 1.45459 14.0218L1.45464 5.64367C1.45465 4.87249 2.07982 4.24732 2.85101 4.24732H8.12793M11.9275 1.45459H7.0401C6.26891 1.45459 5.64374 2.07976 5.64374 2.85095V4.24732M11.9275 1.45459H12.317C12.5136 1.45459 12.7008 1.5374 12.8363 1.67992C13.0398 1.89408 13.3623 2.22384 13.673 2.50186C13.9165 2.71976 14.2991 3.11082 14.5283 3.34849C14.6522 3.47701 14.7203 3.64862 14.7203 3.82715L14.7202 4.24732M11.9275 1.45459V3.54914C11.9275 3.93473 12.2401 4.24732 12.6257 4.24732H14.7202M14.7202 4.24732L14.7201 11.2292C14.7201 12.0003 14.0949 12.6255 13.3237 12.6255H10.531" stroke="black" stroke-width="1.2" stroke-linecap="round" stroke-linejoin="round"/>
        <path d="M6.93117 10.1298L5.09082 8.28943M5.09082 8.28943L6.93117 6.44908M5.09082 8.28943H9.45446V8.28943C10.2578 8.28943 10.909 7.63821 10.909 6.83489V6.50831V5.09082" stroke="black" stroke-width="1.2" stroke-linecap="round" stroke-linejoin="round"/>
    </g>
    <defs>
        <clipPath id="clip0_4103_256553">
            <rect width="16" height="16" fill="white"/>
        </clipPath>
    </defs>
</svg>
