<svg width="20" height="20" viewBox="0 0 20 20" fill="none" xmlns="http://www.w3.org/2000/svg">
    <g clip-path="url(#clip0_4103_256552)">
        <path d="M13.1641 12.8204L13.1638 17.5275C13.1638 18.4915 12.3824 19.2729 11.4184 19.2729L3.56381 19.2729C2.59982 19.2729 1.81835 18.4914 1.81836 17.5274L1.81843 7.05471C1.81843 6.09073 2.5999 5.30927 3.56388 5.30927H10.16M14.9095 1.81836H8.80025C7.83626 1.81836 7.0548 2.59982 7.05479 3.5638V5.30927M14.9095 1.81836H15.3964C15.6422 1.81836 15.8761 1.92188 16.0454 2.10002C16.2999 2.36773 16.7029 2.77992 17.0914 3.12745C17.3958 3.39983 17.874 3.88865 18.1604 4.18573C18.3153 4.34639 18.4004 4.5609 18.4004 4.78406L18.4004 5.30927M14.9095 1.81836V4.43654C14.9095 4.91854 15.3003 5.30927 15.7823 5.30927H18.4004M18.4004 5.30927L18.4002 14.0366C18.4002 15.0006 17.6187 15.782 16.6548 15.782H13.1638" stroke="black" stroke-width="1.5" stroke-linecap="round" stroke-linejoin="round"/>
        <path d="M8.66421 12.6625L6.36377 10.362M6.36377 10.362L8.66421 8.0616M6.36377 10.362H11.8183V10.362C12.8225 10.362 13.6365 9.54801 13.6365 8.54385V8.13563V6.36377" stroke="black" stroke-width="1.5" stroke-linecap="round" stroke-linejoin="round"/>
    </g>
    <defs>
        <clipPath id="clip0_4103_256552">
            <rect width="20" height="20" fill="white"/>
        </clipPath>
    </defs>
</svg>

