<svg width="32" height="32" viewBox="0 0 32 32" fill="none" xmlns="http://www.w3.org/2000/svg">
    <g clip-path="url(#clip0_4103_256551)">
        <path d="M21.0623 20.5125L21.062 28.0438C21.0619 29.5862 19.8116 30.8365 18.2692 30.8365L5.7019 30.8364C4.15951 30.8364 2.90917 29.586 2.90918 28.0437L2.90929 11.2873C2.9093 9.74497 4.15964 8.49464 5.70202 8.49464H16.2559M23.8551 2.90918H14.0802C12.5378 2.90918 11.2875 4.15952 11.2875 5.70189V8.49464M23.8551 2.90918H24.634C25.0273 2.90918 25.4016 3.07481 25.6725 3.35983C26.0796 3.78817 26.7245 4.44767 27.346 5.00373C27.8331 5.43953 28.5983 6.22164 29.0565 6.69697C29.3043 6.95402 29.4405 7.29725 29.4405 7.6543L29.4405 8.49464M23.8551 2.90918V7.09827C23.8551 7.86946 24.4802 8.49464 25.2514 8.49464H29.4405M29.4405 8.49464L29.4402 22.4583C29.4401 24.0007 28.1898 25.251 26.6474 25.251H21.0619" stroke="black" stroke-width="2.4" stroke-linecap="round" stroke-linejoin="round"/>
        <path d="M13.8628 20.2601L10.1821 16.5794M10.1821 16.5794L13.8628 12.8987M10.1821 16.5794H18.9094V16.5794C20.516 16.5794 21.8185 15.2769 21.8185 13.6703V13.0171V10.1821" stroke="black" stroke-width="2.4" stroke-linecap="round" stroke-linejoin="round"/>
    </g>
    <defs>
        <clipPath id="clip0_4103_256551">
            <rect width="32" height="32" fill="white"/>
        </clipPath>
    </defs>
</svg>
