<svg width="12" height="12" viewBox="0 0 12 12" fill="none" xmlns="http://www.w3.org/2000/svg">
    <g clip-path="url(#clip0_4103_256554)">
        <path d="M7.89825 7.69206L7.89811 10.5163C7.8981 11.0947 7.42922 11.5635 6.85084 11.5635L2.13809 11.5635C1.55969 11.5635 1.09082 11.0946 1.09082 10.5162L1.09086 4.23263C1.09086 3.65424 1.55974 3.18537 2.13813 3.18537H6.09583M8.94553 1.09082H5.27995C4.70156 1.09082 4.23268 1.5597 4.23268 2.13809V3.18537M8.94553 1.09082H9.23765C9.38511 1.09082 9.52547 1.15293 9.62707 1.25981C9.77974 1.42044 10.0216 1.66775 10.2546 1.87628C10.4373 2.0397 10.7242 2.33299 10.8961 2.51124C10.989 2.60764 11.0401 2.73635 11.0401 2.87024L11.0401 3.18537M8.94553 1.09082V2.66173C8.94553 2.95093 9.17997 3.18537 9.46917 3.18537H11.0401M11.0401 3.18537L11.0399 8.42175C11.0399 9.00014 10.571 9.469 9.99266 9.469H7.8981" stroke="black" stroke-linecap="round" stroke-linejoin="round"/>
        <path d="M5.19813 7.59709L3.81787 6.21683M3.81787 6.21683L5.19813 4.83657M3.81787 6.21683H7.0906V6.21683C7.69309 6.21683 8.18151 5.72841 8.18151 5.12592V4.88099V3.81787" stroke="black" stroke-linecap="round" stroke-linejoin="round"/>
    </g>
    <defs>
        <clipPath id="clip0_4103_256554">
            <rect width="12" height="12" fill="white"/>
        </clipPath>
    </defs>
</svg>

