<svg width="24" height="24" viewBox="0 0 24 24" fill="none" xmlns="http://www.w3.org/2000/svg">
    <path d="M5.98923 15.5918C7.64877 15.5918 8.9941 16.9372 8.9941 18.5967C8.9941 20.2562 7.64877 21.6016 5.98924 21.6016C4.3297 21.6016 2.98437 20.2562 2.98437 18.5967C2.98437 16.9372 4.3297 15.5918 5.98923 15.5918ZM5.98923 15.5918L5.98923 5.40642M18.0087 8.41128C19.6682 8.41128 21.0135 7.06596 21.0135 5.40643C21.0135 3.74689 19.6682 2.40156 18.0087 2.40156C16.3491 2.40156 15.0038 3.74689 15.0038 5.40643C15.0038 7.06596 16.3491 8.41128 18.0087 8.41128ZM18.0087 8.41128L18.0087 10.5518C18.0087 14.9701 14.427 18.5518 10.0087 18.5518L8.99562 18.5518" stroke="black" stroke-width="1.8" stroke-linecap="round"/>
</svg>
