<svg width="16" height="16" viewBox="0 0 16 16" fill="none" xmlns="http://www.w3.org/2000/svg">
    <path d="M3.99299 10.392C5.09935 10.392 5.99623 11.2888 5.99623 12.3952C5.99623 13.5016 5.09935 14.3984 3.99299 14.3984C2.88663 14.3984 1.98975 13.5016 1.98975 12.3952C1.98975 11.2888 2.88663 10.392 3.99299 10.392ZM3.99299 10.392L3.99299 3.60168M12.0059 5.60492C13.1123 5.60492 14.0092 4.70804 14.0092 3.60168C14.0092 2.49532 13.1123 1.59844 12.0059 1.59844C10.8996 1.59844 10.0027 2.49532 10.0027 3.60168C10.0027 4.70804 10.8996 5.60492 12.0059 5.60492ZM12.0059 5.60492L12.0059 7.03193C12.0059 9.97745 9.61813 12.3653 6.67261 12.3653L5.99724 12.3653" stroke="black" stroke-width="1.2" stroke-linecap="round"/>
</svg>
