<svg width="12" height="12" viewBox="0 0 12 12" fill="none" xmlns="http://www.w3.org/2000/svg">
    <path d="M2.99462 7.79592C3.82439 7.79592 4.49705 8.46858 4.49705 9.29835C4.49705 10.1281 3.82439 10.8008 2.99462 10.8008C2.16485 10.8008 1.49219 10.1281 1.49219 9.29835C1.49219 8.46858 2.16485 7.79592 2.99462 7.79592ZM2.99462 7.79592L2.99462 2.70321M9.00434 4.20564C9.83411 4.20564 10.5068 3.53298 10.5068 2.70321C10.5068 1.87344 9.83411 1.20078 9.00434 1.20078C8.17457 1.20078 7.50191 1.87344 7.50191 2.70321C7.50191 3.53298 8.17457 4.20564 9.00434 4.20564ZM9.00434 4.20564L9.00434 5.27589C9.00434 7.48503 7.21348 9.2759 5.00434 9.2759L4.49781 9.2759" stroke="black" stroke-linecap="round"/>
</svg>
