<svg width="20" height="20" viewBox="0 0 20 20" fill="none" xmlns="http://www.w3.org/2000/svg">
    <path d="M4.99087 12.9919C6.37382 12.9919 7.49492 14.113 7.49492 15.496C7.49492 16.8789 6.37382 18 4.99087 18C3.60792 18 2.48682 16.8789 2.48682 15.496C2.48682 14.113 3.60792 12.9919 4.99087 12.9919ZM4.99087 12.9919L4.99087 4.50405M15.0071 7.0081C16.39 7.0081 17.5111 5.887 17.5111 4.50405C17.5111 3.1211 16.39 2 15.0071 2C13.6241 2 12.503 3.12111 12.503 4.50405C12.503 5.887 13.6241 7.0081 15.0071 7.0081ZM15.0071 7.0081L15.0071 8.79186C15.0071 12.4738 12.0223 15.4585 8.3404 15.4585L7.49618 15.4585" stroke="black" stroke-width="1.5" stroke-linecap="round"/>
</svg>
