<svg width="16" height="16" viewBox="0 0 16 16" fill="none" xmlns="http://www.w3.org/2000/svg">
    <path d="M8.00039 4.80156C7.11673 4.80156 6.40039 4.08522 6.40039 3.20156C6.40039 2.31791 7.11674 1.60156 8.00039 1.60156C8.88405 1.60156 9.60039 2.31791 9.60039 3.20156C9.60039 4.08522 8.88405 4.80156 8.00039 4.80156Z" fill="black"/>
    <path d="M8.00039 9.60156C7.11673 9.60156 6.40039 8.88522 6.40039 8.00156C6.40039 7.11791 7.11674 6.40156 8.00039 6.40156C8.88405 6.40156 9.60039 7.11791 9.60039 8.00156C9.60039 8.88522 8.88405 9.60156 8.00039 9.60156Z" fill="black"/>
    <path d="M8.00039 14.4016C7.11673 14.4016 6.40039 13.6852 6.40039 12.8016C6.40039 11.9179 7.11674 11.2016 8.00039 11.2016C8.88405 11.2016 9.60039 11.9179 9.60039 12.8016C9.60039 13.6852 8.88405 14.4016 8.00039 14.4016Z" fill="black"/>
</svg>
