<svg width="32" height="32" viewBox="0 0 32 32" fill="none" xmlns="http://www.w3.org/2000/svg">
    <path d="M15.9993 9.60068C14.232 9.60068 12.7993 8.16799 12.7993 6.40068C12.7993 4.63337 14.232 3.20068 15.9993 3.20068C17.7666 3.20068 19.1993 4.63337 19.1993 6.40068C19.1993 8.16799 17.7666 9.60068 15.9993 9.60068Z" fill="black"/>
    <path d="M15.9993 19.2007C14.232 19.2007 12.7993 17.768 12.7993 16.0007C12.7993 14.2334 14.232 12.8007 15.9993 12.8007C17.7666 12.8007 19.1993 14.2334 19.1993 16.0007C19.1993 17.768 17.7666 19.2007 15.9993 19.2007Z" fill="black"/>
    <path d="M15.9993 28.8007C14.232 28.8007 12.7993 27.368 12.7993 25.6007C12.7993 23.8334 14.232 22.4007 15.9993 22.4007C17.7666 22.4007 19.1993 23.8334 19.1993 25.6007C19.1993 27.368 17.7666 28.8007 15.9993 28.8007Z" fill="black"/>
</svg>
