<svg width="12" height="12" viewBox="0 0 12 12" fill="none" xmlns="http://www.w3.org/2000/svg">
    <path d="M6.00078 3.60313C5.33804 3.60313 4.80078 3.06587 4.80078 2.40312C4.80078 1.74038 5.33804 1.20312 6.00078 1.20312C6.66352 1.20313 7.20078 1.74038 7.20078 2.40313C7.20078 3.06587 6.66352 3.60313 6.00078 3.60313Z" fill="black"/>
    <path d="M6.00078 7.20312C5.33804 7.20312 4.80078 6.66587 4.80078 6.00313C4.80078 5.34038 5.33804 4.80313 6.00078 4.80313C6.66352 4.80313 7.20078 5.34038 7.20078 6.00313C7.20078 6.66587 6.66352 7.20313 6.00078 7.20312Z" fill="black"/>
    <path d="M6.00078 10.8031C5.33804 10.8031 4.80078 10.2659 4.80078 9.60313C4.80078 8.94038 5.33804 8.40313 6.00078 8.40313C6.66352 8.40313 7.20078 8.94038 7.20078 9.60313C7.20078 10.2659 6.66352 10.8031 6.00078 10.8031Z" fill="black"/>
</svg>
