<svg width="40" height="41" viewBox="0 0 40 41" fill="none" xmlns="http://www.w3.org/2000/svg">
    <circle cx="20" cy="20.2273" r="18.5" stroke="black" stroke-width="3"/>
    <path d="M27.2963 27.5234C23.5474 31.2723 19.305 33.7145 15.5358 34.6837C11.7288 35.6626 8.69939 35.0895 6.91875 33.3088C5.13811 31.5282 4.56495 28.4988 5.54388 24.6918C6.5131 20.9226 8.9553 16.6802 12.7042 12.9313C16.453 9.18244 20.6955 6.74024 24.4647 5.77102C28.2716 4.79209 31.3011 5.36525 33.0817 7.14589C34.8623 8.92654 35.4355 11.956 34.4566 15.7629C33.4873 19.5321 31.0452 23.7746 27.2963 27.5234Z" stroke="black" stroke-width="3"/>
    <path d="M27.2959 12.9313C31.0448 16.6801 33.487 20.9226 34.4562 24.6918C35.4351 28.4987 34.8619 31.5281 33.0813 33.3088C31.3007 35.0894 28.2712 35.6626 24.4643 34.6837C20.6951 33.7144 16.4526 31.2722 12.7038 27.5234C8.9549 23.7745 6.5127 19.5321 5.54348 15.7628C4.56455 11.9559 5.13771 8.92648 6.91835 7.14584C8.699 5.36519 11.7284 4.79203 15.5354 5.77096C19.3046 6.74019 23.547 9.18238 27.2959 12.9313Z" stroke="black" stroke-width="3"/>
</svg>
