<svg width="88" height="89" viewBox="0 0 88 89" fill="none" xmlns="http://www.w3.org/2000/svg">
    <circle cx="44" cy="44.4998" r="41.5" stroke="black" stroke-width="5"/>
    <path d="M60.6171 61.1169C52.2862 69.4478 42.831 74.9049 34.3775 77.0787C25.8611 79.2686 18.8537 78.0433 14.6552 73.8448C10.4567 69.6464 9.23141 62.6389 11.4213 54.1225C13.5951 45.669 19.0522 36.2138 27.3831 27.8829C35.714 19.552 45.1692 14.0949 53.6227 11.9211C62.1391 9.73122 69.1466 10.9565 73.345 15.155C77.5435 19.3535 78.7688 26.3609 76.5789 34.8773C74.4051 43.3308 68.948 52.786 60.6171 61.1169Z" stroke="black" stroke-width="5"/>
    <path d="M60.6164 27.8829C68.9474 36.2138 74.4044 45.669 76.5782 54.1225C78.7681 62.6389 77.5428 69.6463 73.3444 73.8448C69.1459 78.0433 62.1384 79.2686 53.622 77.0787C45.1685 74.9049 35.7133 69.4478 27.3824 61.1169C19.0515 52.786 13.5944 43.3308 11.4207 34.8773C9.23074 26.3609 10.456 19.3534 14.6545 15.155C18.853 10.9565 25.8605 9.7312 34.3768 11.9211C42.8303 14.0949 52.2855 19.552 60.6164 27.8829Z" stroke="black" stroke-width="5"/>
</svg>
