<svg width="20" height="21" viewBox="0 0 20 21" fill="none" xmlns="http://www.w3.org/2000/svg">
    <circle cx="10" cy="10.1135" r="9.2" stroke="black" stroke-width="1.6"/>
    <path d="M13.6125 13.7264C11.7433 15.5956 9.62971 16.8114 7.75518 17.2934C5.86053 17.7806 4.36724 17.4918 3.49449 16.6191C2.62173 15.7463 2.33292 14.253 2.82012 12.3584C3.30214 10.4838 4.51797 8.37023 6.3872 6.50101C8.25642 4.63179 10.37 3.41596 12.2446 2.93393C14.1392 2.44674 15.6325 2.73555 16.5053 3.6083C17.378 4.48106 17.6668 5.97434 17.1796 7.869C16.6976 9.74353 15.4818 11.8571 13.6125 13.7264Z" stroke="black" stroke-width="1.6"/>
    <path d="M13.6126 6.50098C15.4818 8.37021 16.6976 10.4838 17.1797 12.3583C17.6669 14.253 17.3781 15.7463 16.5053 16.619C15.6325 17.4918 14.1393 17.7806 12.2446 17.2934C10.3701 16.8114 8.25646 15.5956 6.38724 13.7263C4.51802 11.8571 3.30219 9.7435 2.82016 7.86897C2.33297 5.97432 2.62178 4.48103 3.49453 3.60827C4.36729 2.73552 5.86057 2.44671 7.75523 2.93391C9.62976 3.41593 11.7434 4.63176 13.6126 6.50098Z" stroke="black" stroke-width="1.6"/>
</svg>
