<svg width="16" height="17" viewBox="0 0 16 17" fill="none" xmlns="http://www.w3.org/2000/svg">
    <circle cx="8" cy="8.09082" r="7.4" stroke="black" stroke-width="1.2"/>
    <path d="M10.9182 11.0093C9.41867 12.5088 7.7217 13.4857 6.21401 13.8734C4.69123 14.265 3.47947 14.0357 2.76721 13.3234C2.05495 12.6112 1.82569 11.3994 2.21726 9.87664C2.60495 8.36895 3.58183 6.67198 5.08137 5.17243C6.58092 3.67288 8.2779 2.696 9.78559 2.30831C11.3084 1.91674 12.5201 2.146 13.2324 2.85826C13.9446 3.57052 14.1739 4.78228 13.7823 6.30506C13.3946 7.81275 12.4178 9.50972 10.9182 11.0093Z" stroke="black" stroke-width="1.2"/>
    <path d="M10.9185 5.17236C12.418 6.67191 13.3949 8.36888 13.7826 9.87657C14.1741 11.3993 13.9449 12.6111 13.2326 13.3234C12.5204 14.0356 11.3086 14.2649 9.78582 13.8733C8.27813 13.4856 6.58116 12.5088 5.08161 11.0092C3.58206 9.50965 2.60518 7.81268 2.21749 6.30499C1.82592 4.78221 2.05518 3.57045 2.76744 2.85819C3.4797 2.14593 4.69146 1.91667 6.21424 2.30824C7.72193 2.69593 9.4189 3.67281 10.9185 5.17236Z" stroke="black" stroke-width="1.2"/>
</svg>
