<svg width="104" height="105" viewBox="0 0 104 105" fill="none" xmlns="http://www.w3.org/2000/svg">
    <circle cx="52" cy="52.5906" r="49" stroke="black" stroke-width="6"/>
    <path d="M71.606 72.1971C61.7652 82.038 50.5977 88.4825 40.6164 91.0492C30.5596 93.6352 22.2975 92.1851 17.3517 87.2392C12.4058 82.2934 10.9557 74.0313 13.5417 63.9745C16.1084 53.9932 22.5529 42.8258 32.3938 32.9849C42.2347 23.144 53.4021 16.6995 63.3834 14.1329C73.4402 11.5468 81.7023 12.9969 86.6481 17.9428C91.594 22.8886 93.0441 31.1507 90.4581 41.2075C87.8914 51.1889 81.4469 62.3563 71.606 72.1971Z" stroke="black" stroke-width="6"/>
    <path d="M71.6056 32.9848C81.4465 42.8257 87.891 53.9931 90.4576 63.9744C93.0436 74.0312 91.5936 82.2933 86.6477 87.2391C81.7018 92.185 73.4397 93.6351 63.3829 91.0491C53.4016 88.4824 42.2342 82.038 32.3933 72.1971C22.5524 62.3562 16.1079 51.1888 13.5413 41.2074C10.9553 31.1507 12.4054 22.8886 17.3512 17.9427C22.2971 12.9968 30.5592 11.5467 40.616 14.1328C50.5973 16.6994 61.7647 23.1439 71.6056 32.9848Z" stroke="black" stroke-width="6"/>
</svg>
