<svg width="12" height="12" viewBox="0 0 12 12" fill="none" xmlns="http://www.w3.org/2000/svg">
    <path d="M7.40019 1V2.8C7.40019 3.13137 7.66882 3.4 8.00019 3.4H9.80019M8.90019 1.9C8.63315 1.66107 8.35605 1.37769 8.18111 1.19364C8.06471 1.07117 7.90387 1 7.7349 1H3.20005C2.53731 1 2.00005 1.53725 2.00005 2.19999L2 9.39997C2 10.0627 2.53725 10.6 3.2 10.6L8.60002 10.6C9.26275 10.6 9.80001 10.0628 9.80002 9.40002L9.80018 3.03892C9.80018 2.8855 9.74166 2.73802 9.63518 2.62757C9.43828 2.42332 9.10948 2.08726 8.90019 1.9Z" stroke="black" stroke-linecap="round" stroke-linejoin="round"/>
    <path fill-rule="evenodd" clip-rule="evenodd" d="M2 4.5C1.44772 4.5 1 4.94772 1 5.5V8C1 8.55228 1.44772 9 2 9H10.25V4.5H2ZM7.36223 7.7095C7.60256 7.9335 7.89773 8.0455 8.24773 8.0455C8.64673 8.0455 8.97806 7.8985 9.24173 7.6045V6.7085H8.12873V7.1425H8.74473V7.4225C8.6934 7.4715 8.62223 7.5135 8.53123 7.5485C8.44023 7.5835 8.34573 7.601 8.24773 7.601C8.0354 7.601 7.8604 7.52867 7.72273 7.384C7.58506 7.23933 7.51623 7.05617 7.51623 6.8345C7.51623 6.61283 7.58506 6.42967 7.72273 6.285C7.8604 6.14033 8.0354 6.068 8.24773 6.068C8.36673 6.068 8.47406 6.09717 8.56973 6.1555C8.66773 6.2115 8.74473 6.28383 8.80073 6.3725L9.21373 6.1485C8.9944 5.80083 8.6724 5.627 8.24773 5.627C7.89773 5.627 7.60256 5.73783 7.36223 5.9595C7.12423 6.18117 7.00523 6.47283 7.00523 6.8345C7.00523 7.19383 7.12423 7.4855 7.36223 7.7095ZM3.6475 8.042C3.38383 8.042 3.175 7.96617 3.021 7.8145L3.238 7.433C3.35467 7.545 3.47833 7.601 3.609 7.601C3.71867 7.601 3.80617 7.56717 3.8715 7.4995C3.93917 7.43183 3.973 7.34083 3.973 7.2265V5.6655H4.47V7.2335C4.47 7.4995 4.39533 7.70133 4.246 7.839C4.09667 7.97433 3.89717 8.042 3.6475 8.042ZM5.43015 8H4.93315V5.6655H6.02515C6.27015 5.6655 6.46148 5.73783 6.59915 5.8825C6.73915 6.02483 6.80915 6.20333 6.80915 6.418C6.80915 6.63033 6.73915 6.80883 6.59915 6.9535C6.45915 7.09817 6.26782 7.1705 6.02515 7.1705H5.43015V8ZM5.95865 6.733C6.05898 6.733 6.14065 6.705 6.20365 6.649C6.26898 6.59067 6.30165 6.51367 6.30165 6.418C6.30165 6.32233 6.26898 6.2465 6.20365 6.1905C6.14065 6.13217 6.05898 6.103 5.95865 6.103H5.43015V6.733H5.95865Z" fill="#23B5E2"/>
</svg>
