<svg width="20" height="20" viewBox="0 0 20 20" fill="none" xmlns="http://www.w3.org/2000/svg">
    <path d="M12.3338 1.6665V4.6665C12.3338 5.21879 12.7815 5.6665 13.3338 5.6665H16.3338M14.8338 3.1665C14.3887 2.76829 13.9269 2.29599 13.6353 1.98924C13.4413 1.78512 13.1733 1.6665 12.8917 1.6665H5.33357C4.22901 1.6665 3.33358 2.56193 3.33357 3.66649L3.3335 15.6664C3.33349 16.771 4.22892 17.6665 5.33349 17.6665L14.3335 17.6665C15.4381 17.6665 16.3335 16.7711 16.3335 15.6665L16.3338 5.0647C16.3338 4.809 16.2363 4.5632 16.0588 4.37911C15.7306 4.03871 15.1826 3.4786 14.8338 3.1665Z" stroke="black" stroke-width="1.5" stroke-linecap="round" stroke-linejoin="round"/>
    <path fill-rule="evenodd" clip-rule="evenodd" d="M3.33317 7.5C2.4127 7.5 1.6665 8.24619 1.6665 9.16667V13.3333C1.6665 14.2538 2.4127 15 3.33317 15H17.0832V7.5H3.33317ZM12.2702 12.8492C12.6708 13.2225 13.1627 13.4092 13.7461 13.4092C14.4111 13.4092 14.9633 13.1642 15.4027 12.6742V11.1808H13.5477V11.9042H14.5744V12.3708C14.4888 12.4525 14.3702 12.5225 14.2186 12.5808C14.0669 12.6392 13.9094 12.6683 13.7461 12.6683C13.3922 12.6683 13.1005 12.5478 12.8711 12.3067C12.6416 12.0656 12.5269 11.7603 12.5269 11.3908C12.5269 11.0214 12.6416 10.7161 12.8711 10.475C13.1005 10.2339 13.3922 10.1133 13.7461 10.1133C13.9444 10.1133 14.1233 10.1619 14.2827 10.2592C14.4461 10.3525 14.5744 10.4731 14.6677 10.6208L15.3561 10.2475C14.9905 9.66806 14.4538 9.37833 13.7461 9.37833C13.1627 9.37833 12.6708 9.56306 12.2702 9.9325C11.8736 10.3019 11.6752 10.7881 11.6752 11.3908C11.6752 11.9897 11.8736 12.4758 12.2702 12.8492ZM6.079 13.4033C5.63956 13.4033 5.2915 13.2769 5.03484 13.0242L5.3965 12.3883C5.59095 12.575 5.79706 12.6683 6.01484 12.6683C6.19762 12.6683 6.34345 12.6119 6.45234 12.4992C6.56511 12.3864 6.6215 12.2347 6.6215 12.0442V9.4425H7.44984V12.0558C7.44984 12.4992 7.32539 12.8356 7.0765 13.065C6.82762 13.2906 6.49512 13.4033 6.079 13.4033ZM9.05008 13.3333H8.22175V9.4425H10.0418C10.4501 9.4425 10.769 9.56306 10.9984 9.80417C11.2318 10.0414 11.3484 10.3389 11.3484 10.6967C11.3484 11.0506 11.2318 11.3481 10.9984 11.5892C10.7651 11.8303 10.4462 11.9508 10.0418 11.9508H9.05008V13.3333ZM9.93092 11.2217C10.0981 11.2217 10.2343 11.175 10.3393 11.0817C10.4481 10.9844 10.5026 10.8561 10.5026 10.6967C10.5026 10.5372 10.4481 10.4108 10.3393 10.3175C10.2343 10.2203 10.0981 10.1717 9.93092 10.1717H9.05008V11.2217H9.93092Z" fill="#23B5E2"/>
</svg>
