<svg width="16" height="16" viewBox="0 0 16 16" fill="none" xmlns="http://www.w3.org/2000/svg">
    <path d="M9.86675 1.3335V3.7335C9.86675 4.17532 10.2249 4.5335 10.6668 4.5335H13.0668M11.8668 2.5335C11.5107 2.21492 11.1412 1.83708 10.908 1.59168C10.7528 1.42839 10.5383 1.3335 10.313 1.3335H4.26657C3.38291 1.3335 2.66657 2.04984 2.66657 2.93349L2.6665 12.5334C2.6665 13.4171 3.38284 14.1335 4.2665 14.1335L11.4665 14.1335C12.3502 14.1335 13.0665 13.4172 13.0665 12.5335L13.0667 4.05205C13.0668 3.84749 12.9887 3.65085 12.8467 3.50358C12.5842 3.23126 12.1458 2.78317 11.8668 2.5335Z" stroke="black" stroke-width="1.2" stroke-linecap="round" stroke-linejoin="round"/>
    <path fill-rule="evenodd" clip-rule="evenodd" d="M2.66683 6C1.93045 6 1.3335 6.59695 1.3335 7.33333V10.6667C1.3335 11.403 1.93045 12 2.66683 12H13.6668V6H2.66683ZM9.81647 10.2793C10.1369 10.578 10.5305 10.7273 10.9971 10.7273C11.5291 10.7273 11.9709 10.5313 12.3225 10.1393V8.94467H10.8385V9.52333H11.6598V9.89667C11.5914 9.962 11.4965 10.018 11.3751 10.0647C11.2538 10.1113 11.1278 10.1347 10.9971 10.1347C10.714 10.1347 10.4807 10.0382 10.2971 9.84533C10.1136 9.65244 10.0218 9.40822 10.0218 9.11267C10.0218 8.81711 10.1136 8.57289 10.2971 8.38C10.4807 8.18711 10.714 8.09067 10.9971 8.09067C11.1558 8.09067 11.2989 8.12956 11.4265 8.20733C11.5571 8.282 11.6598 8.37844 11.7345 8.49667L12.2851 8.198C11.9927 7.73444 11.5634 7.50267 10.9971 7.50267C10.5305 7.50267 10.1369 7.65044 9.81647 7.946C9.49914 8.24156 9.34047 8.63044 9.34047 9.11267C9.34047 9.59178 9.49914 9.98067 9.81647 10.2793ZM4.8635 10.7227C4.51194 10.7227 4.2335 10.6216 4.02816 10.4193L4.3175 9.91067C4.47305 10.06 4.63794 10.1347 4.81216 10.1347C4.95838 10.1347 5.07505 10.0896 5.16216 9.99933C5.25238 9.90911 5.2975 9.78778 5.2975 9.63533V7.554H5.96016V9.64467C5.96016 9.99933 5.86061 10.2684 5.6615 10.452C5.46238 10.6324 5.19638 10.7227 4.8635 10.7227ZM7.24036 10.6667H6.57769V7.554H8.03369C8.36036 7.554 8.61547 7.65044 8.79903 7.84333C8.98569 8.03311 9.07903 8.27111 9.07903 8.55733C9.07903 8.84044 8.98569 9.07844 8.79903 9.27133C8.61236 9.46422 8.35725 9.56067 8.03369 9.56067H7.24036V10.6667ZM7.94503 8.97733C8.0788 8.97733 8.18769 8.94 8.27169 8.86533C8.3588 8.78756 8.40236 8.68489 8.40236 8.55733C8.40236 8.42978 8.3588 8.32867 8.27169 8.254C8.18769 8.17622 8.0788 8.13733 7.94503 8.13733H7.24036V8.97733H7.94503Z" fill="#23B5E2"/>
</svg>
