<svg width="32" height="32" viewBox="0 0 32 32" fill="none" xmlns="http://www.w3.org/2000/svg">
    <path d="M19.734 2.6665V7.4665C19.734 8.35016 20.4503 9.0665 21.334 9.0665H26.134M23.734 5.0665C23.0219 4.42936 22.283 3.67367 21.8165 3.18288C21.506 2.85628 21.0771 2.6665 20.6266 2.6665H8.53362C6.76632 2.6665 5.33363 4.09918 5.33362 5.86649L5.3335 25.0664C5.33348 26.8337 6.76617 28.2664 8.53348 28.2664L22.9335 28.2665C24.7008 28.2665 26.1335 26.8339 26.1336 25.0666L26.134 8.10361C26.134 7.69449 25.9779 7.30122 25.694 7.00668C25.1689 6.46203 24.2921 5.56586 23.734 5.0665Z" stroke="black" stroke-width="2.4" stroke-linecap="round" stroke-linejoin="round"/>
    <path fill-rule="evenodd" clip-rule="evenodd" d="M5.33317 12C3.86041 12 2.6665 13.1939 2.6665 14.6667V21.3333C2.6665 22.8061 3.86041 24 5.33317 24H27.3332V12H5.33317ZM19.6325 20.5587C20.2733 21.156 21.0605 21.4547 21.9938 21.4547C23.0578 21.4547 23.9413 21.0627 24.6445 20.2787V17.8893H21.6765V19.0467H23.3191V19.7933C23.1822 19.924 22.9925 20.036 22.7498 20.1293C22.5071 20.2227 22.2551 20.2693 21.9938 20.2693C21.4276 20.2693 20.9609 20.0764 20.5938 19.6907C20.2267 19.3049 20.0431 18.8164 20.0431 18.2253C20.0431 17.6342 20.2267 17.1458 20.5938 16.76C20.9609 16.3742 21.4276 16.1813 21.9938 16.1813C22.3111 16.1813 22.5973 16.2591 22.8525 16.4147C23.1138 16.564 23.3191 16.7569 23.4685 16.9933L24.5698 16.396C23.9849 15.4689 23.1262 15.0053 21.9938 15.0053C21.0605 15.0053 20.2733 15.3009 19.6325 15.892C18.9978 16.4831 18.6805 17.2609 18.6805 18.2253C18.6805 19.1836 18.9978 19.9613 19.6325 20.5587ZM9.7265 21.4453C9.02339 21.4453 8.4665 21.2431 8.05584 20.8387L8.6345 19.8213C8.94561 20.12 9.27539 20.2693 9.62384 20.2693C9.91628 20.2693 10.1496 20.1791 10.3238 19.9987C10.5043 19.8182 10.5945 19.5756 10.5945 19.2707V15.108H11.9198V19.2893C11.9198 19.9987 11.7207 20.5369 11.3225 20.904C10.9243 21.2649 10.3923 21.4453 9.7265 21.4453ZM14.4802 21.3333H13.1549V15.108H16.0669C16.7202 15.108 17.2305 15.3009 17.5976 15.6867C17.9709 16.0662 18.1576 16.5422 18.1576 17.1147C18.1576 17.6809 17.9709 18.1569 17.5976 18.5427C17.2242 18.9284 16.714 19.1213 16.0669 19.1213H14.4802V21.3333ZM15.8896 17.9547C16.1571 17.9547 16.3749 17.88 16.5429 17.7307C16.7171 17.5751 16.8042 17.3698 16.8042 17.1147C16.8042 16.8596 16.7171 16.6573 16.5429 16.508C16.3749 16.3524 16.1571 16.2747 15.8896 16.2747H14.4802V17.9547H15.8896Z" fill="#23B5E2"/>
</svg>
