<svg width="24" height="24" viewBox="0 0 24 24" fill="none" xmlns="http://www.w3.org/2000/svg">
    <path d="M14.8004 2V5.6C14.8004 6.26274 15.3376 6.8 16.0004 6.8H19.6004M17.8004 3.8C17.2663 3.32214 16.7121 2.75538 16.3622 2.38728C16.1294 2.14233 15.8077 2 15.4698 2H6.40009C5.07462 2 4.0001 3.07451 4.00009 4.39999L4 18.7999C3.99999 20.1254 5.0745 21.1999 6.39999 21.1999L17.2 21.2C18.5255 21.2 19.6 20.1255 19.6 18.8L19.6004 6.07783C19.6004 5.77099 19.4833 5.47603 19.2704 5.25513C18.8766 4.84665 18.219 4.17452 17.8004 3.8Z" stroke="black" stroke-width="1.8" stroke-linecap="round" stroke-linejoin="round"/>
    <path fill-rule="evenodd" clip-rule="evenodd" d="M4 9C2.89543 9 2 9.89543 2 11V16C2 17.1046 2.89543 18 4 18H20.5V9H4ZM14.7245 15.419C15.2051 15.867 15.7955 16.091 16.4955 16.091C17.2935 16.091 17.9561 15.797 18.4835 15.209V13.417H16.2575V14.285H17.4895V14.845C17.3868 14.943 17.2445 15.027 17.0625 15.097C16.8805 15.167 16.6915 15.202 16.4955 15.202C16.0708 15.202 15.7208 15.0573 15.4455 14.768C15.1701 14.4787 15.0325 14.1123 15.0325 13.669C15.0325 13.2257 15.1701 12.8593 15.4455 12.57C15.7208 12.2807 16.0708 12.136 16.4955 12.136C16.7335 12.136 16.9481 12.1943 17.1395 12.311C17.3355 12.423 17.4895 12.5677 17.6015 12.745L18.4275 12.297C17.9888 11.6017 17.3448 11.254 16.4955 11.254C15.7955 11.254 15.2051 11.4757 14.7245 11.919C14.2485 12.3623 14.0105 12.9457 14.0105 13.669C14.0105 14.3877 14.2485 14.971 14.7245 15.419ZM7.295 16.084C6.76767 16.084 6.35 15.9323 6.042 15.629L6.476 14.866C6.70933 15.09 6.95667 15.202 7.218 15.202C7.43733 15.202 7.61233 15.1343 7.743 14.999C7.87833 14.8637 7.946 14.6817 7.946 14.453V11.331H8.94V14.467C8.94 14.999 8.79067 15.4027 8.492 15.678C8.19333 15.9487 7.79433 16.084 7.295 16.084ZM10.8603 16H9.8663V11.331H12.0503C12.5403 11.331 12.923 11.4757 13.1983 11.765C13.4783 12.0497 13.6183 12.4067 13.6183 12.836C13.6183 13.2607 13.4783 13.6177 13.1983 13.907C12.9183 14.1963 12.5356 14.341 12.0503 14.341H10.8603V16ZM11.9173 13.466C12.118 13.466 12.2813 13.41 12.4073 13.298C12.538 13.1813 12.6033 13.0273 12.6033 12.836C12.6033 12.6447 12.538 12.493 12.4073 12.381C12.2813 12.2643 12.118 12.206 11.9173 12.206H10.8603V13.466H11.9173Z" fill="#23B5E2"/>
</svg>
