<svg width="32" height="32" viewBox="0 0 32 32" fill="none" xmlns="http://www.w3.org/2000/svg">
    <path d="M21.3679 27.4283L21.3683 23.1432C21.3685 20.7763 19.4498 18.8574 17.0829 18.8574H7.48657C5.12 18.8574 3.20143 20.7758 3.20117 23.1424L3.20068 27.4283M28.8003 27.4285L28.8007 23.1435C28.8009 20.7766 26.8822 18.8577 24.5153 18.8577M20.5425 5.41463C21.5949 6.19548 22.2769 7.44729 22.2769 8.85839C22.2769 10.2695 21.5949 11.5213 20.5425 12.3022M16.6591 8.85816C16.6591 11.2249 14.7404 13.1436 12.3737 13.1436C10.0069 13.1436 8.08826 11.2249 8.08826 8.85816C8.08826 6.4914 10.0069 4.57275 12.3737 4.57275C14.7404 4.57275 16.6591 6.4914 16.6591 8.85816Z" stroke="black" stroke-width="2.4" stroke-linecap="round" stroke-linejoin="round"/>
</svg>
