<svg width="12" height="12" viewBox="0 0 12 12" fill="none" xmlns="http://www.w3.org/2000/svg">
    <path d="M8.0129 10.2857L8.01305 8.67878C8.01313 7.79118 7.29361 7.0716 6.40602 7.0716H2.8074C1.91994 7.0716 1.20048 7.79098 1.20038 8.67845L1.2002 10.2857M10.8001 10.2857L10.8002 8.67886C10.8003 7.79127 10.0808 7.07169 9.19317 7.07169M7.70336 2.03055C8.09801 2.32337 8.35377 2.79279 8.35377 3.32196C8.35377 3.85112 8.09801 4.32055 7.70336 4.61337M6.24709 3.32187C6.24709 4.20941 5.5276 4.9289 4.64007 4.9289C3.75253 4.9289 3.03304 4.20941 3.03304 3.32187C3.03304 2.43433 3.75253 1.71484 4.64007 1.71484C5.5276 1.71484 6.24709 2.43433 6.24709 3.32187Z" stroke="black" stroke-linecap="round" stroke-linejoin="round"/>
</svg>
