<svg width="20" height="20" viewBox="0 0 20 20" fill="none" xmlns="http://www.w3.org/2000/svg">
    <path d="M13.355 17.1426L13.3552 14.4645C13.3554 12.9851 12.1562 11.7858 10.6769 11.7858H4.67917C3.20006 11.7858 2.00096 12.9848 2.00079 14.4639L2.00049 17.1426M18.0002 17.1427L18.0005 14.4646C18.0006 12.9853 16.8014 11.786 15.3221 11.786M12.8391 3.38408C13.4968 3.87211 13.9231 4.65449 13.9231 5.53644C13.9231 6.41838 13.4968 7.20076 12.8391 7.68879M10.412 5.53629C10.412 7.01552 9.21284 8.21467 7.73361 8.21467C6.25438 8.21467 5.05523 7.01552 5.05523 5.53629C5.05523 4.05706 6.25438 2.85791 7.73361 2.85791C9.21284 2.85791 10.412 4.05706 10.412 5.53629Z" stroke="black" stroke-width="1.5" stroke-linecap="round" stroke-linejoin="round"/>
</svg>
