<svg width="16" height="16" viewBox="0 0 16 16" fill="none" xmlns="http://www.w3.org/2000/svg">
    <path d="M10.6837 13.7144L10.6839 11.5719C10.684 10.3884 9.72465 9.42897 8.5412 9.42897H3.74304C2.55975 9.42897 1.60047 10.3881 1.60034 11.5714L1.6001 13.7144M14.3999 13.7145L14.4001 11.572C14.4002 10.3885 13.4408 9.42908 12.2574 9.42908M10.271 2.70756C10.7972 3.09798 11.1382 3.72389 11.1382 4.42944C11.1382 5.13499 10.7972 5.7609 10.271 6.15132M8.3293 4.42932C8.3293 5.61271 7.36998 6.57203 6.18659 6.57203C5.00321 6.57203 4.04389 5.61271 4.04389 4.42932C4.04389 3.24594 5.00321 2.28662 6.18659 2.28662C7.36998 2.28662 8.3293 3.24594 8.3293 4.42932Z" stroke="black" stroke-width="1.2" stroke-linecap="round" stroke-linejoin="round"/>
</svg>
