<svg width="32" height="32" viewBox="0 0 32 32" fill="none" xmlns="http://www.w3.org/2000/svg">
    <path d="M25.9557 3.2002C27.5267 3.2002 28.8002 4.45625 28.8002 6.00567L28.8002 25.9947C28.8002 27.5441 27.5267 28.8002 25.9557 28.8002H21.6891C20.1181 28.8002 18.8446 27.5441 18.8446 25.9947L18.8446 6.00567C18.8446 4.45625 20.1181 3.2002 21.6891 3.2002L25.9557 3.2002Z" stroke="black" stroke-width="2.4" stroke-linecap="round" stroke-linejoin="round"/>
    <path d="M6.04464 3.2002C4.4737 3.2002 3.2002 4.45625 3.2002 6.00567L3.2002 25.9947C3.2002 27.5441 4.4737 28.8002 6.04464 28.8002H10.3113C11.8822 28.8002 13.1557 27.5441 13.1557 25.9947L13.1557 6.00567C13.1557 4.45625 11.8822 3.2002 10.3113 3.2002L6.04464 3.2002Z" stroke="black" stroke-width="2.4" stroke-linecap="round" stroke-linejoin="round"/>
</svg>
