<svg width="16" height="16" viewBox="0 0 16 16" fill="none" xmlns="http://www.w3.org/2000/svg">
    <path d="M12.9779 1.6001C13.7633 1.6001 14.4001 2.22813 14.4001 3.00284L14.4001 12.9974C14.4001 13.7721 13.7633 14.4001 12.9779 14.4001H10.8445C10.0591 14.4001 9.42232 13.7721 9.42232 12.9974L9.42232 3.00284C9.42232 2.22813 10.0591 1.6001 10.8445 1.6001L12.9779 1.6001Z" stroke="black" stroke-width="1.2" stroke-linecap="round" stroke-linejoin="round"/>
    <path d="M3.02232 1.6001C2.23685 1.6001 1.6001 2.22813 1.6001 3.00284L1.6001 12.9974C1.6001 13.7721 2.23685 14.4001 3.02232 14.4001H5.15565C5.94112 14.4001 6.57787 13.7721 6.57787 12.9974L6.57787 3.00284C6.57787 2.22813 5.94112 1.6001 5.15565 1.6001L3.02232 1.6001Z" stroke="black" stroke-width="1.2" stroke-linecap="round" stroke-linejoin="round"/>
</svg>
