<svg width="20" height="20" viewBox="0 0 20 20" fill="none" xmlns="http://www.w3.org/2000/svg">
    <path d="M16.2222 2C17.2041 2 18 2.78504 18 3.75342L18 16.2466C18 17.215 17.2041 18 16.2222 18H13.5556C12.5737 18 11.7778 17.215 11.7778 16.2466L11.7778 3.75342C11.7778 2.78503 12.5737 2 13.5556 2L16.2222 2Z" stroke="black" stroke-width="1.5" stroke-linecap="round" stroke-linejoin="round"/>
    <path d="M3.77778 2C2.79594 2 2 2.78504 2 3.75342L2 16.2466C2 17.215 2.79594 18 3.77778 18H6.44444C7.42628 18 8.22222 17.215 8.22222 16.2466L8.22222 3.75342C8.22222 2.78503 7.42628 2 6.44444 2L3.77778 2Z" stroke="black" stroke-width="1.5" stroke-linecap="round" stroke-linejoin="round"/>
</svg>
