<svg width="24" height="24" viewBox="0 0 24 24" fill="none" xmlns="http://www.w3.org/2000/svg">
    <path d="M19.4666 2.3999C20.6448 2.3999 21.5999 3.34194 21.5999 4.50401L21.5999 19.4958C21.5999 20.6579 20.6448 21.5999 19.4666 21.5999H16.2666C15.0884 21.5999 14.1332 20.6579 14.1332 19.4958L14.1332 4.50401C14.1332 3.34194 15.0884 2.3999 16.2666 2.3999L19.4666 2.3999Z" stroke="black" stroke-width="1.8" stroke-linecap="round" stroke-linejoin="round"/>
    <path d="M4.53323 2.3999C3.35503 2.3999 2.3999 3.34194 2.3999 4.50401L2.3999 19.4958C2.3999 20.6579 3.35503 21.5999 4.53324 21.5999H7.73324C8.91144 21.5999 9.86657 20.6579 9.86657 19.4958L9.86657 4.50401C9.86657 3.34194 8.91144 2.3999 7.73323 2.3999L4.53323 2.3999Z" stroke="black" stroke-width="1.8" stroke-linecap="round" stroke-linejoin="round"/>
</svg>
