<svg width="20" height="20" viewBox="0 0 20 20" fill="none" xmlns="http://www.w3.org/2000/svg">
    <path d="M13.1248 5.83333C14.1604 5.83333 14.9998 6.53289 14.9998 7.39583V12.6042C14.9998 13.4671 14.1604 14.1667 13.1248 14.1667H6.87484C5.8393 14.1667 4.99984 13.4671 4.99984 12.6042L4.99984 7.39583C4.99984 6.53289 5.8393 5.83333 6.87484 5.83333L13.1248 5.83333Z" stroke="black" stroke-width="1.5"/>
    <path d="M15 2C16.6569 2 18 3.34315 18 5V15C18 16.6569 16.6569 18 15 18H5C3.34315 18 2 16.6569 2 15L2 5C2 3.34315 3.34315 2 5 2L15 2Z" stroke="black" stroke-width="1.5"/>
</svg>
