<svg width="12" height="12" viewBox="0 0 12 12" fill="none" xmlns="http://www.w3.org/2000/svg">
    <path d="M7.87512 3.50012C8.49644 3.50012 9.00012 3.91986 9.00012 4.43762V7.56262C9.00012 8.08039 8.49644 8.50012 7.87512 8.50012H4.12512C3.5038 8.50012 3.00012 8.08039 3.00012 7.56262L3.00012 4.43762C3.00012 3.91986 3.5038 3.50012 4.12512 3.50012L7.87512 3.50012Z" stroke="black" stroke-width="0.9"/>
    <path d="M9.0002 1.2002C9.99431 1.2002 10.8002 2.00608 10.8002 3.0002V9.0002C10.8002 9.99431 9.99431 10.8002 9.0002 10.8002H3.0002C2.00608 10.8002 1.2002 9.99431 1.2002 9.0002L1.2002 3.0002C1.2002 2.00608 2.00608 1.2002 3.0002 1.2002L9.0002 1.2002Z" stroke="black" stroke-width="0.9"/>
</svg>
