<svg width="24" height="24" viewBox="0 0 24 24" fill="none" xmlns="http://www.w3.org/2000/svg">
    <path d="M15.75 7C16.9926 7 18 7.83947 18 8.875V15.125C18 16.1605 16.9926 17 15.75 17H8.25C7.00736 17 6 16.1605 6 15.125L6 8.875C6 7.83947 7.00736 7 8.25 7L15.75 7Z" stroke="black" stroke-width="1.8"/>
    <path d="M17.9999 2.3999C19.9881 2.3999 21.5999 4.01168 21.5999 5.9999V17.9999C21.5999 19.9881 19.9881 21.5999 17.9999 21.5999H5.9999C4.01168 21.5999 2.3999 19.9881 2.3999 17.9999L2.3999 5.9999C2.3999 4.01168 4.01168 2.3999 5.9999 2.3999L17.9999 2.3999Z" stroke="black" stroke-width="1.8"/>
</svg>

