<svg width="16" height="16" viewBox="0 0 16 16" fill="none" xmlns="http://www.w3.org/2000/svg">
    <path d="M10.5 4.66689C11.3284 4.66689 12 5.22654 12 5.91689V10.0836C12 10.7739 11.3284 11.3336 10.5 11.3336H5.5C4.67157 11.3336 4 10.7739 4 10.0836L4 5.91689C4 5.22654 4.67157 4.66689 5.5 4.66689L10.5 4.66689Z" stroke="black" stroke-width="1.2"/>
    <path d="M12.0001 1.59985C13.3256 1.59985 14.4001 2.67437 14.4001 3.99985V11.9999C14.4001 13.3253 13.3256 14.3999 12.0001 14.3999H4.0001C2.67461 14.3999 1.6001 13.3253 1.6001 11.9999L1.6001 3.99985C1.6001 2.67437 2.67461 1.59985 4.0001 1.59985L12.0001 1.59985Z" stroke="black" stroke-width="1.2"/>
</svg>
