<svg width="20" height="20" viewBox="0 0 20 20" fill="none" xmlns="http://www.w3.org/2000/svg">
    <path d="M16.9995 16.25L4.49951 3.75M8.49951 8.70131C8.18833 9.04438 7.99951 9.49503 7.99951 9.98859C7.99951 11.0634 8.89494 11.9347 9.99951 11.9347C10.5088 11.9347 10.9736 11.7495 11.3267 11.4445M17.0319 11.9347C17.7204 10.904 17.9995 10.0634 17.9995 10.0634C17.9995 10.0634 16.179 4.25 9.99951 4.25C9.65259 4.25 9.31941 4.26832 8.99951 4.30291M14.4995 14.4579C13.3517 15.1901 11.874 15.7079 9.99951 15.6773C3.89695 15.5775 1.99951 10.0634 1.99951 10.0634C1.99951 10.0634 2.88106 7.2484 5.49951 5.5361" stroke="black" stroke-width="1.5" stroke-linecap="round"/>
</svg>
