<svg width="12" height="12" viewBox="0 0 12 12" fill="none" xmlns="http://www.w3.org/2000/svg">
    <path d="M10.2002 9.75L2.7002 2.25M5.1002 5.22079C4.91349 5.42663 4.8002 5.69702 4.8002 5.99315C4.8002 6.63804 5.33745 7.16083 6.0002 7.16083C6.30577 7.16083 6.58466 7.04969 6.79652 6.86669M10.2196 7.16083C10.6327 6.54241 10.8002 6.03806 10.8002 6.03806C10.8002 6.03806 9.70789 2.55 6.0002 2.55C5.79204 2.55 5.59213 2.56099 5.4002 2.58175M8.70019 8.67472C8.01149 9.11407 7.12486 9.42476 6.0002 9.40637C2.33866 9.34649 1.2002 6.03806 1.2002 6.03806C1.2002 6.03806 1.72912 4.34904 3.3002 3.32166" stroke="black" stroke-linecap="round"/>
</svg>
