<svg width="16" height="16" viewBox="0 0 16 16" fill="none" xmlns="http://www.w3.org/2000/svg">
    <path d="M13.6001 13L3.6001 3M6.8001 6.96105C6.55115 7.2355 6.4001 7.59602 6.4001 7.99087C6.4001 8.85073 7.11644 9.54778 8.0001 9.54778C8.40753 9.54778 8.77939 9.39959 9.06186 9.15559M13.626 9.54778C14.1768 8.72322 14.4001 8.05075 14.4001 8.05075C14.4001 8.05075 12.9437 3.4 8.0001 3.4C7.72256 3.4 7.45601 3.41466 7.2001 3.44233M11.6001 11.5663C10.6818 12.1521 9.49965 12.5663 8.0001 12.5418C3.11805 12.462 1.6001 8.05075 1.6001 8.05075C1.6001 8.05075 2.30534 5.79872 4.4001 4.42888" stroke="black" stroke-width="1.2" stroke-linecap="round"/>
</svg>
