<svg width="16" height="16" viewBox="0 0 16 16" fill="none" xmlns="http://www.w3.org/2000/svg">
<path d="M6.7998 14.4001H5.1998C3.87432 14.4001 2.7998 13.3256 2.7998 12.0001V4.0001C2.7998 2.67461 3.87432 1.6001 5.1998 1.6001H10.7998C12.1253 1.6001 13.1998 2.67461 13.1998 4.0001V6.0001M10.3998 4.8001H5.1998M7.9998 7.2001H5.1998M6.7998 9.6001H5.1998M9.1998 9.8001L10.1265 9.33675C10.8022 8.99892 11.5975 8.99892 12.2731 9.33675L13.1998 9.8001C13.1998 9.8001 13.1998 11.2601 13.1998 12.0301C13.1998 12.8001 12.488 13.3199 11.1998 14.1334C9.91158 13.3199 9.1998 12.6334 9.1998 12.0301V9.8001Z" stroke="black" stroke-width="1.2" stroke-linecap="round" stroke-linejoin="round"/>
</svg>
