<svg width="32" height="32" viewBox="0 0 32 32" fill="none" xmlns="http://www.w3.org/2000/svg">
<path d="M13.6001 28.7999H10.4001C7.74913 28.7999 5.6001 26.6509 5.6001 23.9999V7.99995C5.6001 5.34898 7.74913 3.19995 10.4001 3.19995H21.6001C24.2511 3.19995 26.4001 5.34898 26.4001 7.99995V11.9999M20.8001 9.59995H10.4001M16.0001 14.3999H10.4001M13.6001 19.1999H10.4001M18.4001 19.5999L20.2535 18.6733C21.6048 17.9976 23.1954 17.9976 24.5467 18.6733L26.4001 19.5999C26.4001 19.5999 26.4001 22.5199 26.4001 24.0599C26.4001 25.5999 24.9765 26.6395 22.4001 28.2666C19.8237 26.6395 18.4001 25.2666 18.4001 24.0599V19.5999Z" stroke="black" stroke-width="2.4" stroke-linecap="round" stroke-linejoin="round"/>
</svg>
