<svg width="12" height="12" viewBox="0 0 12 12" fill="none" xmlns="http://www.w3.org/2000/svg">
<path d="M5.1001 10.7999H3.9001C2.90599 10.7999 2.1001 9.99406 2.1001 8.99995V2.99995C2.1001 2.00584 2.90599 1.19995 3.9001 1.19995H8.1001C9.09421 1.19995 9.9001 2.00584 9.9001 2.99995V4.49995M7.8001 3.59995H3.9001M6.0001 5.39995H3.9001M5.1001 7.19995H3.9001M6.9001 7.34995L7.59511 7.00244C8.10186 6.74907 8.69833 6.74907 9.20508 7.00244L9.9001 7.34995C9.9001 7.34995 9.9001 8.44495 9.9001 9.02245C9.9001 9.59995 9.36626 9.98978 8.4001 10.6C7.43393 9.98978 6.9001 9.47495 6.9001 9.02245V7.34995Z" stroke="black" stroke-linecap="round" stroke-linejoin="round"/>
</svg>
