<svg width="12" height="12" viewBox="0 0 12 12" fill="none" xmlns="http://www.w3.org/2000/svg">
<path d="M6 8.43746V8.45888M4.78178 4.49956C4.78178 3.81375 5.32743 3.2578 6.00053 3.2578C6.67363 3.2578 7.21928 3.81375 7.21928 4.49956C7.21928 5.18537 6.67363 5.74132 6.00053 5.74132C6.00053 5.74132 6 6.11196 6 6.56916M10.875 2.95311L10.875 9.04689C10.875 10.0565 10.0565 10.875 9.04687 10.875H2.95312C1.94348 10.875 1.125 10.0565 1.125 9.04689V2.95311C1.125 1.94347 1.94348 1.125 2.95312 1.125H9.04688C10.0565 1.125 10.875 1.94347 10.875 2.95311Z" stroke="black" stroke-linecap="round" stroke-linejoin="round"/>
</svg>
