<svg width="20" height="20" viewBox="0 0 20 20" fill="none" xmlns="http://www.w3.org/2000/svg">
<path d="M10.0005 14.0624V14.0981M7.97012 7.49927C7.97012 6.35626 8.87954 5.42967 10.0014 5.42967C11.1232 5.42967 12.0326 6.35626 12.0326 7.49927C12.0326 8.64228 11.1232 9.56887 10.0014 9.56887C10.0014 9.56887 10.0005 10.1866 10.0005 10.9486M18.1255 4.92186L18.1255 15.0781C18.1255 16.7609 16.7614 18.125 15.0786 18.125H4.92236C3.23962 18.125 1.87549 16.7609 1.87549 15.0781V4.92186C1.87549 3.23912 3.23962 1.875 4.92236 1.875H15.0786C16.7614 1.875 18.1255 3.23912 18.1255 4.92186Z" stroke="black" stroke-width="1.5" stroke-linecap="round" stroke-linejoin="round"/>
</svg>
