<svg width="16" height="16" viewBox="0 0 16 16" fill="none" xmlns="http://www.w3.org/2000/svg">
<path d="M8 11.2499V11.2785M6.37571 5.99941C6.37571 5.08501 7.10324 4.34373 8.00071 4.34373C8.89817 4.34373 9.62571 5.08501 9.62571 5.99941C9.62571 6.91382 8.89817 7.6551 8.00071 7.6551C8.00071 7.6551 8 8.14928 8 8.75888M14.5 3.93749L14.5 12.0625C14.5 13.4087 13.4087 14.5 12.0625 14.5H3.9375C2.59131 14.5 1.5 13.4087 1.5 12.0625V3.93749C1.5 2.5913 2.59131 1.5 3.9375 1.5H12.0625C13.4087 1.5 14.5 2.5913 14.5 3.93749Z" stroke="black" stroke-width="1.2" stroke-linecap="round" stroke-linejoin="round"/>
</svg>
