<svg width="24" height="24" viewBox="0 0 24 24" fill="none" xmlns="http://www.w3.org/2000/svg">
<path d="M12.0005 16.8752V16.918M9.56405 8.99937C9.56405 7.62775 10.6554 6.51584 12.0015 6.51584C13.3477 6.51584 14.439 7.62775 14.439 8.99937C14.439 10.371 13.3477 11.4829 12.0015 11.4829C12.0015 11.4829 12.0005 12.2242 12.0005 13.1386M21.7505 5.90647L21.7505 18.094C21.7505 20.1133 20.1135 21.7502 18.0942 21.7502H5.90674C3.88745 21.7502 2.25049 20.1133 2.25049 18.094V5.90647C2.25049 3.88719 3.88745 2.25024 5.90674 2.25024H18.0942C20.1135 2.25024 21.7505 3.88719 21.7505 5.90647Z" stroke="black" stroke-width="1.8" stroke-linecap="round" stroke-linejoin="round"/>
</svg>
