<svg width="20" height="20" viewBox="0 0 20 20" fill="none" xmlns="http://www.w3.org/2000/svg">
    <path d="M12.3338 1.6665V4.6665C12.3338 5.21879 12.7815 5.6665 13.3338 5.6665H16.3338M14.8338 3.1665C14.3887 2.76829 13.9269 2.29599 13.6353 1.98924C13.4413 1.78512 13.1733 1.6665 12.8917 1.6665H5.33357C4.22901 1.6665 3.33358 2.56193 3.33357 3.66649L3.3335 15.6664C3.33349 16.771 4.22892 17.6665 5.33349 17.6665L14.3335 17.6665C15.4381 17.6665 16.3335 16.7711 16.3335 15.6665L16.3338 5.0647C16.3338 4.809 16.2363 4.5632 16.0588 4.37911C15.7306 4.03871 15.1826 3.4786 14.8338 3.1665Z" stroke="black" stroke-width="1.5" stroke-linecap="round" stroke-linejoin="round"/>
</svg>
