<svg width="32" height="32" viewBox="0 0 32 32" fill="none" xmlns="http://www.w3.org/2000/svg">
    <path d="M29.0547 10.9468C28.2131 8.77428 26.8427 6.84615 25.0676 5.33717C23.2925 3.82819 21.1688 2.78606 18.8892 2.30526C16.6095 1.82446 14.2459 1.92019 12.0125 2.58376C9.77923 3.24734 7.74682 4.45778 6.09955 6.10537C4.45228 7.75295 3.24223 9.7856 2.57909 12.019C1.91595 14.2525 1.82068 16.6161 2.30192 18.8957C2.78315 21.1753 3.82569 23.2987 5.33501 25.0735C6.84434 26.8483 8.77273 28.2184 10.9454 29.0596" stroke="#314161" stroke-width="2.5" stroke-linecap="round"/>
    <path d="M6.99805 15.0039L12 20.0039L25.502 6.50195" stroke="#314161" stroke-width="2.5" stroke-linecap="round" stroke-linejoin="round"/>
    <path d="M31.2907 15.4042C31.3799 15.4028 31.4246 15.5103 31.3613 15.5732L23.4901 23.402C23.4751 23.4169 23.4548 23.4253 23.4336 23.4253H17.7115C17.6475 23.4253 17.6088 23.3553 17.6448 23.3024C17.9806 22.81 19.2583 20.9645 20.1254 20.1021C23.0937 17.1498 27.0996 15.4667 31.2907 15.4042Z" fill="#596989"/>
    <rect x="12.7998" y="24" width="19.1187" height="7.4688" rx="1.6" fill="#FC8F14"/>
    <path d="M16.5567 29.8684H14.3999V25.5996H16.4991C16.8788 25.5996 17.1754 25.7041 17.3887 25.9132C17.6063 26.118 17.7151 26.3761 17.7151 26.6876C17.7151 26.9436 17.6426 27.1612 17.4975 27.3404C17.3567 27.5153 17.1818 27.6241 16.9727 27.6668C17.2031 27.7009 17.3972 27.8204 17.5551 28.0252C17.7172 28.2257 17.7983 28.4561 17.7983 28.7164C17.7983 29.0577 17.6874 29.3351 17.4655 29.5484C17.2479 29.7617 16.945 29.8684 16.5567 29.8684ZM16.3455 27.366C16.5332 27.366 16.6804 27.3148 16.7871 27.2124C16.8938 27.11 16.9471 26.9777 16.9471 26.8156C16.9471 26.6492 16.8938 26.5148 16.7871 26.4124C16.6804 26.31 16.5332 26.2588 16.3455 26.2588H15.1487V27.366H16.3455ZM16.3775 29.2092C16.5823 29.2092 16.7423 29.158 16.8575 29.0556C16.9727 28.9489 17.0303 28.8017 17.0303 28.614C17.0303 28.4476 16.9727 28.3089 16.8575 28.198C16.7423 28.0828 16.5823 28.0252 16.3775 28.0252H15.1487V29.2092H16.3775Z" fill="white"/>
    <path d="M21.7947 29.8684H18.8699V25.5996H21.7947V26.2588H19.6187V27.366H21.7499V28.0252H19.6187V29.2092H21.7947V29.8684Z" fill="white"/>
    <path d="M24.6501 29.8684H23.9013V26.2588H22.6085V25.5996H25.9429V26.2588H24.6501V29.8684Z" fill="white"/>
    <path d="M30.3187 29.8684H29.4675L29.1539 29.0492H27.1955L26.8819 29.8684H26.0307L27.7075 25.5996H28.6419L30.3187 29.8684ZM28.9427 28.39L28.1747 26.3548L27.4067 28.39H28.9427Z" fill="white"/>
</svg>
