<svg width="40" height="40" viewBox="0 0 40 40" fill="none" xmlns="http://www.w3.org/2000/svg">
    <path d="M36.3184 13.6835C35.2664 10.9679 33.5533 8.55769 31.3345 6.67146C29.1156 4.78523 26.461 3.48258 23.6114 2.88158C20.7619 2.28058 17.8073 2.40024 15.0157 3.22971C12.224 4.05917 9.68353 5.57222 7.62444 7.63171C5.56535 9.69119 4.05279 12.232 3.22386 15.0238C2.39493 17.8156 2.27585 20.7702 2.87739 23.6196C3.47894 26.4691 4.78211 29.1234 6.66876 31.3419C8.55542 33.5604 10.9659 35.273 13.6818 36.3245" stroke="#314161" stroke-width="3.125" stroke-linecap="round"/>
    <path d="M8.74756 18.7549L15 25.0049L31.8775 8.12744" stroke="#314161" stroke-width="3.125" stroke-linecap="round" stroke-linejoin="round"/>
    <path d="M39.1136 19.2552C39.2251 19.2535 39.281 19.3879 39.2019 19.4666L29.3628 29.2525C29.3441 29.2712 29.3187 29.2816 29.2923 29.2816H22.1396C22.0596 29.2816 22.0112 29.1941 22.0563 29.1281C22.476 28.5126 24.0732 26.2056 25.157 25.1276C28.8674 21.4372 33.8748 19.3334 39.1136 19.2552Z" fill="#596989"/>
    <rect x="16" y="30" width="23.8984" height="9.336" rx="2" fill="#FC8F14"/>
    <path d="M20.696 37.336H18V32H20.624C21.0987 32 21.4693 32.1307 21.736 32.392C22.008 32.648 22.144 32.9707 22.144 33.36C22.144 33.68 22.0533 33.952 21.872 34.176C21.696 34.3947 21.4773 34.5307 21.216 34.584C21.504 34.6267 21.7467 34.776 21.944 35.032C22.1467 35.2827 22.248 35.5707 22.248 35.896C22.248 36.3227 22.1093 36.6693 21.832 36.936C21.56 37.2027 21.1813 37.336 20.696 37.336ZM20.432 34.208C20.6667 34.208 20.8507 34.144 20.984 34.016C21.1173 33.888 21.184 33.7227 21.184 33.52C21.184 33.312 21.1173 33.144 20.984 33.016C20.8507 32.888 20.6667 32.824 20.432 32.824H18.936V34.208H20.432ZM20.472 36.512C20.728 36.512 20.928 36.448 21.072 36.32C21.216 36.1867 21.288 36.0027 21.288 35.768C21.288 35.56 21.216 35.3867 21.072 35.248C20.928 35.104 20.728 35.032 20.472 35.032H18.936V36.512H20.472Z" fill="white"/>
    <path d="M27.2435 37.336H23.5875V32H27.2435V32.824H24.5235V34.208H27.1875V35.032H24.5235V36.512H27.2435V37.336Z" fill="white"/>
    <path d="M30.8127 37.336H29.8767V32.824H28.2607V32H32.4287V32.824H30.8127V37.336Z" fill="white"/>
    <path d="M37.8984 37.336H36.8344L36.4424 36.312H33.9944L33.6024 37.336H32.5384L34.6344 32H35.8024L37.8984 37.336ZM36.1784 35.488L35.2184 32.944L34.2584 35.488H36.1784Z" fill="white"/>
</svg>
