<svg width="20" height="20" viewBox="0 0 20 20" fill="none" xmlns="http://www.w3.org/2000/svg">
    <path d="M5.5 17V12.5C5.5 11.9477 5.94772 11.5 6.5 11.5H13.5C14.0523 11.5 14.5 11.9477 14.5 12.5V17.5M14.5 3V5C14.5 5.55228 14.0523 6 13.5 6L6.5 6C5.94771 6 5.5 5.55228 5.5 5L5.5 2M17.4979 5.49789L14.5021 2.50211C14.1806 2.18062 13.7446 2 13.2899 2H3.71429C2.7675 2 2 2.7675 2 3.71429V16.2857C2 17.2325 2.7675 18 3.71429 18H16.2857C17.2325 18 18 17.2325 18 16.2857V6.71007C18 6.25542 17.8194 5.81938 17.4979 5.49789Z" stroke="black" stroke-width="1.5" stroke-linecap="round"/>
</svg>
