<svg width="16" height="16" viewBox="0 0 16 16" fill="none" xmlns="http://www.w3.org/2000/svg">
    <path d="M4.4001 13.6001V10.0001C4.4001 9.55827 4.75827 9.2001 5.2001 9.2001H10.8001C11.2419 9.2001 11.6001 9.55827 11.6001 10.0001V14.0001M11.6001 2.4001V4.0001C11.6001 4.44193 11.2419 4.8001 10.8001 4.8001L5.2001 4.8001C4.75827 4.8001 4.4001 4.44192 4.4001 4.0001L4.4001 1.6001M13.9984 4.39841L11.6018 2.00178C11.3446 1.74459 10.9958 1.6001 10.632 1.6001H2.97153C2.2141 1.6001 1.6001 2.2141 1.6001 2.97153V13.0287C1.6001 13.7861 2.2141 14.4001 2.97153 14.4001H13.0287C13.7861 14.4001 14.4001 13.7861 14.4001 13.0287V5.36815C14.4001 5.00443 14.2556 4.6556 13.9984 4.39841Z" stroke="black" stroke-width="1.2" stroke-linecap="round"/>
</svg>
