<svg width="12" height="12" viewBox="0 0 12 12" fill="none" xmlns="http://www.w3.org/2000/svg">
    <path d="M3.3002 10.2V7.49995C3.3002 7.16858 3.56882 6.89995 3.9002 6.89995H8.10019C8.43157 6.89995 8.70019 7.16858 8.70019 7.49995V10.5M8.70019 1.79995V2.99995C8.70019 3.33132 8.43157 3.59995 8.10019 3.59995L3.9002 3.59995C3.56882 3.59995 3.3002 3.33132 3.3002 2.99995L3.3002 1.19995M10.4989 3.29869L8.70146 1.50122C8.50857 1.30832 8.24695 1.19995 7.97415 1.19995H2.22877C1.6607 1.19995 1.2002 1.66045 1.2002 2.22852V9.77138C1.2002 10.3395 1.6607 10.8 2.22877 10.8H9.77162C10.3397 10.8 10.8002 10.3395 10.8002 9.77138V4.02599C10.8002 3.7532 10.6918 3.49158 10.4989 3.29869Z" stroke="black" stroke-linecap="round"/>
</svg>
