<svg width="24" height="24" viewBox="0 0 24 24" fill="none" xmlns="http://www.w3.org/2000/svg">
    <path d="M6.5999 20.3999V14.9999C6.5999 14.3372 7.13716 13.7999 7.7999 13.7999H16.1999C16.8626 13.7999 17.3999 14.3372 17.3999 14.9999V20.9999M17.3999 3.5999V5.9999C17.3999 6.66264 16.8626 7.1999 16.1999 7.1999L7.7999 7.1999C7.13716 7.1999 6.5999 6.66264 6.5999 5.9999L6.5999 2.3999M20.9974 6.59737L17.4024 3.00243C17.0166 2.61664 16.4934 2.39991 15.9478 2.3999H4.45705C3.3209 2.3999 2.3999 3.3209 2.3999 4.45705V19.5428C2.3999 20.6789 3.3209 21.5999 4.45705 21.5999H19.5428C20.6789 21.5999 21.5999 20.6789 21.5999 19.5428V8.05199C21.5999 7.5064 21.3832 6.98316 20.9974 6.59737Z" stroke="black" stroke-width="1.8" stroke-linecap="round"/>
</svg>
