<svg width="16" height="16" viewBox="0 0 16 16" fill="none" xmlns="http://www.w3.org/2000/svg">
    <path d="M9.86675 1.3335V3.7335C9.86675 4.17532 10.2249 4.5335 10.6668 4.5335H13.0668M11.8668 2.5335C11.5107 2.21492 11.1412 1.83708 10.908 1.59168C10.7528 1.42839 10.5383 1.3335 10.313 1.3335H4.26657C3.38291 1.3335 2.66657 2.04984 2.66657 2.93349L2.6665 12.5334C2.6665 13.4171 3.38284 14.1335 4.2665 14.1335L11.4665 14.1335C12.3502 14.1335 13.0665 13.4172 13.0665 12.5335L13.0667 4.05205C13.0668 3.84749 12.9887 3.65085 12.8467 3.50358C12.5842 3.23126 12.1458 2.78317 11.8668 2.5335Z" stroke="black" stroke-width="1.2" stroke-linecap="round" stroke-linejoin="round"/>
    <path fill-rule="evenodd" clip-rule="evenodd" d="M1.3335 7.33333C1.3335 6.59695 1.93045 6 2.66683 6H13.6668V12H2.66683C1.93045 12 1.3335 11.403 1.3335 10.6667V7.33333ZM4.97083 7.554V10.6667H4.30816V7.554H4.97083ZM8.96276 7.554V10.6667H8.29543V8.48733L7.4181 10.6667H7.12876L6.25143 8.48733V10.6667H5.58876V7.554H6.51743L7.27343 9.43467L8.02943 7.554H8.96276ZM12.4136 10.1393C12.0963 10.494 11.6529 10.7273 11.0883 10.7273C10.1783 10.7273 9.43161 10.0927 9.43161 9.11267C9.43161 8.128 10.1783 7.50267 11.0883 7.50267C11.7369 7.50267 12.1429 7.82933 12.3763 8.198L11.8256 8.49667C11.6856 8.27733 11.4196 8.09067 11.0883 8.09067C10.5236 8.09067 10.1129 8.52467 10.1129 9.11267C10.1129 9.70067 10.5236 10.1347 11.0883 10.1347C11.3636 10.1347 11.6249 10.0133 11.7509 9.89667V9.52333H10.9296V8.94467H12.4136V10.1393Z" fill="#23B5E2"/>
</svg>
