<svg width="24" height="24" viewBox="0 0 24 24" fill="none" xmlns="http://www.w3.org/2000/svg">
    <path d="M14.8004 2V5.6C14.8004 6.26274 15.3376 6.8 16.0004 6.8H19.6004M17.8004 3.8C17.2663 3.32214 16.7121 2.75538 16.3622 2.38728C16.1294 2.14233 15.8077 2 15.4698 2H6.40009C5.07462 2 4.0001 3.07451 4.00009 4.39999L4 18.7999C3.99999 20.1254 5.0745 21.1999 6.39999 21.1999L17.2 21.2C18.5255 21.2 19.6 20.1255 19.6 18.8L19.6004 6.07783C19.6004 5.77099 19.4833 5.47603 19.2704 5.25513C18.8766 4.84665 18.219 4.17452 17.8004 3.8Z" stroke="black" stroke-width="1.8" stroke-linecap="round" stroke-linejoin="round"/>
    <path fill-rule="evenodd" clip-rule="evenodd" d="M2 11C2 9.89543 2.89543 9 4 9H20.5V18H4C2.89543 18 2 17.1046 2 16V11ZM7.456 11.331V16H6.462V11.331H7.456ZM13.4439 11.331V16H12.4429V12.731L11.1269 16H10.6929L9.3769 12.731V16H8.3829V11.331H9.7759L10.9099 14.152L12.0439 11.331H13.4439ZM18.6202 15.209C18.1442 15.741 17.4792 16.091 16.6322 16.091C15.2672 16.091 14.1472 15.139 14.1472 13.669C14.1472 12.192 15.2672 11.254 16.6322 11.254C17.6052 11.254 18.2142 11.744 18.5642 12.297L17.7382 12.745C17.5282 12.416 17.1292 12.136 16.6322 12.136C15.7852 12.136 15.1692 12.787 15.1692 13.669C15.1692 14.551 15.7852 15.202 16.6322 15.202C17.0452 15.202 17.4372 15.02 17.6262 14.845V14.285H16.3942V13.417H18.6202V15.209Z" fill="#23B5E2"/>
</svg>
