<svg width="32" height="32" viewBox="0 0 32 32" fill="none" xmlns="http://www.w3.org/2000/svg">
    <path d="M19.734 2.6665V7.4665C19.734 8.35016 20.4503 9.0665 21.334 9.0665H26.134M23.734 5.0665C23.0219 4.42936 22.283 3.67367 21.8165 3.18288C21.506 2.85628 21.0771 2.6665 20.6266 2.6665H8.53362C6.76632 2.6665 5.33363 4.09918 5.33362 5.86649L5.3335 25.0664C5.33348 26.8337 6.76617 28.2664 8.53348 28.2664L22.9335 28.2665C24.7008 28.2665 26.1335 26.8339 26.1336 25.0666L26.134 8.10361C26.134 7.69449 25.9779 7.30122 25.694 7.00668C25.1689 6.46203 24.2921 5.56586 23.734 5.0665Z" stroke="black" stroke-width="2.4" stroke-linecap="round" stroke-linejoin="round"/>
    <path fill-rule="evenodd" clip-rule="evenodd" d="M2.6665 14.6667C2.6665 13.1939 3.86041 12 5.33317 12H27.3332V24H5.33317C3.86041 24 2.6665 22.8061 2.6665 21.3333V14.6667ZM9.94117 15.108V21.3333H8.61584V15.108H9.94117ZM17.925 15.108V21.3333H16.5904V16.9747L14.8357 21.3333H14.257L12.5024 16.9747V21.3333H11.177V15.108H13.0344L14.5464 18.8693L16.0584 15.108H17.925ZM24.8267 20.2787C24.1921 20.988 23.3054 21.4547 22.1761 21.4547C20.3561 21.4547 18.8627 20.1853 18.8627 18.2253C18.8627 16.256 20.3561 15.0053 22.1761 15.0053C23.4734 15.0053 24.2854 15.6587 24.7521 16.396L23.6507 16.9933C23.3707 16.5547 22.8387 16.1813 22.1761 16.1813C21.0467 16.1813 20.2254 17.0493 20.2254 18.2253C20.2254 19.4013 21.0467 20.2693 22.1761 20.2693C22.7267 20.2693 23.2494 20.0267 23.5014 19.7933V19.0467H21.8587V17.8893H24.8267V20.2787Z" fill="#23B5E2"/>
</svg>
