<svg width="20" height="20" viewBox="0 0 20 20" fill="none" xmlns="http://www.w3.org/2000/svg">
    <path d="M12.3338 1.6665V4.6665C12.3338 5.21879 12.7815 5.6665 13.3338 5.6665H16.3338M14.8338 3.1665C14.3887 2.76829 13.9269 2.29599 13.6353 1.98924C13.4413 1.78512 13.1733 1.6665 12.8917 1.6665H5.33357C4.22901 1.6665 3.33358 2.56193 3.33357 3.66649L3.3335 15.6664C3.33349 16.771 4.22892 17.6665 5.33349 17.6665L14.3335 17.6665C15.4381 17.6665 16.3335 16.7711 16.3335 15.6665L16.3338 5.0647C16.3338 4.809 16.2363 4.5632 16.0588 4.37911C15.7306 4.03871 15.1826 3.4786 14.8338 3.1665Z" stroke="black" stroke-width="1.5" stroke-linecap="round" stroke-linejoin="round"/>
    <path fill-rule="evenodd" clip-rule="evenodd" d="M1.6665 9.16667C1.6665 8.24619 2.4127 7.5 3.33317 7.5H17.0832V15H3.33317C2.4127 15 1.6665 14.2538 1.6665 13.3333V9.16667ZM6.21317 9.4425V13.3333H5.38484V9.4425H6.21317ZM11.2031 9.4425V13.3333H10.3689V10.6092L9.27225 13.3333H8.91059L7.81392 10.6092V13.3333H6.98559V9.4425H8.14642L9.09142 11.7933L10.0364 9.4425H11.2031ZM15.5167 12.6742C15.12 13.1175 14.5658 13.4092 13.86 13.4092C12.7225 13.4092 11.7892 12.6158 11.7892 11.3908C11.7892 10.16 12.7225 9.37833 13.86 9.37833C14.6708 9.37833 15.1783 9.78667 15.47 10.2475L14.7817 10.6208C14.6067 10.3467 14.2742 10.1133 13.86 10.1133C13.1542 10.1133 12.6408 10.6558 12.6408 11.3908C12.6408 12.1258 13.1542 12.6683 13.86 12.6683C14.2042 12.6683 14.5308 12.5167 14.6883 12.3708V11.9042H13.6617V11.1808H15.5167V12.6742Z" fill="#23B5E2"/>
</svg>
