<svg width="12" height="12" viewBox="0 0 12 12" fill="none" xmlns="http://www.w3.org/2000/svg">
    <path d="M7.40019 1V2.8C7.40019 3.13137 7.66882 3.4 8.00019 3.4H9.80019M8.90019 1.9C8.63315 1.66107 8.35605 1.37769 8.18111 1.19364C8.06471 1.07117 7.90387 1 7.7349 1H3.20005C2.53731 1 2.00005 1.53725 2.00005 2.19999L2 9.39997C2 10.0627 2.53725 10.6 3.2 10.6L8.60002 10.6C9.26275 10.6 9.80001 10.0628 9.80002 9.40002L9.80018 3.03892C9.80018 2.8855 9.74166 2.73802 9.63518 2.62757C9.43828 2.42332 9.10948 2.08726 8.90019 1.9Z" stroke="black" stroke-linecap="round" stroke-linejoin="round"/>
    <path fill-rule="evenodd" clip-rule="evenodd" d="M1 5.5C1 4.94772 1.44772 4.5 2 4.5H10.25V9H2C1.44772 9 1 8.55228 1 8V5.5ZM3.728 5.6655V8H3.231V5.6655H3.728ZM6.72195 5.6655V8H6.22145V6.3655L5.56345 8H5.34645L4.68845 6.3655V8H4.19145V5.6655H4.88795L5.45495 7.076L6.02195 5.6655H6.72195ZM9.31009 7.6045C9.07209 7.8705 8.73959 8.0455 8.31609 8.0455C7.63359 8.0455 7.07359 7.5695 7.07359 6.8345C7.07359 6.096 7.63359 5.627 8.31609 5.627C8.80259 5.627 9.10709 5.872 9.28209 6.1485L8.86909 6.3725C8.76409 6.208 8.56459 6.068 8.31609 6.068C7.89259 6.068 7.58459 6.3935 7.58459 6.8345C7.58459 7.2755 7.89259 7.601 8.31609 7.601C8.52259 7.601 8.71859 7.51 8.81309 7.4225V7.1425H8.19709V6.7085H9.31009V7.6045Z" fill="#23B5E2"/>
</svg>
