<svg width="204" height="40" viewBox="0 0 204 40" fill="none" xmlns="http://www.w3.org/2000/svg">
    <path d="M36.3184 13.6835C35.2664 10.9679 33.5533 8.55769 31.3345 6.67146C29.1156 4.78523 26.461 3.48258 23.6114 2.88158C20.7619 2.28058 17.8073 2.40024 15.0157 3.22971C12.224 4.05917 9.68353 5.57222 7.62444 7.63171C5.56535 9.69119 4.05279 12.232 3.22386 15.0238C2.39493 17.8156 2.27585 20.7702 2.87739 23.6196C3.47894 26.4691 4.78211 29.1234 6.66876 31.3419C8.55542 33.5604 10.9659 35.273 13.6818 36.3245" stroke="white" stroke-width="3.125" stroke-linecap="round"/>
    <path d="M8.74756 18.7549L15 25.0049L31.8775 8.12744" stroke="white" stroke-width="3.125" stroke-linecap="round" stroke-linejoin="round"/>
    <path d="M39.1136 19.2552C39.2251 19.2535 39.281 19.3879 39.2019 19.4666L19.4636 39.0983C19.3848 39.1767 19.2511 39.1207 19.2528 39.0096C19.3312 33.7988 21.4465 28.8181 25.157 25.1276C28.8674 21.4372 33.8748 19.3334 39.1136 19.2552Z" fill="#596989"/>
    <path d="M59.9091 20.3646L57.2307 21.6897C56.7163 20.4795 55.8405 19.8699 54.5986 19.8699C54.0129 19.8536 53.4406 20.0386 52.9861 20.3911C52.7608 20.5781 52.5838 20.812 52.4689 21.0748C52.354 21.3375 52.3042 21.622 52.3234 21.9061C52.3053 22.1639 52.3517 22.422 52.4589 22.6593C52.5661 22.8966 52.7309 23.1063 52.9397 23.2709C53.7014 23.7499 54.5156 24.1483 55.3679 24.459C57.759 25.4131 59.3329 26.3362 60.0898 27.2284C60.7699 28.0598 61.1181 29.0945 61.0722 30.1479C61.0722 31.9677 60.4543 33.4031 59.2186 34.4543C57.9416 35.5246 56.2843 36.0901 54.5847 36.0356C54.1881 36.0335 53.7926 35.9965 53.4031 35.9251C52.8072 35.8093 52.2216 35.6498 51.6515 35.4481C50.8356 35.157 50.1103 34.6738 49.5431 34.0436C48.8406 33.2925 48.3145 32.407 48 31.4465L50.8128 30.3202C51.5665 32.2842 52.8378 33.2662 54.6264 33.2662C55.0535 33.2899 55.4808 33.2229 55.8775 33.0701C56.2741 32.9174 56.6303 32.6826 56.9202 32.3828C57.4371 31.8367 57.7213 31.1263 57.7172 30.3908C57.7251 30.028 57.6558 29.6674 57.5134 29.3308C57.3615 29.0121 57.1271 28.7355 56.8322 28.5269C56.5392 28.317 56.2294 28.1294 55.9054 27.966C55.6135 27.8202 55.2011 27.6347 54.6543 27.4051C52.2307 26.3936 50.7062 25.5147 50.0667 24.755C49.4674 23.9928 49.1629 23.0565 49.2048 22.1049C49.1671 21.4236 49.2833 20.7426 49.5455 20.1079C49.8078 19.4732 50.2099 18.8995 50.7247 18.4256C51.8205 17.5107 53.2454 17.0358 54.7006 17.1006C57.1133 17.1124 58.8495 18.2004 59.9091 20.3646Z" fill="white"/>
    <path d="M78.8478 18.8497V22.5731C78.1583 21.7107 77.2632 21.0172 76.2366 20.5502C75.2099 20.0832 74.0813 19.8561 72.9442 19.8877C72.0705 19.8722 71.2023 20.0233 70.3906 20.332C69.579 20.6407 68.8402 21.1008 68.2176 21.6854C66.9171 22.8838 66.2668 24.521 66.2668 26.5969C66.2668 28.6728 66.9171 30.3041 68.2176 31.4907C68.8367 32.0652 69.5691 32.517 70.3724 32.8203C71.1757 33.1235 72.034 33.2721 72.8979 33.2575C74.0693 33.2687 75.2276 33.0223 76.2829 32.5374C77.3381 32.0525 78.2618 31.3422 78.9821 30.4616V34.1718C77.2485 35.3968 75.1439 36.051 72.9859 36.0357C70.0511 36.0357 67.6369 35.1523 65.7432 33.3856C64.8108 32.5075 64.0791 31.4549 63.5943 30.2942C63.1094 29.1335 62.8818 27.8897 62.9258 26.641C62.8867 25.3789 63.1203 24.1226 63.6122 22.9502C64.104 21.7778 64.8436 20.7143 65.7849 19.8259C66.7322 18.9308 67.8609 18.2292 69.1022 17.7637C70.3435 17.2982 71.6712 17.0786 73.0044 17.1183C75.0944 17.0978 77.1383 17.7035 78.8478 18.8497Z" fill="white"/>
    <path d="M82.6157 35.5143V3.96045H85.8594V19.6314C86.4782 18.8246 87.2941 18.174 88.2365 17.736C89.1789 17.298 90.2193 17.086 91.2672 17.1182C93.6861 17.1182 95.4871 17.9412 96.6703 19.5872C97.3962 20.5972 97.7592 22.199 97.7592 24.3927V35.5143H94.4877V24.4722C94.4877 23 94.2004 21.9031 93.6258 21.1817C93.2591 20.7444 92.787 20.3979 92.2497 20.1718C91.7124 19.9457 91.1257 19.8467 90.5396 19.8831C89.9129 19.8577 89.2884 19.9695 88.7141 20.2099C88.1397 20.4503 87.6308 20.813 87.2264 21.27C86.3182 22.283 85.8548 23.9025 85.8363 26.1285V35.5143H82.6157Z" fill="white"/>
    <path d="M116.127 29.4986L118.852 30.9252C118.269 32.0172 117.484 33.0002 116.535 33.8271C114.818 35.2962 112.577 36.0859 110.27 36.0355C107.845 36.08 105.495 35.2358 103.704 33.6769C101.875 32.1045 100.959 29.7591 100.956 26.6409C100.956 23.9024 101.781 21.6307 103.431 19.8257C105.08 18.0207 107.298 17.1182 110.085 17.1182C113.23 17.1182 115.605 18.215 117.212 20.4087C118.488 22.1401 119.079 24.3912 118.986 27.162H104.32C104.277 28.7991 104.913 30.3864 106.09 31.5789C106.633 32.1254 107.289 32.5581 108.016 32.8494C108.744 33.1406 109.527 33.2841 110.316 33.2705C111.725 33.2959 113.096 32.8346 114.177 31.972C115.011 31.295 115.677 30.4503 116.127 29.4986ZM104.543 24.5649H115.622C115.408 23.2615 114.729 22.0683 113.699 21.1861C112.697 20.3537 111.411 19.8985 110.082 19.9058C108.752 19.9132 107.472 20.3825 106.48 21.2258C105.445 22.0887 104.761 23.2705 104.547 24.5649H104.543Z" fill="white"/>
    <path d="M137.068 20.104V3.96045H140.312V35.5143H137.068V33.0056C136.329 33.9691 135.356 34.7479 134.233 35.2755C133.11 35.8031 131.869 36.0639 130.617 36.0355C129.414 36.0556 128.219 35.8434 127.104 35.4114C125.989 34.9795 124.977 34.3369 124.13 33.5223C122.341 31.8528 121.449 29.5163 121.452 26.5128C121.452 23.5683 122.337 21.2671 124.107 19.6093C124.96 18.7963 125.977 18.1564 127.097 17.7283C128.217 17.3001 129.416 17.0926 130.622 17.1182C131.871 17.0768 133.111 17.3273 134.234 17.8477C135.358 18.3682 136.331 19.1428 137.068 20.104ZM130.984 19.8876C130.164 19.8754 129.351 20.0262 128.596 20.3304C127.842 20.6346 127.162 21.0855 126.6 21.6543C125.404 22.8321 124.807 24.4516 124.807 26.5128C124.807 28.5063 125.36 30.1258 126.466 31.3713C127.016 31.9958 127.71 32.4908 128.493 32.8179C129.277 33.145 130.129 33.2954 130.984 33.2573C131.85 33.2891 132.713 33.1299 133.505 32.792C134.296 32.4542 134.996 31.9469 135.548 31.3095C136.697 29.9691 137.301 28.2786 137.249 26.5481C137.249 24.4104 136.612 22.7644 135.339 21.6101C134.767 21.0634 134.088 20.6298 133.339 20.3342C132.591 20.0386 131.789 19.8868 130.979 19.8876H130.984Z" fill="white"/>
    <path d="M148.416 17.5513V28.028C148.416 29.8419 148.725 31.1257 149.343 31.8795C149.764 32.3168 150.277 32.6659 150.848 32.9047C151.418 33.1435 152.035 33.2668 152.658 33.2668C153.281 33.2668 153.898 33.1435 154.469 32.9047C155.039 32.6659 155.552 32.3168 155.974 31.8795C156.576 31.1286 156.9 29.8433 156.9 28.028V17.5513H160.144V28.3725C160.144 30.7959 159.57 32.5994 158.42 33.7831C156.883 35.227 154.812 36.0365 152.654 36.0365C150.495 36.0365 148.424 35.227 146.887 33.7831C145.731 32.6053 145.155 30.8018 145.158 28.3725V17.5513H148.416Z" fill="white"/>
    <path d="M164.945 3.96045H168.189V35.5143H164.945V3.96045Z" fill="white"/>
    <path d="M187.017 29.4986L189.737 30.9252C189.154 32.0174 188.369 33.0004 187.42 33.8271C185.701 35.2965 183.459 36.0862 181.15 36.0355C178.732 36.0746 176.389 35.2307 174.602 33.6769C172.77 32.1045 171.854 29.7591 171.854 26.6409C171.854 23.9024 172.679 21.6307 174.329 19.8257C175.979 18.0207 178.197 17.1182 180.983 17.1182C184.134 17.1182 186.511 18.215 188.115 20.4087C189.384 22.1401 189.974 24.3912 189.885 27.162H175.209C175.162 28.7997 175.799 30.3882 176.98 31.5789C177.521 32.1253 178.176 32.5579 178.903 32.8492C179.63 33.1405 180.413 33.284 181.201 33.2705C182.61 33.2959 183.981 32.8346 185.061 31.972C185.897 31.2955 186.565 30.4507 187.017 29.4986ZM175.432 24.5649H186.511C186.296 23.2609 185.615 22.0676 184.584 21.1861C183.582 20.3537 182.295 19.8985 180.966 19.9058C179.637 19.9132 178.356 20.3825 177.364 21.2258C176.332 22.0903 175.65 23.2716 175.436 24.5649H175.432Z" fill="white"/>
    <path d="M193.509 35.5143V17.551H196.776V19.4988C197.835 17.9147 199.259 17.1211 201.048 17.1182C202.064 17.1452 203.058 17.3978 203.954 17.8558L202.406 20.6693C201.853 20.2798 201.184 20.0679 200.497 20.0642C199.996 20.0366 199.497 20.1241 199.039 20.3194C198.582 20.5146 198.181 20.8119 197.869 21.1861C197.142 22.1136 196.776 23.7257 196.776 26.0446V35.5143H193.509Z" fill="white"/>
</svg>
