<svg width="32" height="32" viewBox="0 0 32 32" fill="none" xmlns="http://www.w3.org/2000/svg">
    <path d="M1.5 26L5.99977 25.9977L18.0459 13.9963L30.5 13.9963" stroke="#314161" stroke-width="2.5" stroke-linecap="round" stroke-linejoin="round"/>
    <circle cx="6.0002" cy="25.9992" r="3.3" fill="#314161"/>
    <circle cx="18.0002" cy="13.9992" r="3.3" fill="#596989"/>
    <path d="M11.1733 29.1417C13.0825 29.8429 15.1216 30.1197 17.1486 29.9528C19.1756 29.7859 21.1419 29.1794 22.9108 28.1754C24.6796 27.1715 26.2084 25.7941 27.3909 24.1393C28.5733 22.4845 29.381 20.5919 29.7577 18.5932" stroke="#314161" stroke-width="2.5" stroke-linecap="round"/>
    <path d="M28.2658 9.25086C26.5642 6.15838 23.7572 3.82278 20.4069 2.7117C17.0566 1.60061 13.4103 1.79604 10.198 3.25886C6.98565 4.72168 4.44443 7.34392 3.08311 10.6006C1.72179 13.8572 1.64085 17.5079 2.8565 20.8217" stroke="#314161" stroke-width="2.5" stroke-linecap="round"/>
</svg>
