<svg width="24" height="24" viewBox="0 0 24 24" fill="none" xmlns="http://www.w3.org/2000/svg">
    <path d="M1.125 19.5L4.49983 19.4983L13.5344 10.4972L22.875 10.4972" stroke="#314161" stroke-width="1.9" stroke-linecap="round" stroke-linejoin="round"/>
    <circle cx="4.50039" cy="19.4984" r="2.475" fill="#314161"/>
    <circle cx="13.5004" cy="10.4984" r="2.475" fill="#596989"/>
    <path d="M8.38001 21.8562C9.8119 22.3822 11.3412 22.5898 12.8614 22.4646C14.3817 22.3395 15.8565 21.8846 17.1831 21.1316C18.5097 20.3786 19.6563 19.3456 20.5431 18.1045C21.43 16.8634 22.0358 15.4439 22.3183 13.9449" stroke="#314161" stroke-width="1.9" stroke-linecap="round"/>
    <path d="M21.1993 6.93814C19.9231 4.61878 17.8179 2.86709 15.3052 2.03377C12.7925 1.20046 10.0577 1.34703 7.64848 2.44415C5.23924 3.54126 3.33332 5.50794 2.31233 7.95042C1.29134 10.3929 1.23064 13.1309 2.14237 15.6162" stroke="#314161" stroke-width="1.9" stroke-linecap="round"/>
</svg>
