<svg width="12" height="12" viewBox="0 0 12 12" fill="none" xmlns="http://www.w3.org/2000/svg">
    <path d="M7.40019 1V2.8C7.40019 3.13137 7.66882 3.4 8.00019 3.4H9.80019M8.90019 1.9C8.63315 1.66107 8.35605 1.37769 8.18111 1.19364C8.06471 1.07117 7.90387 1 7.7349 1H3.20005C2.53731 1 2.00005 1.53725 2.00005 2.19999L2 9.39997C2 10.0627 2.53725 10.6 3.2 10.6L8.60002 10.6C9.26275 10.6 9.80001 10.0628 9.80002 9.40002L9.80018 3.03892C9.80018 2.8855 9.74166 2.73802 9.63518 2.62757C9.43828 2.42332 9.10948 2.08726 8.90019 1.9Z" stroke="black" stroke-linecap="round" stroke-linejoin="round"/>
    <path fill-rule="evenodd" clip-rule="evenodd" d="M2 4.5C1.44772 4.5 1 4.94772 1 5.5V8C1 8.55228 1.44772 9 2 9H10.25V4.5H2ZM3.27092 6.67051H3.44235C3.60257 6.67051 3.72246 6.63875 3.80201 6.57524C3.88157 6.51059 3.92134 6.41701 3.92134 6.29452C3.92134 6.17089 3.88773 6.07958 3.8205 6.02061C3.75439 5.96163 3.65019 5.93214 3.50789 5.93214H3.27092V6.67051ZM4.4474 6.2758C4.4474 6.54348 4.36448 6.74821 4.19866 6.88998C4.03395 7.03176 3.79921 7.10265 3.49445 7.10265H3.27092V7.98734H2.7499V5.5H3.53478C3.83283 5.5 4.05916 5.56522 4.21378 5.69565C4.36953 5.82495 4.4474 6.01834 4.4474 6.2758ZM7.01141 6.71985C7.01141 7.1293 6.896 7.44291 6.66519 7.66068C6.43549 7.87845 6.10328 7.98734 5.66854 7.98734H4.97273V5.5H5.74417C6.14529 5.5 6.45678 5.60718 6.67863 5.82155C6.90048 6.03592 7.01141 6.33535 7.01141 6.71985ZM6.47023 6.73346C6.47023 6.19924 6.23717 5.93214 5.77106 5.93214H5.49375V7.5518H5.71728C6.21924 7.5518 6.47023 7.27902 6.47023 6.73346ZM7.58212 7.98734H8.09473V7.00397H8.92835V6.57354H8.09473V5.93214H8.99054V5.5H7.58212V7.98734Z" fill="#E22351"/>
</svg>
