<svg width="24" height="24" viewBox="0 0 24 24" fill="none" xmlns="http://www.w3.org/2000/svg">
    <path d="M14.8004 2V5.6C14.8004 6.26274 15.3376 6.8 16.0004 6.8H19.6004M17.8004 3.8C17.2663 3.32214 16.7121 2.75538 16.3622 2.38728C16.1294 2.14233 15.8077 2 15.4698 2H6.40009C5.07462 2 4.0001 3.07451 4.00009 4.39999L4 18.7999C3.99999 20.1254 5.0745 21.1999 6.39999 21.1999L17.2 21.2C18.5255 21.2 19.6 20.1255 19.6 18.8L19.6004 6.07783C19.6004 5.77099 19.4833 5.47603 19.2704 5.25513C18.8766 4.84665 18.219 4.17452 17.8004 3.8Z" stroke="black" stroke-width="1.8" stroke-linecap="round" stroke-linejoin="round"/>
    <path fill-rule="evenodd" clip-rule="evenodd" d="M4 9C2.89543 9 2 9.89543 2 11V16C2 17.1046 2.89543 18 4 18H20.5V9H4ZM6.54183 13.341H6.88469C7.20514 13.341 7.44492 13.2775 7.60403 13.1505C7.76313 13.0212 7.84269 12.834 7.84269 12.589C7.84269 12.3418 7.77546 12.1592 7.641 12.0412C7.50879 11.9233 7.30038 11.8643 7.01579 11.8643H6.54183V13.341ZM8.8948 12.5516C8.8948 13.087 8.72897 13.4964 8.39731 13.78C8.0679 14.0635 7.59843 14.2053 6.9889 14.2053H6.54183V15.9747H5.49981V11H7.06957C7.66565 11 8.11832 11.1304 8.42757 11.3913C8.73905 11.6499 8.8948 12.0367 8.8948 12.5516ZM14.0228 13.4397C14.0228 14.2586 13.792 14.8858 13.3304 15.3214C12.871 15.7569 12.2066 15.9747 11.3371 15.9747H9.94547V11H11.4883C12.2906 11 12.9136 11.2144 13.3573 11.6431C13.801 12.0718 14.0228 12.6707 14.0228 13.4397ZM12.9405 13.4669C12.9405 12.3985 12.4743 11.8643 11.5421 11.8643H10.9875V15.1036H11.4346C12.4385 15.1036 12.9405 14.558 12.9405 13.4669ZM15.1642 15.9747H16.1895V14.0079H17.8567V13.1471H16.1895V11.8643H17.9811V11H15.1642V15.9747Z" fill="#E22351"/>
</svg>
