<svg width="32" height="32" viewBox="0 0 32 32" fill="none" xmlns="http://www.w3.org/2000/svg">
    <path d="M19.734 2.6665V7.4665C19.734 8.35016 20.4503 9.0665 21.334 9.0665H26.134M23.734 5.0665C23.0219 4.42936 22.283 3.67367 21.8165 3.18288C21.506 2.85628 21.0771 2.6665 20.6266 2.6665H8.53362C6.76632 2.6665 5.33363 4.09918 5.33362 5.86649L5.3335 25.0664C5.33348 26.8337 6.76617 28.2664 8.53348 28.2664L22.9335 28.2665C24.7008 28.2665 26.1335 26.8339 26.1336 25.0666L26.134 8.10361C26.134 7.69449 25.9779 7.30122 25.694 7.00668C25.1689 6.46203 24.2921 5.56586 23.734 5.0665Z" stroke="black" stroke-width="2.4" stroke-linecap="round" stroke-linejoin="round"/>
    <path fill-rule="evenodd" clip-rule="evenodd" d="M4.6665 12C3.56193 12 2.6665 12.8954 2.6665 14V22C2.6665 23.1046 3.56193 24 4.6665 24H27.3332V12H4.6665ZM8.72228 17.788H9.17943C9.6067 17.788 9.9264 17.7033 10.1385 17.534C10.3507 17.3616 10.4568 17.112 10.4568 16.7854C10.4568 16.4557 10.3671 16.2122 10.1878 16.0549C10.0116 15.8977 9.73368 15.819 9.35422 15.819H8.72228V17.788ZM11.8596 16.7355C11.8596 17.4493 11.6385 17.9952 11.1963 18.3733C10.757 18.7514 10.1311 18.9404 9.31837 18.9404H8.72228V21.2996H7.33291V14.6667H9.42593C10.2207 14.6667 10.8243 14.8406 11.2366 15.1884C11.6519 15.5332 11.8596 16.0489 11.8596 16.7355ZM18.6969 17.9196C18.6969 19.0115 18.3892 19.8478 17.7737 20.4285C17.1612 21.0092 16.2752 21.2996 15.1159 21.2996H13.2605V14.6667H15.3176C16.3873 14.6667 17.2179 14.9525 17.8095 15.5241C18.4011 16.0958 18.6969 16.8943 18.6969 17.9196ZM17.2538 17.9559C17.2538 16.5313 16.6323 15.819 15.3893 15.819H14.6498V20.1381H15.2459C16.5845 20.1381 17.2538 19.4107 17.2538 17.9559ZM20.2188 21.2996H21.5858V18.6773H23.8088V17.5294H21.5858V15.819H23.9746V14.6667H20.2188V21.2996Z" fill="#E22351"/>
</svg>
