<svg width="20" height="20" viewBox="0 0 20 20" fill="none" xmlns="http://www.w3.org/2000/svg">
    <path d="M12.3338 1.6665V4.6665C12.3338 5.21879 12.7815 5.6665 13.3338 5.6665H16.3338M14.8338 3.1665C14.3887 2.76829 13.9269 2.29599 13.6353 1.98924C13.4413 1.78512 13.1733 1.6665 12.8917 1.6665H5.33357C4.22901 1.6665 3.33358 2.56193 3.33357 3.66649L3.3335 15.6664C3.33349 16.771 4.22892 17.6665 5.33349 17.6665L14.3335 17.6665C15.4381 17.6665 16.3335 16.7711 16.3335 15.6665L16.3338 5.0647C16.3338 4.809 16.2363 4.5632 16.0588 4.37911C15.7306 4.03871 15.1826 3.4786 14.8338 3.1665Z" stroke="black" stroke-width="1.5" stroke-linecap="round" stroke-linejoin="round"/>
    <path fill-rule="evenodd" clip-rule="evenodd" d="M3.6665 7.5C2.56193 7.5 1.6665 8.39543 1.6665 9.5V13C1.6665 14.1046 2.56194 15 3.66651 15H17.0832V7.5H3.6665ZM5.45136 11.1175H5.73708C6.00412 11.1175 6.20394 11.0646 6.33653 10.9587C6.46911 10.851 6.53541 10.695 6.53541 10.4909C6.53541 10.2848 6.47939 10.1326 6.36734 10.0343C6.25716 9.93604 6.08349 9.88689 5.84633 9.88689H5.45136V11.1175ZM7.41217 10.4597C7.41217 10.9058 7.27398 11.247 6.9976 11.4833C6.72309 11.7196 6.33186 11.8377 5.82392 11.8377H5.45136V13.3122H4.58301V9.16667H5.89114C6.38788 9.16667 6.7651 9.27536 7.02281 9.49275C7.28238 9.70826 7.41217 10.0306 7.41217 10.4597ZM11.6855 11.1997C11.6855 11.8822 11.4932 12.4049 11.1085 12.7678C10.7257 13.1308 10.172 13.3122 9.4474 13.3122H8.28773V9.16667H9.57345C10.242 9.16667 10.7611 9.34531 11.1309 9.70258C11.5006 10.0599 11.6855 10.5589 11.6855 11.1997ZM10.7835 11.2224C10.7835 10.3321 10.3951 9.88689 9.61827 9.88689H9.15608V12.5863H9.52864C10.3652 12.5863 10.7835 12.1317 10.7835 11.2224ZM12.6367 13.3122H13.4911V11.6733H14.8804V10.9559H13.4911V9.88689H14.9841V9.16667H12.6367V13.3122Z" fill="#E22351"/>
</svg>
