<svg width="16" height="16" viewBox="0 0 16 16" fill="none" xmlns="http://www.w3.org/2000/svg">
    <path d="M9.86675 1.3335V3.7335C9.86675 4.17532 10.2249 4.5335 10.6668 4.5335H13.0668M11.8668 2.5335C11.5107 2.21492 11.1412 1.83708 10.908 1.59168C10.7528 1.42839 10.5383 1.3335 10.313 1.3335H4.26657C3.38291 1.3335 2.66657 2.04984 2.66657 2.93349L2.6665 12.5334C2.6665 13.4171 3.38284 14.1335 4.2665 14.1335L11.4665 14.1335C12.3502 14.1335 13.0665 13.4172 13.0665 12.5335L13.0667 4.05205C13.0668 3.84749 12.9887 3.65085 12.8467 3.50358C12.5842 3.23126 12.1458 2.78317 11.8668 2.5335Z" stroke="black" stroke-width="1.2" stroke-linecap="round" stroke-linejoin="round"/>
    <path fill-rule="evenodd" clip-rule="evenodd" d="M2.8335 6C2.00507 6 1.3335 6.67157 1.3335 7.5V10.5C1.3335 11.3284 2.00507 12 2.8335 12H13.6668V6H2.8335ZM4.36138 8.89402H4.58996C4.80359 8.89402 4.96344 8.85167 5.06951 8.76698C5.17559 8.68078 5.22862 8.55602 5.22862 8.39269C5.22862 8.22785 5.1838 8.10611 5.09417 8.02747C5.00602 7.94883 4.86709 7.90952 4.67735 7.90952H4.36138V8.89402ZM5.93003 8.36774C5.93003 8.72464 5.81948 8.99761 5.59837 9.18664C5.37876 9.37568 5.06578 9.4702 4.65943 9.4702H4.36138V10.6498H3.6667V7.33333H4.71321C5.1106 7.33333 5.41238 7.42029 5.61854 7.5942C5.8262 7.7666 5.93003 8.02445 5.93003 8.36774ZM9.34871 8.9598C9.34871 9.50574 9.19483 9.92388 8.88708 10.2142C8.58082 10.5046 8.13787 10.6498 7.55821 10.6498H6.63047V7.33333H7.65906C8.19389 7.33333 8.60921 7.47624 8.90501 7.76207C9.20081 8.04789 9.34871 8.44713 9.34871 8.9598ZM8.62713 8.97795C8.62713 8.26566 8.31639 7.90952 7.69491 7.90952H7.32516V10.0691H7.6232C8.29249 10.0691 8.62713 9.70536 8.62713 8.97795ZM10.1097 10.6498H10.7931V9.33863H11.9046V8.76471H10.7931V7.90952H11.9875V7.33333H10.1097V10.6498Z" fill="#E22351"/>
</svg>
