<svg width="20" height="20" viewBox="0 0 20 20" fill="none" xmlns="http://www.w3.org/2000/svg">
    <path d="M12.3338 1.6665V4.6665C12.3338 5.21879 12.7815 5.6665 13.3338 5.6665H16.3338M14.8338 3.1665C14.3887 2.76829 13.9269 2.29599 13.6353 1.98924C13.4413 1.78512 13.1733 1.6665 12.8917 1.6665H5.33357C4.22901 1.6665 3.33358 2.56193 3.33357 3.66649L3.3335 15.6664C3.33349 16.771 4.22892 17.6665 5.33349 17.6665L14.3335 17.6665C15.4381 17.6665 16.3335 16.7711 16.3335 15.6665L16.3338 5.0647C16.3338 4.809 16.2363 4.5632 16.0588 4.37911C15.7306 4.03871 15.1826 3.4786 14.8338 3.1665Z" stroke="black" stroke-width="1.5" stroke-linecap="round" stroke-linejoin="round"/>
    <path fill-rule="evenodd" clip-rule="evenodd" d="M1.6665 9.16667C1.6665 8.24619 2.4127 7.5 3.33317 7.5H17.0832V15H3.33317C2.4127 15 1.6665 14.2538 1.6665 13.3333V9.16667ZM7.11734 10.1717V13.3333H6.28317V10.1717H5.14567V9.4425H8.249V10.1717H7.11734ZM10.8975 11.3325L12.3092 13.3333H11.3175L10.3434 11.91L9.36335 13.3333H8.37752L9.78919 11.3383L8.46502 9.4425H9.45085L10.3434 10.7725L11.2242 9.4425H12.2217L10.8975 11.3325ZM14.409 10.1717V13.3333H13.5748V10.1717H12.4373V9.4425H15.5407V10.1717H14.409Z" fill="#23E2C0"/>
</svg>
