<svg width="16" height="16" viewBox="0 0 16 16" fill="none" xmlns="http://www.w3.org/2000/svg">
    <path d="M9.86675 1.3335V3.7335C9.86675 4.17532 10.2249 4.5335 10.6668 4.5335H13.0668M11.8668 2.5335C11.5107 2.21492 11.1412 1.83708 10.908 1.59168C10.7528 1.42839 10.5383 1.3335 10.313 1.3335H4.26657C3.38291 1.3335 2.66657 2.04984 2.66657 2.93349L2.6665 12.5334C2.6665 13.4171 3.38284 14.1335 4.2665 14.1335L11.4665 14.1335C12.3502 14.1335 13.0665 13.4172 13.0665 12.5335L13.0667 4.05205C13.0668 3.84749 12.9887 3.65085 12.8467 3.50358C12.5842 3.23126 12.1458 2.78317 11.8668 2.5335Z" stroke="black" stroke-width="1.2" stroke-linecap="round" stroke-linejoin="round"/>
    <path fill-rule="evenodd" clip-rule="evenodd" d="M1.3335 7.33333C1.3335 6.59695 1.93045 6 2.66683 6H13.6668V12H2.66683C1.93045 12 1.3335 11.403 1.3335 10.6667V7.33333ZM5.69416 8.13733V10.6667H5.02683V8.13733H4.11683V7.554H6.5995V8.13733H5.69416ZM8.71831 9.066L9.84764 10.6667H9.05431L8.27497 9.528L7.49097 10.6667H6.70231L7.83164 9.07067L6.77231 7.554H7.56098L8.27497 8.618L8.97964 7.554H9.77764L8.71831 9.066ZM11.5275 8.13733V10.6667H10.8602V8.13733H9.95016V7.554H12.4328V8.13733H11.5275Z" fill="#23E2C0"/>
</svg>
