<svg width="12" height="12" viewBox="0 0 12 12" fill="none" xmlns="http://www.w3.org/2000/svg">
    <path d="M7.40019 1V2.8C7.40019 3.13137 7.66882 3.4 8.00019 3.4H9.80019M8.90019 1.9C8.63315 1.66107 8.35605 1.37769 8.18111 1.19364C8.06471 1.07117 7.90387 1 7.7349 1H3.20005C2.53731 1 2.00005 1.53725 2.00005 2.19999L2 9.39997C2 10.0627 2.53725 10.6 3.2 10.6L8.60002 10.6C9.26275 10.6 9.80001 10.0628 9.80002 9.40002L9.80018 3.03892C9.80018 2.8855 9.74166 2.73802 9.63518 2.62757C9.43828 2.42332 9.10948 2.08726 8.90019 1.9Z" stroke="black" stroke-linecap="round" stroke-linejoin="round"/>
    <path fill-rule="evenodd" clip-rule="evenodd" d="M1 5.5C1 4.94772 1.44772 4.5 2 4.5H10.25V9H2C1.44772 9 1 8.55228 1 8V5.5ZM4.2705 6.103V8H3.77V6.103H3.0875V5.6655H4.9495V6.103H4.2705ZM6.53861 6.7995L7.38561 8H6.79061L6.20611 7.146L5.61811 8H5.02661L5.87361 6.803L5.07911 5.6655H5.67061L6.20611 6.4635L6.73461 5.6655H7.33311L6.53861 6.7995ZM8.6455 6.103V8H8.145V6.103H7.4625V5.6655H9.3245V6.103H8.6455Z" fill="#23E2C0"/>
</svg>
