<svg width="32" height="32" viewBox="0 0 32 32" fill="none" xmlns="http://www.w3.org/2000/svg">
    <path d="M19.734 2.6665V7.4665C19.734 8.35016 20.4503 9.0665 21.334 9.0665H26.134M23.734 5.0665C23.0219 4.42936 22.283 3.67367 21.8165 3.18288C21.506 2.85628 21.0771 2.6665 20.6266 2.6665H8.53362C6.76632 2.6665 5.33363 4.09918 5.33362 5.86649L5.3335 25.0664C5.33348 26.8337 6.76617 28.2664 8.53348 28.2664L22.9335 28.2665C24.7008 28.2665 26.1335 26.8339 26.1336 25.0666L26.134 8.10361C26.134 7.69449 25.9779 7.30122 25.694 7.00668C25.1689 6.46203 24.2921 5.56586 23.734 5.0665Z" stroke="black" stroke-width="2.4" stroke-linecap="round" stroke-linejoin="round"/>
    <path fill-rule="evenodd" clip-rule="evenodd" d="M2.6665 14.6667C2.6665 13.1939 3.86041 12 5.33317 12H27.3332V24H5.33317C3.86041 24 2.6665 22.8061 2.6665 21.3333V14.6667ZM11.3878 16.2747V21.3333H10.0532V16.2747H8.23317V15.108H13.1985V16.2747H11.3878ZM17.4361 18.132L19.6948 21.3333H18.1081L16.5495 19.056L14.9815 21.3333H13.4041L15.6628 18.1413L13.5441 15.108H15.1215L16.5495 17.236L17.9588 15.108H19.5548L17.4361 18.132ZM23.0545 16.2747V21.3333H21.7198V16.2747H19.8998V15.108H24.8652V16.2747H23.0545Z" fill="#23E2C0"/>
</svg>
