<svg width="24" height="24" viewBox="0 0 24 24" fill="none" xmlns="http://www.w3.org/2000/svg">
    <path d="M14.8004 2V5.6C14.8004 6.26274 15.3376 6.8 16.0004 6.8H19.6004M17.8004 3.8C17.2663 3.32214 16.7121 2.75538 16.3622 2.38728C16.1294 2.14233 15.8077 2 15.4698 2H6.40009C5.07462 2 4.0001 3.07451 4.00009 4.39999L4 18.7999C3.99999 20.1254 5.0745 21.1999 6.39999 21.1999L17.2 21.2C18.5255 21.2 19.6 20.1255 19.6 18.8L19.6004 6.07783C19.6004 5.77099 19.4833 5.47603 19.2704 5.25513C18.8766 4.84665 18.219 4.17452 17.8004 3.8Z" stroke="black" stroke-width="1.8" stroke-linecap="round" stroke-linejoin="round"/>
    <path fill-rule="evenodd" clip-rule="evenodd" d="M2 11C2 9.89543 2.89543 9 4 9H20.5V18H4C2.89543 18 2 17.1046 2 16V11ZM8.541 12.206V16H7.54V12.206H6.175V11.331H9.899V12.206H8.541ZM13.0772 13.599L14.7712 16H13.5812L12.4122 14.292L11.2362 16H10.0532L11.7472 13.606L10.1582 11.331H11.3412L12.4122 12.927L13.4692 11.331H14.6662L13.0772 13.599ZM17.291 12.206V16H16.29V12.206H14.925V11.331H18.649V12.206H17.291Z" fill="#23E2C0"/>
</svg>
