<svg width="16" height="16" viewBox="0 0 16 16" fill="none" xmlns="http://www.w3.org/2000/svg">
    <path d="M9.86675 1.3335V3.7335C9.86675 4.17532 10.2249 4.5335 10.6668 4.5335H13.0668M11.8668 2.5335C11.5107 2.21492 11.1412 1.83708 10.908 1.59168C10.7528 1.42839 10.5383 1.3335 10.313 1.3335H4.26657C3.38291 1.3335 2.66657 2.04984 2.66657 2.93349L2.6665 12.5334C2.6665 13.4171 3.38284 14.1335 4.2665 14.1335L11.4665 14.1335C12.3502 14.1335 13.0665 13.4172 13.0665 12.5335L13.0667 4.05205C13.0668 3.84749 12.9887 3.65085 12.8467 3.50358C12.5842 3.23126 12.1458 2.78317 11.8668 2.5335Z" stroke="black" stroke-width="1.2" stroke-linecap="round" stroke-linejoin="round"/>
    <path fill-rule="evenodd" clip-rule="evenodd" d="M2.66683 6C1.93045 6 1.3335 6.59695 1.3335 7.33333V10.6667C1.3335 11.403 1.93045 12 2.66683 12H13.6668V6H2.66683ZM12.2201 9.724C12.2201 10.2933 11.8141 10.7227 10.9741 10.7227C10.3767 10.7227 9.94739 10.522 9.65806 10.228L10.0174 9.724C10.2367 9.95267 10.5774 10.144 11.0067 10.144C11.3707 10.144 11.5481 9.976 11.5481 9.79867C11.5481 9.57468 11.2516 9.50434 10.8998 9.42089C10.3867 9.29917 9.75606 9.14955 9.75606 8.45467C9.75606 7.93667 10.2041 7.50733 10.9367 7.50733C11.4314 7.50733 11.8421 7.65667 12.1501 7.94133L11.7814 8.42667C11.5294 8.19333 11.1934 8.086 10.8761 8.086C10.5914 8.086 10.4327 8.212 10.4327 8.39867C10.4327 8.59398 10.7114 8.66052 11.0486 8.74106C11.5655 8.8645 12.2201 9.02081 12.2201 9.724ZM7.1315 10.6667L6.00216 9.066L7.0615 7.554H6.2635L5.55883 8.618L4.84483 7.554H4.05616L5.1155 9.07067L3.98616 10.6667H4.77483L5.55883 9.528L6.33816 10.6667H7.1315ZM9.40402 10.6667V10.0833H8.08802V7.554H7.42535V10.6667H9.40402Z" fill="#23E2C0"/>
</svg>
