<svg width="20" height="20" viewBox="0 0 20 20" fill="none" xmlns="http://www.w3.org/2000/svg">
    <path d="M12.3338 1.6665V4.6665C12.3338 5.21879 12.7815 5.6665 13.3338 5.6665H16.3338M14.8338 3.1665C14.3887 2.76829 13.9269 2.29599 13.6353 1.98924C13.4413 1.78512 13.1733 1.6665 12.8917 1.6665H5.33357C4.22901 1.6665 3.33358 2.56193 3.33357 3.66649L3.3335 15.6664C3.33349 16.771 4.22892 17.6665 5.33349 17.6665L14.3335 17.6665C15.4381 17.6665 16.3335 16.7711 16.3335 15.6665L16.3338 5.0647C16.3338 4.809 16.2363 4.5632 16.0588 4.37911C15.7306 4.03871 15.1826 3.4786 14.8338 3.1665Z" stroke="black" stroke-width="1.5" stroke-linecap="round" stroke-linejoin="round"/>
    <path fill-rule="evenodd" clip-rule="evenodd" d="M3.33317 7.5C2.4127 7.5 1.6665 8.24619 1.6665 9.16667V13.3333C1.6665 14.2538 2.4127 15 3.33317 15H17.0832V7.5H3.33317ZM15.2747 12.155C15.2747 12.8667 14.7672 13.4033 13.7172 13.4033C12.9705 13.4033 12.4339 13.1525 12.0722 12.785L12.5214 12.155C12.7955 12.4408 13.2214 12.68 13.758 12.68C14.213 12.68 14.4347 12.47 14.4347 12.2483C14.4347 11.9683 14.0641 11.8804 13.6244 11.7761C12.983 11.624 12.1947 11.4369 12.1947 10.5683C12.1947 9.92083 12.7547 9.38417 13.6705 9.38417C14.2889 9.38417 14.8022 9.57083 15.1872 9.92667L14.7264 10.5333C14.4114 10.2417 13.9914 10.1075 13.5947 10.1075C13.2389 10.1075 13.0405 10.265 13.0405 10.4983C13.0405 10.7425 13.3888 10.8257 13.8104 10.9263C14.4565 11.0806 15.2747 11.276 15.2747 12.155ZM8.914 13.3333L7.50234 11.3325L8.8265 9.4425H7.829L6.94817 10.7725L6.05567 9.4425H5.06984L6.394 11.3383L4.98234 13.3333H5.96817L6.94817 11.91L7.92234 13.3333H8.914ZM11.7547 13.3333V12.6042H10.1097V9.4425H9.28132V13.3333H11.7547Z" fill="#23E2C0"/>
</svg>
