<svg width="12" height="12" viewBox="0 0 12 12" fill="none" xmlns="http://www.w3.org/2000/svg">
    <path d="M7.40019 1V2.8C7.40019 3.13137 7.66882 3.4 8.00019 3.4H9.80019M8.90019 1.9C8.63315 1.66107 8.35605 1.37769 8.18111 1.19364C8.06471 1.07117 7.90387 1 7.7349 1H3.20005C2.53731 1 2.00005 1.53725 2.00005 2.19999L2 9.39997C2 10.0627 2.53725 10.6 3.2 10.6L8.60002 10.6C9.26275 10.6 9.80001 10.0628 9.80002 9.40002L9.80018 3.03892C9.80018 2.8855 9.74166 2.73802 9.63518 2.62757C9.43828 2.42332 9.10948 2.08726 8.90019 1.9Z" stroke="black" stroke-linecap="round" stroke-linejoin="round"/>
    <path fill-rule="evenodd" clip-rule="evenodd" d="M2 4.5C1.44772 4.5 1 4.94772 1 5.5V8C1 8.55228 1.44772 9 2 9H10.25V4.5H2ZM9.16492 7.293C9.16492 7.72 8.86042 8.042 8.23042 8.042C7.78242 8.042 7.46042 7.8915 7.24342 7.671L7.51292 7.293C7.67742 7.4645 7.93292 7.608 8.25492 7.608C8.52792 7.608 8.66092 7.482 8.66092 7.349C8.66092 7.18101 8.43855 7.12826 8.17472 7.06566C7.78992 6.97438 7.31692 6.86216 7.31692 6.341C7.31692 5.9525 7.65292 5.6305 8.20242 5.6305C8.57342 5.6305 8.88142 5.7425 9.11242 5.956L8.83592 6.32C8.64692 6.145 8.39492 6.0645 8.15692 6.0645C7.94342 6.0645 7.82442 6.159 7.82442 6.299C7.82442 6.44549 8.03341 6.49539 8.28634 6.55579C8.67401 6.64837 9.16492 6.7656 9.16492 7.293ZM5.3485 8L4.5015 6.7995L5.296 5.6655H4.6975L4.169 6.4635L3.6335 5.6655H3.042L3.8365 6.803L2.9895 8H3.581L4.169 7.146L4.7535 8H5.3485ZM7.05289 8V7.5625H6.06589V5.6655H5.56889V8H7.05289Z" fill="#23E2C0"/>
</svg>
