<svg width="32" height="32" viewBox="0 0 32 32" fill="none" xmlns="http://www.w3.org/2000/svg">
    <path d="M19.734 2.6665V7.4665C19.734 8.35016 20.4503 9.0665 21.334 9.0665H26.134M23.734 5.0665C23.0219 4.42936 22.283 3.67367 21.8165 3.18288C21.506 2.85628 21.0771 2.6665 20.6266 2.6665H8.53362C6.76632 2.6665 5.33363 4.09918 5.33362 5.86649L5.3335 25.0664C5.33348 26.8337 6.76617 28.2664 8.53348 28.2664L22.9335 28.2665C24.7008 28.2665 26.1335 26.8339 26.1336 25.0666L26.134 8.10361C26.134 7.69449 25.9779 7.30122 25.694 7.00668C25.1689 6.46203 24.2921 5.56586 23.734 5.0665Z" stroke="black" stroke-width="2.4" stroke-linecap="round" stroke-linejoin="round"/>
    <path fill-rule="evenodd" clip-rule="evenodd" d="M5.33317 12C3.86041 12 2.6665 13.1939 2.6665 14.6667V21.3333C2.6665 22.8061 3.86041 24 5.33317 24H27.3332V12H5.33317ZM24.4396 19.448C24.4396 20.5867 23.6276 21.4453 21.9476 21.4453C20.753 21.4453 19.8943 21.044 19.3156 20.456L20.0343 19.448C20.473 19.9053 21.1543 20.288 22.013 20.288C22.741 20.288 23.0956 19.952 23.0956 19.5973C23.0956 19.1494 22.5026 19.0087 21.7991 18.8418C20.773 18.5983 19.5116 18.2991 19.5116 16.9093C19.5116 15.8733 20.4076 15.0147 21.873 15.0147C22.8623 15.0147 23.6836 15.3133 24.2996 15.8827L23.5623 16.8533C23.0583 16.3867 22.3863 16.172 21.7516 16.172C21.1823 16.172 20.865 16.424 20.865 16.7973C20.865 17.188 21.4223 17.321 22.0968 17.4821C23.1305 17.729 24.4396 18.0416 24.4396 19.448ZM14.2625 21.3333L12.0038 18.132L14.1225 15.108H12.5265L11.1172 17.236L9.68917 15.108H8.11184L10.2305 18.1413L7.97184 21.3333H9.54917L11.1172 19.056L12.6758 21.3333H14.2625ZM18.8075 21.3333V20.1667H16.1755V15.108H14.8502V21.3333H18.8075Z" fill="#23E2C0"/>
</svg>
