<svg width="24" height="24" viewBox="0 0 24 24" fill="none" xmlns="http://www.w3.org/2000/svg">
    <path d="M14.8004 2V5.6C14.8004 6.26274 15.3376 6.8 16.0004 6.8H19.6004M17.8004 3.8C17.2663 3.32214 16.7121 2.75538 16.3622 2.38728C16.1294 2.14233 15.8077 2 15.4698 2H6.40009C5.07462 2 4.0001 3.07451 4.00009 4.39999L4 18.7999C3.99999 20.1254 5.0745 21.1999 6.39999 21.1999L17.2 21.2C18.5255 21.2 19.6 20.1255 19.6 18.8L19.6004 6.07783C19.6004 5.77099 19.4833 5.47603 19.2704 5.25513C18.8766 4.84665 18.219 4.17452 17.8004 3.8Z" stroke="black" stroke-width="1.8" stroke-linecap="round" stroke-linejoin="round"/>
    <path fill-rule="evenodd" clip-rule="evenodd" d="M4 9C2.89543 9 2 9.89543 2 11V16C2 17.1046 2.89543 18 4 18H20.5V9H4ZM18.3298 14.586C18.3298 15.44 17.7208 16.084 16.4608 16.084C15.5648 16.084 14.9208 15.783 14.4868 15.342L15.0258 14.586C15.3548 14.929 15.8658 15.216 16.5098 15.216C17.0558 15.216 17.3218 14.964 17.3218 14.698C17.3218 14.362 16.8771 14.2565 16.3494 14.1313C15.5798 13.9488 14.6338 13.7243 14.6338 12.682C14.6338 11.905 15.3058 11.261 16.4048 11.261C17.1468 11.261 17.7628 11.485 18.2248 11.912L17.6718 12.64C17.2938 12.29 16.7898 12.129 16.3138 12.129C15.8868 12.129 15.6488 12.318 15.6488 12.598C15.6488 12.891 16.0668 12.9908 16.5727 13.1116C17.348 13.2967 18.3298 13.5312 18.3298 14.586ZM10.697 16L9.003 13.599L10.592 11.331H9.395L8.338 12.927L7.267 11.331H6.084L7.673 13.606L5.979 16H7.162L8.338 14.292L9.507 16H10.697ZM14.1058 16V15.125H12.1318V11.331H11.1378V16H14.1058Z" fill="#23E2C0"/>
</svg>
