<svg width="12" height="12" viewBox="0 0 12 12" fill="none" xmlns="http://www.w3.org/2000/svg">
    <path d="M4.40117 1.20117H2.26784C1.67873 1.20117 1.20117 1.67873 1.20117 2.26784V4.40117M4.40117 10.8012H2.26784C1.67873 10.8012 1.20117 10.3236 1.20117 9.7345V7.60117M7.60117 1.20117H9.7345C10.3236 1.20117 10.8012 1.67873 10.8012 2.26784V4.40117M10.8012 7.60117V9.7345C10.8012 10.3236 10.3236 10.8012 9.7345 10.8012H7.60117M4.80117 7.80117H7.20117C7.53254 7.80117 7.80117 7.53254 7.80117 7.20117V4.80117C7.80117 4.4698 7.53254 4.20117 7.20117 4.20117H4.80117C4.4698 4.20117 4.20117 4.4698 4.20117 4.80117V7.20117C4.20117 7.53254 4.4698 7.80117 4.80117 7.80117Z" stroke="black" stroke-linecap="round"/>
</svg>
