<svg width="32" height="32" viewBox="0 0 32 32" fill="none" xmlns="http://www.w3.org/2000/svg">
    <path d="M11.7365 3.20312H6.04757C4.47663 3.20312 3.20312 4.47663 3.20312 6.04757V11.7365M11.7365 28.8031H6.04757C4.47663 28.8031 3.20312 27.5296 3.20312 25.9587V20.2698M20.2698 3.20312H25.9587C27.5296 3.20312 28.8031 4.47663 28.8031 6.04757V11.7365M28.8031 20.2698V25.9587C28.8031 27.5296 27.5296 28.8031 25.9587 28.8031H20.2698M12.8031 20.8031H19.2031C20.0868 20.8031 20.8031 20.0868 20.8031 19.2031V12.8031C20.8031 11.9195 20.0868 11.2031 19.2031 11.2031H12.8031C11.9195 11.2031 11.2031 11.9195 11.2031 12.8031V19.2031C11.2031 20.0868 11.9195 20.8031 12.8031 20.8031Z" stroke="black" stroke-width="2.4" stroke-linecap="round"/>
</svg>
