<svg width="20" height="20" viewBox="0 0 20 20" fill="none" xmlns="http://www.w3.org/2000/svg">
    <path d="M7.33529 2.00195H3.77973C2.79789 2.00195 2.00195 2.79789 2.00195 3.77973V7.33529M7.33529 18.002H3.77973C2.79789 18.002 2.00195 17.206 2.00195 16.2242V12.6686M12.6686 2.00195H16.2242C17.206 2.00195 18.002 2.79789 18.002 3.77973V7.33529M18.002 12.6686V16.2242C18.002 17.206 17.206 18.002 16.2242 18.002H12.6686M8.00195 13.002H12.002C12.5542 13.002 13.002 12.5542 13.002 12.002V8.00195C13.002 7.44967 12.5542 7.00195 12.002 7.00195H8.00195C7.44967 7.00195 7.00195 7.44967 7.00195 8.00195V12.002C7.00195 12.5542 7.44967 13.002 8.00195 13.002Z" stroke="black" stroke-width="1.5" stroke-linecap="round"/>
</svg>
