<svg width="16" height="16" viewBox="0 0 16 16" fill="none" xmlns="http://www.w3.org/2000/svg">
    <path d="M5.86823 1.60156H3.02378C2.23831 1.60156 1.60156 2.23831 1.60156 3.02378V5.86823M5.86823 14.4016H3.02378C2.23831 14.4016 1.60156 13.7648 1.60156 12.9793V10.1349M10.1349 1.60156H12.9793C13.7648 1.60156 14.4016 2.23831 14.4016 3.02378V5.86823M14.4016 10.1349V12.9793C14.4016 13.7648 13.7648 14.4016 12.9793 14.4016H10.1349M6.40156 10.4016H9.60156C10.0434 10.4016 10.4016 10.0434 10.4016 9.60156V6.40156C10.4016 5.95973 10.0434 5.60156 9.60156 5.60156H6.40156C5.95973 5.60156 5.60156 5.95973 5.60156 6.40156V9.60156C5.60156 10.0434 5.95973 10.4016 6.40156 10.4016Z" stroke="black" stroke-width="1.2" stroke-linecap="round"/>
</svg>
