<svg width="24" height="24" viewBox="0 0 24 24" fill="none" xmlns="http://www.w3.org/2000/svg">
    <path d="M8.80234 2.40234H4.53568C3.35747 2.40234 2.40234 3.35747 2.40234 4.53568V8.80234M8.80234 21.6023H4.53568C3.35747 21.6023 2.40234 20.6472 2.40234 19.469V15.2023M15.2023 2.40234H19.469C20.6472 2.40234 21.6023 3.35747 21.6023 4.53568V8.80234M21.6023 15.2023V19.469C21.6023 20.6472 20.6472 21.6023 19.469 21.6023H15.2023M9.60234 15.6023H14.4023C15.0651 15.6023 15.6023 15.0651 15.6023 14.4023V9.60234C15.6023 8.9396 15.0651 8.40234 14.4023 8.40234H9.60234C8.9396 8.40234 8.40234 8.9396 8.40234 9.60234V14.4023C8.40234 15.0651 8.9396 15.6023 9.60234 15.6023Z" stroke="black" stroke-width="1.8" stroke-linecap="round"/>
</svg>
