<svg width="32" height="32" viewBox="0 0 32 32" fill="none" xmlns="http://www.w3.org/2000/svg">
    <path d="M27.224 22.1313C26.4225 20.9521 25.6439 19.2138 25.6439 17.1177L25.6784 14.2505C25.6784 8.56332 21.3766 3.9529 16.0701 3.9529C15.4992 3.9529 14.9401 4.00704 14.3971 4.1108M12.3053 27.545C13.3044 28.3254 14.6237 28.7999 16.0701 28.7999C17.5164 28.7999 18.8357 28.3254 19.8348 27.545M21.3407 23.5293H5.49254C4.89732 23.5293 4.56488 22.615 4.92493 22.107C5.76039 20.9283 6.56679 19.1995 6.56679 17.1177L6.60125 14.1011C6.60125 11.6823 7.3908 9.46121 8.70874 7.71763M24.3525 27.2942L7.03472 3.19995" stroke="black" stroke-width="2.4" stroke-linecap="round"/>
</svg>
