<svg width="20" height="20" viewBox="0 0 20 20" fill="none" xmlns="http://www.w3.org/2000/svg">
    <path d="M17.0149 13.8321C16.514 13.0951 16.0274 12.0087 16.0274 10.6986L16.0489 8.90662C16.0489 5.3521 13.3603 2.47059 10.0437 2.47059C9.68694 2.47059 9.33752 2.50443 8.99812 2.56928M7.69078 17.2157C8.3152 17.7034 9.13978 18 10.0437 18C10.9477 18 11.7723 17.7034 12.3967 17.2157M13.3379 14.7059H3.43278C3.06077 14.7059 2.85299 14.1344 3.07802 13.8169C3.60019 13.0802 4.10418 11.9997 4.10418 10.6986L4.12572 8.81319C4.12572 7.30148 4.61919 5.91329 5.4429 4.82355M15.2202 17.0589L4.39664 2" stroke="black" stroke-width="1.5" stroke-linecap="round"/>
</svg>
