<svg width="16" height="16" viewBox="0 0 16 16" fill="none" xmlns="http://www.w3.org/2000/svg">
    <path d="M13.6122 11.0658C13.2115 10.4762 12.8222 9.60704 12.8222 8.55896L12.8394 7.1254C12.8394 4.28178 10.6885 1.97657 8.03528 1.97657C7.74985 1.97657 7.47031 2.00364 7.19879 2.05552M6.15292 13.7726C6.65245 14.1628 7.31212 14.4001 8.03528 14.4001C8.75844 14.4001 9.41811 14.1628 9.91765 13.7726M10.6706 11.7648H2.74652C2.44891 11.7648 2.28268 11.3076 2.46271 11.0536C2.88044 10.4643 3.28364 9.59988 3.28364 8.55896L3.30087 7.05065C3.30087 5.84128 3.69564 4.73073 4.35461 3.85894M12.1765 13.6472L3.5176 1.6001" stroke="black" stroke-width="1.2" stroke-linecap="round"/>
</svg>
