<svg width="12" height="12" viewBox="0 0 12 12" fill="none" xmlns="http://www.w3.org/2000/svg">
    <path d="M10.2091 8.29919C9.9085 7.85699 9.61653 7.20515 9.61653 6.4191L9.62945 5.34393C9.62945 3.21121 8.01628 1.48231 6.02634 1.48231C5.81226 1.48231 5.60261 1.50261 5.39897 1.54152M4.61456 10.3294C4.98922 10.622 5.48397 10.7999 6.02634 10.7999C6.56871 10.7999 7.06346 10.622 7.43811 10.3294M8.00282 8.82346H2.05976C1.83656 8.82346 1.71189 8.48061 1.84691 8.29011C2.16021 7.84809 2.46261 7.19979 2.46261 6.4191L2.47553 5.28787C2.47553 4.38084 2.77161 3.54792 3.26584 2.89408M9.13224 10.2353L2.63808 1.19995" stroke="black" stroke-linecap="round"/>
</svg>
