<svg width="24" height="24" viewBox="0 0 24 24" fill="none" xmlns="http://www.w3.org/2000/svg">
    <path d="M22 5.50483C22 7.44049 17.5228 9.00966 12 9.00966C6.47715 9.00966 2 7.44049 2 5.50483M22 5.50483C22 3.56917 17.5228 2 12 2C6.47715 2 2 3.56917 2 5.50483M22 5.50483V10.2753M2 5.50483V18.5C2 19.7588 3.89356 20.8627 6.73684 21.4807M2 12C2 13.2588 3.89356 14.3627 6.73684 14.9807M11.5674 14.2059C12.5076 12.5883 14.2651 11.5 16.2779 11.5C18.5601 11.5 20.5139 12.8991 21.3206 14.8824M13.219 14.8824H10.5V12.1765M20.9326 19.6176C19.9924 21.2352 18.2349 22.3235 16.2221 22.3235C13.9399 22.3235 11.9861 20.9245 11.1794 18.9412M19.281 18.9412H22V21.6471" stroke="black" stroke-width="1.8" stroke-linecap="round"/>
</svg>
