<svg width="16" height="16" viewBox="0 0 16 16" fill="none" xmlns="http://www.w3.org/2000/svg">
    <path d="M14.6663 3.67249C14.6663 4.96293 11.6816 6.00904 7.99967 6.00904C4.31778 6.00904 1.33301 4.96293 1.33301 3.67249M14.6663 3.67249C14.6663 2.38205 11.6816 1.33594 7.99967 1.33594C4.31778 1.33594 1.33301 2.38205 1.33301 3.67249M14.6663 3.67249V6.8528M1.33301 3.67249V12.3359C1.33301 13.1752 2.59538 13.911 4.4909 14.3231M1.33301 8.0026C1.33301 8.84183 2.59538 9.57771 4.4909 9.98973M7.71126 9.47319C8.3381 8.39481 9.50971 7.66927 10.8516 7.66927C12.373 7.66927 13.6756 8.60197 14.2134 9.92417M8.81234 9.92417H6.99967V8.12025M13.9548 13.081C13.3279 14.1594 12.1563 14.885 10.8144 14.885C9.29297 14.885 7.99042 13.9523 7.45261 12.6301M12.8537 12.6301H14.6663V14.434" stroke="black" stroke-width="1.2" stroke-linecap="round"/>
</svg>
