<svg width="12" height="12" viewBox="0 0 12 12" fill="none" xmlns="http://www.w3.org/2000/svg">
    <path d="M11 2.75241C11 3.72025 8.76142 4.50483 6 4.50483C3.23858 4.50483 1 3.72025 1 2.75241M11 2.75241C11 1.78458 8.76142 1 6 1C3.23858 1 1 1.78458 1 2.75241M11 2.75241V5.13764M1 2.75241V9.25C1 9.87942 1.94678 10.4313 3.36842 10.7403M1 6C1 6.62942 1.94678 7.18133 3.36842 7.49034M5.78369 7.10294C6.25382 6.29415 7.13253 5.75 8.13894 5.75C9.28003 5.75 10.2569 6.44953 10.6603 7.44118M6.6095 7.44118H5.25V6.08824M10.4663 9.80882C9.99618 10.6176 9.11747 11.1618 8.11106 11.1618C6.96997 11.1618 5.99306 10.4622 5.5897 9.47059M9.6405 9.47059H11V10.8235" stroke="black" stroke-linecap="round"/>
</svg>
