<svg width="20" height="20" viewBox="0 0 20 20" fill="none" xmlns="http://www.w3.org/2000/svg">
    <path d="M18.3327 4.58866C18.3327 6.20171 14.6017 7.50935 9.99935 7.50935C5.39698 7.50935 1.66602 6.20171 1.66602 4.58866M18.3327 4.58866C18.3327 2.97561 14.6017 1.66797 9.99935 1.66797C5.39698 1.66797 1.66602 2.97561 1.66602 4.58866M18.3327 4.58866V8.56404M1.66602 4.58866V15.418C1.66602 16.467 3.24398 17.3869 5.61338 17.9019M1.66602 10.0013C1.66602 11.0503 3.24398 11.9702 5.61338 12.4852M9.63883 11.8395C10.4224 10.4916 11.8869 9.58464 13.5642 9.58464C15.4661 9.58464 17.0943 10.7505 17.7665 12.4033M11.0152 12.4033H8.74935V10.1484M17.4432 16.3493C16.6596 17.6973 15.1951 18.6042 13.5178 18.6042C11.616 18.6042 9.98778 17.4384 9.31552 15.7856M16.0668 15.7856H18.3327V18.0405" stroke="black" stroke-width="1.5" stroke-linecap="round"/>
</svg>
