<svg width="16" height="16" viewBox="0 0 16 16" fill="none" xmlns="http://www.w3.org/2000/svg">
    <path d="M7.2001 14.4001H3.20009C2.31643 14.4001 1.60009 13.6837 1.6001 12.8001L1.60016 3.20009C1.60017 2.31644 2.31651 1.6001 3.20016 1.6001H10.4003C11.284 1.6001 12.0003 2.31644 12.0003 3.2001V6.4001M11.6001 11.5661V11.524M4.40035 4.8001H9.20035M4.40035 7.2001H9.20035M4.40035 9.6001H6.80035M14.4001 11.6001C14.4001 11.6001 13.736 13.5599 11.6001 13.5256C9.4642 13.4914 8.8001 11.6001 8.8001 11.6001C8.8001 11.6001 9.43728 9.60609 11.6001 9.60609C13.7629 9.60609 14.4001 11.6001 14.4001 11.6001Z" stroke="black" stroke-width="1.2" stroke-linecap="round" stroke-linejoin="round"/>
</svg>
