<svg width="12" height="12" viewBox="0 0 12 12" fill="none" xmlns="http://www.w3.org/2000/svg">
    <path d="M5.40019 10.8011H2.40019C1.73745 10.8011 1.20019 10.2639 1.2002 9.60114L1.20024 2.40117C1.20025 1.73843 1.7375 1.20117 2.40024 1.20117H7.80037C8.46312 1.20117 9.00037 1.73843 9.00037 2.40117V4.80117M8.70019 8.67566V8.64408M3.30038 3.60117H6.90038M3.30038 5.40117H6.90038M3.30038 7.20117H5.10038M10.8002 8.70117C10.8002 8.70117 10.3021 10.171 8.70019 10.1453C7.09827 10.1197 6.6002 8.70117 6.6002 8.70117C6.6002 8.70117 7.07808 7.20566 8.70019 7.20566C10.3223 7.20566 10.8002 8.70117 10.8002 8.70117Z" stroke="black" stroke-linecap="round" stroke-linejoin="round"/>
</svg>
