<svg width="24" height="24" viewBox="0 0 24 24" fill="none" xmlns="http://www.w3.org/2000/svg" stroke="inherit">
<path d="M21.5999 10.1041H18.4864C17.34 10.1041 16.4107 9.16203 16.4107 7.99996L16.4107 4.50417C16.4107 3.3421 17.34 2.40006 18.4864 2.40006H21.5999M2.3999 10.1041H5.51342C6.65978 10.1041 7.58909 9.16203 7.58909 7.99996V4.50417C7.58909 3.3421 6.65978 2.40006 5.51342 2.40006H2.3999M12 21.6001V21.536M12 16.8801V16.8161M12 12.0321V11.968M12 7.24812L12 7.18404M12 2.46413V2.40006M21.5999 21.7041H18.4864C17.34 21.7041 16.4107 20.7621 16.4107 19.6L16.4107 16.1042C16.4107 14.9421 17.34 14.0001 18.4864 14.0001H21.5999M2.3999 21.7041H5.51342C6.65978 21.7041 7.58909 20.7621 7.58909 19.6V16.1042C7.58909 14.9421 6.65978 14.0001 5.51342 14.0001H2.3999"  stroke-width="1.8" stroke-linecap="round" stroke-linejoin="round"/>
</svg>
