<svg width="20" height="20" viewBox="0 0 20 20" fill="none" xmlns="http://www.w3.org/2000/svg" stroke="inherit">
<path d="M18 8.42022L15.4054 8.42022C14.4501 8.42022 13.6757 7.63519 13.6757 6.6668L13.6757 3.75364C13.6757 2.78525 14.4501 2.00022 15.4054 2.00022H18M2 8.42022H4.59459C5.5499 8.42022 6.32432 7.63519 6.32432 6.6668V3.75364C6.32432 2.78525 5.5499 2.00022 4.59459 2.00022H2M10.0001 18.0002V17.9468M10.0001 14.067V14.0136M10.0001 10.0269V9.97352M10.0001 6.04026V5.98687M10.0001 2.05361V2.00022M18 18.0869H15.4054C14.4501 18.0869 13.6757 17.3019 13.6757 16.3335L13.6757 13.4203C13.6757 12.4519 14.4501 11.6669 15.4054 11.6669H18M2 18.0869H4.59459C5.5499 18.0869 6.32432 17.3019 6.32432 16.3335V13.4203C6.32432 12.4519 5.5499 11.6669 4.59459 11.6669H2"  stroke-width="1.5" stroke-linecap="round" stroke-linejoin="round"/>
</svg>
