<svg width="32" height="32" viewBox="0 0 32 32" fill="none" xmlns="http://www.w3.org/2000/svg">
<path d="M28.7997 13.4723H24.6484C23.1199 13.4723 21.8808 12.2162 21.8808 10.6668L21.8808 6.00572C21.8808 4.4563 23.1199 3.20025 24.6484 3.20025H28.7997M3.19971 13.4723H7.35106C8.87954 13.4723 10.1186 12.2162 10.1186 10.6668L10.1186 6.00572C10.1186 4.4563 8.87954 3.20025 7.35106 3.20025H3.19971M15.9998 28.8002V28.7148M15.9998 22.507V22.4216M15.9998 16.043V15.9575M15.9998 9.66432V9.57889M15.9998 3.28568V3.20025M28.7997 28.939H24.6484C23.1199 28.939 21.8808 27.6829 21.8808 26.1335L21.8808 21.4724C21.8808 19.923 23.1199 18.667 24.6484 18.667H28.7997M3.19971 28.939H7.35106C8.87954 28.939 10.1186 27.6829 10.1186 26.1335V21.4724C10.1186 19.923 8.87954 18.667 7.35106 18.667H3.19971" stroke="black" stroke-width="2.4" stroke-linecap="round" stroke-linejoin="round"/>
</svg>
