<svg width="16" height="16" viewBox="0 0 16 16" fill="none" xmlns="http://www.w3.org/2000/svg" stroke="inherit">
<path d="M14.4001 6.73637H12.3244C11.5602 6.73637 10.9406 6.10835 10.9406 5.33363L10.9406 3.00311C10.9406 2.22839 11.5602 1.60037 12.3244 1.60037H14.4001M1.6001 6.73637H3.67577C4.44002 6.73637 5.05956 6.10835 5.05956 5.33363L5.05956 3.00311C5.05956 2.22839 4.44002 1.60037 3.67577 1.60037H1.6001M8.00014 14.4004V14.3577M8.00014 11.2538V11.211M8.00014 8.02172V7.97901M8.00014 4.8324V4.78969M8.00014 1.64308V1.60037M14.4001 14.4697H12.3244C11.5602 14.4697 10.9406 13.8417 10.9406 13.067L10.9406 10.7365C10.9406 9.96175 11.5602 9.33372 12.3244 9.33372H14.4001M1.6001 14.4697H3.67577C4.44002 14.4697 5.05956 13.8417 5.05956 13.067V10.7365C5.05956 9.96175 4.44002 9.33372 3.67577 9.33372H1.6001"  stroke-width="1.2" stroke-linecap="round" stroke-linejoin="round"/>
</svg>
