<svg width="24" height="24" viewBox="0 0 24 24" fill="none" xmlns="http://www.w3.org/2000/svg">
    <path d="M21.791 8.21107C21.1598 6.58169 20.132 5.13559 18.8007 4.00385C17.4693 2.87212 15.8766 2.09052 14.1669 1.72992C12.4571 1.36933 10.6844 1.44112 9.00941 1.9388C7.33442 2.43648 5.81012 3.34431 4.57466 4.58C3.33921 5.81569 2.43167 7.34017 1.93432 9.01526C1.43696 10.6903 1.36551 12.4631 1.72644 14.1728C2.08737 15.8824 2.86926 17.475 4.00126 18.8061C5.13325 20.1372 6.57955 21.1648 8.20905 21.7957" stroke="white" stroke-width="1.9" stroke-linecap="round"/>
    <path d="M5.24805 11.2539L8.99952 15.0039L19.126 4.87744" stroke="white" stroke-width="1.9" stroke-linecap="round" stroke-linejoin="round"/>
    <path d="M23.4683 11.5531C23.5352 11.5521 23.5687 11.6327 23.5212 11.6799L17.6178 17.5515C17.6065 17.5627 17.5913 17.569 17.5755 17.569H13.2839C13.2359 17.569 13.2068 17.5165 13.2339 17.4768C13.4857 17.1075 14.444 15.7234 15.0943 15.0766C17.3205 12.8623 20.325 11.6 23.4683 11.5531Z" fill="#596989"/>
    <rect x="9.6001" y="18" width="14.3391" height="5.6016" rx="1.2" fill="#FC8F14"/>
    <path d="M12.4174 22.4018H10.7998V19.2002H12.3742C12.659 19.2002 12.8814 19.2786 13.0414 19.4354C13.2046 19.589 13.2862 19.7826 13.2862 20.0162C13.2862 20.2082 13.2318 20.3714 13.123 20.5058C13.0174 20.637 12.8862 20.7186 12.7294 20.7506C12.9022 20.7762 13.0478 20.8658 13.1662 21.0194C13.2878 21.1698 13.3486 21.3426 13.3486 21.5378C13.3486 21.7938 13.2654 22.0018 13.099 22.1618C12.9358 22.3218 12.7086 22.4018 12.4174 22.4018ZM12.259 20.525C12.3998 20.525 12.5102 20.4866 12.5902 20.4098C12.6702 20.333 12.7102 20.2338 12.7102 20.1122C12.7102 19.9874 12.6702 19.8866 12.5902 19.8098C12.5102 19.733 12.3998 19.6946 12.259 19.6946H11.3614V20.525H12.259ZM12.283 21.9074C12.4366 21.9074 12.5566 21.869 12.643 21.7922C12.7294 21.7122 12.7726 21.6018 12.7726 21.461C12.7726 21.3362 12.7294 21.2322 12.643 21.149C12.5566 21.0626 12.4366 21.0194 12.283 21.0194H11.3614V21.9074H12.283Z" fill="white"/>
    <path d="M16.3459 22.4018H14.1523V19.2002H16.3459V19.6946H14.7139V20.525H16.3123V21.0194H14.7139V21.9074H16.3459V22.4018Z" fill="white"/>
    <path d="M18.4874 22.4018H17.9258V19.6946H16.9562V19.2002H19.457V19.6946H18.4874V22.4018Z" fill="white"/>
    <path d="M22.7389 22.4018H22.1005L21.8653 21.7874H20.3965L20.1613 22.4018H19.5229L20.7805 19.2002H21.4813L22.7389 22.4018ZM21.7069 21.293L21.1309 19.7666L20.5549 21.293H21.7069Z" fill="white"/>
</svg>
