<svg width="24" height="24" viewBox="0 0 24 24" fill="none" xmlns="http://www.w3.org/2000/svg">
    <path d="M6.00486 12.6401C7.6644 12.6401 9.00972 13.9855 9.00972 15.645C9.00972 17.3045 7.6644 18.6499 6.00486 18.6499M6.00486 12.6401C4.34532 12.6401 3 13.9855 3 15.645C3 17.3045 4.34532 18.6499 6.00486 18.6499M6.00486 12.6401L6.00486 2.45473M6.00486 18.6499L6.00486 21.6001M18.0243 5.44987C19.6838 5.44987 21.0292 6.79519 21.0292 8.45473C21.0292 10.1143 19.6838 11.4596 18.0243 11.4596M18.0243 5.44987C16.3648 5.44987 15.0194 6.79519 15.0194 8.45473C15.0194 10.1143 16.3648 11.4596 18.0243 11.4596M18.0243 5.44987L18.0243 2.45473M18.0243 11.4596L18.0243 21.6001" stroke="black" stroke-width="1.8" stroke-linecap="round"/>
</svg>
