<svg width="12" height="12" viewBox="0 0 12 12" fill="none" xmlns="http://www.w3.org/2000/svg">
    <path d="M3.00243 6.34597C3.8322 6.34597 4.50486 7.01863 4.50486 7.8484C4.50486 8.67817 3.8322 9.35083 3.00243 9.35083M3.00243 6.34597C2.17266 6.34597 1.5 7.01863 1.5 7.8484C1.5 8.67817 2.17266 9.35083 3.00243 9.35083M3.00243 6.34597L3.00243 1.25326M3.00243 9.35083L3.00243 10.8M9.01215 2.75083C9.84192 2.75083 10.5146 3.42349 10.5146 4.25326C10.5146 5.08303 9.84192 5.75569 9.01215 5.75569M9.01215 2.75083C8.18238 2.75083 7.50972 3.42349 7.50972 4.25326C7.50972 5.08303 8.18238 5.75569 9.01215 5.75569M9.01215 2.75083L9.00138 1.25326M9.01215 5.75569L9.01215 10.8" stroke="black" stroke-linecap="round"/>
</svg>
