<svg width="20" height="20" viewBox="0 0 20 20" fill="none" xmlns="http://www.w3.org/2000/svg">
    <path d="M5.00405 10.5334C6.387 10.5334 7.5081 11.6545 7.5081 13.0374C7.5081 14.4204 6.387 15.5415 5.00405 15.5415M5.00405 10.5334C3.6211 10.5334 2.5 11.6545 2.5 13.0374C2.5 14.4204 3.6211 15.5415 5.00405 15.5415M5.00405 10.5334L5.00405 2.04552M5.00405 15.5415L5.00405 18M15.0203 4.54147C16.4032 4.54147 17.5243 5.66258 17.5243 7.04552C17.5243 8.42847 16.4032 9.54957 15.0203 9.54957M15.0203 4.54147C13.6373 4.54147 12.5162 5.66258 12.5162 7.04553C12.5162 8.42847 13.6373 9.54957 15.0203 9.54957M15.0203 4.54147L15.0203 2.04552M15.0203 9.54957L15.0203 18" stroke="black" stroke-width="1.5" stroke-linecap="round"/>
</svg>
