<svg width="16" height="16" viewBox="0 0 16 16" fill="none" xmlns="http://www.w3.org/2000/svg">
    <path d="M4.00324 8.5267C5.1096 8.5267 6.00648 9.42358 6.00648 10.5299C6.00648 11.6363 5.1096 12.5332 4.00324 12.5332M4.00324 8.5267C2.89688 8.5267 2 9.42358 2 10.5299C2 11.6363 2.89688 12.5332 4.00324 12.5332M4.00324 8.5267L4.00324 1.73642M4.00324 12.5332L4.00324 14.5M12.0162 3.73318C13.1226 3.73318 14.0194 4.63006 14.0194 5.73642C14.0194 6.84278 13.1226 7.73966 12.0162 7.73966M12.0162 3.73318C10.9098 3.73318 10.013 4.63006 10.013 5.73642C10.013 6.84278 10.9098 7.73966 12.0162 7.73966M12.0162 3.73318L12.0162 1.73642M12.0162 7.73966L12.0162 14.5" stroke="black" stroke-width="1.2" stroke-linecap="round"/>
</svg>
