<svg width="32" height="32" viewBox="0 0 32 32" fill="none" xmlns="http://www.w3.org/2000/svg">
    <path d="M8.00648 17.0534C10.2192 17.0534 12.013 18.8472 12.013 21.0599C12.013 23.2726 10.2192 25.0664 8.00648 25.0664M8.00648 17.0534C5.79376 17.0534 4 18.8472 4 21.0599C4 23.2726 5.79376 25.0664 8.00648 25.0664M8.00648 17.0534L8.00648 3.47284M8.00648 25.0664L8.00648 28.9309M24.0324 7.46636C26.2451 7.46636 28.0389 9.26012 28.0389 11.4728C28.0389 13.6856 26.2451 15.4793 24.0324 15.4793M24.0324 7.46636C21.8197 7.46636 20.0259 9.26012 20.0259 11.4728C20.0259 13.6856 21.8197 15.4793 24.0324 15.4793M24.0324 7.46636L24.0324 3.4728M24.0324 15.4793L24.0324 29" stroke="black" stroke-width="2.4" stroke-linecap="round"/>
</svg>
