<svg width="12" height="12" viewBox="0 0 12 12" fill="none" xmlns="http://www.w3.org/2000/svg">
    <path d="M2.61916 6.25556C2.20209 6.67263 1.96225 7.24011 1.96664 7.83652C1.97102 8.43292 2.20561 9.00387 2.64247 9.42723C3.06581 9.8641 3.63688 10.0987 4.23319 10.1031C4.8431 10.1075 5.39715 9.88122 5.81424 9.46414M9.4741 5.83157C9.89117 5.4145 10.131 4.84702 10.1266 4.25061C10.1222 3.6542 9.88765 3.08326 9.4508 2.65989C9.02755 2.23665 8.45659 2.00205 7.86018 1.99766C7.26377 1.99328 6.69621 2.21951 6.27912 2.63659M4.35319 7.70715L5.19073 6.8696M7.70337 4.35696L6.86582 5.19451M2.66846 2.60581L2.11531 2.05266M4.58922 1.63144L4.67971 0.719673M0.86125 4.53797L1.80658 4.44414M9.47078 9.25012L10.0239 9.80327M7.55003 10.2245L7.45954 11.1363M11.278 7.31796L10.3327 7.41179" stroke="black" stroke-linecap="round" stroke-linejoin="round"/>
</svg>
