<svg width="32" height="32" viewBox="0 0 32 32" fill="none" xmlns="http://www.w3.org/2000/svg">
<path d="M6.98378 16.6887C5.8716 17.8008 5.23203 19.3141 5.24372 20.9045C5.2554 22.495 5.88098 24.0175 7.04593 25.1464C8.17485 26.3114 9.69768 26.937 11.2878 26.9487C12.9143 26.9606 14.3918 26.3571 15.504 25.2449M25.2636 15.558C26.3758 14.4458 27.0154 12.9325 27.0037 11.3421C26.992 9.7517 26.3664 8.22919 25.2015 7.10021C24.0728 5.97157 22.5502 5.34595 20.9598 5.33427C19.3694 5.32258 17.8559 5.92585 16.7437 7.03806M11.6078 20.5596L13.8413 18.3261M20.5417 11.6257L18.3082 13.8592M7.11525 6.95599L5.64018 5.48091M12.2373 4.35766L12.4786 1.92629M2.29602 12.1084L4.81689 11.8582M25.2548 24.6741L26.7298 26.1492M20.1328 27.2725L19.8915 29.7038M30.074 19.5217L27.5531 19.7719" stroke="black" stroke-width="2.4" stroke-linecap="round" stroke-linejoin="round"/>
</svg>
