<svg width="24" height="24" viewBox="0 0 24 24" fill="none" xmlns="http://www.w3.org/2000/svg">
<path d="M5.23783 12.5165C4.4037 13.3506 3.92402 14.4856 3.93279 15.6784C3.94155 16.8712 4.41074 18.0131 5.28445 18.8598C6.13114 19.7336 7.27326 20.2027 8.46588 20.2115C9.68571 20.2205 10.7938 19.7678 11.628 18.9337M18.9477 11.6685C19.7819 10.8344 20.2615 9.69941 20.2528 8.50659C20.244 7.31378 19.7748 6.17189 18.9011 5.32516C18.0546 4.47867 16.9127 4.00946 15.7199 4.0007C14.5271 3.99193 13.3919 4.44438 12.5578 5.27854M8.70588 15.4197L10.381 13.7446M15.4062 8.7193L13.7312 10.3944M5.33644 5.21699L4.23013 4.11069M9.17794 3.26824L9.35893 1.44472M1.72201 9.0813L3.61267 8.89365M18.9411 18.5056L20.0474 19.6119M15.0996 20.4544L14.9186 22.2779M22.5555 14.6413L20.6649 14.8289" stroke="black" stroke-width="1.8" stroke-linecap="round" stroke-linejoin="round"/>
</svg>
