<svg width="20" height="20" viewBox="0 0 20 20" fill="none" xmlns="http://www.w3.org/2000/svg">
<path d="M4.36462 10.4307C3.66951 11.1258 3.26977 12.0716 3.27708 13.0656C3.28438 14.0596 3.67537 15.0112 4.40346 15.7168C5.10904 16.4449 6.06081 16.8359 7.05466 16.8432C8.07118 16.8506 8.9946 16.4734 9.68975 15.7783M15.7895 9.724C16.4846 9.02889 16.8844 8.08308 16.8771 7.08907C16.8698 6.09506 16.4788 5.14349 15.7507 4.43788C15.0453 3.73247 14.0937 3.34146 13.0996 3.33416C12.1056 3.32686 11.1597 3.7039 10.4646 4.39903M7.25466 12.85L8.65057 11.4541M12.8383 7.26633L11.4424 8.66224M4.44679 4.34774L3.52487 3.42582M7.64804 2.72378L7.79887 1.20417M1.43477 7.568L3.01031 7.41162M15.784 15.4216L16.7059 16.3435M12.5827 17.0455L12.4319 18.5651M18.796 12.2013L17.2205 12.3577" stroke="black" stroke-width="1.5" stroke-linecap="round" stroke-linejoin="round"/>
</svg>
