<svg width="16" height="16" viewBox="0 0 16 16" fill="none" xmlns="http://www.w3.org/2000/svg">
    <path d="M3.49189 8.34433C2.9358 8.90042 2.61601 9.65706 2.62186 10.4523C2.6277 11.2475 2.94049 12.0087 3.52297 12.5732C4.08742 13.1557 4.84884 13.4685 5.64392 13.4743C6.45714 13.4803 7.19588 13.1785 7.752 12.6224M12.6318 7.779C13.1879 7.22291 13.5077 6.46627 13.5018 5.67106C13.496 4.87585 13.1832 4.11459 12.6007 3.55011C12.0364 2.98578 11.2751 2.67298 10.4799 2.66713C9.6847 2.66129 8.92796 2.96292 8.37184 3.51903M5.80392 10.2798L6.92065 9.16305M10.2708 5.81287L9.1541 6.92959M3.55763 3.47799L2.82009 2.74046M6.11863 2.17883L6.23929 0.963144M1.14801 6.0542L2.40845 5.9291M12.6274 12.3371L13.3649 13.0746M10.0664 13.6362L9.94573 14.8519M15.037 9.76086L13.7766 9.88596" stroke="black" stroke-width="1.2" stroke-linecap="round" stroke-linejoin="round"/>
</svg>
