<svg width="16" height="16" viewBox="0 0 16 16" fill="none" xmlns="http://www.w3.org/2000/svg">
    <path d="M9.86675 1.3335V3.7335C9.86675 4.17532 10.2249 4.5335 10.6668 4.5335H13.0668M11.8668 2.5335C11.5107 2.21492 11.1412 1.83708 10.908 1.59168C10.7528 1.42839 10.5383 1.3335 10.313 1.3335H4.26657C3.38291 1.3335 2.66657 2.04984 2.66657 2.93349L2.6665 12.5334C2.6665 13.4171 3.38284 14.1335 4.2665 14.1335L11.4665 14.1335C12.3502 14.1335 13.0665 13.4172 13.0665 12.5335L13.0667 4.05205C13.0668 3.84749 12.9887 3.65085 12.8467 3.50358C12.5842 3.23126 12.1458 2.78317 11.8668 2.5335Z" stroke="black" stroke-width="1.2" stroke-linecap="round" stroke-linejoin="round"/>
    <path fill-rule="evenodd" clip-rule="evenodd" d="M2.8335 6C2.00507 6 1.3335 6.67157 1.3335 7.5V10.5C1.3335 11.3284 2.00507 12 2.8335 12H13.6668V6H2.8335ZM7.2335 10.6667V10.0833H5.73083L7.20083 8.086V7.554H4.86283V8.13733H6.33283L4.86283 10.13V10.6667H7.2335ZM8.39922 10.6667V7.554H7.73655V10.6667H8.39922ZM9.67981 9.56067V10.6667H9.01715V7.554H10.4731C11.1498 7.554 11.5185 8.01133 11.5185 8.55733C11.5185 9.09867 11.1451 9.56067 10.4731 9.56067H9.67981ZM9.67981 8.97733H10.3845C10.6458 8.97733 10.8418 8.814 10.8418 8.55733C10.8418 8.296 10.6458 8.13733 10.3845 8.13733H9.67981V8.97733Z" fill="#E2B223"/>
</svg>
