<svg width="12" height="12" viewBox="0 0 12 12" fill="none" xmlns="http://www.w3.org/2000/svg">
    <path d="M7.40019 1V2.8C7.40019 3.13137 7.66882 3.4 8.00019 3.4H9.80019M8.90019 1.9C8.63315 1.66107 8.35605 1.37769 8.18111 1.19364C8.06471 1.07117 7.90387 1 7.7349 1H3.20005C2.53731 1 2.00005 1.53725 2.00005 2.19999L2 9.39997C2 10.0627 2.53725 10.6 3.2 10.6L8.60002 10.6C9.26275 10.6 9.80001 10.0628 9.80002 9.40002L9.80018 3.03892C9.80018 2.8855 9.74166 2.73802 9.63518 2.62757C9.43828 2.42332 9.10948 2.08726 8.90019 1.9Z" stroke="black" stroke-linecap="round" stroke-linejoin="round"/>
    <path fill-rule="evenodd" clip-rule="evenodd" d="M2 4.5C1.44772 4.5 1 4.94772 1 5.5V8C1 8.55228 1.44772 9 2 9H10.25V4.5H2ZM5.425 8V7.5625H4.298L5.4005 6.0645V5.6655H3.647V6.103H4.7495L3.647 7.5975V8H5.425ZM6.29929 8V5.6655H5.80229V8H6.29929ZM7.25974 7.1705V8H6.76274V5.6655H7.85474C8.36224 5.6655 8.63874 6.0085 8.63874 6.418C8.63874 6.824 8.35874 7.1705 7.85474 7.1705H7.25974ZM7.25974 6.733H7.78824C7.98424 6.733 8.13124 6.6105 8.13124 6.418C8.13124 6.222 7.98424 6.103 7.78824 6.103H7.25974V6.733Z" fill="#E2B223"/>
</svg>
