<svg width="20" height="20" viewBox="0 0 20 20" fill="none" xmlns="http://www.w3.org/2000/svg">
    <path d="M12.3338 1.6665V4.6665C12.3338 5.21879 12.7815 5.6665 13.3338 5.6665H16.3338M14.8338 3.1665C14.3887 2.76829 13.9269 2.29599 13.6353 1.98924C13.4413 1.78512 13.1733 1.6665 12.8917 1.6665H5.33357C4.22901 1.6665 3.33358 2.56193 3.33357 3.66649L3.3335 15.6664C3.33349 16.771 4.22892 17.6665 5.33349 17.6665L14.3335 17.6665C15.4381 17.6665 16.3335 16.7711 16.3335 15.6665L16.3338 5.0647C16.3338 4.809 16.2363 4.5632 16.0588 4.37911C15.7306 4.03871 15.1826 3.4786 14.8338 3.1665Z" stroke="black" stroke-width="1.5" stroke-linecap="round" stroke-linejoin="round"/>
    <path fill-rule="evenodd" clip-rule="evenodd" d="M3.6665 7.5C2.56193 7.5 1.6665 8.39543 1.6665 9.5V13C1.6665 14.1046 2.56194 15 3.66651 15H17.0832V7.5H3.6665ZM9.0415 13.3333V12.6042H7.16317L9.00067 10.1075V9.4425H6.07817V10.1717H7.91567L6.07817 12.6625V13.3333H9.0415ZM10.4987 13.3333V9.4425H9.67032V13.3333H10.4987ZM12.0994 11.9508V13.3333H11.2711V9.4425H13.0911C13.9369 9.4425 14.3977 10.0142 14.3977 10.6967C14.3977 11.3733 13.9311 11.9508 13.0911 11.9508H12.0994ZM12.0994 11.2217H12.9802C13.3069 11.2217 13.5519 11.0175 13.5519 10.6967C13.5519 10.37 13.3069 10.1717 12.9802 10.1717H12.0994V11.2217Z" fill="#E2B223"/>
</svg>
