<svg width="32" height="32" viewBox="0 0 32 32" fill="none" xmlns="http://www.w3.org/2000/svg">
    <path d="M19.734 2.6665V7.4665C19.734 8.35016 20.4503 9.0665 21.334 9.0665H26.134M23.734 5.0665C23.0219 4.42936 22.283 3.67367 21.8165 3.18288C21.506 2.85628 21.0771 2.6665 20.6266 2.6665H8.53362C6.76632 2.6665 5.33363 4.09918 5.33362 5.86649L5.3335 25.0664C5.33348 26.8337 6.76617 28.2664 8.53348 28.2664L22.9335 28.2665C24.7008 28.2665 26.1335 26.8339 26.1336 25.0666L26.134 8.10361C26.134 7.69449 25.9779 7.30122 25.694 7.00668C25.1689 6.46203 24.2921 5.56586 23.734 5.0665Z" stroke="black" stroke-width="2.4" stroke-linecap="round" stroke-linejoin="round"/>
    <path fill-rule="evenodd" clip-rule="evenodd" d="M4.6665 12C3.56193 12 2.6665 12.8954 2.6665 14V22C2.6665 23.1046 3.56193 24 4.6665 24H27.3332V12H4.6665ZM14.4665 21.3333V20.1667H11.4612L14.4012 16.172V15.108H9.72517V16.2747H12.6652L9.72517 20.26V21.3333H14.4665ZM16.7979 21.3333V15.108H15.4726V21.3333H16.7979ZM19.3591 19.1213V21.3333H18.0338V15.108H20.9458C22.2991 15.108 23.0365 16.0227 23.0365 17.1147C23.0365 18.1973 22.2898 19.1213 20.9458 19.1213H19.3591ZM19.3591 17.9547H20.7685C21.2911 17.9547 21.6831 17.628 21.6831 17.1147C21.6831 16.592 21.2911 16.2747 20.7685 16.2747H19.3591V17.9547Z" fill="#E2B223"/>
</svg>
