<svg width="20" height="20" viewBox="0 0 20 20" fill="none" xmlns="http://www.w3.org/2000/svg">
    <path d="M15 8H17C17.5523 8 18 8.44771 18 9L18 16C18 17.1046 17.1046 18 16 18L9 18C8.44772 18 8 17.5523 8 17V15M12 7.08333V4C12 2.89543 11.1046 2 10 2L4 2C2.89543 2 2 2.89543 2 4L2 10C2 11.1046 2.89543 12 4 12C5.20411 12 6.66665 12 6.66665 12" stroke="black" stroke-width="1.5" stroke-linecap="round"/>
    <path d="M11.5239 12.6666L13 11.1905M13 11.1905L11.5239 9.71436M13 11.1905H11.1906C9.61255 11.1905 8.33333 9.91125 8.33333 8.33325V8.33325" stroke="black" stroke-width="1.5" stroke-linecap="round" stroke-linejoin="round"/>
</svg>
