<svg width="32" height="32" viewBox="0 0 32 32" fill="none" xmlns="http://www.w3.org/2000/svg">
    <path d="M24.0002 12.8H27.2002C28.0839 12.8 28.8002 13.5163 28.8002 14.4L28.8002 26.7999C28.8002 27.9045 27.9048 28.8 26.8002 28.8L14.4002 28.7999C13.5165 28.7999 12.8002 28.0836 12.8002 27.1999V23.9999M19.2002 11.3333V6.39995C19.2002 4.63264 17.7675 3.19995 16.0002 3.19995L6.4002 3.19995C4.63289 3.19995 3.2002 4.63264 3.2002 6.39995L3.2002 15.9999C3.2002 17.7673 4.63288 19.1999 6.40019 19.1999C8.32677 19.1999 10.6668 19.1999 10.6668 19.1999" stroke="black" stroke-width="2.4" stroke-linecap="round"/>
    <path d="M18.438 20.2666L20.7998 17.9048M20.7998 17.9048L18.438 15.543M20.7998 17.9048H17.3331C15.124 17.9048 13.3331 16.1139 13.3331 13.9048V13.3333" stroke="black" stroke-width="2.4" stroke-linecap="round" stroke-linejoin="round"/>
</svg>
