<svg width="12" height="12" viewBox="0 0 12 12" fill="none" xmlns="http://www.w3.org/2000/svg">
    <path d="M9.0002 4.79995H10.2002C10.5316 4.79995 10.8002 5.06858 10.8002 5.39995L10.8002 8.79995C10.8002 9.90452 9.90476 10.8 8.80019 10.8L5.4002 10.7999C5.06883 10.7999 4.8002 10.5313 4.8002 10.2V8.99995M7.2002 4.24995V2.39995C7.2002 1.73721 6.66294 1.19995 6.0002 1.19995L2.4002 1.19995C1.73745 1.19995 1.2002 1.73721 1.2002 2.39995L1.2002 5.99995C1.2002 6.66269 1.73745 7.19995 2.4002 7.19995C3.12266 7.19995 4.00018 7.19995 4.00018 7.19995" stroke="black" stroke-linecap="round"/>
    <path d="M6.91414 7.6L7.7998 6.71433M7.7998 6.71433L6.91414 5.82866M7.7998 6.71433H6.71414C5.76734 6.71433 4.9998 5.9468 4.9998 5V5" stroke="black" stroke-linecap="round" stroke-linejoin="round"/>
</svg>
