<svg width="24" height="24" viewBox="0 0 24 24" fill="none" xmlns="http://www.w3.org/2000/svg">
    <path d="M17.9999 9.5999H20.3999C21.0626 9.5999 21.5999 10.1372 21.5999 10.7999L21.5999 19.5999C21.5999 20.7045 20.7045 21.5999 19.5999 21.5999L10.7999 21.5999C10.1372 21.5999 9.5999 21.0626 9.5999 20.3999V17.9999M14.3999 8.4999V4.7999C14.3999 3.47442 13.3254 2.3999 11.9999 2.3999L4.7999 2.3999C3.47442 2.3999 2.3999 3.47442 2.3999 4.7999L2.3999 11.9999C2.3999 13.3254 3.47442 14.3999 4.7999 14.3999C6.24483 14.3999 7.99988 14.3999 7.99988 14.3999" stroke="black" stroke-width="1.8" stroke-linecap="round"/>
    <path d="M13.8288 15.2L15.6001 13.4287M15.6001 13.4287L13.8288 11.6573M15.6001 13.4287H13.4288C11.5352 13.4287 10.0001 11.8936 10.0001 10V10" stroke="black" stroke-width="1.8" stroke-linecap="round" stroke-linejoin="round"/>
</svg>
