<svg width="20" height="20" viewBox="0 0 20 20" fill="none" xmlns="http://www.w3.org/2000/svg">
    <path d="M12.3338 1.6665V4.6665C12.3338 5.21879 12.7815 5.6665 13.3338 5.6665H16.3338M14.8338 3.1665C14.3887 2.76829 13.9269 2.29599 13.6353 1.98924C13.4413 1.78512 13.1733 1.6665 12.8917 1.6665H5.33357C4.22901 1.6665 3.33358 2.56193 3.33357 3.66649L3.3335 15.6664C3.33349 16.771 4.22892 17.6665 5.33349 17.6665L14.3335 17.6665C15.4381 17.6665 16.3335 16.7711 16.3335 15.6665L16.3338 5.0647C16.3338 4.809 16.2363 4.5632 16.0588 4.37911C15.7306 4.03871 15.1826 3.4786 14.8338 3.1665Z" stroke="black" stroke-width="1.5" stroke-linecap="round" stroke-linejoin="round"/>
    <path fill-rule="evenodd" clip-rule="evenodd" d="M3.33317 7.5C2.4127 7.5 1.6665 8.24619 1.6665 9.16667V13.3333C1.6665 14.2538 2.4127 15 3.33317 15H17.0832V7.5H3.33317ZM6.43567 13.4033C7.29317 13.4033 7.78317 12.9308 8.06317 12.4467L7.3515 12.1025C7.18817 12.4233 6.83817 12.6683 6.43567 12.6683C5.72984 12.6683 5.2165 12.1258 5.2165 11.3908C5.2165 10.6558 5.72984 10.1133 6.43567 10.1133C6.83817 10.1133 7.18817 10.3642 7.3515 10.6792L8.06317 10.3292C7.789 9.845 7.29317 9.37833 6.43567 9.37833C5.269 9.37833 4.36484 10.195 4.36484 11.3908C4.36484 12.5867 5.269 13.4033 6.43567 13.4033ZM9.93872 13.4033C10.9887 13.4033 11.4962 12.8667 11.4962 12.155C11.4962 11.276 10.678 11.0806 10.0319 10.9263C9.61036 10.8257 9.26206 10.7425 9.26206 10.4983C9.26206 10.265 9.46039 10.1075 9.81622 10.1075C10.2129 10.1075 10.6329 10.2417 10.9479 10.5333L11.4087 9.92667C11.0237 9.57083 10.5104 9.38417 9.89206 9.38417C8.97622 9.38417 8.41622 9.92083 8.41622 10.5683C8.41622 11.4369 9.20456 11.624 9.84589 11.7761C10.2856 11.8804 10.6562 11.9683 10.6562 12.2483C10.6562 12.47 10.4346 12.68 9.97956 12.68C9.44289 12.68 9.01706 12.4408 8.74289 12.155L8.29372 12.785C8.65539 13.1525 9.19206 13.4033 9.93872 13.4033ZM15.6823 9.4425L14.1831 13.3333H13.1448L11.6398 9.4425H12.5848L13.6639 12.435L14.7373 9.4425H15.6823Z" fill="#23E2C0"/>
</svg>
