<svg width="16" height="16" viewBox="0 0 16 16" fill="none" xmlns="http://www.w3.org/2000/svg">
    <path d="M9.86675 1.3335V3.7335C9.86675 4.17532 10.2249 4.5335 10.6668 4.5335H13.0668M11.8668 2.5335C11.5107 2.21492 11.1412 1.83708 10.908 1.59168C10.7528 1.42839 10.5383 1.3335 10.313 1.3335H4.26657C3.38291 1.3335 2.66657 2.04984 2.66657 2.93349L2.6665 12.5334C2.6665 13.4171 3.38284 14.1335 4.2665 14.1335L11.4665 14.1335C12.3502 14.1335 13.0665 13.4172 13.0665 12.5335L13.0667 4.05205C13.0668 3.84749 12.9887 3.65085 12.8467 3.50358C12.5842 3.23126 12.1458 2.78317 11.8668 2.5335Z" stroke="black" stroke-width="1.2" stroke-linecap="round" stroke-linejoin="round"/>
    <path fill-rule="evenodd" clip-rule="evenodd" d="M2.66683 6C1.93045 6 1.3335 6.59695 1.3335 7.33333V10.6667C1.3335 11.403 1.93045 12 2.66683 12H13.6668V6H2.66683ZM5.14883 10.7227C5.83483 10.7227 6.22683 10.3447 6.45083 9.95733L5.8815 9.682C5.75083 9.93867 5.47083 10.1347 5.14883 10.1347C4.58416 10.1347 4.1735 9.70067 4.1735 9.11267C4.1735 8.52467 4.58416 8.09067 5.14883 8.09067C5.47083 8.09067 5.75083 8.29133 5.8815 8.54333L6.45083 8.26333C6.2315 7.876 5.83483 7.50267 5.14883 7.50267C4.2155 7.50267 3.49216 8.156 3.49216 9.11267C3.49216 10.0693 4.2155 10.7227 5.14883 10.7227ZM7.95127 10.7227C8.79127 10.7227 9.19727 10.2933 9.19727 9.724C9.19727 9.02081 8.54272 8.8645 8.02583 8.74106C7.68858 8.66052 7.40994 8.59398 7.40994 8.39867C7.40994 8.212 7.56861 8.086 7.85327 8.086C8.17061 8.086 8.50661 8.19333 8.75861 8.42667L9.12727 7.94133C8.81927 7.65667 8.40861 7.50733 7.91394 7.50733C7.18127 7.50733 6.73327 7.93667 6.73327 8.45467C6.73327 9.14955 7.36394 9.29917 7.877 9.42089C8.22878 9.50434 8.52527 9.57468 8.52527 9.79867C8.52527 9.976 8.34794 10.144 7.98394 10.144C7.55461 10.144 7.21394 9.95267 6.99461 9.724L6.63527 10.228C6.92461 10.522 7.35394 10.7227 7.95127 10.7227ZM12.5461 7.554L11.3468 10.6667H10.5161L9.31212 7.554H10.0681L10.9314 9.948L11.7901 7.554H12.5461Z" fill="#23E2C0"/>
</svg>
