<svg width="12" height="12" viewBox="0 0 12 12" fill="none" xmlns="http://www.w3.org/2000/svg">
    <path d="M7.40019 1V2.8C7.40019 3.13137 7.66882 3.4 8.00019 3.4H9.80019M8.90019 1.9C8.63315 1.66107 8.35605 1.37769 8.18111 1.19364C8.06471 1.07117 7.90387 1 7.7349 1H3.20005C2.53731 1 2.00005 1.53725 2.00005 2.19999L2 9.39997C2 10.0627 2.53725 10.6 3.2 10.6L8.60002 10.6C9.26275 10.6 9.80001 10.0628 9.80002 9.40002L9.80018 3.03892C9.80018 2.8855 9.74166 2.73802 9.63518 2.62757C9.43828 2.42332 9.10948 2.08726 8.90019 1.9Z" stroke="black" stroke-linecap="round" stroke-linejoin="round"/>
    <path fill-rule="evenodd" clip-rule="evenodd" d="M2 4.5C1.44772 4.5 1 4.94772 1 5.5V8C1 8.55228 1.44772 9 2 9H10.25V4.5H2ZM3.8615 8.042C4.376 8.042 4.67 7.7585 4.838 7.468L4.411 7.2615C4.313 7.454 4.103 7.601 3.8615 7.601C3.438 7.601 3.13 7.2755 3.13 6.8345C3.13 6.3935 3.438 6.068 3.8615 6.068C4.103 6.068 4.313 6.2185 4.411 6.4075L4.838 6.1975C4.6735 5.907 4.376 5.627 3.8615 5.627C3.1615 5.627 2.619 6.117 2.619 6.8345C2.619 7.552 3.1615 8.042 3.8615 8.042ZM5.96333 8.042C6.59333 8.042 6.89783 7.72 6.89783 7.293C6.89783 6.7656 6.40692 6.64837 6.01925 6.55579C5.76632 6.49539 5.55733 6.44549 5.55733 6.299C5.55733 6.159 5.67633 6.0645 5.88983 6.0645C6.12783 6.0645 6.37983 6.145 6.56883 6.32L6.84533 5.956C6.61433 5.7425 6.30633 5.6305 5.93533 5.6305C5.38583 5.6305 5.04983 5.9525 5.04983 6.341C5.04983 6.86216 5.52283 6.97438 5.90763 7.06566C6.17146 7.12826 6.39383 7.18101 6.39383 7.349C6.39383 7.482 6.26083 7.608 5.98783 7.608C5.66583 7.608 5.41033 7.4645 5.24583 7.293L4.97633 7.671C5.19333 7.8915 5.51533 8.042 5.96333 8.042ZM9.40946 5.6655L8.50996 8H7.88696L6.98396 5.6655H7.55096L8.19846 7.461L8.84246 5.6655H9.40946Z" fill="#23E2C0"/>
</svg>
