<svg width="24" height="24" viewBox="0 0 24 24" fill="none" xmlns="http://www.w3.org/2000/svg">
    <path d="M14.8004 2V5.6C14.8004 6.26274 15.3376 6.8 16.0004 6.8H19.6004M17.8004 3.8C17.2663 3.32214 16.7121 2.75538 16.3622 2.38728C16.1294 2.14233 15.8077 2 15.4698 2H6.40009C5.07462 2 4.0001 3.07451 4.00009 4.39999L4 18.7999C3.99999 20.1254 5.0745 21.1999 6.39999 21.1999L17.2 21.2C18.5255 21.2 19.6 20.1255 19.6 18.8L19.6004 6.07783C19.6004 5.77099 19.4833 5.47603 19.2704 5.25513C18.8766 4.84665 18.219 4.17452 17.8004 3.8Z" stroke="black" stroke-width="1.8" stroke-linecap="round" stroke-linejoin="round"/>
    <path fill-rule="evenodd" clip-rule="evenodd" d="M4 9C2.89543 9 2 9.89543 2 11V16C2 17.1046 2.89543 18 4 18H20.5V9H4ZM7.723 16.084C8.752 16.084 9.34 15.517 9.676 14.936L8.822 14.523C8.626 14.908 8.206 15.202 7.723 15.202C6.876 15.202 6.26 14.551 6.26 13.669C6.26 12.787 6.876 12.136 7.723 12.136C8.206 12.136 8.626 12.437 8.822 12.815L9.676 12.395C9.347 11.814 8.752 11.254 7.723 11.254C6.323 11.254 5.238 12.234 5.238 13.669C5.238 15.104 6.323 16.084 7.723 16.084ZM11.9267 16.084C13.1867 16.084 13.7957 15.44 13.7957 14.586C13.7957 13.5312 12.8138 13.2967 12.0385 13.1116C11.5326 12.9908 11.1147 12.891 11.1147 12.598C11.1147 12.318 11.3527 12.129 11.7797 12.129C12.2557 12.129 12.7597 12.29 13.1377 12.64L13.6907 11.912C13.2287 11.485 12.6127 11.261 11.8707 11.261C10.7717 11.261 10.0997 11.905 10.0997 12.682C10.0997 13.7243 11.0457 13.9488 11.8153 14.1313C12.3429 14.2565 12.7877 14.362 12.7877 14.698C12.7877 14.964 12.5217 15.216 11.9757 15.216C11.3317 15.216 10.8207 14.929 10.4917 14.586L9.95266 15.342C10.3867 15.783 11.0307 16.084 11.9267 16.084ZM18.8189 11.331L17.0199 16H15.7739L13.9679 11.331H15.1019L16.3969 14.922L17.6849 11.331H18.8189Z" fill="#23E2C0"/>
</svg>
