<svg width="32" height="32" viewBox="0 0 32 32" fill="none" xmlns="http://www.w3.org/2000/svg">
    <path d="M19.734 2.6665V7.4665C19.734 8.35016 20.4503 9.0665 21.334 9.0665H26.134M23.734 5.0665C23.0219 4.42936 22.283 3.67367 21.8165 3.18288C21.506 2.85628 21.0771 2.6665 20.6266 2.6665H8.53362C6.76632 2.6665 5.33363 4.09918 5.33362 5.86649L5.3335 25.0664C5.33348 26.8337 6.76617 28.2664 8.53348 28.2664L22.9335 28.2665C24.7008 28.2665 26.1335 26.8339 26.1336 25.0666L26.134 8.10361C26.134 7.69449 25.9779 7.30122 25.694 7.00668C25.1689 6.46203 24.2921 5.56586 23.734 5.0665Z" stroke="black" stroke-width="2.4" stroke-linecap="round" stroke-linejoin="round"/>
    <path fill-rule="evenodd" clip-rule="evenodd" d="M5.33317 12C3.86041 12 2.6665 13.1939 2.6665 14.6667V21.3333C2.6665 22.8061 3.86041 24 5.33317 24H27.3332V12H5.33317ZM10.2972 21.4453C11.6692 21.4453 12.4532 20.6893 12.9012 19.9147L11.7625 19.364C11.5012 19.8773 10.9412 20.2693 10.2972 20.2693C9.16784 20.2693 8.3465 19.4013 8.3465 18.2253C8.3465 17.0493 9.16784 16.1813 10.2972 16.1813C10.9412 16.1813 11.5012 16.5827 11.7625 17.0867L12.9012 16.5267C12.4625 15.752 11.6692 15.0053 10.2972 15.0053C8.4305 15.0053 6.98384 16.312 6.98384 18.2253C6.98384 20.1387 8.4305 21.4453 10.2972 21.4453ZM15.9021 21.4453C17.5821 21.4453 18.3941 20.5867 18.3941 19.448C18.3941 18.0416 17.085 17.729 16.0512 17.4821C15.3767 17.321 14.8194 17.188 14.8194 16.7973C14.8194 16.424 15.1367 16.172 15.7061 16.172C16.3407 16.172 17.0127 16.3867 17.5167 16.8533L18.2541 15.8827C17.6381 15.3133 16.8167 15.0147 15.8274 15.0147C14.3621 15.0147 13.4661 15.8733 13.4661 16.9093C13.4661 18.2991 14.7274 18.5983 15.7535 18.8418C16.4571 19.0087 17.0501 19.1494 17.0501 19.5973C17.0501 19.952 16.6954 20.288 15.9674 20.288C15.1087 20.288 14.4274 19.9053 13.9887 19.448L13.2701 20.456C13.8487 21.044 14.7074 21.4453 15.9021 21.4453ZM25.0917 15.108L22.6931 21.3333H21.0317L18.6237 15.108H20.1357L21.8624 19.896L23.5797 15.108H25.0917Z" fill="#23E2C0"/>
</svg>
