<svg width="24" height="24" viewBox="0 0 24 24" fill="none" xmlns="http://www.w3.org/2000/svg">
    <path d="M7.37802 10.1907L5.14457 12.4242C4.31043 13.2583 3.83075 14.3933 3.83952 15.5861C3.84828 16.7789 4.31747 17.9208 5.19118 18.7675C6.03787 19.6413 7.18 20.1104 8.37262 20.1192C9.59244 20.1282 10.7005 19.6755 11.5347 18.8414L13.7682 16.6079M16.621 13.8097L18.8545 11.5762C19.6886 10.7421 20.1683 9.60711 20.1595 8.4143C20.1507 7.22149 19.6816 6.0796 18.8078 5.23287C17.9614 4.38638 16.8194 3.91717 15.6266 3.90841C14.4338 3.89964 13.2987 4.35209 12.4645 5.18625L10.231 7.4197M8.61261 15.3274L15.313 8.62701" stroke="black" stroke-width="1.8" stroke-linecap="round" stroke-linejoin="round"/>
</svg>
