<svg width="12" height="12" viewBox="0 0 12 12" fill="none" xmlns="http://www.w3.org/2000/svg">
    <path d="M3.6895 5.09342L2.57277 6.21015C2.1557 6.62721 1.91586 7.1947 1.92025 7.7911C1.92463 8.38751 2.15922 8.95845 2.59608 9.38182C3.01942 9.81869 3.59049 10.0533 4.1868 10.0577C4.79671 10.0621 5.35076 9.83581 5.76785 9.41873L6.88458 8.302M8.31099 6.90288L9.42771 5.78615C9.84478 5.36909 10.0846 4.8016 10.0802 4.2052C10.0759 3.60879 9.84126 3.03785 9.40441 2.61448C8.98116 2.19124 8.4102 1.95663 7.81379 1.95225C7.21738 1.94787 6.64983 2.17409 6.23273 2.59117L5.11601 3.7079M4.3068 7.66173L7.65698 4.31155" stroke="black" stroke-linecap="round" stroke-linejoin="round"/>
</svg>
