<svg width="12" height="12" viewBox="0 0 12 12" fill="none" xmlns="http://www.w3.org/2000/svg">
<path d="M5.40019 10.7999H2.40019C1.73745 10.7999 1.20019 10.2627 1.2002 9.59992L1.20024 2.39994C1.20025 1.73721 1.7375 1.19995 2.40024 1.19995H7.80037C8.46312 1.19995 9.00037 1.73721 9.00037 2.39995V4.79995M8.70019 8.67444V8.64286M3.30038 3.59995H6.90038M3.30038 5.39995H6.90038M3.30038 7.19995H5.10038M10.8002 8.69995C10.8002 8.69995 10.3021 10.1698 8.70019 10.1441C7.09827 10.1184 6.6002 8.69995 6.6002 8.69995C6.6002 8.69995 7.07808 7.20444 8.70019 7.20444C10.3223 7.20444 10.8002 8.69995 10.8002 8.69995Z" stroke="black" stroke-linecap="round" stroke-linejoin="round"/>
</svg>
