<svg width="20" height="20" viewBox="0 0 20 20" fill="none" xmlns="http://www.w3.org/2000/svg">
<path d="M9 18H3.99999C2.89542 18 1.99999 17.1045 2 15.9999L2.00008 3.99999C2.00008 2.89542 2.89551 2 4.00008 2H13.0003C14.1049 2 15.0003 2.89543 15.0003 4V8M14.5 14.4575V14.4048M5.50031 6H11.5003M5.50031 9H11.5003M5.50031 12H8.50031M18 14.5C18 14.5 17.1699 16.9497 14.5 16.9069C11.8301 16.8641 11 14.5 11 14.5C11 14.5 11.7965 12.0075 14.5 12.0075C17.2035 12.0075 18 14.5 18 14.5Z" stroke="black" stroke-width="1.5" stroke-linecap="round" stroke-linejoin="round"/>
</svg>
