<svg width="32" height="32" viewBox="0 0 32 32" fill="none" xmlns="http://www.w3.org/2000/svg">
<path d="M14.4002 28.7999H6.40018C4.63287 28.7999 3.20018 27.3672 3.2002 25.5999L3.20032 6.39993C3.20033 4.63263 4.63302 3.19995 6.40032 3.19995H20.8007C22.568 3.19995 24.0007 4.63264 24.0007 6.39995V12.8M23.2002 23.1319V23.0477M8.80069 9.59995H18.4007M8.80069 14.4H18.4007M8.80069 19.2H13.6007M28.8002 23.1999C28.8002 23.1999 27.472 27.1195 23.2002 27.051C18.9284 26.9826 17.6002 23.1999 17.6002 23.1999C17.6002 23.1999 18.8746 19.2119 23.2002 19.2119C27.5258 19.2119 28.8002 23.1999 28.8002 23.1999Z" stroke="black" stroke-width="2.4" stroke-linecap="round" stroke-linejoin="round"/>
</svg>
