<svg width="32" height="32" viewBox="0 0 32 32" fill="none" xmlns="http://www.w3.org/2000/svg">
    <path d="M29.0547 10.9468C28.2131 8.77428 26.8427 6.84615 25.0676 5.33717C23.2925 3.82819 21.1688 2.78606 18.8892 2.30526C16.6095 1.82446 14.2459 1.92019 12.0125 2.58376C9.77923 3.24734 7.74682 4.45778 6.09955 6.10537C4.45228 7.75295 3.24223 9.7856 2.57909 12.019C1.91595 14.2525 1.82068 16.6161 2.30192 18.8957C2.78315 21.1753 3.82569 23.2987 5.33501 25.0735C6.84434 26.8483 8.77273 28.2184 10.9454 29.0596" stroke="white" stroke-width="2.5" stroke-linecap="round"/>
    <path d="M6.99805 15.0039L12 20.0039L25.502 6.50195" stroke="white" stroke-width="2.5" stroke-linecap="round" stroke-linejoin="round"/>
    <path d="M31.2909 15.4042C31.3801 15.4028 31.4248 15.5103 31.3615 15.5732L15.5709 31.2787C15.5078 31.3414 15.4009 31.2966 15.4022 31.2076C15.465 27.039 17.1572 23.0545 20.1256 20.1021C23.094 17.1498 27.0999 15.4667 31.2909 15.4042Z" fill="#596989"/>
</svg>

