<svg width="24" height="24" viewBox="0 0 24 24" fill="none" xmlns="http://www.w3.org/2000/svg">
    <path d="M21.791 8.21107C21.1598 6.58169 20.132 5.13559 18.8007 4.00385C17.4693 2.87212 15.8766 2.09052 14.1669 1.72992C12.4571 1.36933 10.6844 1.44112 9.00941 1.9388C7.33442 2.43648 5.81012 3.34431 4.57466 4.58C3.33921 5.81569 2.43167 7.34017 1.93432 9.01526C1.43696 10.6903 1.36551 12.4631 1.72644 14.1728C2.08737 15.8824 2.86926 17.475 4.00126 18.8061C5.13325 20.1372 6.57955 21.1648 8.20905 21.7957" stroke="white" stroke-width="1.9" stroke-linecap="round"/>
    <path d="M5.24805 11.2539L8.99952 15.0039L19.126 4.87744" stroke="white" stroke-width="1.9" stroke-linecap="round" stroke-linejoin="round"/>
    <path d="M23.4687 11.5521C23.5356 11.5511 23.5691 11.6318 23.5216 11.679L11.6787 23.458C11.6314 23.5051 11.5511 23.4715 11.5521 23.4048C11.5992 20.2783 12.8684 17.2899 15.0947 15.0756C17.321 12.8614 20.3254 11.5991 23.4687 11.5521Z" fill="#596989"/>
</svg>

