<svg width="40" height="40" viewBox="0 0 40 40" fill="none" xmlns="http://www.w3.org/2000/svg">
    <path d="M36.3184 13.6835C35.2664 10.9679 33.5533 8.55769 31.3345 6.67146C29.1156 4.78523 26.461 3.48258 23.6114 2.88158C20.7619 2.28058 17.8073 2.40024 15.0157 3.22971C12.224 4.05917 9.68353 5.57222 7.62444 7.63171C5.56535 9.69119 4.05279 12.232 3.22386 15.0238C2.39493 17.8156 2.27585 20.7702 2.87739 23.6196C3.47894 26.4691 4.78211 29.1234 6.66876 31.3419C8.55542 33.5604 10.9659 35.273 13.6818 36.3245" stroke="white" stroke-width="3.125" stroke-linecap="round"/>
    <path d="M8.74756 18.7549L15 25.0049L31.8775 8.12744" stroke="white" stroke-width="3.125" stroke-linecap="round" stroke-linejoin="round"/>
    <path d="M39.1136 19.2552C39.2251 19.2535 39.281 19.3879 39.2019 19.4666L19.4636 39.0983C19.3848 39.1767 19.2511 39.1207 19.2528 39.0096C19.3312 33.7988 21.4465 28.8181 25.157 25.1276C28.8674 21.4372 33.8748 19.3334 39.1136 19.2552Z" fill="#596989"/>
</svg>
