<svg width="12" height="12" viewBox="0 0 12 12" fill="none" xmlns="http://www.w3.org/2000/svg">
<path d="M1.125 3.62382L6 1.125L10.875 3.62382L8.4375 4.87322M10.875 5.98737L8.4375 7.23678M10.875 8.25L8.4375 9.49941M6.44743 10.875L6.4474 10.3594C6.44746 9.66041 5.88534 9.09371 5.19191 9.09371H2.38049C1.68716 9.09371 1.12508 9.66025 1.125 10.3592V10.875M5.06775 6.14061C5.06775 6.83959 4.50565 7.40622 3.81226 7.40622C3.11887 7.40622 2.55677 6.83959 2.55677 6.14061C2.55677 5.44163 3.11887 4.875 3.81226 4.875C4.50565 4.875 5.06775 5.44163 5.06775 6.14061Z" stroke="black" stroke-linecap="round" stroke-linejoin="round"/>
</svg>
