<svg width="16" height="16" viewBox="0 0 16 16" fill="none" xmlns="http://www.w3.org/2000/svg">
<path d="M1.5 4.83175L8 1.5L14.5 4.83175L11.25 6.49763M14.5 7.98316L11.25 9.64904M14.5 11L11.25 12.6659M8.59657 14.5L8.59653 13.8126C8.59662 12.8805 7.84712 12.1249 6.92254 12.1249H3.17399C2.24954 12.1249 1.5001 12.8803 1.5 13.8122V14.5M6.757 8.18748C6.757 9.11945 6.00753 9.87497 5.08301 9.87497C4.15849 9.87497 3.40902 9.11945 3.40902 8.18748C3.40902 7.25551 4.15849 6.5 5.08301 6.5C6.00753 6.5 6.757 7.25551 6.757 8.18748Z" stroke="black" stroke-width="1.2" stroke-linecap="round" stroke-linejoin="round"/>
</svg>
