<svg width="24" height="24" viewBox="0 0 24 24" fill="none" xmlns="http://www.w3.org/2000/svg">
<path d="M2.25 7.24763L12 2.25L21.75 7.24763L16.875 9.74645M21.75 11.9747L16.875 14.4736M21.75 16.5L16.875 18.9988M12.8949 21.75L12.8948 20.7189C12.8949 19.3208 11.7707 18.1874 10.3838 18.1874H4.76098C3.37431 18.1874 2.25016 19.3205 2.25 20.7184V21.75M10.1355 12.2812C10.1355 13.6792 9.01129 14.8124 7.62452 14.8124C6.23774 14.8124 5.11353 13.6792 5.11353 12.2812C5.11353 10.8833 6.23774 9.75 7.62452 9.75C9.01129 9.75 10.1355 10.8833 10.1355 12.2812Z" stroke="black" stroke-width="1.8" stroke-linecap="round" stroke-linejoin="round"/>
</svg>
