<svg width="20" height="20" viewBox="0 0 20 20" fill="none" xmlns="http://www.w3.org/2000/svg">
<path d="M1.875 6.03969L10 1.875L18.125 6.03969L14.0625 8.12204M18.125 9.97895L14.0625 12.0613M18.125 13.75L14.0625 15.8323M10.7457 18.125L10.7457 17.2657C10.7458 16.1007 9.8089 15.1562 8.65318 15.1562H3.96748C2.81193 15.1562 1.87513 16.1004 1.875 17.2653V18.125M8.44625 10.2344C8.44625 11.3993 7.50941 12.3437 6.35376 12.3437C5.19812 12.3437 4.26128 11.3993 4.26128 10.2344C4.26128 9.06939 5.19812 8.125 6.35376 8.125C7.50941 8.125 8.44625 9.06939 8.44625 10.2344Z" stroke="black" stroke-width="1.5" stroke-linecap="round" stroke-linejoin="round"/>
</svg>
