<svg width="12" height="12" viewBox="0 0 41 32" xmlns="http://www.w3.org/2000/svg">
<g id="Group 12191">
<path id="Vector" d="M1.79841 31.057C0.346092 30.8181 0.0537431 30.5824 0.0521713 28.6334C0.0458842 20.4602 0.0390732 12.2869 0.0317383 4.11374C0.0317383 3.16281 0.515844 2.61269 1.44633 2.6237C4.86179 2.66299 8.28196 2.6237 11.6896 2.81703C13.1125 2.92088 14.5059 3.2747 15.806 3.86225C18.8647 5.20769 19.6852 7.85455 19.5421 10.7372C19.4038 13.5334 17.8132 15.3472 15.3659 16.504C15.226 16.5716 15.0814 16.6282 14.9431 16.6989C14.8991 16.7209 14.8724 16.7744 14.797 16.8561C16.8293 18.0695 17.5491 20.1662 18.3649 22.2001C19.3163 24.5756 20.2625 26.9521 21.2035 29.3297C21.7332 30.6719 21.675 30.76 20.2416 31.0728C19.1288 31.211 17.7927 31.211 16.6736 31.0728C15.4807 30.892 15.028 30.1706 14.6445 29.1363C13.8586 27.0349 12.9721 24.9743 12.1454 22.8885C11.0687 20.1772 9.40578 19.5485 6.16164 20.0311V20.8782C6.16164 23.7326 6.16164 26.5864 6.16164 29.4397C6.16164 30.5399 5.90073 30.8417 4.79578 31.057C3.88258 31.1325 2.70375 31.1325 1.79841 31.057ZM6.23709 7.94886V14.566C7.67369 14.566 9.05527 14.6242 10.429 14.5503C11.9112 14.4717 13.1953 12.9235 13.2582 11.2873C13.3211 9.51434 12.3466 8.12018 10.7308 7.97715C9.25646 7.84198 7.76642 7.94886 6.23709 7.94886Z" />
<path id="Vector_2" d="M38.5938 0.404201C39.3263 0.407344 39.9974 0.883591 39.1722 2.17244C37.415 4.9199 35.6624 7.67364 33.8863 10.4101C33.6239 10.8156 33.616 11.1017 33.8863 11.5198C35.7992 14.5407 37.6822 17.5821 39.573 20.6172C39.7211 20.8315 39.8505 21.0581 39.9597 21.2946C40.142 21.7441 40.0005 22.1481 39.5133 22.1654C38.2693 22.2243 37.0229 22.2117 35.7803 22.1276C35.466 22.1025 35.0903 21.6813 34.8828 21.3528C33.7339 19.5468 32.6305 17.7141 31.5083 15.8909C31.3511 15.6284 31.1719 15.3737 30.9408 15.017C30.6045 15.5294 30.3121 15.9773 30.0198 16.4315C28.9494 18.1023 27.8665 19.7668 26.8197 21.4518C26.4817 21.9972 26.0511 22.2691 25.4176 22.2597C24.5044 22.2471 23.5912 22.2817 22.6812 22.2408C21.6202 22.1921 21.4316 21.807 21.999 20.9111C23.9543 17.8241 25.9033 14.7325 27.8916 11.6675C28.2531 11.1095 28.283 10.7244 27.9105 10.1429C26.2035 7.4866 24.5547 4.79887 22.8808 2.10957C22.1248 0.896165 22.6497 0.407344 23.4042 0.407344C24.1587 0.407344 25.4569 0.40734 26.2224 0.407344C26.9879 0.407348 27.5537 1.15865 27.9765 1.88952C28.9195 3.52731 29.9475 5.12266 30.999 6.83117C32.1275 5.08179 33.2136 3.43457 34.2573 1.76221C34.6691 1.10207 35.095 0.514224 35.9312 0.407344C35.9312 0.407344 37.8613 0.401057 38.5938 0.404201Z" />
</g>
</svg>
