<svg width="12" height="12" viewBox="0 0 12 12" fill="none" xmlns="http://www.w3.org/2000/svg">
<g clip-path="url(#clip0_18564_56052)">
<path d="M8.66686 10.7999C8.10107 10.7999 7.55844 10.5752 7.15837 10.1751C6.75829 9.77503 6.53353 9.23241 6.53353 8.66662V2.26662C6.53353 1.98372 6.64591 1.71241 6.84595 1.51237C7.04599 1.31233 7.3173 1.19995 7.60019 1.19995H9.73353C10.0164 1.19995 10.2877 1.31233 10.4878 1.51237C10.6878 1.71241 10.8002 1.98372 10.8002 2.26662V8.66662C10.8002 9.23241 10.5754 9.77503 10.1754 10.1751C9.77528 10.5752 9.23266 10.7999 8.66686 10.7999ZM8.66686 10.7999H2.26686C1.98396 10.7999 1.71265 10.6876 1.51261 10.4875C1.31258 10.2875 1.2002 10.0162 1.2002 9.73328V7.59995C1.2002 7.31705 1.31258 7.04574 1.51261 6.8457C1.71265 6.64566 1.98396 6.53328 2.26686 6.53328H3.49353M6.53353 3.51995L5.46686 2.45328C5.26683 2.25332 4.99557 2.14098 4.71273 2.14098C4.42989 2.14098 4.15862 2.25332 3.95859 2.45328L2.45033 3.96155C2.25036 4.16158 2.13802 4.43284 2.13802 4.71568C2.13802 4.99853 2.25036 5.26979 2.45033 5.46982L7.25033 10.2698M8.66686 8.66662V8.67195" stroke="black" stroke-linecap="round" stroke-linejoin="round"/>
</g>
<defs>
<clipPath id="clip0_18564_56052">
<rect width="12" height="12" fill="white"/>
</clipPath>
</defs>
</svg>
