<svg width="32" height="32" viewBox="0 0 32 32" fill="none" xmlns="http://www.w3.org/2000/svg">
<path d="M23.1113 28.7999C21.6025 28.7999 20.1555 28.2006 19.0887 27.1337C18.0218 26.0668 17.4224 24.6198 17.4224 23.1111V6.0444C17.4224 5.29 17.7221 4.56651 18.2555 4.03307C18.789 3.49963 19.5125 3.19995 20.2669 3.19995H25.9557C26.7101 3.19995 27.4336 3.49963 27.9671 4.03307C28.5005 4.56651 28.8002 5.29 28.8002 6.0444V23.1111C28.8002 24.6198 28.2008 26.0668 27.134 27.1337C26.0671 28.2006 24.6201 28.7999 23.1113 28.7999ZM23.1113 28.7999H6.04464C5.29025 28.7999 4.56675 28.5003 4.03331 27.9668C3.49988 27.4334 3.2002 26.7099 3.2002 25.9555V20.2666C3.2002 19.5122 3.49988 18.7887 4.03331 18.2553C4.56675 17.7219 5.29025 17.4222 6.04464 17.4222H9.31575M17.4224 9.38662L14.578 6.54217C14.0446 6.00892 13.3212 5.70936 12.567 5.70936C11.8127 5.70936 11.0893 6.00892 10.5559 6.54217L6.53388 10.5642C6.00063 11.0976 5.70107 11.821 5.70107 12.5752C5.70107 13.3295 6.00063 14.0528 6.53388 14.5863L19.3339 27.3863M23.1113 23.1111V23.1253" stroke="black" stroke-width="2.4" stroke-linecap="round" stroke-linejoin="round"/>
</svg>
