<svg width="16" height="16" viewBox="0 0 16 16" fill="none" xmlns="http://www.w3.org/2000/svg">
<path d="M11.5557 14.4001C10.8013 14.4001 10.0778 14.1004 9.54433 13.567C9.01089 13.0335 8.71121 12.31 8.71121 11.5557V3.02232C8.71121 2.64512 8.86105 2.28338 9.12777 2.01666C9.39449 1.74994 9.75623 1.6001 10.1334 1.6001H12.9779C13.3551 1.6001 13.7168 1.74994 13.9835 2.01666C14.2503 2.28338 14.4001 2.64512 14.4001 3.02232V11.5557C14.4001 12.31 14.1004 13.0335 13.567 13.567C13.0335 14.1004 12.31 14.4001 11.5557 14.4001ZM11.5557 14.4001H3.02232C2.64512 14.4001 2.28338 14.2503 2.01666 13.9835C1.74994 13.7168 1.6001 13.3551 1.6001 12.9779V10.1334C1.6001 9.75623 1.74994 9.39449 2.01666 9.12777C2.28338 8.86105 2.64512 8.71121 3.02232 8.71121H4.65788M8.71121 4.69343L7.28899 3.27121C7.02228 3.00458 6.6606 2.8548 6.28348 2.8548C5.90635 2.8548 5.54467 3.00458 5.27796 3.27121L3.26694 5.28223C3.00032 5.54894 2.85053 5.91062 2.85053 6.28774C2.85053 6.66486 3.00032 7.02655 3.26694 7.29325L9.66694 13.6933M11.5557 11.5557V11.5628" stroke="black" stroke-width="1.2" stroke-linecap="round" stroke-linejoin="round"/>
</svg>
