<svg width="24" height="24" viewBox="0 0 24 24" fill="none" xmlns="http://www.w3.org/2000/svg" stroke="inherit">
<rect width="24" height="24" rx="12" fill="#E07E10"/>
<path d="M12.0092 9.86147C11.496 11.4084 10.9767 12.8398 10.4513 14.1558C10.1537 14.9013 9.85612 15.6356 9.55852 16.3588C9.14855 17.3551 8.17469 18 7.09737 18C6.44979 16.2338 5.87553 14.3694 5.37457 12.4069C4.88583 10.4444 4.42764 8.3088 4 6C5.08455 6 6.0146 6.77134 6.22647 7.83499C6.28399 8.12376 6.34214 8.41253 6.40092 8.7013C6.58419 9.60173 6.77358 10.4791 6.96907 11.3333C7.16457 12.176 7.36006 12.9841 7.55556 13.7576C7.75105 14.531 7.95265 15.2468 8.16037 15.9048C8.6491 14.6926 9.16839 13.3651 9.71821 11.9221C10.1806 10.6989 10.6171 9.443 11.0276 8.15447C11.1665 7.71849 11.5699 7.41991 12.0275 7.41991C12.4851 7.41991 12.8884 7.71852 13.0278 8.15434C13.44 9.44291 13.8824 10.6988 14.3551 11.9221C14.9171 13.3651 15.4425 14.6926 15.9313 15.9048C16.1268 15.2583 16.3223 14.5483 16.5178 13.7749C16.7133 13.0014 16.9026 12.1934 17.0859 11.3506C17.2814 10.4964 17.4708 9.61905 17.6541 8.71861C17.717 8.40551 17.7792 8.09309 17.8407 7.78135C18.0444 6.74859 18.9474 6 20 6C19.5601 8.3088 19.0897 10.4444 18.5888 12.4069C18.1 14.3694 17.538 16.2338 16.9026 18C15.8237 18 14.8455 17.3594 14.4338 16.3621C14.1348 15.6378 13.8398 14.9024 13.5487 14.1558C13.0355 12.8398 12.5223 11.4084 12.0092 9.86147Z" fill="#0F192E"/>
</svg>
