<svg width="128" height="128" viewBox="0 0 128 128" fill="none" xmlns="http://www.w3.org/2000/svg">
<rect width="128" height="128" rx="64" fill="#E07E10"/>
<path d="M64.05 51.65C61.25 60.5833 58.4167 68.85 55.55 76.45C53.5138 81.8484 51.4776 87.1458 49.4414 92.3423C47.9474 96.1549 44.2629 98.65 40.168 98.65H37.25C33.7167 88.45 30.5833 77.6833 27.85 66.35C25.1833 55.0167 22.6833 42.6833 20.35 29.35C26.2535 29.35 31.3028 33.5802 32.392 39.3823C32.7404 41.2382 33.0931 43.0941 33.45 44.95C34.45 50.15 35.4833 55.2167 36.55 60.15C37.6167 65.0167 38.6833 69.6833 39.75 74.15C40.8167 78.6167 41.9167 82.75 43.05 86.55C45.7167 79.55 48.55 71.8833 51.55 63.55C54.0971 56.4181 56.5 49.094 58.7588 41.5776C59.475 39.1943 61.6614 37.55 64.15 37.55C66.6386 37.55 68.8246 39.1944 69.5433 41.577C71.8107 49.0936 74.2462 56.4179 76.85 63.55C79.9167 71.8833 82.7833 79.55 85.45 86.55C86.5167 82.8167 87.5833 78.7167 88.65 74.25C89.7167 69.7833 90.75 65.1167 91.75 60.25C92.8167 55.3167 93.85 50.25 94.85 45.05C95.2282 43.0581 95.6017 41.071 95.9703 39.0887C97.018 33.4555 101.92 29.35 107.65 29.35C105.25 42.6833 102.683 55.0167 99.95 66.35C97.2833 77.6833 94.2167 88.45 90.75 98.65H87.774C83.7082 98.65 80.0408 96.1909 78.5444 92.4104C76.479 87.1921 74.4476 81.8719 72.45 76.45C69.65 68.85 66.85 60.5833 64.05 51.65Z" fill="#0F192E"/>
</svg>
