<svg width="48" height="48" viewBox="0 0 48 48" fill="none" xmlns="http://www.w3.org/2000/svg" stroke="inherit">
<rect width="48" height="48" rx="24" fill="#E07E10"/>
<path d="M24.0172 20.0794C23.055 22.9153 22.0813 25.5397 21.0962 27.9524C20.5464 29.2991 19.9965 30.626 19.4467 31.9331C18.6623 33.7978 16.8305 35 14.8076 35C13.5934 31.7619 12.5166 28.3439 11.5773 24.746C10.6609 21.1481 9.80183 17.2328 9 13C11.0355 13 12.7829 14.4432 13.1896 16.4377C13.2926 16.9426 13.3966 17.4475 13.5017 17.9524C13.8454 19.6032 14.2005 21.2116 14.567 22.7778C14.9336 24.3228 15.3001 25.8042 15.6667 27.2222C16.0332 28.6402 16.4112 29.9524 16.8007 31.1587C17.7171 28.9365 18.6907 26.5026 19.7216 23.8571C20.5852 21.6234 21.4006 19.3302 22.1677 16.9776C22.434 16.1609 23.1925 15.6032 24.0515 15.6032C24.9106 15.6032 25.6689 16.1609 25.9362 16.9773C26.7065 19.33 27.533 21.6233 28.4158 23.8571C29.4696 26.5026 30.4548 28.9365 31.3711 31.1587C31.7377 29.9735 32.1042 28.672 32.4708 27.254C32.8373 25.836 33.1924 24.3545 33.5361 22.8095C33.9026 21.2434 34.2577 19.6349 34.6014 17.9841C34.7144 17.434 34.8263 16.885 34.9369 16.3372C35.3278 14.4006 37.0244 13 39 13C38.1753 17.2328 37.2932 21.1481 36.354 24.746C35.4376 28.3439 34.3837 31.7619 33.1924 35C31.1665 35 29.3264 33.806 28.539 31.9393C27.9868 30.6301 27.4417 29.3012 26.9038 27.9524C25.9416 25.5397 24.9794 22.9153 24.0172 20.0794Z" fill="#0F192E"/>
</svg>
