<svg width="64" height="64" viewBox="0 0 64 64" fill="none" xmlns="http://www.w3.org/2000/svg">
<rect width="64" height="64" rx="32" fill="#E07E10"/>
<path d="M32.0218 26.6537C30.803 30.5209 29.5697 34.0996 28.3219 37.3896C27.592 39.3141 26.8621 41.2089 26.1322 43.0741C25.2029 45.449 22.9065 47 20.3562 47C18.8183 42.5844 17.4544 37.9235 16.2646 33.0173C15.1039 28.1111 14.0157 22.772 13 17C15.5702 17 17.7692 18.8404 18.246 21.366C18.3963 22.1618 18.5483 22.9575 18.7022 23.7532C19.1375 26.0043 19.5872 28.1977 20.0515 30.3333C20.5158 32.4401 20.9801 34.4603 21.4444 36.3939C21.9087 38.3276 22.3876 40.1169 22.8809 41.7619C24.0416 38.7316 25.2749 35.4127 26.5808 31.8052C27.6885 28.7206 28.7335 25.5529 29.716 22.3021C30.0294 21.2649 30.9817 20.5498 32.0653 20.5498C33.1489 20.5498 34.101 21.2649 34.4156 22.3019C35.4017 25.5527 36.461 28.7205 37.5934 31.8052C38.9282 35.4127 40.176 38.7316 41.3368 41.7619C41.8011 40.1457 42.2654 38.3709 42.7297 36.4372C43.194 34.5036 43.6438 32.4834 44.079 30.3766C44.5433 28.241 44.9931 26.0476 45.4284 23.7965C45.5916 22.9418 45.7528 22.089 45.9119 21.2383C46.3705 18.7862 48.5054 17 51 17C49.9553 22.772 48.8381 28.1111 47.6483 33.0173C46.4876 37.9235 45.1527 42.5844 43.6438 47C41.0898 47 38.7834 45.4585 37.8495 43.0814C37.1158 41.2139 36.392 39.3166 35.6781 37.3896C34.4593 34.0996 33.2406 30.5209 32.0218 26.6537Z" fill="#0F192E"/>
</svg>
