<svg width="12" height="12" viewBox="0 0 12 12" fill="none" xmlns="http://www.w3.org/2000/svg">
<path d="M4.5333 10.085C4.80944 10.085 5.0333 9.86111 5.0333 9.58497C5.0333 9.30883 4.80944 9.08497 4.5333 9.08497V10.085ZM2.13359 7.98504L1.63359 7.98506L2.13359 7.98504ZM2.6333 1.19993C2.63329 0.923787 2.40942 0.699939 2.13328 0.699951C1.85714 0.699963 1.63329 0.92383 1.6333 1.19997L2.6333 1.19993ZM4.5333 4.15839C4.80944 4.15839 5.0333 3.93453 5.0333 3.65839C5.0333 3.38224 4.80944 3.15839 4.5333 3.15839V4.15839ZM9.33331 4.93328L9.33331 4.43328L9.33331 4.93328ZM6.9333 4.93327L6.9333 5.43327H6.9333L6.9333 4.93327ZM9.86672 1.19995L10.3667 1.19996C10.3667 1.06735 10.314 0.940172 10.2203 0.846402C10.1265 0.752631 9.99933 0.699951 9.86672 0.699951V1.19995ZM9.86665 4.39996L10.3666 4.39998V4.39997L9.86665 4.39996ZM6.39997 4.39994L5.89997 4.39993V4.39993L6.39997 4.39994ZM6.39998 2.26662L6.0678 1.89292C5.96106 1.9878 5.89999 2.1238 5.89998 2.26661L6.39998 2.26662ZM7.59997 1.19995V0.699951C7.47751 0.699951 7.35931 0.744891 7.26778 0.826249L7.59997 1.19995ZM9.33331 10.7999L9.33331 10.2999L9.33331 10.7999ZM6.9333 10.7999L6.9333 11.2999L6.9333 10.7999ZM9.86672 7.06662L10.3667 7.06663C10.3667 6.93402 10.314 6.80684 10.2203 6.71307C10.1265 6.6193 9.99933 6.56662 9.86672 6.56662V7.06662ZM9.86665 10.2666L10.3666 10.2666V10.2666L9.86665 10.2666ZM6.39997 10.2666L5.89997 10.2666V10.2666L6.39997 10.2666ZM6.39998 8.13328L6.0678 7.75958C5.96106 7.85446 5.89999 7.99046 5.89998 8.13328L6.39998 8.13328ZM7.59997 7.06662V6.56662C7.47751 6.56662 7.35931 6.61156 7.26778 6.69291L7.59997 7.06662ZM4.5333 9.08497H3.73359V10.085H4.5333V9.08497ZM2.63359 7.98502L2.63341 3.65836L1.63341 3.65841L1.63359 7.98506L2.63359 7.98502ZM2.63341 3.65836L2.6333 1.19993L1.6333 1.19997L1.63341 3.65841L2.63341 3.65836ZM4.5333 3.15839H2.13341V4.15839H4.5333V3.15839ZM3.73359 9.08497C3.1261 9.08497 2.63362 8.59251 2.63359 7.98502L1.63359 7.98506C1.63364 9.14482 2.57383 10.085 3.73359 10.085V9.08497ZM9.33331 4.43328L6.9333 4.43327L6.9333 5.43327L9.33331 5.43328L9.33331 4.43328ZM9.36672 1.19994L9.36665 4.39995L10.3666 4.39997L10.3667 1.19996L9.36672 1.19994ZM9.33331 5.43328C9.90399 5.43329 10.3666 4.97066 10.3666 4.39998L9.36665 4.39995C9.36665 4.41836 9.35172 4.43328 9.33331 4.43328L9.33331 5.43328ZM5.89997 4.39993C5.89996 4.97063 6.3626 5.43327 6.9333 5.43327L6.9333 4.43327C6.91489 4.43327 6.89997 4.41835 6.89997 4.39994L5.89997 4.39993ZM6.89997 4.39994L6.89998 2.26662L5.89998 2.26661L5.89997 4.39993L6.89997 4.39994ZM7.59997 1.69995H9.86672V0.699951H7.59997V1.69995ZM7.26778 0.826249L6.0678 1.89292L6.73217 2.64032L7.93215 1.57365L7.26778 0.826249ZM9.33331 10.2999L6.9333 10.2999L6.9333 11.2999L9.33331 11.2999L9.33331 10.2999ZM9.36672 7.06661L9.36665 10.2666L10.3666 10.2666L10.3667 7.06663L9.36672 7.06661ZM9.33331 11.2999C9.90399 11.3 10.3666 10.8373 10.3666 10.2666L9.36665 10.2666C9.36665 10.285 9.35172 10.2999 9.33331 10.2999L9.33331 11.2999ZM5.89997 10.2666C5.89996 10.8373 6.3626 11.2999 6.9333 11.2999L6.9333 10.2999C6.91489 10.2999 6.89997 10.285 6.89997 10.2666L5.89997 10.2666ZM6.89997 10.2666L6.89998 8.13329L5.89998 8.13328L5.89997 10.2666L6.89997 10.2666ZM7.59997 7.56662H9.86672V6.56662H7.59997V7.56662ZM7.26778 6.69291L6.0678 7.75958L6.73217 8.50699L7.93215 7.44032L7.26778 6.69291Z" fill="#0B1324"/>
</svg>
