<svg width="16" height="16" viewBox="0 0 16 16" fill="none" xmlns="http://www.w3.org/2000/svg">
<path d="M6.04424 13.3801C6.37561 13.3801 6.64424 13.1115 6.64424 12.7801C6.64424 12.4488 6.37561 12.1801 6.04424 12.1801V13.3801ZM2.84463 10.6469L2.24463 10.6469L2.84463 10.6469ZM3.44424 1.60007C3.44422 1.2687 3.17558 1.00008 2.84421 1.0001C2.51284 1.00011 2.24422 1.26875 2.24424 1.60012L3.44424 1.60007ZM6.04424 5.47801C6.37561 5.47801 6.64424 5.20938 6.64424 4.87801C6.64424 4.54664 6.37561 4.27801 6.04424 4.27801V5.47801ZM12.4443 6.57787L12.4443 5.97787L12.4443 6.57787ZM9.24424 6.57786L9.24423 7.17786L9.24424 6.57786ZM13.1555 1.6001L13.7555 1.60011C13.7555 1.44098 13.6923 1.28836 13.5797 1.17584C13.4672 1.06331 13.3146 1.0001 13.1555 1.0001V1.6001ZM13.1554 5.86678L13.7554 5.8668V5.86679L13.1554 5.86678ZM8.53313 5.86675L7.93313 5.86674V5.86674L8.53313 5.86675ZM8.53315 3.02232L8.13453 2.57388C8.00644 2.68774 7.93315 2.85094 7.93315 3.02232L8.53315 3.02232ZM10.1331 1.6001V1.0001C9.98618 1.0001 9.84434 1.05403 9.73451 1.15165L10.1331 1.6001ZM12.4443 14.4001L12.4443 13.8001L12.4443 14.4001ZM9.24424 14.4001L9.24423 15.0001L9.24424 14.4001ZM13.1555 9.42232L13.7555 9.42233C13.7555 9.2632 13.6923 9.11058 13.5797 8.99806C13.4672 8.88553 13.3146 8.82232 13.1555 8.82232V9.42232ZM13.1554 13.689L13.7554 13.689V13.689L13.1554 13.689ZM8.53313 13.689L7.93313 13.689V13.689L8.53313 13.689ZM8.53315 10.8445L8.13453 10.3961C8.00644 10.51 7.93315 10.6732 7.93315 10.8445L8.53315 10.8445ZM10.1331 9.42232V8.82232C9.98618 8.82232 9.84434 8.87625 9.73451 8.97388L10.1331 9.42232ZM6.04424 12.1801H4.97796V13.3801H6.04424V12.1801ZM3.44463 10.6469L3.44438 4.87798L2.24438 4.87804L2.24463 10.6469L3.44463 10.6469ZM3.44438 4.87798L3.44424 1.60007L2.24424 1.60012L2.24438 4.87804L3.44438 4.87798ZM6.04424 4.27801H2.84438V5.47801H6.04424V4.27801ZM4.97796 12.1801C4.13115 12.1801 3.44466 11.4937 3.44463 10.6469L2.24463 10.6469C2.24469 12.1564 3.46843 13.3801 4.97796 13.3801V12.1801ZM12.4443 5.97787L9.24424 5.97786L9.24423 7.17786L12.4442 7.17787L12.4443 5.97787ZM12.5555 1.60008L12.5554 5.86677L13.7554 5.86679L13.7555 1.60011L12.5555 1.60008ZM12.4442 7.17787C13.1683 7.17788 13.7553 6.59089 13.7554 5.8668L12.5554 5.86677C12.5554 5.92813 12.5056 5.97787 12.4443 5.97787L12.4442 7.17787ZM7.93313 5.86674C7.93312 6.59085 8.52013 7.17786 9.24423 7.17786L9.24424 5.97786C9.18287 5.97786 9.13313 5.92811 9.13313 5.86675L7.93313 5.86674ZM9.13313 5.86675L9.13315 3.02233L7.93315 3.02232L7.93313 5.86674L9.13313 5.86675ZM10.1331 2.2001H13.1555V1.0001H10.1331V2.2001ZM9.73451 1.15165L8.13453 2.57388L8.93177 3.47076L10.5318 2.04854L9.73451 1.15165ZM12.4443 13.8001L9.24424 13.8001L9.24423 15.0001L12.4442 15.0001L12.4443 13.8001ZM12.5555 9.42231L12.5554 13.689L13.7554 13.689L13.7555 9.42233L12.5555 9.42231ZM12.4442 15.0001C13.1683 15.0001 13.7553 14.4131 13.7554 13.689L12.5554 13.689C12.5554 13.7504 12.5056 13.8001 12.4443 13.8001L12.4442 15.0001ZM7.93313 13.689C7.93312 14.4131 8.52013 15.0001 9.24423 15.0001L9.24424 13.8001C9.18287 13.8001 9.13313 13.7503 9.13313 13.689L7.93313 13.689ZM9.13313 13.689L9.13315 10.8445L7.93315 10.8445L7.93313 13.689L9.13313 13.689ZM10.1331 10.0223H13.1555V8.82232H10.1331V10.0223ZM9.73451 8.97388L8.13453 10.3961L8.93177 11.293L10.5318 9.87076L9.73451 8.97388Z" fill="#0B1324"/>
</svg>
