<svg width="24" height="24" viewBox="0 0 24 24" fill="none" xmlns="http://www.w3.org/2000/svg">
<path d="M9.0666 20.0699C9.56366 20.0699 9.9666 19.667 9.9666 19.1699C9.9666 18.6729 9.56366 18.2699 9.0666 18.2699V20.0699ZM4.26718 15.9701L3.36718 15.9701L4.26718 15.9701ZM5.1666 2.39986C5.16658 1.90281 4.76362 1.49988 4.26656 1.4999C3.76951 1.49992 3.36658 1.90288 3.3666 2.39994L5.1666 2.39986ZM9.0666 8.21677C9.56366 8.21677 9.9666 7.81383 9.9666 7.31677C9.9666 6.81972 9.56366 6.41677 9.0666 6.41677V8.21677ZM18.6666 9.86657L18.6666 8.96657H18.6666L18.6666 9.86657ZM13.8666 9.86655L13.8666 10.7665L13.8666 9.86655ZM19.7334 2.3999L20.6334 2.39992C20.6334 2.16122 20.5386 1.9323 20.3698 1.76351C20.2011 1.59473 19.9721 1.4999 19.7334 1.4999V2.3999ZM19.7333 8.79993L20.6333 8.79995V8.79995L19.7333 8.79993ZM12.7999 8.79987L11.8999 8.79987V8.79987L12.7999 8.79987ZM12.8 4.53324L12.202 3.86057C12.0099 4.03136 11.9 4.27616 11.9 4.53323L12.8 4.53324ZM15.1999 2.3999V1.4999C14.9795 1.4999 14.7668 1.58079 14.602 1.72724L15.1999 2.3999ZM18.6666 21.5999L18.6666 20.6999L18.6666 21.5999ZM13.8666 21.5999L13.8666 22.4999L13.8666 21.5999ZM19.7334 14.1332L20.6334 14.1333C20.6334 13.8946 20.5386 13.6656 20.3698 13.4968C20.2011 13.3281 19.9721 13.2332 19.7334 13.2332V14.1332ZM19.7333 20.5333L20.6333 20.5333V20.5333L19.7333 20.5333ZM12.7999 20.5332L11.8999 20.5332V20.5332L12.7999 20.5332ZM12.8 16.2666L12.202 15.5939C12.0099 15.7647 11.9 16.0095 11.9 16.2666L12.8 16.2666ZM15.1999 14.1332V13.2332C14.9795 13.2332 14.7668 13.3141 14.602 13.4606L15.1999 14.1332ZM9.0666 18.2699H7.46718V20.0699H9.0666V18.2699ZM5.16718 15.97L5.16681 7.31673L3.36681 7.31681L3.36718 15.9701L5.16718 15.97ZM5.16681 7.31673L5.1666 2.39986L3.3666 2.39994L3.36681 7.31681L5.16681 7.31673ZM9.0666 6.41677H4.26681V8.21677H9.0666V6.41677ZM7.46718 18.2699C6.19697 18.2699 5.16724 17.2403 5.16718 15.97L3.36718 15.9701C3.36728 18.2344 5.20288 20.0699 7.46718 20.0699V18.2699ZM18.6666 8.96657L13.8666 8.96655L13.8666 10.7665L18.6666 10.7666L18.6666 8.96657ZM18.8334 2.39988L18.8333 8.79991L20.6333 8.79995L20.6334 2.39992L18.8334 2.39988ZM18.6666 10.7666C19.7528 10.7666 20.6333 9.88609 20.6333 8.79995L18.8333 8.7999C18.8333 8.89195 18.7587 8.96657 18.6666 8.96657L18.6666 10.7666ZM11.8999 8.79987C11.8999 9.88603 12.7804 10.7665 13.8666 10.7665L13.8666 8.96655C13.7746 8.96655 13.6999 8.89193 13.6999 8.79988L11.8999 8.79987ZM13.6999 8.79988L13.7 4.53324L11.9 4.53323L11.8999 8.79987L13.6999 8.79988ZM15.1999 3.2999H19.7334V1.4999H15.1999V3.2999ZM14.602 1.72724L12.202 3.86057L13.3979 5.2059L15.7979 3.07257L14.602 1.72724ZM18.6666 20.6999L13.8666 20.6999L13.8666 22.4999L18.6666 22.4999L18.6666 20.6999ZM18.8334 14.1332L18.8333 20.5332L20.6333 20.5333L20.6334 14.1333L18.8334 14.1332ZM18.6666 22.4999C19.7528 22.4999 20.6333 21.6194 20.6333 20.5333L18.8333 20.5332C18.8333 20.6253 18.7587 20.6999 18.6666 20.6999L18.6666 22.4999ZM11.8999 20.5332C11.8999 21.6194 12.7804 22.4999 13.8666 22.4999L13.8666 20.6999C13.7746 20.6999 13.6999 20.6253 13.6999 20.5332L11.8999 20.5332ZM13.6999 20.5332L13.7 16.2666L11.9 16.2666L11.8999 20.5332L13.6999 20.5332ZM15.1999 15.0332H19.7334V13.2332H15.1999V15.0332ZM14.602 13.4606L12.202 15.5939L13.3979 16.9392L15.7979 14.8059L14.602 13.4606Z" fill="#0B1324"/>
</svg>
