<svg width="32" height="32" viewBox="0 0 32 32" fill="none" xmlns="http://www.w3.org/2000/svg">
<path d="M12.089 26.76C12.7517 26.76 13.289 26.2227 13.289 25.56C13.289 24.8973 12.7517 24.36 12.089 24.36V26.76ZM5.68974 21.2935L4.48974 21.2936L5.68974 21.2935ZM6.88896 3.1999C6.88894 2.53716 6.35166 1.99992 5.68891 1.99995C5.02617 1.99998 4.48894 2.53726 4.48896 3.2L6.88896 3.1999ZM12.089 10.9558C12.7517 10.9558 13.289 10.4185 13.289 9.75578C13.289 9.09304 12.7517 8.55578 12.089 8.55578V10.9558ZM24.889 13.1555L24.889 11.9555L24.889 13.1555ZM18.489 13.1555L18.489 14.3555L18.489 13.1555ZM26.3114 3.19995L27.5114 3.19998C27.5114 2.88171 27.385 2.57648 27.1599 2.35143C26.9349 2.12638 26.6297 1.99995 26.3114 1.99995V3.19995ZM26.3112 11.7333L27.5112 11.7333V11.7333L26.3112 11.7333ZM17.0667 11.7332L15.8667 11.7332V11.7332L17.0667 11.7332ZM17.0668 6.0444L16.2695 5.14751C16.0134 5.37523 15.8668 5.70163 15.8668 6.04439L17.0668 6.0444ZM20.2667 3.19995V1.99995C19.9728 1.99995 19.6892 2.10781 19.4695 2.30307L20.2667 3.19995ZM24.889 28.7999L24.889 27.5999L24.889 28.7999ZM18.489 28.7999L18.489 29.9999L18.489 28.7999ZM26.3114 18.8444L27.5114 18.8444C27.5114 18.5262 27.385 18.2209 27.1599 17.9959C26.9349 17.7708 26.6297 17.6444 26.3114 17.6444V18.8444ZM26.3112 27.3778L27.5112 27.3778V27.3778L26.3112 27.3778ZM17.0667 27.3777L15.8667 27.3777V27.3777L17.0667 27.3777ZM17.0668 21.6888L16.2695 20.792C16.0134 21.0197 15.8668 21.3461 15.8668 21.6888L17.0668 21.6888ZM20.2667 18.8444V17.6444C19.9728 17.6444 19.6892 17.7522 19.4695 17.9475L20.2667 18.8444ZM12.089 24.36H9.95641V26.76H12.089V24.36ZM6.88974 21.2935L6.88925 9.75573L4.48925 9.75583L4.48974 21.2936L6.88974 21.2935ZM6.88925 9.75573L6.88896 3.1999L4.48896 3.2L4.48925 9.75583L6.88925 9.75573ZM12.089 8.55578H5.68925V10.9558H12.089V8.55578ZM9.95641 24.36C8.26278 24.36 6.88981 22.9871 6.88974 21.2935L4.48974 21.2936C4.48987 24.3126 6.93734 26.76 9.95641 26.76V24.36ZM24.889 11.9555L18.489 11.9555L18.489 14.3555L24.889 14.3555L24.889 11.9555ZM25.1114 3.19992L25.1112 11.7333L27.5112 11.7333L27.5114 3.19998L25.1114 3.19992ZM24.889 14.3555C26.3372 14.3555 27.5112 13.1815 27.5112 11.7333L25.1112 11.7333C25.1112 11.856 25.0117 11.9555 24.889 11.9555L24.889 14.3555ZM15.8667 11.7332C15.8667 13.1815 17.0407 14.3555 18.489 14.3555L18.489 11.9555C18.3662 11.9555 18.2667 11.856 18.2667 11.7333L15.8667 11.7332ZM18.2667 11.7333L18.2668 6.04441L15.8668 6.04439L15.8667 11.7332L18.2667 11.7333ZM20.2667 4.39995H26.3114V1.99995H20.2667V4.39995ZM19.4695 2.30307L16.2695 5.14751L17.864 6.94128L21.064 4.09684L19.4695 2.30307ZM24.889 27.5999L18.489 27.5999L18.489 29.9999L24.889 29.9999L24.889 27.5999ZM25.1114 18.8444L25.1112 27.3777L27.5112 27.3778L27.5114 18.8444L25.1114 18.8444ZM24.889 29.9999C26.3372 30 27.5112 28.826 27.5112 27.3778L25.1112 27.3777C25.1112 27.5005 25.0117 27.5999 24.889 27.5999L24.889 29.9999ZM15.8667 27.3777C15.8667 28.8259 17.0407 29.9999 18.489 29.9999L18.489 27.5999C18.3662 27.5999 18.2667 27.5004 18.2667 27.3777L15.8667 27.3777ZM18.2667 27.3777L18.2668 21.6888L15.8668 21.6888L15.8667 27.3777L18.2667 27.3777ZM20.2667 20.0444H26.3114V17.6444H20.2667V20.0444ZM19.4695 17.9475L16.2695 20.792L17.864 22.5857L21.064 19.7413L19.4695 17.9475Z" fill="#0B1324"/>
</svg>
