<svg width="32" height="32" viewBox="0 0 32 32" fill="none" xmlns="http://www.w3.org/2000/svg">
    <path d="M3.20068 19.2007H8.74354C9.29089 19.2007 9.81433 19.425 10.1918 19.8214L11.1429 20.82C11.5204 21.2164 12.0438 21.4407 12.5912 21.4407H19.4102C19.9576 21.4407 20.481 21.2164 20.8585 20.82L21.8095 19.8214C22.187 19.425 22.7105 19.2007 23.2578 19.2007H28.8007M6.40068 28.8007C4.63337 28.8007 3.20068 27.368 3.20068 25.6007V6.40068C3.20068 4.63337 4.63337 3.20068 6.40068 3.20068H25.6007C27.368 3.20068 28.8007 4.63337 28.8007 6.40068V25.6007C28.8007 27.368 27.368 28.8007 25.6007 28.8007H6.40068Z" stroke="black" stroke-width="2.4" stroke-linecap="round" stroke-linejoin="round"/>
</svg>
