<svg width="24" height="24" viewBox="0 0 24 24" fill="none" xmlns="http://www.w3.org/2000/svg">
    <path d="M2.40039 14.4004H6.34325C6.8906 14.4004 7.41404 14.6247 7.79152 15.0211L8.20926 15.4597C8.58674 15.8561 9.11018 16.0804 9.65753 16.0804H14.3432C14.8906 16.0804 15.414 15.8561 15.7915 15.4597L16.2093 15.0211C16.5867 14.6247 17.1102 14.4004 17.6575 14.4004H21.6004M4.80039 21.6004C3.47491 21.6004 2.40039 20.5259 2.40039 19.2004V4.80039C2.40039 3.47491 3.47491 2.40039 4.80039 2.40039H19.2004C20.5259 2.40039 21.6004 3.47491 21.6004 4.80039V19.2004C21.6004 20.5259 20.5259 21.6004 19.2004 21.6004H4.80039Z" stroke="black" stroke-width="1.8" stroke-linecap="round" stroke-linejoin="round"/>
</svg>
