<svg width="16" height="16" viewBox="0 0 16 16" fill="none" xmlns="http://www.w3.org/2000/svg">
    <path d="M14.4006 12.9754C14.4006 13.7609 13.7726 14.3977 12.9978 14.3977L3.00332 14.3977C2.22861 14.3977 1.60059 13.7609 1.60059 12.9754L1.60059 10.8421C1.60059 10.0566 2.22861 9.41988 3.00333 9.41988L12.9978 9.41988C13.7726 9.41988 14.4006 10.0566 14.4006 10.8421V12.9754Z" stroke="black" stroke-width="1.2" stroke-linecap="round" stroke-linejoin="round"/>
    <path d="M14.4006 3.01988C14.4006 2.23441 13.7726 1.59766 12.9978 1.59766L3.00333 1.59766C2.22861 1.59766 1.60059 2.23441 1.60059 3.01988L1.60059 5.15321C1.60059 5.93868 2.22861 6.57543 3.00333 6.57543H12.9978C13.7726 6.57543 14.4006 5.93868 14.4006 5.15321V3.01988Z" stroke="black" stroke-width="1.2" stroke-linecap="round" stroke-linejoin="round"/>
</svg>
