<svg width="20" height="20" viewBox="0 0 20 20" fill="none" xmlns="http://www.w3.org/2000/svg">
    <path d="M18 16.2222C18 17.2041 17.215 18 16.2466 18L3.75342 18C2.78503 18 2 17.2041 2 16.2222L2 13.5556C2 12.5737 2.78504 11.7778 3.75342 11.7778L16.2466 11.7778C17.215 11.7778 18 12.5737 18 13.5556V16.2222Z" stroke="black" stroke-width="1.5" stroke-linecap="round" stroke-linejoin="round"/>
    <path d="M18 3.77778C18 2.79594 17.215 2 16.2466 2L3.75342 2C2.78503 2 2 2.79594 2 3.77778L2 6.44444C2 7.42628 2.78504 8.22222 3.75342 8.22222H16.2466C17.215 8.22222 18 7.42628 18 6.44444V3.77778Z" stroke="black" stroke-width="1.5" stroke-linecap="round" stroke-linejoin="round"/>
</svg>
