<svg width="24" height="24" viewBox="0 0 24 24" fill="none" xmlns="http://www.w3.org/2000/svg">
    <path d="M21.5999 19.4666C21.5999 20.6448 20.6579 21.5999 19.4958 21.5999L4.50401 21.5999C3.34194 21.5999 2.3999 20.6448 2.3999 19.4666L2.3999 16.2666C2.3999 15.0884 3.34194 14.1332 4.50401 14.1332L19.4958 14.1332C20.6579 14.1332 21.5999 15.0884 21.5999 16.2666V19.4666Z" stroke="black" stroke-width="1.8" stroke-linecap="round" stroke-linejoin="round"/>
    <path d="M21.5999 4.53324C21.5999 3.35503 20.6579 2.3999 19.4958 2.3999L4.50401 2.3999C3.34194 2.3999 2.3999 3.35503 2.3999 4.53324L2.3999 7.73323C2.3999 8.91144 3.34194 9.86657 4.50401 9.86657H19.4958C20.6579 9.86657 21.5999 8.91144 21.5999 7.73323V4.53324Z" stroke="black" stroke-width="1.8" stroke-linecap="round" stroke-linejoin="round"/>
</svg>
